<?xml version="1.0" encoding="utf-8" standalone="no"?>
<!DOCTYPE svg PUBLIC "-//W3C//DTD SVG 1.1//EN"
  "http://www.w3.org/Graphics/SVG/1.1/DTD/svg11.dtd">
<!-- Created with matplotlib (http://matplotlib.org/) -->
<svg height="288pt" version="1.1" viewBox="0 0 360 288" width="360pt" xmlns="http://www.w3.org/2000/svg" xmlns:xlink="http://www.w3.org/1999/xlink">
 <defs>
  <style type="text/css">
*{stroke-linecap:butt;stroke-linejoin:round;}
  </style>
 </defs>
 <g id="figure_1">
  <g id="patch_1">
   <path d="M 0 288 
L 360 288 
L 360 0 
L 0 0 
z
" style="fill:#ffffff;"/>
  </g>
  <g id="axes_1">
   <g id="patch_2">
    <path d="M 53.75 240.28 
L 343.71 240.28 
L 343.71 15.84 
L 53.75 15.84 
z
" style="fill:#ffffff;"/>
   </g>
   <g id="PathCollection_1">
    <defs>
     <path d="M 0 3 
C 0.795609 3 1.55874 2.683901 2.12132 2.12132 
C 2.683901 1.55874 3 0.795609 3 0 
C 3 -0.795609 2.683901 -1.55874 2.12132 -2.12132 
C 1.55874 -2.683901 0.795609 -3 0 -3 
C -0.795609 -3 -1.55874 -2.683901 -2.12132 -2.12132 
C -2.683901 -1.55874 -3 -0.795609 -3 0 
C -3 0.795609 -2.683901 1.55874 -2.12132 2.12132 
C -1.55874 2.683901 -0.795609 3 0 3 
z
" id="mefe6d82323" style="stroke:#1f77b4;"/>
    </defs>
    <g clip-path="url(#pb39ccc4616)">
     <use style="fill:#1f77b4;stroke:#1f77b4;" x="76.21514" xlink:href="#mefe6d82323" y="221.855821"/>
     <use style="fill:#1f77b4;stroke:#1f77b4;" x="77.920931" xlink:href="#mefe6d82323" y="233.198155"/>
     <use style="fill:#1f77b4;stroke:#1f77b4;" x="76.90015" xlink:href="#mefe6d82323" y="142.0875"/>
     <use style="fill:#1f77b4;stroke:#1f77b4;" x="77.405114" xlink:href="#mefe6d82323" y="159.598954"/>
     <use style="fill:#1f77b4;stroke:#1f77b4;" x="78.138713" xlink:href="#mefe6d82323" y="137.411667"/>
     <use style="fill:#1f77b4;stroke:#1f77b4;" x="78.412145" xlink:href="#mefe6d82323" y="131.013158"/>
     <use style="fill:#1f77b4;stroke:#1f77b4;" x="77.29375" xlink:href="#mefe6d82323" y="138.121103"/>
     <use style="fill:#1f77b4;stroke:#1f77b4;" x="76.55976" xlink:href="#mefe6d82323" y="192.124291"/>
     <use style="fill:#1f77b4;stroke:#1f77b4;" x="77.842551" xlink:href="#mefe6d82323" y="179.664818"/>
     <use style="fill:#1f77b4;stroke:#1f77b4;" x="77.506339" xlink:href="#mefe6d82323" y="205.32623"/>
     <use style="fill:#1f77b4;stroke:#1f77b4;" x="76.352864" xlink:href="#mefe6d82323" y="123.903704"/>
     <use style="fill:#1f77b4;stroke:#1f77b4;" x="77.866221" xlink:href="#mefe6d82323" y="153.956923"/>
     <use style="fill:#1f77b4;stroke:#1f77b4;" x="78.538894" xlink:href="#mefe6d82323" y="154.688475"/>
     <use style="fill:#1f77b4;stroke:#1f77b4;" x="78.830925" xlink:href="#mefe6d82323" y="149.988046"/>
     <use style="fill:#1f77b4;stroke:#1f77b4;" x="77.343972" xlink:href="#mefe6d82323" y="180.663125"/>
     <use style="fill:#1f77b4;stroke:#1f77b4;" x="78.885735" xlink:href="#mefe6d82323" y="149.367595"/>
     <use style="fill:#1f77b4;stroke:#1f77b4;" x="78.652227" xlink:href="#mefe6d82323" y="174.619362"/>
     <use style="fill:#1f77b4;stroke:#1f77b4;" x="78.41272" xlink:href="#mefe6d82323" y="121.647429"/>
     <use style="fill:#1f77b4;stroke:#1f77b4;" x="77.042865" xlink:href="#mefe6d82323" y="165.466667"/>
     <use style="fill:#1f77b4;stroke:#1f77b4;" x="79.885626" xlink:href="#mefe6d82323" y="167.093043"/>
     <use style="fill:#1f77b4;stroke:#1f77b4;" x="77.514062" xlink:href="#mefe6d82323" y="180.869412"/>
     <use style="fill:#1f77b4;stroke:#1f77b4;" x="126.794519" xlink:href="#mefe6d82323" y="218.73376"/>
     <use style="fill:#1f77b4;stroke:#1f77b4;" x="125.726274" xlink:href="#mefe6d82323" y="95.054118"/>
     <use style="fill:#1f77b4;stroke:#1f77b4;" x="128.476542" xlink:href="#mefe6d82323" y="128.06"/>
     <use style="fill:#1f77b4;stroke:#1f77b4;" x="126.252736" xlink:href="#mefe6d82323" y="152.455652"/>
     <use style="fill:#1f77b4;stroke:#1f77b4;" x="126.926443" xlink:href="#mefe6d82323" y="152.107143"/>
     <use style="fill:#1f77b4;stroke:#1f77b4;" x="126.926323" xlink:href="#mefe6d82323" y="156.916571"/>
     <use style="fill:#1f77b4;stroke:#1f77b4;" x="126.925605" xlink:href="#mefe6d82323" y="106.04555"/>
     <use style="fill:#1f77b4;stroke:#1f77b4;" x="126.279609" xlink:href="#mefe6d82323" y="102.465965"/>
     <use style="fill:#1f77b4;stroke:#1f77b4;" x="126.501792" xlink:href="#mefe6d82323" y="161.846667"/>
     <use style="fill:#1f77b4;stroke:#1f77b4;" x="126.345133" xlink:href="#mefe6d82323" y="202.873333"/>
     <use style="fill:#1f77b4;stroke:#1f77b4;" x="126.414662" xlink:href="#mefe6d82323" y="116.288671"/>
     <use style="fill:#1f77b4;stroke:#1f77b4;" x="125.023488" xlink:href="#mefe6d82323" y="148.141474"/>
     <use style="fill:#1f77b4;stroke:#1f77b4;" x="125.307265" xlink:href="#mefe6d82323" y="173.84576"/>
     <use style="fill:#1f77b4;stroke:#1f77b4;" x="126.43777" xlink:href="#mefe6d82323" y="150.504"/>
     <use style="fill:#1f77b4;stroke:#1f77b4;" x="127.116638" xlink:href="#mefe6d82323" y="181.410492"/>
     <use style="fill:#1f77b4;stroke:#1f77b4;" x="126.989841" xlink:href="#mefe6d82323" y="203.284396"/>
     <use style="fill:#1f77b4;stroke:#1f77b4;" x="128.515482" xlink:href="#mefe6d82323" y="157.591579"/>
     <use style="fill:#1f77b4;stroke:#1f77b4;" x="125.194233" xlink:href="#mefe6d82323" y="125.106842"/>
     <use style="fill:#1f77b4;stroke:#1f77b4;" x="126.280556" xlink:href="#mefe6d82323" y="161.422703"/>
     <use style="fill:#1f77b4;stroke:#1f77b4;" x="125.275402" xlink:href="#mefe6d82323" y="162.213913"/>
     <use style="fill:#1f77b4;stroke:#1f77b4;" x="127.905732" xlink:href="#mefe6d82323" y="199.472727"/>
     <use style="fill:#1f77b4;stroke:#1f77b4;" x="174.74777" xlink:href="#mefe6d82323" y="223.75681"/>
     <use style="fill:#1f77b4;stroke:#1f77b4;" x="174.973558" xlink:href="#mefe6d82323" y="95.054118"/>
     <use style="fill:#1f77b4;stroke:#1f77b4;" x="175.155922" xlink:href="#mefe6d82323" y="128.06"/>
     <use style="fill:#1f77b4;stroke:#1f77b4;" x="173.688612" xlink:href="#mefe6d82323" y="152.866526"/>
     <use style="fill:#1f77b4;stroke:#1f77b4;" x="175.789961" xlink:href="#mefe6d82323" y="160.431154"/>
     <use style="fill:#1f77b4;stroke:#1f77b4;" x="174.376302" xlink:href="#mefe6d82323" y="128.06"/>
     <use style="fill:#1f77b4;stroke:#1f77b4;" x="175.356346" xlink:href="#mefe6d82323" y="106.479231"/>
     <use style="fill:#1f77b4;stroke:#1f77b4;" x="175.64268" xlink:href="#mefe6d82323" y="100.335059"/>
     <use style="fill:#1f77b4;stroke:#1f77b4;" x="175.860892" xlink:href="#mefe6d82323" y="165.06227"/>
     <use style="fill:#1f77b4;stroke:#1f77b4;" x="175.379472" xlink:href="#mefe6d82323" y="204.08"/>
     <use style="fill:#1f77b4;stroke:#1f77b4;" x="176.391022" xlink:href="#mefe6d82323" y="111.557059"/>
     <use style="fill:#1f77b4;stroke:#1f77b4;" x="172.078012" xlink:href="#mefe6d82323" y="161.356044"/>
     <use style="fill:#1f77b4;stroke:#1f77b4;" x="173.836363" xlink:href="#mefe6d82323" y="174.389358"/>
     <use style="fill:#1f77b4;stroke:#1f77b4;" x="174.876428" xlink:href="#mefe6d82323" y="154.779048"/>
     <use style="fill:#1f77b4;stroke:#1f77b4;" x="174.301682" xlink:href="#mefe6d82323" y="187.676875"/>
     <use style="fill:#1f77b4;stroke:#1f77b4;" x="174.155159" xlink:href="#mefe6d82323" y="198.032471"/>
     <use style="fill:#1f77b4;stroke:#1f77b4;" x="174.79711" xlink:href="#mefe6d82323" y="138.49907"/>
     <use style="fill:#1f77b4;stroke:#1f77b4;" x="174.668963" xlink:href="#mefe6d82323" y="118.441143"/>
     <use style="fill:#1f77b4;stroke:#1f77b4;" x="174.125713" xlink:href="#mefe6d82323" y="154.464706"/>
     <use style="fill:#1f77b4;stroke:#1f77b4;" x="173.308441" xlink:href="#mefe6d82323" y="152.997778"/>
     <use style="fill:#1f77b4;stroke:#1f77b4;" x="173.861438" xlink:href="#mefe6d82323" y="217.836"/>
     <use style="fill:#1f77b4;stroke:#1f77b4;" x="223.495435" xlink:href="#mefe6d82323" y="218.904762"/>
     <use style="fill:#1f77b4;stroke:#1f77b4;" x="220.944933" xlink:href="#mefe6d82323" y="90.653333"/>
     <use style="fill:#1f77b4;stroke:#1f77b4;" x="221.422408" xlink:href="#mefe6d82323" y="161.726"/>
     <use style="fill:#1f77b4;stroke:#1f77b4;" x="222.787603" xlink:href="#mefe6d82323" y="174.818333"/>
     <use style="fill:#1f77b4;stroke:#1f77b4;" x="222.128384" xlink:href="#mefe6d82323" y="163.329143"/>
     <use style="fill:#1f77b4;stroke:#1f77b4;" x="221.805078" xlink:href="#mefe6d82323" y="145.446197"/>
     <use style="fill:#1f77b4;stroke:#1f77b4;" x="224.528118" xlink:href="#mefe6d82323" y="110.883469"/>
     <use style="fill:#1f77b4;stroke:#1f77b4;" x="223.73867" xlink:href="#mefe6d82323" y="103.042803"/>
     <use style="fill:#1f77b4;stroke:#1f77b4;" x="224.033076" xlink:href="#mefe6d82323" y="169.844043"/>
     <use style="fill:#1f77b4;stroke:#1f77b4;" x="222.000691" xlink:href="#mefe6d82323" y="202.558992"/>
     <use style="fill:#1f77b4;stroke:#1f77b4;" x="222.384589" xlink:href="#mefe6d82323" y="111.271181"/>
     <use style="fill:#1f77b4;stroke:#1f77b4;" x="222.271031" xlink:href="#mefe6d82323" y="160.431154"/>
     <use style="fill:#1f77b4;stroke:#1f77b4;" x="224.825795" xlink:href="#mefe6d82323" y="166.055748"/>
     <use style="fill:#1f77b4;stroke:#1f77b4;" x="223.508513" xlink:href="#mefe6d82323" y="150.504"/>
     <use style="fill:#1f77b4;stroke:#1f77b4;" x="222.569494" xlink:href="#mefe6d82323" y="214.095333"/>
     <use style="fill:#1f77b4;stroke:#1f77b4;" x="222.614121" xlink:href="#mefe6d82323" y="204.258765"/>
     <use style="fill:#1f77b4;stroke:#1f77b4;" x="223.150714" xlink:href="#mefe6d82323" y="195.599815"/>
     <use style="fill:#1f77b4;stroke:#1f77b4;" x="223.463612" xlink:href="#mefe6d82323" y="158.665455"/>
     <use style="fill:#1f77b4;stroke:#1f77b4;" x="222.517068" xlink:href="#mefe6d82323" y="151.864242"/>
     <use style="fill:#1f77b4;stroke:#1f77b4;" x="223.662846" xlink:href="#mefe6d82323" y="128.06"/>
     <use style="fill:#1f77b4;stroke:#1f77b4;" x="222.44313" xlink:href="#mefe6d82323" y="219.876364"/>
     <use style="fill:#1f77b4;stroke:#1f77b4;" x="271.811872" xlink:href="#mefe6d82323" y="209.47451"/>
     <use style="fill:#1f77b4;stroke:#1f77b4;" x="271.806811" xlink:href="#mefe6d82323" y="119.427692"/>
     <use style="fill:#1f77b4;stroke:#1f77b4;" x="273.599032" xlink:href="#mefe6d82323" y="216.232857"/>
     <use style="fill:#1f77b4;stroke:#1f77b4;" x="270.178117" xlink:href="#mefe6d82323" y="188.845833"/>
     <use style="fill:#1f77b4;stroke:#1f77b4;" x="270.418028" xlink:href="#mefe6d82323" y="195.392"/>
     <use style="fill:#1f77b4;stroke:#1f77b4;" x="271.402148" xlink:href="#mefe6d82323" y="184.17"/>
     <use style="fill:#1f77b4;stroke:#1f77b4;" x="271.549544" xlink:href="#mefe6d82323" y="123.5712"/>
     <use style="fill:#1f77b4;stroke:#1f77b4;" x="272.109693" xlink:href="#mefe6d82323" y="175.599885"/>
     <use style="fill:#1f77b4;stroke:#1f77b4;" x="272.445273" xlink:href="#mefe6d82323" y="166.802619"/>
     <use style="fill:#1f77b4;stroke:#1f77b4;" x="271.303018" xlink:href="#mefe6d82323" y="226.538776"/>
     <use style="fill:#1f77b4;stroke:#1f77b4;" x="270.453675" xlink:href="#mefe6d82323" y="132.93913"/>
     <use style="fill:#1f77b4;stroke:#1f77b4;" x="270.581699" xlink:href="#mefe6d82323" y="191.821364"/>
     <use style="fill:#1f77b4;stroke:#1f77b4;" x="271.148455" xlink:href="#mefe6d82323" y="207.594563"/>
     <use style="fill:#1f77b4;stroke:#1f77b4;" x="270.829655" xlink:href="#mefe6d82323" y="194.857619"/>
     <use style="fill:#1f77b4;stroke:#1f77b4;" x="268.938445" xlink:href="#mefe6d82323" y="228.467368"/>
     <use style="fill:#1f77b4;stroke:#1f77b4;" x="272.501069" xlink:href="#mefe6d82323" y="209.47451"/>
     <use style="fill:#1f77b4;stroke:#1f77b4;" x="271.962268" xlink:href="#mefe6d82323" y="191.087671"/>
     <use style="fill:#1f77b4;stroke:#1f77b4;" x="270.437062" xlink:href="#mefe6d82323" y="171.037872"/>
     <use style="fill:#1f77b4;stroke:#1f77b4;" x="271.785583" xlink:href="#mefe6d82323" y="142.0875"/>
     <use style="fill:#1f77b4;stroke:#1f77b4;" x="270.324251" xlink:href="#mefe6d82323" y="190.404444"/>
     <use style="fill:#1f77b4;stroke:#1f77b4;" x="272.253226" xlink:href="#mefe6d82323" y="171.221538"/>
     <use style="fill:#1f77b4;stroke:#1f77b4;" x="319.128699" xlink:href="#mefe6d82323" y="239.888535"/>
     <use style="fill:#1f77b4;stroke:#1f77b4;" x="318.824649" xlink:href="#mefe6d82323" y="188.486154"/>
     <use style="fill:#1f77b4;stroke:#1f77b4;" x="320.07169" xlink:href="#mefe6d82323" y="239.15297"/>
     <use style="fill:#1f77b4;stroke:#1f77b4;" x="320.157299" xlink:href="#mefe6d82323" y="187.186667"/>
     <use style="fill:#1f77b4;stroke:#1f77b4;" x="319.692665" xlink:href="#mefe6d82323" y="226.142047"/>
     <use style="fill:#1f77b4;stroke:#1f77b4;" x="320.295395" xlink:href="#mefe6d82323" y="237.714971"/>
     <use style="fill:#1f77b4;stroke:#1f77b4;" x="318.506044" xlink:href="#mefe6d82323" y="160.122857"/>
     <use style="fill:#1f77b4;stroke:#1f77b4;" x="320.460851" xlink:href="#mefe6d82323" y="169.867451"/>
     <use style="fill:#1f77b4;stroke:#1f77b4;" x="318.935213" xlink:href="#mefe6d82323" y="170.1425"/>
     <use style="fill:#1f77b4;stroke:#1f77b4;" x="319.659662" xlink:href="#mefe6d82323" y="238.162642"/>
     <use style="fill:#1f77b4;stroke:#1f77b4;" x="320.841554" xlink:href="#mefe6d82323" y="220.043607"/>
     <use style="fill:#1f77b4;stroke:#1f77b4;" x="318.292205" xlink:href="#mefe6d82323" y="237.171082"/>
     <use style="fill:#1f77b4;stroke:#1f77b4;" x="319.727062" xlink:href="#mefe6d82323" y="223.742316"/>
     <use style="fill:#1f77b4;stroke:#1f77b4;" x="319.333602" xlink:href="#mefe6d82323" y="226.946931"/>
     <use style="fill:#1f77b4;stroke:#1f77b4;" x="318.156239" xlink:href="#mefe6d82323" y="237.697855"/>
     <use style="fill:#1f77b4;stroke:#1f77b4;" x="317.727636" xlink:href="#mefe6d82323" y="215.342222"/>
     <use style="fill:#1f77b4;stroke:#1f77b4;" x="319.265499" xlink:href="#mefe6d82323" y="200.755975"/>
     <use style="fill:#1f77b4;stroke:#1f77b4;" x="320.229436" xlink:href="#mefe6d82323" y="192.921101"/>
     <use style="fill:#1f77b4;stroke:#1f77b4;" x="319.435725" xlink:href="#mefe6d82323" y="229.058"/>
     <use style="fill:#1f77b4;stroke:#1f77b4;" x="318.255276" xlink:href="#mefe6d82323" y="239.890798"/>
     <use style="fill:#1f77b4;stroke:#1f77b4;" x="318.967225" xlink:href="#mefe6d82323" y="239.773935"/>
    </g>
   </g>
   <g id="matplotlib.axis_1">
    <g id="xtick_1">
     <g id="line2d_1">
      <path clip-path="url(#pb39ccc4616)" d="M 77.913333 240.28 
L 77.913333 15.84 
" style="fill:none;stroke:#b0b0b0;stroke-linecap:square;stroke-width:0.8;"/>
     </g>
     <g id="line2d_2">
      <defs>
       <path d="M 0 0 
L 0 3.5 
" id="m78053d7d01" style="stroke:#000000;stroke-width:0.8;"/>
      </defs>
      <g>
       <use style="stroke:#000000;stroke-width:0.8;" x="77.913333" xlink:href="#m78053d7d01" y="240.28"/>
      </g>
     </g>
     <g id="text_1">
      <!-- data -->
      <defs>
       <path d="M 45.40625 46.390625 
L 45.40625 75.984375 
L 54.390625 75.984375 
L 54.390625 0 
L 45.40625 0 
L 45.40625 8.203125 
Q 42.578125 3.328125 38.25 0.953125 
Q 33.9375 -1.421875 27.875 -1.421875 
Q 17.96875 -1.421875 11.734375 6.484375 
Q 5.515625 14.40625 5.515625 27.296875 
Q 5.515625 40.1875 11.734375 48.09375 
Q 17.96875 56 27.875 56 
Q 33.9375 56 38.25 53.625 
Q 42.578125 51.265625 45.40625 46.390625 
z
M 14.796875 27.296875 
Q 14.796875 17.390625 18.875 11.75 
Q 22.953125 6.109375 30.078125 6.109375 
Q 37.203125 6.109375 41.296875 11.75 
Q 45.40625 17.390625 45.40625 27.296875 
Q 45.40625 37.203125 41.296875 42.84375 
Q 37.203125 48.484375 30.078125 48.484375 
Q 22.953125 48.484375 18.875 42.84375 
Q 14.796875 37.203125 14.796875 27.296875 
z
" id="DejaVuSans-64"/>
       <path d="M 34.28125 27.484375 
Q 23.390625 27.484375 19.1875 25 
Q 14.984375 22.515625 14.984375 16.5 
Q 14.984375 11.71875 18.140625 8.90625 
Q 21.296875 6.109375 26.703125 6.109375 
Q 34.1875 6.109375 38.703125 11.40625 
Q 43.21875 16.703125 43.21875 25.484375 
L 43.21875 27.484375 
z
M 52.203125 31.203125 
L 52.203125 0 
L 43.21875 0 
L 43.21875 8.296875 
Q 40.140625 3.328125 35.546875 0.953125 
Q 30.953125 -1.421875 24.3125 -1.421875 
Q 15.921875 -1.421875 10.953125 3.296875 
Q 6 8.015625 6 15.921875 
Q 6 25.140625 12.171875 29.828125 
Q 18.359375 34.515625 30.609375 34.515625 
L 43.21875 34.515625 
L 43.21875 35.40625 
Q 43.21875 41.609375 39.140625 45 
Q 35.0625 48.390625 27.6875 48.390625 
Q 23 48.390625 18.546875 47.265625 
Q 14.109375 46.140625 10.015625 43.890625 
L 10.015625 52.203125 
Q 14.9375 54.109375 19.578125 55.046875 
Q 24.21875 56 28.609375 56 
Q 40.484375 56 46.34375 49.84375 
Q 52.203125 43.703125 52.203125 31.203125 
z
" id="DejaVuSans-61"/>
       <path d="M 18.3125 70.21875 
L 18.3125 54.6875 
L 36.8125 54.6875 
L 36.8125 47.703125 
L 18.3125 47.703125 
L 18.3125 18.015625 
Q 18.3125 11.328125 20.140625 9.421875 
Q 21.96875 7.515625 27.59375 7.515625 
L 36.8125 7.515625 
L 36.8125 0 
L 27.59375 0 
Q 17.1875 0 13.234375 3.875 
Q 9.28125 7.765625 9.28125 18.015625 
L 9.28125 47.703125 
L 2.6875 47.703125 
L 2.6875 54.6875 
L 9.28125 54.6875 
L 9.28125 70.21875 
z
" id="DejaVuSans-74"/>
      </defs>
      <g transform="translate(64.398333 256.398125)scale(0.12 -0.12)">
       <use xlink:href="#DejaVuSans-64"/>
       <use x="63.476562" xlink:href="#DejaVuSans-61"/>
       <use x="124.755859" xlink:href="#DejaVuSans-74"/>
       <use x="163.964844" xlink:href="#DejaVuSans-61"/>
      </g>
     </g>
    </g>
    <g id="xtick_2">
     <g id="line2d_3">
      <path clip-path="url(#pb39ccc4616)" d="M 126.24 240.28 
L 126.24 15.84 
" style="fill:none;stroke:#b0b0b0;stroke-linecap:square;stroke-width:0.8;"/>
     </g>
     <g id="line2d_4">
      <g>
       <use style="stroke:#000000;stroke-width:0.8;" x="126.24" xlink:href="#m78053d7d01" y="240.28"/>
      </g>
     </g>
     <g id="text_2">
      <!-- x0.01 -->
      <defs>
       <path d="M 54.890625 54.6875 
L 35.109375 28.078125 
L 55.90625 0 
L 45.3125 0 
L 29.390625 21.484375 
L 13.484375 0 
L 2.875 0 
L 24.125 28.609375 
L 4.6875 54.6875 
L 15.28125 54.6875 
L 29.78125 35.203125 
L 44.28125 54.6875 
z
" id="DejaVuSans-78"/>
       <path d="M 31.78125 66.40625 
Q 24.171875 66.40625 20.328125 58.90625 
Q 16.5 51.421875 16.5 36.375 
Q 16.5 21.390625 20.328125 13.890625 
Q 24.171875 6.390625 31.78125 6.390625 
Q 39.453125 6.390625 43.28125 13.890625 
Q 47.125 21.390625 47.125 36.375 
Q 47.125 51.421875 43.28125 58.90625 
Q 39.453125 66.40625 31.78125 66.40625 
z
M 31.78125 74.21875 
Q 44.046875 74.21875 50.515625 64.515625 
Q 56.984375 54.828125 56.984375 36.375 
Q 56.984375 17.96875 50.515625 8.265625 
Q 44.046875 -1.421875 31.78125 -1.421875 
Q 19.53125 -1.421875 13.0625 8.265625 
Q 6.59375 17.96875 6.59375 36.375 
Q 6.59375 54.828125 13.0625 64.515625 
Q 19.53125 74.21875 31.78125 74.21875 
z
" id="DejaVuSans-30"/>
       <path d="M 10.6875 12.40625 
L 21 12.40625 
L 21 0 
L 10.6875 0 
z
" id="DejaVuSans-2e"/>
       <path d="M 12.40625 8.296875 
L 28.515625 8.296875 
L 28.515625 63.921875 
L 10.984375 60.40625 
L 10.984375 69.390625 
L 28.421875 72.90625 
L 38.28125 72.90625 
L 38.28125 8.296875 
L 54.390625 8.296875 
L 54.390625 0 
L 12.40625 0 
z
" id="DejaVuSans-31"/>
      </defs>
      <g transform="translate(109.329375 256.398125)scale(0.12 -0.12)">
       <use xlink:href="#DejaVuSans-78"/>
       <use x="59.179688" xlink:href="#DejaVuSans-30"/>
       <use x="122.802734" xlink:href="#DejaVuSans-2e"/>
       <use x="154.589844" xlink:href="#DejaVuSans-30"/>
       <use x="218.212891" xlink:href="#DejaVuSans-31"/>
      </g>
     </g>
    </g>
    <g id="xtick_3">
     <g id="line2d_5">
      <path clip-path="url(#pb39ccc4616)" d="M 174.566667 240.28 
L 174.566667 15.84 
" style="fill:none;stroke:#b0b0b0;stroke-linecap:square;stroke-width:0.8;"/>
     </g>
     <g id="line2d_6">
      <g>
       <use style="stroke:#000000;stroke-width:0.8;" x="174.566667" xlink:href="#m78053d7d01" y="240.28"/>
      </g>
     </g>
     <g id="text_3">
      <!-- x0.1 -->
      <g transform="translate(161.473542 256.398125)scale(0.12 -0.12)">
       <use xlink:href="#DejaVuSans-78"/>
       <use x="59.179688" xlink:href="#DejaVuSans-30"/>
       <use x="122.802734" xlink:href="#DejaVuSans-2e"/>
       <use x="154.589844" xlink:href="#DejaVuSans-31"/>
      </g>
     </g>
    </g>
    <g id="xtick_4">
     <g id="line2d_7">
      <path clip-path="url(#pb39ccc4616)" d="M 222.893333 240.28 
L 222.893333 15.84 
" style="fill:none;stroke:#b0b0b0;stroke-linecap:square;stroke-width:0.8;"/>
     </g>
     <g id="line2d_8">
      <g>
       <use style="stroke:#000000;stroke-width:0.8;" x="222.893333" xlink:href="#m78053d7d01" y="240.28"/>
      </g>
     </g>
     <g id="text_4">
      <!-- exp. value -->
      <defs>
       <path d="M 56.203125 29.59375 
L 56.203125 25.203125 
L 14.890625 25.203125 
Q 15.484375 15.921875 20.484375 11.0625 
Q 25.484375 6.203125 34.421875 6.203125 
Q 39.59375 6.203125 44.453125 7.46875 
Q 49.3125 8.734375 54.109375 11.28125 
L 54.109375 2.78125 
Q 49.265625 0.734375 44.1875 -0.34375 
Q 39.109375 -1.421875 33.890625 -1.421875 
Q 20.796875 -1.421875 13.15625 6.1875 
Q 5.515625 13.8125 5.515625 26.8125 
Q 5.515625 40.234375 12.765625 48.109375 
Q 20.015625 56 32.328125 56 
Q 43.359375 56 49.78125 48.890625 
Q 56.203125 41.796875 56.203125 29.59375 
z
M 47.21875 32.234375 
Q 47.125 39.59375 43.09375 43.984375 
Q 39.0625 48.390625 32.421875 48.390625 
Q 24.90625 48.390625 20.390625 44.140625 
Q 15.875 39.890625 15.1875 32.171875 
z
" id="DejaVuSans-65"/>
       <path d="M 18.109375 8.203125 
L 18.109375 -20.796875 
L 9.078125 -20.796875 
L 9.078125 54.6875 
L 18.109375 54.6875 
L 18.109375 46.390625 
Q 20.953125 51.265625 25.265625 53.625 
Q 29.59375 56 35.59375 56 
Q 45.5625 56 51.78125 48.09375 
Q 58.015625 40.1875 58.015625 27.296875 
Q 58.015625 14.40625 51.78125 6.484375 
Q 45.5625 -1.421875 35.59375 -1.421875 
Q 29.59375 -1.421875 25.265625 0.953125 
Q 20.953125 3.328125 18.109375 8.203125 
z
M 48.6875 27.296875 
Q 48.6875 37.203125 44.609375 42.84375 
Q 40.53125 48.484375 33.40625 48.484375 
Q 26.265625 48.484375 22.1875 42.84375 
Q 18.109375 37.203125 18.109375 27.296875 
Q 18.109375 17.390625 22.1875 11.75 
Q 26.265625 6.109375 33.40625 6.109375 
Q 40.53125 6.109375 44.609375 11.75 
Q 48.6875 17.390625 48.6875 27.296875 
z
" id="DejaVuSans-70"/>
       <path id="DejaVuSans-20"/>
       <path d="M 2.984375 54.6875 
L 12.5 54.6875 
L 29.59375 8.796875 
L 46.6875 54.6875 
L 56.203125 54.6875 
L 35.6875 0 
L 23.484375 0 
z
" id="DejaVuSans-76"/>
       <path d="M 9.421875 75.984375 
L 18.40625 75.984375 
L 18.40625 0 
L 9.421875 0 
z
" id="DejaVuSans-6c"/>
       <path d="M 8.5 21.578125 
L 8.5 54.6875 
L 17.484375 54.6875 
L 17.484375 21.921875 
Q 17.484375 14.15625 20.5 10.265625 
Q 23.53125 6.390625 29.59375 6.390625 
Q 36.859375 6.390625 41.078125 11.03125 
Q 45.3125 15.671875 45.3125 23.6875 
L 45.3125 54.6875 
L 54.296875 54.6875 
L 54.296875 0 
L 45.3125 0 
L 45.3125 8.40625 
Q 42.046875 3.421875 37.71875 1 
Q 33.40625 -1.421875 27.6875 -1.421875 
Q 18.265625 -1.421875 13.375 4.4375 
Q 8.5 10.296875 8.5 21.578125 
z
M 31.109375 56 
z
" id="DejaVuSans-75"/>
      </defs>
      <g transform="translate(191.638958 256.398125)scale(0.12 -0.12)">
       <use xlink:href="#DejaVuSans-65"/>
       <use x="61.507812" xlink:href="#DejaVuSans-78"/>
       <use x="120.6875" xlink:href="#DejaVuSans-70"/>
       <use x="184.164062" xlink:href="#DejaVuSans-2e"/>
       <use x="215.951172" xlink:href="#DejaVuSans-20"/>
       <use x="247.738281" xlink:href="#DejaVuSans-76"/>
       <use x="306.917969" xlink:href="#DejaVuSans-61"/>
       <use x="368.197266" xlink:href="#DejaVuSans-6c"/>
       <use x="395.980469" xlink:href="#DejaVuSans-75"/>
       <use x="459.359375" xlink:href="#DejaVuSans-65"/>
      </g>
     </g>
    </g>
    <g id="xtick_5">
     <g id="line2d_9">
      <path clip-path="url(#pb39ccc4616)" d="M 271.22 240.28 
L 271.22 15.84 
" style="fill:none;stroke:#b0b0b0;stroke-linecap:square;stroke-width:0.8;"/>
     </g>
     <g id="line2d_10">
      <g>
       <use style="stroke:#000000;stroke-width:0.8;" x="271.22" xlink:href="#m78053d7d01" y="240.28"/>
      </g>
     </g>
     <g id="text_5">
      <!-- x10 -->
      <g transform="translate(260.03375 256.398125)scale(0.12 -0.12)">
       <use xlink:href="#DejaVuSans-78"/>
       <use x="59.179688" xlink:href="#DejaVuSans-31"/>
       <use x="122.802734" xlink:href="#DejaVuSans-30"/>
      </g>
     </g>
    </g>
    <g id="xtick_6">
     <g id="line2d_11">
      <path clip-path="url(#pb39ccc4616)" d="M 319.546667 240.28 
L 319.546667 15.84 
" style="fill:none;stroke:#b0b0b0;stroke-linecap:square;stroke-width:0.8;"/>
     </g>
     <g id="line2d_12">
      <g>
       <use style="stroke:#000000;stroke-width:0.8;" x="319.546667" xlink:href="#m78053d7d01" y="240.28"/>
      </g>
     </g>
     <g id="text_6">
      <!-- x100 -->
      <g transform="translate(304.542917 256.398125)scale(0.12 -0.12)">
       <use xlink:href="#DejaVuSans-78"/>
       <use x="59.179688" xlink:href="#DejaVuSans-31"/>
       <use x="122.802734" xlink:href="#DejaVuSans-30"/>
       <use x="186.425781" xlink:href="#DejaVuSans-30"/>
      </g>
     </g>
    </g>
    <g id="text_7">
     <!-- Immobile endogeneous buffer concentration (M) -->
     <defs>
      <path d="M 9.8125 72.90625 
L 19.671875 72.90625 
L 19.671875 0 
L 9.8125 0 
z
" id="DejaVuSans-49"/>
      <path d="M 52 44.1875 
Q 55.375 50.25 60.0625 53.125 
Q 64.75 56 71.09375 56 
Q 79.640625 56 84.28125 50.015625 
Q 88.921875 44.046875 88.921875 33.015625 
L 88.921875 0 
L 79.890625 0 
L 79.890625 32.71875 
Q 79.890625 40.578125 77.09375 44.375 
Q 74.3125 48.1875 68.609375 48.1875 
Q 61.625 48.1875 57.5625 43.546875 
Q 53.515625 38.921875 53.515625 30.90625 
L 53.515625 0 
L 44.484375 0 
L 44.484375 32.71875 
Q 44.484375 40.625 41.703125 44.40625 
Q 38.921875 48.1875 33.109375 48.1875 
Q 26.21875 48.1875 22.15625 43.53125 
Q 18.109375 38.875 18.109375 30.90625 
L 18.109375 0 
L 9.078125 0 
L 9.078125 54.6875 
L 18.109375 54.6875 
L 18.109375 46.1875 
Q 21.1875 51.21875 25.484375 53.609375 
Q 29.78125 56 35.6875 56 
Q 41.65625 56 45.828125 52.96875 
Q 50 49.953125 52 44.1875 
z
" id="DejaVuSans-6d"/>
      <path d="M 30.609375 48.390625 
Q 23.390625 48.390625 19.1875 42.75 
Q 14.984375 37.109375 14.984375 27.296875 
Q 14.984375 17.484375 19.15625 11.84375 
Q 23.34375 6.203125 30.609375 6.203125 
Q 37.796875 6.203125 41.984375 11.859375 
Q 46.1875 17.53125 46.1875 27.296875 
Q 46.1875 37.015625 41.984375 42.703125 
Q 37.796875 48.390625 30.609375 48.390625 
z
M 30.609375 56 
Q 42.328125 56 49.015625 48.375 
Q 55.71875 40.765625 55.71875 27.296875 
Q 55.71875 13.875 49.015625 6.21875 
Q 42.328125 -1.421875 30.609375 -1.421875 
Q 18.84375 -1.421875 12.171875 6.21875 
Q 5.515625 13.875 5.515625 27.296875 
Q 5.515625 40.765625 12.171875 48.375 
Q 18.84375 56 30.609375 56 
z
" id="DejaVuSans-6f"/>
      <path d="M 48.6875 27.296875 
Q 48.6875 37.203125 44.609375 42.84375 
Q 40.53125 48.484375 33.40625 48.484375 
Q 26.265625 48.484375 22.1875 42.84375 
Q 18.109375 37.203125 18.109375 27.296875 
Q 18.109375 17.390625 22.1875 11.75 
Q 26.265625 6.109375 33.40625 6.109375 
Q 40.53125 6.109375 44.609375 11.75 
Q 48.6875 17.390625 48.6875 27.296875 
z
M 18.109375 46.390625 
Q 20.953125 51.265625 25.265625 53.625 
Q 29.59375 56 35.59375 56 
Q 45.5625 56 51.78125 48.09375 
Q 58.015625 40.1875 58.015625 27.296875 
Q 58.015625 14.40625 51.78125 6.484375 
Q 45.5625 -1.421875 35.59375 -1.421875 
Q 29.59375 -1.421875 25.265625 0.953125 
Q 20.953125 3.328125 18.109375 8.203125 
L 18.109375 0 
L 9.078125 0 
L 9.078125 75.984375 
L 18.109375 75.984375 
z
" id="DejaVuSans-62"/>
      <path d="M 9.421875 54.6875 
L 18.40625 54.6875 
L 18.40625 0 
L 9.421875 0 
z
M 9.421875 75.984375 
L 18.40625 75.984375 
L 18.40625 64.59375 
L 9.421875 64.59375 
z
" id="DejaVuSans-69"/>
      <path d="M 54.890625 33.015625 
L 54.890625 0 
L 45.90625 0 
L 45.90625 32.71875 
Q 45.90625 40.484375 42.875 44.328125 
Q 39.84375 48.1875 33.796875 48.1875 
Q 26.515625 48.1875 22.3125 43.546875 
Q 18.109375 38.921875 18.109375 30.90625 
L 18.109375 0 
L 9.078125 0 
L 9.078125 54.6875 
L 18.109375 54.6875 
L 18.109375 46.1875 
Q 21.34375 51.125 25.703125 53.5625 
Q 30.078125 56 35.796875 56 
Q 45.21875 56 50.046875 50.171875 
Q 54.890625 44.34375 54.890625 33.015625 
z
" id="DejaVuSans-6e"/>
      <path d="M 45.40625 27.984375 
Q 45.40625 37.75 41.375 43.109375 
Q 37.359375 48.484375 30.078125 48.484375 
Q 22.859375 48.484375 18.828125 43.109375 
Q 14.796875 37.75 14.796875 27.984375 
Q 14.796875 18.265625 18.828125 12.890625 
Q 22.859375 7.515625 30.078125 7.515625 
Q 37.359375 7.515625 41.375 12.890625 
Q 45.40625 18.265625 45.40625 27.984375 
z
M 54.390625 6.78125 
Q 54.390625 -7.171875 48.1875 -13.984375 
Q 42 -20.796875 29.203125 -20.796875 
Q 24.46875 -20.796875 20.265625 -20.09375 
Q 16.0625 -19.390625 12.109375 -17.921875 
L 12.109375 -9.1875 
Q 16.0625 -11.328125 19.921875 -12.34375 
Q 23.78125 -13.375 27.78125 -13.375 
Q 36.625 -13.375 41.015625 -8.765625 
Q 45.40625 -4.15625 45.40625 5.171875 
L 45.40625 9.625 
Q 42.625 4.78125 38.28125 2.390625 
Q 33.9375 0 27.875 0 
Q 17.828125 0 11.671875 7.65625 
Q 5.515625 15.328125 5.515625 27.984375 
Q 5.515625 40.671875 11.671875 48.328125 
Q 17.828125 56 27.875 56 
Q 33.9375 56 38.28125 53.609375 
Q 42.625 51.21875 45.40625 46.390625 
L 45.40625 54.6875 
L 54.390625 54.6875 
z
" id="DejaVuSans-67"/>
      <path d="M 44.28125 53.078125 
L 44.28125 44.578125 
Q 40.484375 46.53125 36.375 47.5 
Q 32.28125 48.484375 27.875 48.484375 
Q 21.1875 48.484375 17.84375 46.4375 
Q 14.5 44.390625 14.5 40.28125 
Q 14.5 37.15625 16.890625 35.375 
Q 19.28125 33.59375 26.515625 31.984375 
L 29.59375 31.296875 
Q 39.15625 29.25 43.1875 25.515625 
Q 47.21875 21.78125 47.21875 15.09375 
Q 47.21875 7.46875 41.1875 3.015625 
Q 35.15625 -1.421875 24.609375 -1.421875 
Q 20.21875 -1.421875 15.453125 -0.5625 
Q 10.6875 0.296875 5.421875 2 
L 5.421875 11.28125 
Q 10.40625 8.6875 15.234375 7.390625 
Q 20.0625 6.109375 24.8125 6.109375 
Q 31.15625 6.109375 34.5625 8.28125 
Q 37.984375 10.453125 37.984375 14.40625 
Q 37.984375 18.0625 35.515625 20.015625 
Q 33.0625 21.96875 24.703125 23.78125 
L 21.578125 24.515625 
Q 13.234375 26.265625 9.515625 29.90625 
Q 5.8125 33.546875 5.8125 39.890625 
Q 5.8125 47.609375 11.28125 51.796875 
Q 16.75 56 26.8125 56 
Q 31.78125 56 36.171875 55.265625 
Q 40.578125 54.546875 44.28125 53.078125 
z
" id="DejaVuSans-73"/>
      <path d="M 37.109375 75.984375 
L 37.109375 68.5 
L 28.515625 68.5 
Q 23.6875 68.5 21.796875 66.546875 
Q 19.921875 64.59375 19.921875 59.515625 
L 19.921875 54.6875 
L 34.71875 54.6875 
L 34.71875 47.703125 
L 19.921875 47.703125 
L 19.921875 0 
L 10.890625 0 
L 10.890625 47.703125 
L 2.296875 47.703125 
L 2.296875 54.6875 
L 10.890625 54.6875 
L 10.890625 58.5 
Q 10.890625 67.625 15.140625 71.796875 
Q 19.390625 75.984375 28.609375 75.984375 
z
" id="DejaVuSans-66"/>
      <path d="M 41.109375 46.296875 
Q 39.59375 47.171875 37.8125 47.578125 
Q 36.03125 48 33.890625 48 
Q 26.265625 48 22.1875 43.046875 
Q 18.109375 38.09375 18.109375 28.8125 
L 18.109375 0 
L 9.078125 0 
L 9.078125 54.6875 
L 18.109375 54.6875 
L 18.109375 46.1875 
Q 20.953125 51.171875 25.484375 53.578125 
Q 30.03125 56 36.53125 56 
Q 37.453125 56 38.578125 55.875 
Q 39.703125 55.765625 41.0625 55.515625 
z
" id="DejaVuSans-72"/>
      <path d="M 48.78125 52.59375 
L 48.78125 44.1875 
Q 44.96875 46.296875 41.140625 47.34375 
Q 37.3125 48.390625 33.40625 48.390625 
Q 24.65625 48.390625 19.8125 42.84375 
Q 14.984375 37.3125 14.984375 27.296875 
Q 14.984375 17.28125 19.8125 11.734375 
Q 24.65625 6.203125 33.40625 6.203125 
Q 37.3125 6.203125 41.140625 7.25 
Q 44.96875 8.296875 48.78125 10.40625 
L 48.78125 2.09375 
Q 45.015625 0.34375 40.984375 -0.53125 
Q 36.96875 -1.421875 32.421875 -1.421875 
Q 20.0625 -1.421875 12.78125 6.34375 
Q 5.515625 14.109375 5.515625 27.296875 
Q 5.515625 40.671875 12.859375 48.328125 
Q 20.21875 56 33.015625 56 
Q 37.15625 56 41.109375 55.140625 
Q 45.0625 54.296875 48.78125 52.59375 
z
" id="DejaVuSans-63"/>
      <path d="M 31 75.875 
Q 24.46875 64.65625 21.28125 53.65625 
Q 18.109375 42.671875 18.109375 31.390625 
Q 18.109375 20.125 21.3125 9.0625 
Q 24.515625 -2 31 -13.1875 
L 23.1875 -13.1875 
Q 15.875 -1.703125 12.234375 9.375 
Q 8.59375 20.453125 8.59375 31.390625 
Q 8.59375 42.28125 12.203125 53.3125 
Q 15.828125 64.359375 23.1875 75.875 
z
" id="DejaVuSans-28"/>
      <path d="M 9.8125 72.90625 
L 24.515625 72.90625 
L 43.109375 23.296875 
L 61.8125 72.90625 
L 76.515625 72.90625 
L 76.515625 0 
L 66.890625 0 
L 66.890625 64.015625 
L 48.09375 14.015625 
L 38.1875 14.015625 
L 19.390625 64.015625 
L 19.390625 0 
L 9.8125 0 
z
" id="DejaVuSans-4d"/>
      <path d="M 8.015625 75.875 
L 15.828125 75.875 
Q 23.140625 64.359375 26.78125 53.3125 
Q 30.421875 42.28125 30.421875 31.390625 
Q 30.421875 20.453125 26.78125 9.375 
Q 23.140625 -1.703125 15.828125 -13.1875 
L 8.015625 -13.1875 
Q 14.5 -2 17.703125 9.0625 
Q 20.90625 20.125 20.90625 31.390625 
Q 20.90625 42.671875 17.703125 53.65625 
Q 14.5 64.65625 8.015625 75.875 
z
" id="DejaVuSans-29"/>
     </defs>
     <g transform="translate(53.160625 272.011875)scale(0.12 -0.12)">
      <use xlink:href="#DejaVuSans-49"/>
      <use x="29.492188" xlink:href="#DejaVuSans-6d"/>
      <use x="126.904297" xlink:href="#DejaVuSans-6d"/>
      <use x="224.316406" xlink:href="#DejaVuSans-6f"/>
      <use x="285.498047" xlink:href="#DejaVuSans-62"/>
      <use x="348.974609" xlink:href="#DejaVuSans-69"/>
      <use x="376.757812" xlink:href="#DejaVuSans-6c"/>
      <use x="404.541016" xlink:href="#DejaVuSans-65"/>
      <use x="466.064453" xlink:href="#DejaVuSans-20"/>
      <use x="497.851562" xlink:href="#DejaVuSans-65"/>
      <use x="559.375" xlink:href="#DejaVuSans-6e"/>
      <use x="622.753906" xlink:href="#DejaVuSans-64"/>
      <use x="686.230469" xlink:href="#DejaVuSans-6f"/>
      <use x="747.412109" xlink:href="#DejaVuSans-67"/>
      <use x="810.888672" xlink:href="#DejaVuSans-65"/>
      <use x="872.412109" xlink:href="#DejaVuSans-6e"/>
      <use x="935.791016" xlink:href="#DejaVuSans-65"/>
      <use x="997.314453" xlink:href="#DejaVuSans-6f"/>
      <use x="1058.496094" xlink:href="#DejaVuSans-75"/>
      <use x="1121.875" xlink:href="#DejaVuSans-73"/>
      <use x="1173.974609" xlink:href="#DejaVuSans-20"/>
      <use x="1205.761719" xlink:href="#DejaVuSans-62"/>
      <use x="1269.238281" xlink:href="#DejaVuSans-75"/>
      <use x="1332.617188" xlink:href="#DejaVuSans-66"/>
      <use x="1367.822266" xlink:href="#DejaVuSans-66"/>
      <use x="1403.027344" xlink:href="#DejaVuSans-65"/>
      <use x="1464.550781" xlink:href="#DejaVuSans-72"/>
      <use x="1505.664062" xlink:href="#DejaVuSans-20"/>
      <use x="1537.451172" xlink:href="#DejaVuSans-63"/>
      <use x="1592.431641" xlink:href="#DejaVuSans-6f"/>
      <use x="1653.613281" xlink:href="#DejaVuSans-6e"/>
      <use x="1716.992188" xlink:href="#DejaVuSans-63"/>
      <use x="1771.972656" xlink:href="#DejaVuSans-65"/>
      <use x="1833.496094" xlink:href="#DejaVuSans-6e"/>
      <use x="1896.875" xlink:href="#DejaVuSans-74"/>
      <use x="1936.083984" xlink:href="#DejaVuSans-72"/>
      <use x="1977.197266" xlink:href="#DejaVuSans-61"/>
      <use x="2038.476562" xlink:href="#DejaVuSans-74"/>
      <use x="2077.685547" xlink:href="#DejaVuSans-69"/>
      <use x="2105.46875" xlink:href="#DejaVuSans-6f"/>
      <use x="2166.650391" xlink:href="#DejaVuSans-6e"/>
      <use x="2230.029297" xlink:href="#DejaVuSans-20"/>
      <use x="2261.816406" xlink:href="#DejaVuSans-28"/>
      <use x="2300.830078" xlink:href="#DejaVuSans-4d"/>
      <use x="2387.109375" xlink:href="#DejaVuSans-29"/>
     </g>
    </g>
   </g>
   <g id="matplotlib.axis_2">
    <g id="ytick_1">
     <g id="line2d_13">
      <path clip-path="url(#pb39ccc4616)" d="M 53.75 240.28 
L 343.71 240.28 
" style="fill:none;stroke:#b0b0b0;stroke-linecap:square;stroke-width:0.8;"/>
     </g>
     <g id="line2d_14">
      <defs>
       <path d="M 0 0 
L -3.5 0 
" id="m65008f7e7c" style="stroke:#000000;stroke-width:0.8;"/>
      </defs>
      <g>
       <use style="stroke:#000000;stroke-width:0.8;" x="53.75" xlink:href="#m65008f7e7c" y="240.28"/>
      </g>
     </g>
     <g id="text_8">
      <!-- 0.0 -->
      <g transform="translate(27.66625 244.839062)scale(0.12 -0.12)">
       <use xlink:href="#DejaVuSans-30"/>
       <use x="63.623047" xlink:href="#DejaVuSans-2e"/>
       <use x="95.410156" xlink:href="#DejaVuSans-30"/>
      </g>
     </g>
    </g>
    <g id="ytick_2">
     <g id="line2d_15">
      <path clip-path="url(#pb39ccc4616)" d="M 53.75 195.392 
L 343.71 195.392 
" style="fill:none;stroke:#b0b0b0;stroke-linecap:square;stroke-width:0.8;"/>
     </g>
     <g id="line2d_16">
      <g>
       <use style="stroke:#000000;stroke-width:0.8;" x="53.75" xlink:href="#m65008f7e7c" y="195.392"/>
      </g>
     </g>
     <g id="text_9">
      <!-- 0.2 -->
      <defs>
       <path d="M 19.1875 8.296875 
L 53.609375 8.296875 
L 53.609375 0 
L 7.328125 0 
L 7.328125 8.296875 
Q 12.9375 14.109375 22.625 23.890625 
Q 32.328125 33.6875 34.8125 36.53125 
Q 39.546875 41.84375 41.421875 45.53125 
Q 43.3125 49.21875 43.3125 52.78125 
Q 43.3125 58.59375 39.234375 62.25 
Q 35.15625 65.921875 28.609375 65.921875 
Q 23.96875 65.921875 18.8125 64.3125 
Q 13.671875 62.703125 7.8125 59.421875 
L 7.8125 69.390625 
Q 13.765625 71.78125 18.9375 73 
Q 24.125 74.21875 28.421875 74.21875 
Q 39.75 74.21875 46.484375 68.546875 
Q 53.21875 62.890625 53.21875 53.421875 
Q 53.21875 48.921875 51.53125 44.890625 
Q 49.859375 40.875 45.40625 35.40625 
Q 44.1875 33.984375 37.640625 27.21875 
Q 31.109375 20.453125 19.1875 8.296875 
z
" id="DejaVuSans-32"/>
      </defs>
      <g transform="translate(27.66625 199.951062)scale(0.12 -0.12)">
       <use xlink:href="#DejaVuSans-30"/>
       <use x="63.623047" xlink:href="#DejaVuSans-2e"/>
       <use x="95.410156" xlink:href="#DejaVuSans-32"/>
      </g>
     </g>
    </g>
    <g id="ytick_3">
     <g id="line2d_17">
      <path clip-path="url(#pb39ccc4616)" d="M 53.75 150.504 
L 343.71 150.504 
" style="fill:none;stroke:#b0b0b0;stroke-linecap:square;stroke-width:0.8;"/>
     </g>
     <g id="line2d_18">
      <g>
       <use style="stroke:#000000;stroke-width:0.8;" x="53.75" xlink:href="#m65008f7e7c" y="150.504"/>
      </g>
     </g>
     <g id="text_10">
      <!-- 0.4 -->
      <defs>
       <path d="M 37.796875 64.3125 
L 12.890625 25.390625 
L 37.796875 25.390625 
z
M 35.203125 72.90625 
L 47.609375 72.90625 
L 47.609375 25.390625 
L 58.015625 25.390625 
L 58.015625 17.1875 
L 47.609375 17.1875 
L 47.609375 0 
L 37.796875 0 
L 37.796875 17.1875 
L 4.890625 17.1875 
L 4.890625 26.703125 
z
" id="DejaVuSans-34"/>
      </defs>
      <g transform="translate(27.66625 155.063062)scale(0.12 -0.12)">
       <use xlink:href="#DejaVuSans-30"/>
       <use x="63.623047" xlink:href="#DejaVuSans-2e"/>
       <use x="95.410156" xlink:href="#DejaVuSans-34"/>
      </g>
     </g>
    </g>
    <g id="ytick_4">
     <g id="line2d_19">
      <path clip-path="url(#pb39ccc4616)" d="M 53.75 105.616 
L 343.71 105.616 
" style="fill:none;stroke:#b0b0b0;stroke-linecap:square;stroke-width:0.8;"/>
     </g>
     <g id="line2d_20">
      <g>
       <use style="stroke:#000000;stroke-width:0.8;" x="53.75" xlink:href="#m65008f7e7c" y="105.616"/>
      </g>
     </g>
     <g id="text_11">
      <!-- 0.6 -->
      <defs>
       <path d="M 33.015625 40.375 
Q 26.375 40.375 22.484375 35.828125 
Q 18.609375 31.296875 18.609375 23.390625 
Q 18.609375 15.53125 22.484375 10.953125 
Q 26.375 6.390625 33.015625 6.390625 
Q 39.65625 6.390625 43.53125 10.953125 
Q 47.40625 15.53125 47.40625 23.390625 
Q 47.40625 31.296875 43.53125 35.828125 
Q 39.65625 40.375 33.015625 40.375 
z
M 52.59375 71.296875 
L 52.59375 62.3125 
Q 48.875 64.0625 45.09375 64.984375 
Q 41.3125 65.921875 37.59375 65.921875 
Q 27.828125 65.921875 22.671875 59.328125 
Q 17.53125 52.734375 16.796875 39.40625 
Q 19.671875 43.65625 24.015625 45.921875 
Q 28.375 48.1875 33.59375 48.1875 
Q 44.578125 48.1875 50.953125 41.515625 
Q 57.328125 34.859375 57.328125 23.390625 
Q 57.328125 12.15625 50.6875 5.359375 
Q 44.046875 -1.421875 33.015625 -1.421875 
Q 20.359375 -1.421875 13.671875 8.265625 
Q 6.984375 17.96875 6.984375 36.375 
Q 6.984375 53.65625 15.1875 63.9375 
Q 23.390625 74.21875 37.203125 74.21875 
Q 40.921875 74.21875 44.703125 73.484375 
Q 48.484375 72.75 52.59375 71.296875 
z
" id="DejaVuSans-36"/>
      </defs>
      <g transform="translate(27.66625 110.175062)scale(0.12 -0.12)">
       <use xlink:href="#DejaVuSans-30"/>
       <use x="63.623047" xlink:href="#DejaVuSans-2e"/>
       <use x="95.410156" xlink:href="#DejaVuSans-36"/>
      </g>
     </g>
    </g>
    <g id="ytick_5">
     <g id="line2d_21">
      <path clip-path="url(#pb39ccc4616)" d="M 53.75 60.728 
L 343.71 60.728 
" style="fill:none;stroke:#b0b0b0;stroke-linecap:square;stroke-width:0.8;"/>
     </g>
     <g id="line2d_22">
      <g>
       <use style="stroke:#000000;stroke-width:0.8;" x="53.75" xlink:href="#m65008f7e7c" y="60.728"/>
      </g>
     </g>
     <g id="text_12">
      <!-- 0.8 -->
      <defs>
       <path d="M 31.78125 34.625 
Q 24.75 34.625 20.71875 30.859375 
Q 16.703125 27.09375 16.703125 20.515625 
Q 16.703125 13.921875 20.71875 10.15625 
Q 24.75 6.390625 31.78125 6.390625 
Q 38.8125 6.390625 42.859375 10.171875 
Q 46.921875 13.96875 46.921875 20.515625 
Q 46.921875 27.09375 42.890625 30.859375 
Q 38.875 34.625 31.78125 34.625 
z
M 21.921875 38.8125 
Q 15.578125 40.375 12.03125 44.71875 
Q 8.5 49.078125 8.5 55.328125 
Q 8.5 64.0625 14.71875 69.140625 
Q 20.953125 74.21875 31.78125 74.21875 
Q 42.671875 74.21875 48.875 69.140625 
Q 55.078125 64.0625 55.078125 55.328125 
Q 55.078125 49.078125 51.53125 44.71875 
Q 48 40.375 41.703125 38.8125 
Q 48.828125 37.15625 52.796875 32.3125 
Q 56.78125 27.484375 56.78125 20.515625 
Q 56.78125 9.90625 50.3125 4.234375 
Q 43.84375 -1.421875 31.78125 -1.421875 
Q 19.734375 -1.421875 13.25 4.234375 
Q 6.78125 9.90625 6.78125 20.515625 
Q 6.78125 27.484375 10.78125 32.3125 
Q 14.796875 37.15625 21.921875 38.8125 
z
M 18.3125 54.390625 
Q 18.3125 48.734375 21.84375 45.5625 
Q 25.390625 42.390625 31.78125 42.390625 
Q 38.140625 42.390625 41.71875 45.5625 
Q 45.3125 48.734375 45.3125 54.390625 
Q 45.3125 60.0625 41.71875 63.234375 
Q 38.140625 66.40625 31.78125 66.40625 
Q 25.390625 66.40625 21.84375 63.234375 
Q 18.3125 60.0625 18.3125 54.390625 
z
" id="DejaVuSans-38"/>
      </defs>
      <g transform="translate(27.66625 65.287062)scale(0.12 -0.12)">
       <use xlink:href="#DejaVuSans-30"/>
       <use x="63.623047" xlink:href="#DejaVuSans-2e"/>
       <use x="95.410156" xlink:href="#DejaVuSans-38"/>
      </g>
     </g>
    </g>
    <g id="ytick_6">
     <g id="line2d_23">
      <path clip-path="url(#pb39ccc4616)" d="M 53.75 15.84 
L 343.71 15.84 
" style="fill:none;stroke:#b0b0b0;stroke-linecap:square;stroke-width:0.8;"/>
     </g>
     <g id="line2d_24">
      <g>
       <use style="stroke:#000000;stroke-width:0.8;" x="53.75" xlink:href="#m65008f7e7c" y="15.84"/>
      </g>
     </g>
     <g id="text_13">
      <!-- 1.0 -->
      <g transform="translate(27.66625 20.399062)scale(0.12 -0.12)">
       <use xlink:href="#DejaVuSans-31"/>
       <use x="63.623047" xlink:href="#DejaVuSans-2e"/>
       <use x="95.410156" xlink:href="#DejaVuSans-30"/>
      </g>
     </g>
    </g>
    <g id="text_14">
     <!-- True positive rate -->
     <defs>
      <path d="M -0.296875 72.90625 
L 61.375 72.90625 
L 61.375 64.59375 
L 35.5 64.59375 
L 35.5 0 
L 25.59375 0 
L 25.59375 64.59375 
L -0.296875 64.59375 
z
" id="DejaVuSans-54"/>
     </defs>
     <g transform="translate(21.170625 181.20875)rotate(-90)scale(0.12 -0.12)">
      <use xlink:href="#DejaVuSans-54"/>
      <use x="60.865234" xlink:href="#DejaVuSans-72"/>
      <use x="101.978516" xlink:href="#DejaVuSans-75"/>
      <use x="165.357422" xlink:href="#DejaVuSans-65"/>
      <use x="226.880859" xlink:href="#DejaVuSans-20"/>
      <use x="258.667969" xlink:href="#DejaVuSans-70"/>
      <use x="322.144531" xlink:href="#DejaVuSans-6f"/>
      <use x="383.326172" xlink:href="#DejaVuSans-73"/>
      <use x="435.425781" xlink:href="#DejaVuSans-69"/>
      <use x="463.208984" xlink:href="#DejaVuSans-74"/>
      <use x="502.417969" xlink:href="#DejaVuSans-69"/>
      <use x="530.201172" xlink:href="#DejaVuSans-76"/>
      <use x="589.380859" xlink:href="#DejaVuSans-65"/>
      <use x="650.904297" xlink:href="#DejaVuSans-20"/>
      <use x="682.691406" xlink:href="#DejaVuSans-72"/>
      <use x="723.804688" xlink:href="#DejaVuSans-61"/>
      <use x="785.083984" xlink:href="#DejaVuSans-74"/>
      <use x="824.292969" xlink:href="#DejaVuSans-65"/>
     </g>
    </g>
   </g>
   <g id="line2d_25">
    <path clip-path="url(#pb39ccc4616)" d="M 65.831667 180.663125 
L 89.995 180.663125 
L 89.995 142.0875 
L 65.831667 142.0875 
L 65.831667 180.663125 
" style="fill:none;stroke:#000000;stroke-linecap:square;"/>
   </g>
   <g id="line2d_26">
    <path clip-path="url(#pb39ccc4616)" d="M 77.913333 180.663125 
L 77.913333 233.198155 
" style="fill:none;stroke:#000000;stroke-linecap:square;"/>
   </g>
   <g id="line2d_27">
    <path clip-path="url(#pb39ccc4616)" d="M 77.913333 142.0875 
L 77.913333 121.647429 
" style="fill:none;stroke:#000000;stroke-linecap:square;"/>
   </g>
   <g id="line2d_28">
    <path clip-path="url(#pb39ccc4616)" d="M 71.8725 233.198155 
L 83.954167 233.198155 
" style="fill:none;stroke:#000000;stroke-linecap:square;"/>
   </g>
   <g id="line2d_29">
    <path clip-path="url(#pb39ccc4616)" d="M 71.8725 121.647429 
L 83.954167 121.647429 
" style="fill:none;stroke:#000000;stroke-linecap:square;"/>
   </g>
   <g id="line2d_30"/>
   <g id="line2d_31">
    <path clip-path="url(#pb39ccc4616)" d="M 114.158333 173.84576 
L 138.321667 173.84576 
L 138.321667 128.06 
L 114.158333 128.06 
L 114.158333 173.84576 
" style="fill:none;stroke:#000000;stroke-linecap:square;"/>
   </g>
   <g id="line2d_32">
    <path clip-path="url(#pb39ccc4616)" d="M 126.24 173.84576 
L 126.24 218.73376 
" style="fill:none;stroke:#000000;stroke-linecap:square;"/>
   </g>
   <g id="line2d_33">
    <path clip-path="url(#pb39ccc4616)" d="M 126.24 128.06 
L 126.24 95.054118 
" style="fill:none;stroke:#000000;stroke-linecap:square;"/>
   </g>
   <g id="line2d_34">
    <path clip-path="url(#pb39ccc4616)" d="M 120.199167 218.73376 
L 132.280833 218.73376 
" style="fill:none;stroke:#000000;stroke-linecap:square;"/>
   </g>
   <g id="line2d_35">
    <path clip-path="url(#pb39ccc4616)" d="M 120.199167 95.054118 
L 132.280833 95.054118 
" style="fill:none;stroke:#000000;stroke-linecap:square;"/>
   </g>
   <g id="line2d_36"/>
   <g id="line2d_37">
    <path clip-path="url(#pb39ccc4616)" d="M 162.485 174.389358 
L 186.648333 174.389358 
L 186.648333 128.06 
L 162.485 128.06 
L 162.485 174.389358 
" style="fill:none;stroke:#000000;stroke-linecap:square;"/>
   </g>
   <g id="line2d_38">
    <path clip-path="url(#pb39ccc4616)" d="M 174.566667 174.389358 
L 174.566667 223.75681 
" style="fill:none;stroke:#000000;stroke-linecap:square;"/>
   </g>
   <g id="line2d_39">
    <path clip-path="url(#pb39ccc4616)" d="M 174.566667 128.06 
L 174.566667 95.054118 
" style="fill:none;stroke:#000000;stroke-linecap:square;"/>
   </g>
   <g id="line2d_40">
    <path clip-path="url(#pb39ccc4616)" d="M 168.525833 223.75681 
L 180.6075 223.75681 
" style="fill:none;stroke:#000000;stroke-linecap:square;"/>
   </g>
   <g id="line2d_41">
    <path clip-path="url(#pb39ccc4616)" d="M 168.525833 95.054118 
L 180.6075 95.054118 
" style="fill:none;stroke:#000000;stroke-linecap:square;"/>
   </g>
   <g id="line2d_42"/>
   <g id="line2d_43">
    <path clip-path="url(#pb39ccc4616)" d="M 210.811667 195.599815 
L 234.975 195.599815 
L 234.975 145.446197 
L 210.811667 145.446197 
L 210.811667 195.599815 
" style="fill:none;stroke:#000000;stroke-linecap:square;"/>
   </g>
   <g id="line2d_44">
    <path clip-path="url(#pb39ccc4616)" d="M 222.893333 195.599815 
L 222.893333 219.876364 
" style="fill:none;stroke:#000000;stroke-linecap:square;"/>
   </g>
   <g id="line2d_45">
    <path clip-path="url(#pb39ccc4616)" d="M 222.893333 145.446197 
L 222.893333 90.653333 
" style="fill:none;stroke:#000000;stroke-linecap:square;"/>
   </g>
   <g id="line2d_46">
    <path clip-path="url(#pb39ccc4616)" d="M 216.8525 219.876364 
L 228.934167 219.876364 
" style="fill:none;stroke:#000000;stroke-linecap:square;"/>
   </g>
   <g id="line2d_47">
    <path clip-path="url(#pb39ccc4616)" d="M 216.8525 90.653333 
L 228.934167 90.653333 
" style="fill:none;stroke:#000000;stroke-linecap:square;"/>
   </g>
   <g id="line2d_48"/>
   <g id="line2d_49">
    <path clip-path="url(#pb39ccc4616)" d="M 259.138333 207.594563 
L 283.301667 207.594563 
L 283.301667 171.037872 
L 259.138333 171.037872 
L 259.138333 207.594563 
" style="fill:none;stroke:#000000;stroke-linecap:square;"/>
   </g>
   <g id="line2d_50">
    <path clip-path="url(#pb39ccc4616)" d="M 271.22 207.594563 
L 271.22 228.467368 
" style="fill:none;stroke:#000000;stroke-linecap:square;"/>
   </g>
   <g id="line2d_51">
    <path clip-path="url(#pb39ccc4616)" d="M 271.22 171.037872 
L 271.22 119.427692 
" style="fill:none;stroke:#000000;stroke-linecap:square;"/>
   </g>
   <g id="line2d_52">
    <path clip-path="url(#pb39ccc4616)" d="M 265.179167 228.467368 
L 277.260833 228.467368 
" style="fill:none;stroke:#000000;stroke-linecap:square;"/>
   </g>
   <g id="line2d_53">
    <path clip-path="url(#pb39ccc4616)" d="M 265.179167 119.427692 
L 277.260833 119.427692 
" style="fill:none;stroke:#000000;stroke-linecap:square;"/>
   </g>
   <g id="line2d_54"/>
   <g id="line2d_55">
    <path clip-path="url(#pb39ccc4616)" d="M 307.465 237.714971 
L 331.628333 237.714971 
L 331.628333 192.921101 
L 307.465 192.921101 
L 307.465 237.714971 
" style="fill:none;stroke:#000000;stroke-linecap:square;"/>
   </g>
   <g id="line2d_56">
    <path clip-path="url(#pb39ccc4616)" d="M 319.546667 237.714971 
L 319.546667 239.890798 
" style="fill:none;stroke:#000000;stroke-linecap:square;"/>
   </g>
   <g id="line2d_57">
    <path clip-path="url(#pb39ccc4616)" d="M 319.546667 192.921101 
L 319.546667 160.122857 
" style="fill:none;stroke:#000000;stroke-linecap:square;"/>
   </g>
   <g id="line2d_58">
    <path clip-path="url(#pb39ccc4616)" d="M 313.505833 239.890798 
L 325.5875 239.890798 
" style="fill:none;stroke:#000000;stroke-linecap:square;"/>
   </g>
   <g id="line2d_59">
    <path clip-path="url(#pb39ccc4616)" d="M 313.505833 160.122857 
L 325.5875 160.122857 
" style="fill:none;stroke:#000000;stroke-linecap:square;"/>
   </g>
   <g id="line2d_60"/>
   <g id="line2d_61">
    <path clip-path="url(#pb39ccc4616)" d="M 65.831667 159.598954 
L 89.995 159.598954 
" style="fill:none;stroke:#ff7f0e;stroke-linecap:square;"/>
   </g>
   <g id="line2d_62">
    <path clip-path="url(#pb39ccc4616)" d="M 77.913333 164.888832 
" style="fill:none;stroke:#2ca02c;stroke-dasharray:3.7,1.6;stroke-dashoffset:0;"/>
    <defs>
     <path d="M 0 -3 
L -3 3 
L 3 3 
z
" id="m0abe9d8dfd" style="stroke:#2ca02c;stroke-linejoin:miter;"/>
    </defs>
    <g clip-path="url(#pb39ccc4616)">
     <use style="fill:#2ca02c;stroke:#2ca02c;stroke-linejoin:miter;" x="77.913333" xlink:href="#m0abe9d8dfd" y="164.888832"/>
    </g>
   </g>
   <g id="line2d_63">
    <path clip-path="url(#pb39ccc4616)" d="M 114.158333 156.916571 
L 138.321667 156.916571 
" style="fill:none;stroke:#ff7f0e;stroke-linecap:square;"/>
   </g>
   <g id="line2d_64">
    <path clip-path="url(#pb39ccc4616)" d="M 126.24 155.040063 
" style="fill:none;stroke:#2ca02c;stroke-dasharray:3.7,1.6;stroke-dashoffset:0;"/>
    <g clip-path="url(#pb39ccc4616)">
     <use style="fill:#2ca02c;stroke:#2ca02c;stroke-linejoin:miter;" x="126.24" xlink:href="#m0abe9d8dfd" y="155.040063"/>
    </g>
   </g>
   <g id="line2d_65">
    <path clip-path="url(#pb39ccc4616)" d="M 162.485 154.464706 
L 186.648333 154.464706 
" style="fill:none;stroke:#ff7f0e;stroke-linecap:square;"/>
   </g>
   <g id="line2d_66">
    <path clip-path="url(#pb39ccc4616)" d="M 174.566667 154.010225 
" style="fill:none;stroke:#2ca02c;stroke-dasharray:3.7,1.6;stroke-dashoffset:0;"/>
    <g clip-path="url(#pb39ccc4616)">
     <use style="fill:#2ca02c;stroke:#2ca02c;stroke-linejoin:miter;" x="174.566667" xlink:href="#m0abe9d8dfd" y="154.010225"/>
    </g>
   </g>
   <g id="line2d_67">
    <path clip-path="url(#pb39ccc4616)" d="M 210.811667 161.726 
L 234.975 161.726 
" style="fill:none;stroke:#ff7f0e;stroke-linecap:square;"/>
   </g>
   <g id="line2d_68">
    <path clip-path="url(#pb39ccc4616)" d="M 222.893333 161.994721 
" style="fill:none;stroke:#2ca02c;stroke-dasharray:3.7,1.6;stroke-dashoffset:0;"/>
    <g clip-path="url(#pb39ccc4616)">
     <use style="fill:#2ca02c;stroke:#2ca02c;stroke-linejoin:miter;" x="222.893333" xlink:href="#m0abe9d8dfd" y="161.994721"/>
    </g>
   </g>
   <g id="line2d_69">
    <path clip-path="url(#pb39ccc4616)" d="M 259.138333 190.404444 
L 283.301667 190.404444 
" style="fill:none;stroke:#ff7f0e;stroke-linecap:square;"/>
   </g>
   <g id="line2d_70">
    <path clip-path="url(#pb39ccc4616)" d="M 271.22 182.716617 
" style="fill:none;stroke:#2ca02c;stroke-dasharray:3.7,1.6;stroke-dashoffset:0;"/>
    <g clip-path="url(#pb39ccc4616)">
     <use style="fill:#2ca02c;stroke:#2ca02c;stroke-linejoin:miter;" x="271.22" xlink:href="#m0abe9d8dfd" y="182.716617"/>
    </g>
   </g>
   <g id="line2d_71">
    <path clip-path="url(#pb39ccc4616)" d="M 307.465 226.142047 
L 331.628333 226.142047 
" style="fill:none;stroke:#ff7f0e;stroke-linecap:square;"/>
   </g>
   <g id="line2d_72">
    <path clip-path="url(#pb39ccc4616)" d="M 319.546667 215.248124 
" style="fill:none;stroke:#2ca02c;stroke-dasharray:3.7,1.6;stroke-dashoffset:0;"/>
    <g clip-path="url(#pb39ccc4616)">
     <use style="fill:#2ca02c;stroke:#2ca02c;stroke-linejoin:miter;" x="319.546667" xlink:href="#m0abe9d8dfd" y="215.248124"/>
    </g>
   </g>
   <g id="patch_3">
    <path d="M 53.75 240.28 
L 53.75 15.84 
" style="fill:none;stroke:#000000;stroke-linecap:square;stroke-linejoin:miter;stroke-width:0.8;"/>
   </g>
   <g id="patch_4">
    <path d="M 343.71 240.28 
L 343.71 15.84 
" style="fill:none;stroke:#000000;stroke-linecap:square;stroke-linejoin:miter;stroke-width:0.8;"/>
   </g>
   <g id="patch_5">
    <path d="M 53.75 240.28 
L 343.71 240.28 
" style="fill:none;stroke:#000000;stroke-linecap:square;stroke-linejoin:miter;stroke-width:0.8;"/>
   </g>
   <g id="patch_6">
    <path d="M 53.75 15.84 
L 343.71 15.84 
" style="fill:none;stroke:#000000;stroke-linecap:square;stroke-linejoin:miter;stroke-width:0.8;"/>
   </g>
  </g>
 </g>
 <defs>
  <clipPath id="pb39ccc4616">
   <rect height="224.44" width="289.96" x="53.75" y="15.84"/>
  </clipPath>
 </defs>
</svg>
