<?xml version="1.0" encoding="utf-8" standalone="no"?>
<!DOCTYPE svg PUBLIC "-//W3C//DTD SVG 1.1//EN"
  "http://www.w3.org/Graphics/SVG/1.1/DTD/svg11.dtd">
<!-- Created with matplotlib (http://matplotlib.org/) -->
<svg height="288pt" version="1.1" viewBox="0 0 360 288" width="360pt" xmlns="http://www.w3.org/2000/svg" xmlns:xlink="http://www.w3.org/1999/xlink">
 <defs>
  <style type="text/css">
*{stroke-linecap:butt;stroke-linejoin:round;}
  </style>
 </defs>
 <g id="figure_1">
  <g id="patch_1">
   <path d="M 0 288 
L 360 288 
L 360 0 
L 0 0 
z
" style="fill:#ffffff;"/>
  </g>
  <g id="axes_1">
   <g id="patch_2">
    <path d="M 53.75 240.28 
L 346.68 240.28 
L 346.68 15.84 
L 53.75 15.84 
z
" style="fill:#ffffff;"/>
   </g>
   <g id="PathCollection_1">
    <defs>
     <path d="M 0 3 
C 0.795609 3 1.55874 2.683901 2.12132 2.12132 
C 2.683901 1.55874 3 0.795609 3 0 
C 3 -0.795609 2.683901 -1.55874 2.12132 -2.12132 
C 1.55874 -2.683901 0.795609 -3 0 -3 
C -0.795609 -3 -1.55874 -2.683901 -2.12132 -2.12132 
C -2.683901 -1.55874 -3 -0.795609 -3 0 
C -3 0.795609 -2.683901 1.55874 -2.12132 2.12132 
C -1.55874 2.683901 -0.795609 3 0 3 
z
" id="ma633ca9ff6" style="stroke:#1f77b4;"/>
    </defs>
    <g clip-path="url(#p74301f27c2)">
     <use style="fill:#1f77b4;stroke:#1f77b4;" x="79.518081" xlink:href="#ma633ca9ff6" y="221.855821"/>
     <use style="fill:#1f77b4;stroke:#1f77b4;" x="77.601778" xlink:href="#ma633ca9ff6" y="233.198155"/>
     <use style="fill:#1f77b4;stroke:#1f77b4;" x="76.58899" xlink:href="#ma633ca9ff6" y="142.0875"/>
     <use style="fill:#1f77b4;stroke:#1f77b4;" x="79.338328" xlink:href="#ma633ca9ff6" y="159.598954"/>
     <use style="fill:#1f77b4;stroke:#1f77b4;" x="80.624627" xlink:href="#ma633ca9ff6" y="137.411667"/>
     <use style="fill:#1f77b4;stroke:#1f77b4;" x="78.582452" xlink:href="#ma633ca9ff6" y="131.013158"/>
     <use style="fill:#1f77b4;stroke:#1f77b4;" x="78.770228" xlink:href="#ma633ca9ff6" y="138.121103"/>
     <use style="fill:#1f77b4;stroke:#1f77b4;" x="78.361408" xlink:href="#ma633ca9ff6" y="192.124291"/>
     <use style="fill:#1f77b4;stroke:#1f77b4;" x="78.297066" xlink:href="#ma633ca9ff6" y="179.664818"/>
     <use style="fill:#1f77b4;stroke:#1f77b4;" x="78.297668" xlink:href="#ma633ca9ff6" y="205.32623"/>
     <use style="fill:#1f77b4;stroke:#1f77b4;" x="78.606982" xlink:href="#ma633ca9ff6" y="123.903704"/>
     <use style="fill:#1f77b4;stroke:#1f77b4;" x="78.712711" xlink:href="#ma633ca9ff6" y="153.956923"/>
     <use style="fill:#1f77b4;stroke:#1f77b4;" x="78.927912" xlink:href="#ma633ca9ff6" y="154.688475"/>
     <use style="fill:#1f77b4;stroke:#1f77b4;" x="78.089349" xlink:href="#ma633ca9ff6" y="149.988046"/>
     <use style="fill:#1f77b4;stroke:#1f77b4;" x="78.951099" xlink:href="#ma633ca9ff6" y="180.663125"/>
     <use style="fill:#1f77b4;stroke:#1f77b4;" x="77.41168" xlink:href="#ma633ca9ff6" y="149.367595"/>
     <use style="fill:#1f77b4;stroke:#1f77b4;" x="78.321973" xlink:href="#ma633ca9ff6" y="174.619362"/>
     <use style="fill:#1f77b4;stroke:#1f77b4;" x="78.419831" xlink:href="#ma633ca9ff6" y="121.647429"/>
     <use style="fill:#1f77b4;stroke:#1f77b4;" x="77.800421" xlink:href="#ma633ca9ff6" y="165.466667"/>
     <use style="fill:#1f77b4;stroke:#1f77b4;" x="78.557838" xlink:href="#ma633ca9ff6" y="167.093043"/>
     <use style="fill:#1f77b4;stroke:#1f77b4;" x="78.57554" xlink:href="#ma633ca9ff6" y="180.869412"/>
     <use style="fill:#1f77b4;stroke:#1f77b4;" x="128.091269" xlink:href="#ma633ca9ff6" y="239.175291"/>
     <use style="fill:#1f77b4;stroke:#1f77b4;" x="128.752287" xlink:href="#ma633ca9ff6" y="230.49134"/>
     <use style="fill:#1f77b4;stroke:#1f77b4;" x="128.179779" xlink:href="#ma633ca9ff6" y="223.27697"/>
     <use style="fill:#1f77b4;stroke:#1f77b4;" x="125.367154" xlink:href="#ma633ca9ff6" y="197.772424"/>
     <use style="fill:#1f77b4;stroke:#1f77b4;" x="126.465424" xlink:href="#ma633ca9ff6" y="228.204378"/>
     <use style="fill:#1f77b4;stroke:#1f77b4;" x="125.206351" xlink:href="#ma633ca9ff6" y="226.615907"/>
     <use style="fill:#1f77b4;stroke:#1f77b4;" x="124.575359" xlink:href="#ma633ca9ff6" y="162.569567"/>
     <use style="fill:#1f77b4;stroke:#1f77b4;" x="128.127946" xlink:href="#ma633ca9ff6" y="105.096062"/>
     <use style="fill:#1f77b4;stroke:#1f77b4;" x="127.148484" xlink:href="#ma633ca9ff6" y="170.250128"/>
     <use style="fill:#1f77b4;stroke:#1f77b4;" x="127.782185" xlink:href="#ma633ca9ff6" y="237.444116"/>
     <use style="fill:#1f77b4;stroke:#1f77b4;" x="127.515369" xlink:href="#ma633ca9ff6" y="218.266695"/>
     <use style="fill:#1f77b4;stroke:#1f77b4;" x="125.011477" xlink:href="#ma633ca9ff6" y="229.859571"/>
     <use style="fill:#1f77b4;stroke:#1f77b4;" x="128.109086" xlink:href="#ma633ca9ff6" y="225.0062"/>
     <use style="fill:#1f77b4;stroke:#1f77b4;" x="127.170693" xlink:href="#ma633ca9ff6" y="229.160417"/>
     <use style="fill:#1f77b4;stroke:#1f77b4;" x="125.528631" xlink:href="#ma633ca9ff6" y="220.681014"/>
     <use style="fill:#1f77b4;stroke:#1f77b4;" x="127.283976" xlink:href="#ma633ca9ff6" y="203.76823"/>
     <use style="fill:#1f77b4;stroke:#1f77b4;" x="127.553319" xlink:href="#ma633ca9ff6" y="169.404211"/>
     <use style="fill:#1f77b4;stroke:#1f77b4;" x="127.911367" xlink:href="#ma633ca9ff6" y="162.886897"/>
     <use style="fill:#1f77b4;stroke:#1f77b4;" x="127.064908" xlink:href="#ma633ca9ff6" y="235.763406"/>
     <use style="fill:#1f77b4;stroke:#1f77b4;" x="126.113899" xlink:href="#ma633ca9ff6" y="239.337854"/>
     <use style="fill:#1f77b4;stroke:#1f77b4;" x="127.341759" xlink:href="#ma633ca9ff6" y="239.508198"/>
     <use style="fill:#1f77b4;stroke:#1f77b4;" x="174.779605" xlink:href="#ma633ca9ff6" y="237.537352"/>
     <use style="fill:#1f77b4;stroke:#1f77b4;" x="175.649202" xlink:href="#ma633ca9ff6" y="135.541333"/>
     <use style="fill:#1f77b4;stroke:#1f77b4;" x="176.30631" xlink:href="#ma633ca9ff6" y="180.06439"/>
     <use style="fill:#1f77b4;stroke:#1f77b4;" x="174.941503" xlink:href="#ma633ca9ff6" y="163.01377"/>
     <use style="fill:#1f77b4;stroke:#1f77b4;" x="175.124078" xlink:href="#ma633ca9ff6" y="185.646579"/>
     <use style="fill:#1f77b4;stroke:#1f77b4;" x="175.77623" xlink:href="#ma633ca9ff6" y="207.860889"/>
     <use style="fill:#1f77b4;stroke:#1f77b4;" x="174.412325" xlink:href="#ma633ca9ff6" y="79.779302"/>
     <use style="fill:#1f77b4;stroke:#1f77b4;" x="175.881337" xlink:href="#ma633ca9ff6" y="100.11951"/>
     <use style="fill:#1f77b4;stroke:#1f77b4;" x="176.120606" xlink:href="#ma633ca9ff6" y="181.188309"/>
     <use style="fill:#1f77b4;stroke:#1f77b4;" x="177.214391" xlink:href="#ma633ca9ff6" y="232.073784"/>
     <use style="fill:#1f77b4;stroke:#1f77b4;" x="175.090168" xlink:href="#ma633ca9ff6" y="167.40987"/>
     <use style="fill:#1f77b4;stroke:#1f77b4;" x="174.631499" xlink:href="#ma633ca9ff6" y="204.419063"/>
     <use style="fill:#1f77b4;stroke:#1f77b4;" x="176.412535" xlink:href="#ma633ca9ff6" y="211.869873"/>
     <use style="fill:#1f77b4;stroke:#1f77b4;" x="176.26773" xlink:href="#ma633ca9ff6" y="217.319386"/>
     <use style="fill:#1f77b4;stroke:#1f77b4;" x="175.312938" xlink:href="#ma633ca9ff6" y="206.187848"/>
     <use style="fill:#1f77b4;stroke:#1f77b4;" x="176.248121" xlink:href="#ma633ca9ff6" y="178.040336"/>
     <use style="fill:#1f77b4;stroke:#1f77b4;" x="175.113242" xlink:href="#ma633ca9ff6" y="182.398105"/>
     <use style="fill:#1f77b4;stroke:#1f77b4;" x="175.355399" xlink:href="#ma633ca9ff6" y="105.616"/>
     <use style="fill:#1f77b4;stroke:#1f77b4;" x="176.807599" xlink:href="#ma633ca9ff6" y="228.287023"/>
     <use style="fill:#1f77b4;stroke:#1f77b4;" x="176.185825" xlink:href="#ma633ca9ff6" y="224.65443"/>
     <use style="fill:#1f77b4;stroke:#1f77b4;" x="176.294895" xlink:href="#ma633ca9ff6" y="225.892821"/>
     <use style="fill:#1f77b4;stroke:#1f77b4;" x="226.000434" xlink:href="#ma633ca9ff6" y="218.383415"/>
     <use style="fill:#1f77b4;stroke:#1f77b4;" x="223.370957" xlink:href="#ma633ca9ff6" y="60.728"/>
     <use style="fill:#1f77b4;stroke:#1f77b4;" x="223.4419" xlink:href="#ma633ca9ff6" y="147.863529"/>
     <use style="fill:#1f77b4;stroke:#1f77b4;" x="225.330981" xlink:href="#ma633ca9ff6" y="159.157108"/>
     <use style="fill:#1f77b4;stroke:#1f77b4;" x="223.945138" xlink:href="#ma633ca9ff6" y="166.288791"/>
     <use style="fill:#1f77b4;stroke:#1f77b4;" x="223.62036" xlink:href="#ma633ca9ff6" y="144.562941"/>
     <use style="fill:#1f77b4;stroke:#1f77b4;" x="224.47678" xlink:href="#ma633ca9ff6" y="112.806796"/>
     <use style="fill:#1f77b4;stroke:#1f77b4;" x="224.721529" xlink:href="#ma633ca9ff6" y="105.616"/>
     <use style="fill:#1f77b4;stroke:#1f77b4;" x="224.062549" xlink:href="#ma633ca9ff6" y="169.844043"/>
     <use style="fill:#1f77b4;stroke:#1f77b4;" x="224.009171" xlink:href="#ma633ca9ff6" y="204.006869"/>
     <use style="fill:#1f77b4;stroke:#1f77b4;" x="224.880217" xlink:href="#ma633ca9ff6" y="117.858182"/>
     <use style="fill:#1f77b4;stroke:#1f77b4;" x="224.452079" xlink:href="#ma633ca9ff6" y="160.307126"/>
     <use style="fill:#1f77b4;stroke:#1f77b4;" x="224.307227" xlink:href="#ma633ca9ff6" y="179.069091"/>
     <use style="fill:#1f77b4;stroke:#1f77b4;" x="224.440819" xlink:href="#ma633ca9ff6" y="153.3095"/>
     <use style="fill:#1f77b4;stroke:#1f77b4;" x="224.529153" xlink:href="#ma633ca9ff6" y="202.346479"/>
     <use style="fill:#1f77b4;stroke:#1f77b4;" x="225.537633" xlink:href="#ma633ca9ff6" y="196.486829"/>
     <use style="fill:#1f77b4;stroke:#1f77b4;" x="225.271415" xlink:href="#ma633ca9ff6" y="193.477346"/>
     <use style="fill:#1f77b4;stroke:#1f77b4;" x="225.426536" xlink:href="#ma633ca9ff6" y="132.80169"/>
     <use style="fill:#1f77b4;stroke:#1f77b4;" x="225.622213" xlink:href="#ma633ca9ff6" y="146.763333"/>
     <use style="fill:#1f77b4;stroke:#1f77b4;" x="223.659834" xlink:href="#ma633ca9ff6" y="128.06"/>
     <use style="fill:#1f77b4;stroke:#1f77b4;" x="224.115908" xlink:href="#ma633ca9ff6" y="240.28"/>
     <use style="fill:#1f77b4;stroke:#1f77b4;" x="273.355348" xlink:href="#ma633ca9ff6" y="174.818333"/>
     <use style="fill:#1f77b4;stroke:#1f77b4;" x="272.964998" xlink:href="#ma633ca9ff6" y="140.528889"/>
     <use style="fill:#1f77b4;stroke:#1f77b4;" x="273.231886" xlink:href="#ma633ca9ff6" y="167.206512"/>
     <use style="fill:#1f77b4;stroke:#1f77b4;" x="273.403587" xlink:href="#ma633ca9ff6" y="179.414915"/>
     <use style="fill:#1f77b4;stroke:#1f77b4;" x="272.940416" xlink:href="#ma633ca9ff6" y="182.36"/>
     <use style="fill:#1f77b4;stroke:#1f77b4;" x="273.600883" xlink:href="#ma633ca9ff6" y="153.710286"/>
     <use style="fill:#1f77b4;stroke:#1f77b4;" x="274.064755" xlink:href="#ma633ca9ff6" y="100.763243"/>
     <use style="fill:#1f77b4;stroke:#1f77b4;" x="274.363949" xlink:href="#ma633ca9ff6" y="129.1822"/>
     <use style="fill:#1f77b4;stroke:#1f77b4;" x="274.013576" xlink:href="#ma633ca9ff6" y="125.054107"/>
     <use style="fill:#1f77b4;stroke:#1f77b4;" x="272.538183" xlink:href="#ma633ca9ff6" y="217.836"/>
     <use style="fill:#1f77b4;stroke:#1f77b4;" x="272.57773" xlink:href="#ma633ca9ff6" y="127.066903"/>
     <use style="fill:#1f77b4;stroke:#1f77b4;" x="271.152538" xlink:href="#ma633ca9ff6" y="181.498095"/>
     <use style="fill:#1f77b4;stroke:#1f77b4;" x="273.498581" xlink:href="#ma633ca9ff6" y="194.371818"/>
     <use style="fill:#1f77b4;stroke:#1f77b4;" x="271.620594" xlink:href="#ma633ca9ff6" y="168.237531"/>
     <use style="fill:#1f77b4;stroke:#1f77b4;" x="271.701598" xlink:href="#ma633ca9ff6" y="217.836"/>
     <use style="fill:#1f77b4;stroke:#1f77b4;" x="273.708417" xlink:href="#ma633ca9ff6" y="204.258765"/>
     <use style="fill:#1f77b4;stroke:#1f77b4;" x="274.69193" xlink:href="#ma633ca9ff6" y="175.974157"/>
     <use style="fill:#1f77b4;stroke:#1f77b4;" x="273.600089" xlink:href="#ma633ca9ff6" y="141.053895"/>
     <use style="fill:#1f77b4;stroke:#1f77b4;" x="273.781293" xlink:href="#ma633ca9ff6" y="128.06"/>
     <use style="fill:#1f77b4;stroke:#1f77b4;" x="273.821284" xlink:href="#ma633ca9ff6" y="216.654737"/>
     <use style="fill:#1f77b4;stroke:#1f77b4;" x="275.900178" xlink:href="#ma633ca9ff6" y="217.836"/>
     <use style="fill:#1f77b4;stroke:#1f77b4;" x="322.769645" xlink:href="#ma633ca9ff6" y="239.509485"/>
     <use style="fill:#1f77b4;stroke:#1f77b4;" x="322.895813" xlink:href="#ma633ca9ff6" y="170.1425"/>
     <use style="fill:#1f77b4;stroke:#1f77b4;" x="321.612884" xlink:href="#ma633ca9ff6" y="201.804571"/>
     <use style="fill:#1f77b4;stroke:#1f77b4;" x="322.831919" xlink:href="#ma633ca9ff6" y="218.007328"/>
     <use style="fill:#1f77b4;stroke:#1f77b4;" x="320.884759" xlink:href="#ma633ca9ff6" y="210.845246"/>
     <use style="fill:#1f77b4;stroke:#1f77b4;" x="322.015329" xlink:href="#ma633ca9ff6" y="210.574706"/>
     <use style="fill:#1f77b4;stroke:#1f77b4;" x="322.290078" xlink:href="#ma633ca9ff6" y="151.350943"/>
     <use style="fill:#1f77b4;stroke:#1f77b4;" x="322.667493" xlink:href="#ma633ca9ff6" y="180.013704"/>
     <use style="fill:#1f77b4;stroke:#1f77b4;" x="322.869337" xlink:href="#ma633ca9ff6" y="129.070991"/>
     <use style="fill:#1f77b4;stroke:#1f77b4;" x="323.528945" xlink:href="#ma633ca9ff6" y="221.576667"/>
     <use style="fill:#1f77b4;stroke:#1f77b4;" x="321.454585" xlink:href="#ma633ca9ff6" y="203.686522"/>
     <use style="fill:#1f77b4;stroke:#1f77b4;" x="323.44854" xlink:href="#ma633ca9ff6" y="218.038198"/>
     <use style="fill:#1f77b4;stroke:#1f77b4;" x="322.361235" xlink:href="#ma633ca9ff6" y="209.95027"/>
     <use style="fill:#1f77b4;stroke:#1f77b4;" x="323.898186" xlink:href="#ma633ca9ff6" y="237.884846"/>
     <use style="fill:#1f77b4;stroke:#1f77b4;" x="322.159338" xlink:href="#ma633ca9ff6" y="223.341132"/>
     <use style="fill:#1f77b4;stroke:#1f77b4;" x="322.028564" xlink:href="#ma633ca9ff6" y="229.84093"/>
     <use style="fill:#1f77b4;stroke:#1f77b4;" x="321.769536" xlink:href="#ma633ca9ff6" y="162.695802"/>
     <use style="fill:#1f77b4;stroke:#1f77b4;" x="321.675707" xlink:href="#ma633ca9ff6" y="172.426047"/>
     <use style="fill:#1f77b4;stroke:#1f77b4;" x="322.795618" xlink:href="#ma633ca9ff6" y="240.28"/>
     <use style="fill:#1f77b4;stroke:#1f77b4;" x="321.189756" xlink:href="#ma633ca9ff6" y="200.672941"/>
     <use style="fill:#1f77b4;stroke:#1f77b4;" x="321.733245" xlink:href="#ma633ca9ff6" y="240.28"/>
    </g>
   </g>
   <g id="matplotlib.axis_1">
    <g id="xtick_1">
     <g id="line2d_1">
      <path clip-path="url(#p74301f27c2)" d="M 78.160833 240.28 
L 78.160833 15.84 
" style="fill:none;stroke:#b0b0b0;stroke-linecap:square;stroke-width:0.8;"/>
     </g>
     <g id="line2d_2">
      <defs>
       <path d="M 0 0 
L 0 3.5 
" id="mb317d12f61" style="stroke:#000000;stroke-width:0.8;"/>
      </defs>
      <g>
       <use style="stroke:#000000;stroke-width:0.8;" x="78.160833" xlink:href="#mb317d12f61" y="240.28"/>
      </g>
     </g>
     <g id="text_1">
      <!-- data -->
      <defs>
       <path d="M 45.40625 46.390625 
L 45.40625 75.984375 
L 54.390625 75.984375 
L 54.390625 0 
L 45.40625 0 
L 45.40625 8.203125 
Q 42.578125 3.328125 38.25 0.953125 
Q 33.9375 -1.421875 27.875 -1.421875 
Q 17.96875 -1.421875 11.734375 6.484375 
Q 5.515625 14.40625 5.515625 27.296875 
Q 5.515625 40.1875 11.734375 48.09375 
Q 17.96875 56 27.875 56 
Q 33.9375 56 38.25 53.625 
Q 42.578125 51.265625 45.40625 46.390625 
z
M 14.796875 27.296875 
Q 14.796875 17.390625 18.875 11.75 
Q 22.953125 6.109375 30.078125 6.109375 
Q 37.203125 6.109375 41.296875 11.75 
Q 45.40625 17.390625 45.40625 27.296875 
Q 45.40625 37.203125 41.296875 42.84375 
Q 37.203125 48.484375 30.078125 48.484375 
Q 22.953125 48.484375 18.875 42.84375 
Q 14.796875 37.203125 14.796875 27.296875 
z
" id="DejaVuSans-64"/>
       <path d="M 34.28125 27.484375 
Q 23.390625 27.484375 19.1875 25 
Q 14.984375 22.515625 14.984375 16.5 
Q 14.984375 11.71875 18.140625 8.90625 
Q 21.296875 6.109375 26.703125 6.109375 
Q 34.1875 6.109375 38.703125 11.40625 
Q 43.21875 16.703125 43.21875 25.484375 
L 43.21875 27.484375 
z
M 52.203125 31.203125 
L 52.203125 0 
L 43.21875 0 
L 43.21875 8.296875 
Q 40.140625 3.328125 35.546875 0.953125 
Q 30.953125 -1.421875 24.3125 -1.421875 
Q 15.921875 -1.421875 10.953125 3.296875 
Q 6 8.015625 6 15.921875 
Q 6 25.140625 12.171875 29.828125 
Q 18.359375 34.515625 30.609375 34.515625 
L 43.21875 34.515625 
L 43.21875 35.40625 
Q 43.21875 41.609375 39.140625 45 
Q 35.0625 48.390625 27.6875 48.390625 
Q 23 48.390625 18.546875 47.265625 
Q 14.109375 46.140625 10.015625 43.890625 
L 10.015625 52.203125 
Q 14.9375 54.109375 19.578125 55.046875 
Q 24.21875 56 28.609375 56 
Q 40.484375 56 46.34375 49.84375 
Q 52.203125 43.703125 52.203125 31.203125 
z
" id="DejaVuSans-61"/>
       <path d="M 18.3125 70.21875 
L 18.3125 54.6875 
L 36.8125 54.6875 
L 36.8125 47.703125 
L 18.3125 47.703125 
L 18.3125 18.015625 
Q 18.3125 11.328125 20.140625 9.421875 
Q 21.96875 7.515625 27.59375 7.515625 
L 36.8125 7.515625 
L 36.8125 0 
L 27.59375 0 
Q 17.1875 0 13.234375 3.875 
Q 9.28125 7.765625 9.28125 18.015625 
L 9.28125 47.703125 
L 2.6875 47.703125 
L 2.6875 54.6875 
L 9.28125 54.6875 
L 9.28125 70.21875 
z
" id="DejaVuSans-74"/>
      </defs>
      <g transform="translate(64.645833 256.398125)scale(0.12 -0.12)">
       <use xlink:href="#DejaVuSans-64"/>
       <use x="63.476562" xlink:href="#DejaVuSans-61"/>
       <use x="124.755859" xlink:href="#DejaVuSans-74"/>
       <use x="163.964844" xlink:href="#DejaVuSans-61"/>
      </g>
     </g>
    </g>
    <g id="xtick_2">
     <g id="line2d_3">
      <path clip-path="url(#p74301f27c2)" d="M 126.9825 240.28 
L 126.9825 15.84 
" style="fill:none;stroke:#b0b0b0;stroke-linecap:square;stroke-width:0.8;"/>
     </g>
     <g id="line2d_4">
      <g>
       <use style="stroke:#000000;stroke-width:0.8;" x="126.9825" xlink:href="#mb317d12f61" y="240.28"/>
      </g>
     </g>
     <g id="text_2">
      <!-- x0.01 -->
      <defs>
       <path d="M 54.890625 54.6875 
L 35.109375 28.078125 
L 55.90625 0 
L 45.3125 0 
L 29.390625 21.484375 
L 13.484375 0 
L 2.875 0 
L 24.125 28.609375 
L 4.6875 54.6875 
L 15.28125 54.6875 
L 29.78125 35.203125 
L 44.28125 54.6875 
z
" id="DejaVuSans-78"/>
       <path d="M 31.78125 66.40625 
Q 24.171875 66.40625 20.328125 58.90625 
Q 16.5 51.421875 16.5 36.375 
Q 16.5 21.390625 20.328125 13.890625 
Q 24.171875 6.390625 31.78125 6.390625 
Q 39.453125 6.390625 43.28125 13.890625 
Q 47.125 21.390625 47.125 36.375 
Q 47.125 51.421875 43.28125 58.90625 
Q 39.453125 66.40625 31.78125 66.40625 
z
M 31.78125 74.21875 
Q 44.046875 74.21875 50.515625 64.515625 
Q 56.984375 54.828125 56.984375 36.375 
Q 56.984375 17.96875 50.515625 8.265625 
Q 44.046875 -1.421875 31.78125 -1.421875 
Q 19.53125 -1.421875 13.0625 8.265625 
Q 6.59375 17.96875 6.59375 36.375 
Q 6.59375 54.828125 13.0625 64.515625 
Q 19.53125 74.21875 31.78125 74.21875 
z
" id="DejaVuSans-30"/>
       <path d="M 10.6875 12.40625 
L 21 12.40625 
L 21 0 
L 10.6875 0 
z
" id="DejaVuSans-2e"/>
       <path d="M 12.40625 8.296875 
L 28.515625 8.296875 
L 28.515625 63.921875 
L 10.984375 60.40625 
L 10.984375 69.390625 
L 28.421875 72.90625 
L 38.28125 72.90625 
L 38.28125 8.296875 
L 54.390625 8.296875 
L 54.390625 0 
L 12.40625 0 
z
" id="DejaVuSans-31"/>
      </defs>
      <g transform="translate(110.071875 256.398125)scale(0.12 -0.12)">
       <use xlink:href="#DejaVuSans-78"/>
       <use x="59.179688" xlink:href="#DejaVuSans-30"/>
       <use x="122.802734" xlink:href="#DejaVuSans-2e"/>
       <use x="154.589844" xlink:href="#DejaVuSans-30"/>
       <use x="218.212891" xlink:href="#DejaVuSans-31"/>
      </g>
     </g>
    </g>
    <g id="xtick_3">
     <g id="line2d_5">
      <path clip-path="url(#p74301f27c2)" d="M 175.804167 240.28 
L 175.804167 15.84 
" style="fill:none;stroke:#b0b0b0;stroke-linecap:square;stroke-width:0.8;"/>
     </g>
     <g id="line2d_6">
      <g>
       <use style="stroke:#000000;stroke-width:0.8;" x="175.804167" xlink:href="#mb317d12f61" y="240.28"/>
      </g>
     </g>
     <g id="text_3">
      <!-- x0.1 -->
      <g transform="translate(162.711042 256.398125)scale(0.12 -0.12)">
       <use xlink:href="#DejaVuSans-78"/>
       <use x="59.179688" xlink:href="#DejaVuSans-30"/>
       <use x="122.802734" xlink:href="#DejaVuSans-2e"/>
       <use x="154.589844" xlink:href="#DejaVuSans-31"/>
      </g>
     </g>
    </g>
    <g id="xtick_4">
     <g id="line2d_7">
      <path clip-path="url(#p74301f27c2)" d="M 224.625833 240.28 
L 224.625833 15.84 
" style="fill:none;stroke:#b0b0b0;stroke-linecap:square;stroke-width:0.8;"/>
     </g>
     <g id="line2d_8">
      <g>
       <use style="stroke:#000000;stroke-width:0.8;" x="224.625833" xlink:href="#mb317d12f61" y="240.28"/>
      </g>
     </g>
     <g id="text_4">
      <!-- exp. value -->
      <defs>
       <path d="M 56.203125 29.59375 
L 56.203125 25.203125 
L 14.890625 25.203125 
Q 15.484375 15.921875 20.484375 11.0625 
Q 25.484375 6.203125 34.421875 6.203125 
Q 39.59375 6.203125 44.453125 7.46875 
Q 49.3125 8.734375 54.109375 11.28125 
L 54.109375 2.78125 
Q 49.265625 0.734375 44.1875 -0.34375 
Q 39.109375 -1.421875 33.890625 -1.421875 
Q 20.796875 -1.421875 13.15625 6.1875 
Q 5.515625 13.8125 5.515625 26.8125 
Q 5.515625 40.234375 12.765625 48.109375 
Q 20.015625 56 32.328125 56 
Q 43.359375 56 49.78125 48.890625 
Q 56.203125 41.796875 56.203125 29.59375 
z
M 47.21875 32.234375 
Q 47.125 39.59375 43.09375 43.984375 
Q 39.0625 48.390625 32.421875 48.390625 
Q 24.90625 48.390625 20.390625 44.140625 
Q 15.875 39.890625 15.1875 32.171875 
z
" id="DejaVuSans-65"/>
       <path d="M 18.109375 8.203125 
L 18.109375 -20.796875 
L 9.078125 -20.796875 
L 9.078125 54.6875 
L 18.109375 54.6875 
L 18.109375 46.390625 
Q 20.953125 51.265625 25.265625 53.625 
Q 29.59375 56 35.59375 56 
Q 45.5625 56 51.78125 48.09375 
Q 58.015625 40.1875 58.015625 27.296875 
Q 58.015625 14.40625 51.78125 6.484375 
Q 45.5625 -1.421875 35.59375 -1.421875 
Q 29.59375 -1.421875 25.265625 0.953125 
Q 20.953125 3.328125 18.109375 8.203125 
z
M 48.6875 27.296875 
Q 48.6875 37.203125 44.609375 42.84375 
Q 40.53125 48.484375 33.40625 48.484375 
Q 26.265625 48.484375 22.1875 42.84375 
Q 18.109375 37.203125 18.109375 27.296875 
Q 18.109375 17.390625 22.1875 11.75 
Q 26.265625 6.109375 33.40625 6.109375 
Q 40.53125 6.109375 44.609375 11.75 
Q 48.6875 17.390625 48.6875 27.296875 
z
" id="DejaVuSans-70"/>
       <path id="DejaVuSans-20"/>
       <path d="M 2.984375 54.6875 
L 12.5 54.6875 
L 29.59375 8.796875 
L 46.6875 54.6875 
L 56.203125 54.6875 
L 35.6875 0 
L 23.484375 0 
z
" id="DejaVuSans-76"/>
       <path d="M 9.421875 75.984375 
L 18.40625 75.984375 
L 18.40625 0 
L 9.421875 0 
z
" id="DejaVuSans-6c"/>
       <path d="M 8.5 21.578125 
L 8.5 54.6875 
L 17.484375 54.6875 
L 17.484375 21.921875 
Q 17.484375 14.15625 20.5 10.265625 
Q 23.53125 6.390625 29.59375 6.390625 
Q 36.859375 6.390625 41.078125 11.03125 
Q 45.3125 15.671875 45.3125 23.6875 
L 45.3125 54.6875 
L 54.296875 54.6875 
L 54.296875 0 
L 45.3125 0 
L 45.3125 8.40625 
Q 42.046875 3.421875 37.71875 1 
Q 33.40625 -1.421875 27.6875 -1.421875 
Q 18.265625 -1.421875 13.375 4.4375 
Q 8.5 10.296875 8.5 21.578125 
z
M 31.109375 56 
z
" id="DejaVuSans-75"/>
      </defs>
      <g transform="translate(193.371458 256.398125)scale(0.12 -0.12)">
       <use xlink:href="#DejaVuSans-65"/>
       <use x="61.507812" xlink:href="#DejaVuSans-78"/>
       <use x="120.6875" xlink:href="#DejaVuSans-70"/>
       <use x="184.164062" xlink:href="#DejaVuSans-2e"/>
       <use x="215.951172" xlink:href="#DejaVuSans-20"/>
       <use x="247.738281" xlink:href="#DejaVuSans-76"/>
       <use x="306.917969" xlink:href="#DejaVuSans-61"/>
       <use x="368.197266" xlink:href="#DejaVuSans-6c"/>
       <use x="395.980469" xlink:href="#DejaVuSans-75"/>
       <use x="459.359375" xlink:href="#DejaVuSans-65"/>
      </g>
     </g>
    </g>
    <g id="xtick_5">
     <g id="line2d_9">
      <path clip-path="url(#p74301f27c2)" d="M 273.4475 240.28 
L 273.4475 15.84 
" style="fill:none;stroke:#b0b0b0;stroke-linecap:square;stroke-width:0.8;"/>
     </g>
     <g id="line2d_10">
      <g>
       <use style="stroke:#000000;stroke-width:0.8;" x="273.4475" xlink:href="#mb317d12f61" y="240.28"/>
      </g>
     </g>
     <g id="text_5">
      <!-- x10 -->
      <g transform="translate(262.26125 256.398125)scale(0.12 -0.12)">
       <use xlink:href="#DejaVuSans-78"/>
       <use x="59.179688" xlink:href="#DejaVuSans-31"/>
       <use x="122.802734" xlink:href="#DejaVuSans-30"/>
      </g>
     </g>
    </g>
    <g id="xtick_6">
     <g id="line2d_11">
      <path clip-path="url(#p74301f27c2)" d="M 322.269167 240.28 
L 322.269167 15.84 
" style="fill:none;stroke:#b0b0b0;stroke-linecap:square;stroke-width:0.8;"/>
     </g>
     <g id="line2d_12">
      <g>
       <use style="stroke:#000000;stroke-width:0.8;" x="322.269167" xlink:href="#mb317d12f61" y="240.28"/>
      </g>
     </g>
     <g id="text_6">
      <!-- x100 -->
      <g transform="translate(307.265417 256.398125)scale(0.12 -0.12)">
       <use xlink:href="#DejaVuSans-78"/>
       <use x="59.179688" xlink:href="#DejaVuSans-31"/>
       <use x="122.802734" xlink:href="#DejaVuSans-30"/>
       <use x="186.425781" xlink:href="#DejaVuSans-30"/>
      </g>
     </g>
    </g>
    <g id="text_7">
     <!-- Indicator concentration (M) -->
     <defs>
      <path d="M 9.8125 72.90625 
L 19.671875 72.90625 
L 19.671875 0 
L 9.8125 0 
z
" id="DejaVuSans-49"/>
      <path d="M 54.890625 33.015625 
L 54.890625 0 
L 45.90625 0 
L 45.90625 32.71875 
Q 45.90625 40.484375 42.875 44.328125 
Q 39.84375 48.1875 33.796875 48.1875 
Q 26.515625 48.1875 22.3125 43.546875 
Q 18.109375 38.921875 18.109375 30.90625 
L 18.109375 0 
L 9.078125 0 
L 9.078125 54.6875 
L 18.109375 54.6875 
L 18.109375 46.1875 
Q 21.34375 51.125 25.703125 53.5625 
Q 30.078125 56 35.796875 56 
Q 45.21875 56 50.046875 50.171875 
Q 54.890625 44.34375 54.890625 33.015625 
z
" id="DejaVuSans-6e"/>
      <path d="M 9.421875 54.6875 
L 18.40625 54.6875 
L 18.40625 0 
L 9.421875 0 
z
M 9.421875 75.984375 
L 18.40625 75.984375 
L 18.40625 64.59375 
L 9.421875 64.59375 
z
" id="DejaVuSans-69"/>
      <path d="M 48.78125 52.59375 
L 48.78125 44.1875 
Q 44.96875 46.296875 41.140625 47.34375 
Q 37.3125 48.390625 33.40625 48.390625 
Q 24.65625 48.390625 19.8125 42.84375 
Q 14.984375 37.3125 14.984375 27.296875 
Q 14.984375 17.28125 19.8125 11.734375 
Q 24.65625 6.203125 33.40625 6.203125 
Q 37.3125 6.203125 41.140625 7.25 
Q 44.96875 8.296875 48.78125 10.40625 
L 48.78125 2.09375 
Q 45.015625 0.34375 40.984375 -0.53125 
Q 36.96875 -1.421875 32.421875 -1.421875 
Q 20.0625 -1.421875 12.78125 6.34375 
Q 5.515625 14.109375 5.515625 27.296875 
Q 5.515625 40.671875 12.859375 48.328125 
Q 20.21875 56 33.015625 56 
Q 37.15625 56 41.109375 55.140625 
Q 45.0625 54.296875 48.78125 52.59375 
z
" id="DejaVuSans-63"/>
      <path d="M 30.609375 48.390625 
Q 23.390625 48.390625 19.1875 42.75 
Q 14.984375 37.109375 14.984375 27.296875 
Q 14.984375 17.484375 19.15625 11.84375 
Q 23.34375 6.203125 30.609375 6.203125 
Q 37.796875 6.203125 41.984375 11.859375 
Q 46.1875 17.53125 46.1875 27.296875 
Q 46.1875 37.015625 41.984375 42.703125 
Q 37.796875 48.390625 30.609375 48.390625 
z
M 30.609375 56 
Q 42.328125 56 49.015625 48.375 
Q 55.71875 40.765625 55.71875 27.296875 
Q 55.71875 13.875 49.015625 6.21875 
Q 42.328125 -1.421875 30.609375 -1.421875 
Q 18.84375 -1.421875 12.171875 6.21875 
Q 5.515625 13.875 5.515625 27.296875 
Q 5.515625 40.765625 12.171875 48.375 
Q 18.84375 56 30.609375 56 
z
" id="DejaVuSans-6f"/>
      <path d="M 41.109375 46.296875 
Q 39.59375 47.171875 37.8125 47.578125 
Q 36.03125 48 33.890625 48 
Q 26.265625 48 22.1875 43.046875 
Q 18.109375 38.09375 18.109375 28.8125 
L 18.109375 0 
L 9.078125 0 
L 9.078125 54.6875 
L 18.109375 54.6875 
L 18.109375 46.1875 
Q 20.953125 51.171875 25.484375 53.578125 
Q 30.03125 56 36.53125 56 
Q 37.453125 56 38.578125 55.875 
Q 39.703125 55.765625 41.0625 55.515625 
z
" id="DejaVuSans-72"/>
      <path d="M 31 75.875 
Q 24.46875 64.65625 21.28125 53.65625 
Q 18.109375 42.671875 18.109375 31.390625 
Q 18.109375 20.125 21.3125 9.0625 
Q 24.515625 -2 31 -13.1875 
L 23.1875 -13.1875 
Q 15.875 -1.703125 12.234375 9.375 
Q 8.59375 20.453125 8.59375 31.390625 
Q 8.59375 42.28125 12.203125 53.3125 
Q 15.828125 64.359375 23.1875 75.875 
z
" id="DejaVuSans-28"/>
      <path d="M 9.8125 72.90625 
L 24.515625 72.90625 
L 43.109375 23.296875 
L 61.8125 72.90625 
L 76.515625 72.90625 
L 76.515625 0 
L 66.890625 0 
L 66.890625 64.015625 
L 48.09375 14.015625 
L 38.1875 14.015625 
L 19.390625 64.015625 
L 19.390625 0 
L 9.8125 0 
z
" id="DejaVuSans-4d"/>
      <path d="M 8.015625 75.875 
L 15.828125 75.875 
Q 23.140625 64.359375 26.78125 53.3125 
Q 30.421875 42.28125 30.421875 31.390625 
Q 30.421875 20.453125 26.78125 9.375 
Q 23.140625 -1.703125 15.828125 -13.1875 
L 8.015625 -13.1875 
Q 14.5 -2 17.703125 9.0625 
Q 20.90625 20.125 20.90625 31.390625 
Q 20.90625 42.671875 17.703125 53.65625 
Q 14.5 64.65625 8.015625 75.875 
z
" id="DejaVuSans-29"/>
     </defs>
     <g transform="translate(118.473438 272.011875)scale(0.12 -0.12)">
      <use xlink:href="#DejaVuSans-49"/>
      <use x="29.492188" xlink:href="#DejaVuSans-6e"/>
      <use x="92.871094" xlink:href="#DejaVuSans-64"/>
      <use x="156.347656" xlink:href="#DejaVuSans-69"/>
      <use x="184.130859" xlink:href="#DejaVuSans-63"/>
      <use x="239.111328" xlink:href="#DejaVuSans-61"/>
      <use x="300.390625" xlink:href="#DejaVuSans-74"/>
      <use x="339.599609" xlink:href="#DejaVuSans-6f"/>
      <use x="400.78125" xlink:href="#DejaVuSans-72"/>
      <use x="441.894531" xlink:href="#DejaVuSans-20"/>
      <use x="473.681641" xlink:href="#DejaVuSans-63"/>
      <use x="528.662109" xlink:href="#DejaVuSans-6f"/>
      <use x="589.84375" xlink:href="#DejaVuSans-6e"/>
      <use x="653.222656" xlink:href="#DejaVuSans-63"/>
      <use x="708.203125" xlink:href="#DejaVuSans-65"/>
      <use x="769.726562" xlink:href="#DejaVuSans-6e"/>
      <use x="833.105469" xlink:href="#DejaVuSans-74"/>
      <use x="872.314453" xlink:href="#DejaVuSans-72"/>
      <use x="913.427734" xlink:href="#DejaVuSans-61"/>
      <use x="974.707031" xlink:href="#DejaVuSans-74"/>
      <use x="1013.916016" xlink:href="#DejaVuSans-69"/>
      <use x="1041.699219" xlink:href="#DejaVuSans-6f"/>
      <use x="1102.880859" xlink:href="#DejaVuSans-6e"/>
      <use x="1166.259766" xlink:href="#DejaVuSans-20"/>
      <use x="1198.046875" xlink:href="#DejaVuSans-28"/>
      <use x="1237.060547" xlink:href="#DejaVuSans-4d"/>
      <use x="1323.339844" xlink:href="#DejaVuSans-29"/>
     </g>
    </g>
   </g>
   <g id="matplotlib.axis_2">
    <g id="ytick_1">
     <g id="line2d_13">
      <path clip-path="url(#p74301f27c2)" d="M 53.75 240.28 
L 346.68 240.28 
" style="fill:none;stroke:#b0b0b0;stroke-linecap:square;stroke-width:0.8;"/>
     </g>
     <g id="line2d_14">
      <defs>
       <path d="M 0 0 
L -3.5 0 
" id="m52f78271e3" style="stroke:#000000;stroke-width:0.8;"/>
      </defs>
      <g>
       <use style="stroke:#000000;stroke-width:0.8;" x="53.75" xlink:href="#m52f78271e3" y="240.28"/>
      </g>
     </g>
     <g id="text_8">
      <!-- 0.0 -->
      <g transform="translate(27.66625 244.839062)scale(0.12 -0.12)">
       <use xlink:href="#DejaVuSans-30"/>
       <use x="63.623047" xlink:href="#DejaVuSans-2e"/>
       <use x="95.410156" xlink:href="#DejaVuSans-30"/>
      </g>
     </g>
    </g>
    <g id="ytick_2">
     <g id="line2d_15">
      <path clip-path="url(#p74301f27c2)" d="M 53.75 195.392 
L 346.68 195.392 
" style="fill:none;stroke:#b0b0b0;stroke-linecap:square;stroke-width:0.8;"/>
     </g>
     <g id="line2d_16">
      <g>
       <use style="stroke:#000000;stroke-width:0.8;" x="53.75" xlink:href="#m52f78271e3" y="195.392"/>
      </g>
     </g>
     <g id="text_9">
      <!-- 0.2 -->
      <defs>
       <path d="M 19.1875 8.296875 
L 53.609375 8.296875 
L 53.609375 0 
L 7.328125 0 
L 7.328125 8.296875 
Q 12.9375 14.109375 22.625 23.890625 
Q 32.328125 33.6875 34.8125 36.53125 
Q 39.546875 41.84375 41.421875 45.53125 
Q 43.3125 49.21875 43.3125 52.78125 
Q 43.3125 58.59375 39.234375 62.25 
Q 35.15625 65.921875 28.609375 65.921875 
Q 23.96875 65.921875 18.8125 64.3125 
Q 13.671875 62.703125 7.8125 59.421875 
L 7.8125 69.390625 
Q 13.765625 71.78125 18.9375 73 
Q 24.125 74.21875 28.421875 74.21875 
Q 39.75 74.21875 46.484375 68.546875 
Q 53.21875 62.890625 53.21875 53.421875 
Q 53.21875 48.921875 51.53125 44.890625 
Q 49.859375 40.875 45.40625 35.40625 
Q 44.1875 33.984375 37.640625 27.21875 
Q 31.109375 20.453125 19.1875 8.296875 
z
" id="DejaVuSans-32"/>
      </defs>
      <g transform="translate(27.66625 199.951062)scale(0.12 -0.12)">
       <use xlink:href="#DejaVuSans-30"/>
       <use x="63.623047" xlink:href="#DejaVuSans-2e"/>
       <use x="95.410156" xlink:href="#DejaVuSans-32"/>
      </g>
     </g>
    </g>
    <g id="ytick_3">
     <g id="line2d_17">
      <path clip-path="url(#p74301f27c2)" d="M 53.75 150.504 
L 346.68 150.504 
" style="fill:none;stroke:#b0b0b0;stroke-linecap:square;stroke-width:0.8;"/>
     </g>
     <g id="line2d_18">
      <g>
       <use style="stroke:#000000;stroke-width:0.8;" x="53.75" xlink:href="#m52f78271e3" y="150.504"/>
      </g>
     </g>
     <g id="text_10">
      <!-- 0.4 -->
      <defs>
       <path d="M 37.796875 64.3125 
L 12.890625 25.390625 
L 37.796875 25.390625 
z
M 35.203125 72.90625 
L 47.609375 72.90625 
L 47.609375 25.390625 
L 58.015625 25.390625 
L 58.015625 17.1875 
L 47.609375 17.1875 
L 47.609375 0 
L 37.796875 0 
L 37.796875 17.1875 
L 4.890625 17.1875 
L 4.890625 26.703125 
z
" id="DejaVuSans-34"/>
      </defs>
      <g transform="translate(27.66625 155.063062)scale(0.12 -0.12)">
       <use xlink:href="#DejaVuSans-30"/>
       <use x="63.623047" xlink:href="#DejaVuSans-2e"/>
       <use x="95.410156" xlink:href="#DejaVuSans-34"/>
      </g>
     </g>
    </g>
    <g id="ytick_4">
     <g id="line2d_19">
      <path clip-path="url(#p74301f27c2)" d="M 53.75 105.616 
L 346.68 105.616 
" style="fill:none;stroke:#b0b0b0;stroke-linecap:square;stroke-width:0.8;"/>
     </g>
     <g id="line2d_20">
      <g>
       <use style="stroke:#000000;stroke-width:0.8;" x="53.75" xlink:href="#m52f78271e3" y="105.616"/>
      </g>
     </g>
     <g id="text_11">
      <!-- 0.6 -->
      <defs>
       <path d="M 33.015625 40.375 
Q 26.375 40.375 22.484375 35.828125 
Q 18.609375 31.296875 18.609375 23.390625 
Q 18.609375 15.53125 22.484375 10.953125 
Q 26.375 6.390625 33.015625 6.390625 
Q 39.65625 6.390625 43.53125 10.953125 
Q 47.40625 15.53125 47.40625 23.390625 
Q 47.40625 31.296875 43.53125 35.828125 
Q 39.65625 40.375 33.015625 40.375 
z
M 52.59375 71.296875 
L 52.59375 62.3125 
Q 48.875 64.0625 45.09375 64.984375 
Q 41.3125 65.921875 37.59375 65.921875 
Q 27.828125 65.921875 22.671875 59.328125 
Q 17.53125 52.734375 16.796875 39.40625 
Q 19.671875 43.65625 24.015625 45.921875 
Q 28.375 48.1875 33.59375 48.1875 
Q 44.578125 48.1875 50.953125 41.515625 
Q 57.328125 34.859375 57.328125 23.390625 
Q 57.328125 12.15625 50.6875 5.359375 
Q 44.046875 -1.421875 33.015625 -1.421875 
Q 20.359375 -1.421875 13.671875 8.265625 
Q 6.984375 17.96875 6.984375 36.375 
Q 6.984375 53.65625 15.1875 63.9375 
Q 23.390625 74.21875 37.203125 74.21875 
Q 40.921875 74.21875 44.703125 73.484375 
Q 48.484375 72.75 52.59375 71.296875 
z
" id="DejaVuSans-36"/>
      </defs>
      <g transform="translate(27.66625 110.175062)scale(0.12 -0.12)">
       <use xlink:href="#DejaVuSans-30"/>
       <use x="63.623047" xlink:href="#DejaVuSans-2e"/>
       <use x="95.410156" xlink:href="#DejaVuSans-36"/>
      </g>
     </g>
    </g>
    <g id="ytick_5">
     <g id="line2d_21">
      <path clip-path="url(#p74301f27c2)" d="M 53.75 60.728 
L 346.68 60.728 
" style="fill:none;stroke:#b0b0b0;stroke-linecap:square;stroke-width:0.8;"/>
     </g>
     <g id="line2d_22">
      <g>
       <use style="stroke:#000000;stroke-width:0.8;" x="53.75" xlink:href="#m52f78271e3" y="60.728"/>
      </g>
     </g>
     <g id="text_12">
      <!-- 0.8 -->
      <defs>
       <path d="M 31.78125 34.625 
Q 24.75 34.625 20.71875 30.859375 
Q 16.703125 27.09375 16.703125 20.515625 
Q 16.703125 13.921875 20.71875 10.15625 
Q 24.75 6.390625 31.78125 6.390625 
Q 38.8125 6.390625 42.859375 10.171875 
Q 46.921875 13.96875 46.921875 20.515625 
Q 46.921875 27.09375 42.890625 30.859375 
Q 38.875 34.625 31.78125 34.625 
z
M 21.921875 38.8125 
Q 15.578125 40.375 12.03125 44.71875 
Q 8.5 49.078125 8.5 55.328125 
Q 8.5 64.0625 14.71875 69.140625 
Q 20.953125 74.21875 31.78125 74.21875 
Q 42.671875 74.21875 48.875 69.140625 
Q 55.078125 64.0625 55.078125 55.328125 
Q 55.078125 49.078125 51.53125 44.71875 
Q 48 40.375 41.703125 38.8125 
Q 48.828125 37.15625 52.796875 32.3125 
Q 56.78125 27.484375 56.78125 20.515625 
Q 56.78125 9.90625 50.3125 4.234375 
Q 43.84375 -1.421875 31.78125 -1.421875 
Q 19.734375 -1.421875 13.25 4.234375 
Q 6.78125 9.90625 6.78125 20.515625 
Q 6.78125 27.484375 10.78125 32.3125 
Q 14.796875 37.15625 21.921875 38.8125 
z
M 18.3125 54.390625 
Q 18.3125 48.734375 21.84375 45.5625 
Q 25.390625 42.390625 31.78125 42.390625 
Q 38.140625 42.390625 41.71875 45.5625 
Q 45.3125 48.734375 45.3125 54.390625 
Q 45.3125 60.0625 41.71875 63.234375 
Q 38.140625 66.40625 31.78125 66.40625 
Q 25.390625 66.40625 21.84375 63.234375 
Q 18.3125 60.0625 18.3125 54.390625 
z
" id="DejaVuSans-38"/>
      </defs>
      <g transform="translate(27.66625 65.287062)scale(0.12 -0.12)">
       <use xlink:href="#DejaVuSans-30"/>
       <use x="63.623047" xlink:href="#DejaVuSans-2e"/>
       <use x="95.410156" xlink:href="#DejaVuSans-38"/>
      </g>
     </g>
    </g>
    <g id="ytick_6">
     <g id="line2d_23">
      <path clip-path="url(#p74301f27c2)" d="M 53.75 15.84 
L 346.68 15.84 
" style="fill:none;stroke:#b0b0b0;stroke-linecap:square;stroke-width:0.8;"/>
     </g>
     <g id="line2d_24">
      <g>
       <use style="stroke:#000000;stroke-width:0.8;" x="53.75" xlink:href="#m52f78271e3" y="15.84"/>
      </g>
     </g>
     <g id="text_13">
      <!-- 1.0 -->
      <g transform="translate(27.66625 20.399062)scale(0.12 -0.12)">
       <use xlink:href="#DejaVuSans-31"/>
       <use x="63.623047" xlink:href="#DejaVuSans-2e"/>
       <use x="95.410156" xlink:href="#DejaVuSans-30"/>
      </g>
     </g>
    </g>
    <g id="text_14">
     <!-- True positive rate -->
     <defs>
      <path d="M -0.296875 72.90625 
L 61.375 72.90625 
L 61.375 64.59375 
L 35.5 64.59375 
L 35.5 0 
L 25.59375 0 
L 25.59375 64.59375 
L -0.296875 64.59375 
z
" id="DejaVuSans-54"/>
      <path d="M 44.28125 53.078125 
L 44.28125 44.578125 
Q 40.484375 46.53125 36.375 47.5 
Q 32.28125 48.484375 27.875 48.484375 
Q 21.1875 48.484375 17.84375 46.4375 
Q 14.5 44.390625 14.5 40.28125 
Q 14.5 37.15625 16.890625 35.375 
Q 19.28125 33.59375 26.515625 31.984375 
L 29.59375 31.296875 
Q 39.15625 29.25 43.1875 25.515625 
Q 47.21875 21.78125 47.21875 15.09375 
Q 47.21875 7.46875 41.1875 3.015625 
Q 35.15625 -1.421875 24.609375 -1.421875 
Q 20.21875 -1.421875 15.453125 -0.5625 
Q 10.6875 0.296875 5.421875 2 
L 5.421875 11.28125 
Q 10.40625 8.6875 15.234375 7.390625 
Q 20.0625 6.109375 24.8125 6.109375 
Q 31.15625 6.109375 34.5625 8.28125 
Q 37.984375 10.453125 37.984375 14.40625 
Q 37.984375 18.0625 35.515625 20.015625 
Q 33.0625 21.96875 24.703125 23.78125 
L 21.578125 24.515625 
Q 13.234375 26.265625 9.515625 29.90625 
Q 5.8125 33.546875 5.8125 39.890625 
Q 5.8125 47.609375 11.28125 51.796875 
Q 16.75 56 26.8125 56 
Q 31.78125 56 36.171875 55.265625 
Q 40.578125 54.546875 44.28125 53.078125 
z
" id="DejaVuSans-73"/>
     </defs>
     <g transform="translate(21.170625 181.20875)rotate(-90)scale(0.12 -0.12)">
      <use xlink:href="#DejaVuSans-54"/>
      <use x="60.865234" xlink:href="#DejaVuSans-72"/>
      <use x="101.978516" xlink:href="#DejaVuSans-75"/>
      <use x="165.357422" xlink:href="#DejaVuSans-65"/>
      <use x="226.880859" xlink:href="#DejaVuSans-20"/>
      <use x="258.667969" xlink:href="#DejaVuSans-70"/>
      <use x="322.144531" xlink:href="#DejaVuSans-6f"/>
      <use x="383.326172" xlink:href="#DejaVuSans-73"/>
      <use x="435.425781" xlink:href="#DejaVuSans-69"/>
      <use x="463.208984" xlink:href="#DejaVuSans-74"/>
      <use x="502.417969" xlink:href="#DejaVuSans-69"/>
      <use x="530.201172" xlink:href="#DejaVuSans-76"/>
      <use x="589.380859" xlink:href="#DejaVuSans-65"/>
      <use x="650.904297" xlink:href="#DejaVuSans-20"/>
      <use x="682.691406" xlink:href="#DejaVuSans-72"/>
      <use x="723.804688" xlink:href="#DejaVuSans-61"/>
      <use x="785.083984" xlink:href="#DejaVuSans-74"/>
      <use x="824.292969" xlink:href="#DejaVuSans-65"/>
     </g>
    </g>
   </g>
   <g id="line2d_25">
    <path clip-path="url(#p74301f27c2)" d="M 65.955417 180.663125 
L 90.36625 180.663125 
L 90.36625 142.0875 
L 65.955417 142.0875 
L 65.955417 180.663125 
" style="fill:none;stroke:#000000;stroke-linecap:square;"/>
   </g>
   <g id="line2d_26">
    <path clip-path="url(#p74301f27c2)" d="M 78.160833 180.663125 
L 78.160833 233.198155 
" style="fill:none;stroke:#000000;stroke-linecap:square;"/>
   </g>
   <g id="line2d_27">
    <path clip-path="url(#p74301f27c2)" d="M 78.160833 142.0875 
L 78.160833 121.647429 
" style="fill:none;stroke:#000000;stroke-linecap:square;"/>
   </g>
   <g id="line2d_28">
    <path clip-path="url(#p74301f27c2)" d="M 72.058125 233.198155 
L 84.263542 233.198155 
" style="fill:none;stroke:#000000;stroke-linecap:square;"/>
   </g>
   <g id="line2d_29">
    <path clip-path="url(#p74301f27c2)" d="M 72.058125 121.647429 
L 84.263542 121.647429 
" style="fill:none;stroke:#000000;stroke-linecap:square;"/>
   </g>
   <g id="line2d_30"/>
   <g id="line2d_31">
    <path clip-path="url(#p74301f27c2)" d="M 114.777083 230.49134 
L 139.187917 230.49134 
L 139.187917 197.772424 
L 114.777083 197.772424 
L 114.777083 230.49134 
" style="fill:none;stroke:#000000;stroke-linecap:square;"/>
   </g>
   <g id="line2d_32">
    <path clip-path="url(#p74301f27c2)" d="M 126.9825 230.49134 
L 126.9825 239.508198 
" style="fill:none;stroke:#000000;stroke-linecap:square;"/>
   </g>
   <g id="line2d_33">
    <path clip-path="url(#p74301f27c2)" d="M 126.9825 197.772424 
L 126.9825 162.569567 
" style="fill:none;stroke:#000000;stroke-linecap:square;"/>
   </g>
   <g id="line2d_34">
    <path clip-path="url(#p74301f27c2)" d="M 120.879792 239.508198 
L 133.085208 239.508198 
" style="fill:none;stroke:#000000;stroke-linecap:square;"/>
   </g>
   <g id="line2d_35">
    <path clip-path="url(#p74301f27c2)" d="M 120.879792 162.569567 
L 133.085208 162.569567 
" style="fill:none;stroke:#000000;stroke-linecap:square;"/>
   </g>
   <g id="line2d_36">
    <defs>
     <path d="M 0 3 
C 0.795609 3 1.55874 2.683901 2.12132 2.12132 
C 2.683901 1.55874 3 0.795609 3 0 
C 3 -0.795609 2.683901 -1.55874 2.12132 -2.12132 
C 1.55874 -2.683901 0.795609 -3 0 -3 
C -0.795609 -3 -1.55874 -2.683901 -2.12132 -2.12132 
C -2.683901 -1.55874 -3 -0.795609 -3 0 
C -3 0.795609 -2.683901 1.55874 -2.12132 2.12132 
C -1.55874 2.683901 -0.795609 3 0 3 
z
" id="mc1d03197ee" style="stroke:#000000;"/>
    </defs>
    <g clip-path="url(#p74301f27c2)">
     <use style="fill:none;stroke:#000000;" x="126.9825" xlink:href="#mc1d03197ee" y="105.096062"/>
    </g>
   </g>
   <g id="line2d_37">
    <path clip-path="url(#p74301f27c2)" d="M 163.59875 217.319386 
L 188.009583 217.319386 
L 188.009583 167.40987 
L 163.59875 167.40987 
L 163.59875 217.319386 
" style="fill:none;stroke:#000000;stroke-linecap:square;"/>
   </g>
   <g id="line2d_38">
    <path clip-path="url(#p74301f27c2)" d="M 175.804167 217.319386 
L 175.804167 237.537352 
" style="fill:none;stroke:#000000;stroke-linecap:square;"/>
   </g>
   <g id="line2d_39">
    <path clip-path="url(#p74301f27c2)" d="M 175.804167 167.40987 
L 175.804167 100.11951 
" style="fill:none;stroke:#000000;stroke-linecap:square;"/>
   </g>
   <g id="line2d_40">
    <path clip-path="url(#p74301f27c2)" d="M 169.701458 237.537352 
L 181.906875 237.537352 
" style="fill:none;stroke:#000000;stroke-linecap:square;"/>
   </g>
   <g id="line2d_41">
    <path clip-path="url(#p74301f27c2)" d="M 169.701458 100.11951 
L 181.906875 100.11951 
" style="fill:none;stroke:#000000;stroke-linecap:square;"/>
   </g>
   <g id="line2d_42">
    <g clip-path="url(#p74301f27c2)">
     <use style="fill:none;stroke:#000000;" x="175.804167" xlink:href="#mc1d03197ee" y="79.779302"/>
    </g>
   </g>
   <g id="line2d_43">
    <path clip-path="url(#p74301f27c2)" d="M 212.420417 193.477346 
L 236.83125 193.477346 
L 236.83125 132.80169 
L 212.420417 132.80169 
L 212.420417 193.477346 
" style="fill:none;stroke:#000000;stroke-linecap:square;"/>
   </g>
   <g id="line2d_44">
    <path clip-path="url(#p74301f27c2)" d="M 224.625833 193.477346 
L 224.625833 240.28 
" style="fill:none;stroke:#000000;stroke-linecap:square;"/>
   </g>
   <g id="line2d_45">
    <path clip-path="url(#p74301f27c2)" d="M 224.625833 132.80169 
L 224.625833 60.728 
" style="fill:none;stroke:#000000;stroke-linecap:square;"/>
   </g>
   <g id="line2d_46">
    <path clip-path="url(#p74301f27c2)" d="M 218.523125 240.28 
L 230.728542 240.28 
" style="fill:none;stroke:#000000;stroke-linecap:square;"/>
   </g>
   <g id="line2d_47">
    <path clip-path="url(#p74301f27c2)" d="M 218.523125 60.728 
L 230.728542 60.728 
" style="fill:none;stroke:#000000;stroke-linecap:square;"/>
   </g>
   <g id="line2d_48"/>
   <g id="line2d_49">
    <path clip-path="url(#p74301f27c2)" d="M 261.242083 194.371818 
L 285.652917 194.371818 
L 285.652917 140.528889 
L 261.242083 140.528889 
L 261.242083 194.371818 
" style="fill:none;stroke:#000000;stroke-linecap:square;"/>
   </g>
   <g id="line2d_50">
    <path clip-path="url(#p74301f27c2)" d="M 273.4475 194.371818 
L 273.4475 217.836 
" style="fill:none;stroke:#000000;stroke-linecap:square;"/>
   </g>
   <g id="line2d_51">
    <path clip-path="url(#p74301f27c2)" d="M 273.4475 140.528889 
L 273.4475 100.763243 
" style="fill:none;stroke:#000000;stroke-linecap:square;"/>
   </g>
   <g id="line2d_52">
    <path clip-path="url(#p74301f27c2)" d="M 267.344792 217.836 
L 279.550208 217.836 
" style="fill:none;stroke:#000000;stroke-linecap:square;"/>
   </g>
   <g id="line2d_53">
    <path clip-path="url(#p74301f27c2)" d="M 267.344792 100.763243 
L 279.550208 100.763243 
" style="fill:none;stroke:#000000;stroke-linecap:square;"/>
   </g>
   <g id="line2d_54"/>
   <g id="line2d_55">
    <path clip-path="url(#p74301f27c2)" d="M 310.06375 223.341132 
L 334.474583 223.341132 
L 334.474583 180.013704 
L 310.06375 180.013704 
L 310.06375 223.341132 
" style="fill:none;stroke:#000000;stroke-linecap:square;"/>
   </g>
   <g id="line2d_56">
    <path clip-path="url(#p74301f27c2)" d="M 322.269167 223.341132 
L 322.269167 240.28 
" style="fill:none;stroke:#000000;stroke-linecap:square;"/>
   </g>
   <g id="line2d_57">
    <path clip-path="url(#p74301f27c2)" d="M 322.269167 180.013704 
L 322.269167 129.070991 
" style="fill:none;stroke:#000000;stroke-linecap:square;"/>
   </g>
   <g id="line2d_58">
    <path clip-path="url(#p74301f27c2)" d="M 316.166458 240.28 
L 328.371875 240.28 
" style="fill:none;stroke:#000000;stroke-linecap:square;"/>
   </g>
   <g id="line2d_59">
    <path clip-path="url(#p74301f27c2)" d="M 316.166458 129.070991 
L 328.371875 129.070991 
" style="fill:none;stroke:#000000;stroke-linecap:square;"/>
   </g>
   <g id="line2d_60"/>
   <g id="line2d_61">
    <path clip-path="url(#p74301f27c2)" d="M 65.955417 159.598954 
L 90.36625 159.598954 
" style="fill:none;stroke:#ff7f0e;stroke-linecap:square;"/>
   </g>
   <g id="line2d_62">
    <path clip-path="url(#p74301f27c2)" d="M 78.160833 164.888832 
" style="fill:none;stroke:#2ca02c;stroke-dasharray:3.7,1.6;stroke-dashoffset:0;"/>
    <defs>
     <path d="M 0 -3 
L -3 3 
L 3 3 
z
" id="maa28d36dcb" style="stroke:#2ca02c;stroke-linejoin:miter;"/>
    </defs>
    <g clip-path="url(#p74301f27c2)">
     <use style="fill:#2ca02c;stroke:#2ca02c;stroke-linejoin:miter;" x="78.160833" xlink:href="#maa28d36dcb" y="164.888832"/>
    </g>
   </g>
   <g id="line2d_63">
    <path clip-path="url(#p74301f27c2)" d="M 114.777083 225.0062 
L 139.187917 225.0062 
" style="fill:none;stroke:#ff7f0e;stroke-linecap:square;"/>
   </g>
   <g id="line2d_64">
    <path clip-path="url(#p74301f27c2)" d="M 126.9825 209.263756 
" style="fill:none;stroke:#2ca02c;stroke-dasharray:3.7,1.6;stroke-dashoffset:0;"/>
    <g clip-path="url(#p74301f27c2)">
     <use style="fill:#2ca02c;stroke:#2ca02c;stroke-linejoin:miter;" x="126.9825" xlink:href="#maa28d36dcb" y="209.263756"/>
    </g>
   </g>
   <g id="line2d_65">
    <path clip-path="url(#p74301f27c2)" d="M 163.59875 185.646579 
L 188.009583 185.646579 
" style="fill:none;stroke:#ff7f0e;stroke-linecap:square;"/>
   </g>
   <g id="line2d_66">
    <path clip-path="url(#p74301f27c2)" d="M 175.804167 183.567618 
" style="fill:none;stroke:#2ca02c;stroke-dasharray:3.7,1.6;stroke-dashoffset:0;"/>
    <g clip-path="url(#p74301f27c2)">
     <use style="fill:#2ca02c;stroke:#2ca02c;stroke-linejoin:miter;" x="175.804167" xlink:href="#maa28d36dcb" y="183.567618"/>
    </g>
   </g>
   <g id="line2d_67">
    <path clip-path="url(#p74301f27c2)" d="M 212.420417 159.157108 
L 236.83125 159.157108 
" style="fill:none;stroke:#ff7f0e;stroke-linecap:square;"/>
   </g>
   <g id="line2d_68">
    <path clip-path="url(#p74301f27c2)" d="M 224.625833 159.048432 
" style="fill:none;stroke:#2ca02c;stroke-dasharray:3.7,1.6;stroke-dashoffset:0;"/>
    <g clip-path="url(#p74301f27c2)">
     <use style="fill:#2ca02c;stroke:#2ca02c;stroke-linejoin:miter;" x="224.625833" xlink:href="#maa28d36dcb" y="159.048432"/>
    </g>
   </g>
   <g id="line2d_69">
    <path clip-path="url(#p74301f27c2)" d="M 261.242083 174.818333 
L 285.652917 174.818333 
" style="fill:none;stroke:#ff7f0e;stroke-linecap:square;"/>
   </g>
   <g id="line2d_70">
    <path clip-path="url(#p74301f27c2)" d="M 273.4475 168.748685 
" style="fill:none;stroke:#2ca02c;stroke-dasharray:3.7,1.6;stroke-dashoffset:0;"/>
    <g clip-path="url(#p74301f27c2)">
     <use style="fill:#2ca02c;stroke:#2ca02c;stroke-linejoin:miter;" x="273.4475" xlink:href="#maa28d36dcb" y="168.748685"/>
    </g>
   </g>
   <g id="line2d_71">
    <path clip-path="url(#p74301f27c2)" d="M 310.06375 210.574706 
L 334.474583 210.574706 
" style="fill:none;stroke:#ff7f0e;stroke-linecap:square;"/>
   </g>
   <g id="line2d_72">
    <path clip-path="url(#p74301f27c2)" d="M 322.269167 203.42823 
" style="fill:none;stroke:#2ca02c;stroke-dasharray:3.7,1.6;stroke-dashoffset:0;"/>
    <g clip-path="url(#p74301f27c2)">
     <use style="fill:#2ca02c;stroke:#2ca02c;stroke-linejoin:miter;" x="322.269167" xlink:href="#maa28d36dcb" y="203.42823"/>
    </g>
   </g>
   <g id="patch_3">
    <path d="M 53.75 240.28 
L 53.75 15.84 
" style="fill:none;stroke:#000000;stroke-linecap:square;stroke-linejoin:miter;stroke-width:0.8;"/>
   </g>
   <g id="patch_4">
    <path d="M 346.68 240.28 
L 346.68 15.84 
" style="fill:none;stroke:#000000;stroke-linecap:square;stroke-linejoin:miter;stroke-width:0.8;"/>
   </g>
   <g id="patch_5">
    <path d="M 53.75 240.28 
L 346.68 240.28 
" style="fill:none;stroke:#000000;stroke-linecap:square;stroke-linejoin:miter;stroke-width:0.8;"/>
   </g>
   <g id="patch_6">
    <path d="M 53.75 15.84 
L 346.68 15.84 
" style="fill:none;stroke:#000000;stroke-linecap:square;stroke-linejoin:miter;stroke-width:0.8;"/>
   </g>
  </g>
 </g>
 <defs>
  <clipPath id="p74301f27c2">
   <rect height="224.44" width="292.93" x="53.75" y="15.84"/>
  </clipPath>
 </defs>
</svg>
