<?xml version="1.0" encoding="utf-8" standalone="no"?>
<!DOCTYPE svg PUBLIC "-//W3C//DTD SVG 1.1//EN"
  "http://www.w3.org/Graphics/SVG/1.1/DTD/svg11.dtd">
<!-- Created with matplotlib (https://matplotlib.org/) -->
<svg height="216pt" version="1.1" viewBox="0 0 288 216" width="288pt" xmlns="http://www.w3.org/2000/svg" xmlns:xlink="http://www.w3.org/1999/xlink">
 <defs>
  <style type="text/css">
*{stroke-linecap:butt;stroke-linejoin:round;}
  </style>
 </defs>
 <g id="figure_1">
  <g id="patch_1">
   <path d="M 0 216 
L 288 216 
L 288 0 
L 0 0 
z
" style="fill:#ffffff;"/>
  </g>
  <g id="axes_1">
   <g id="patch_2">
    <path d="M 62.03 167.56 
L 265.815 167.56 
L 265.815 10.8 
L 62.03 10.8 
z
" style="fill:#ffffff;"/>
   </g>
   <g id="matplotlib.axis_1">
    <g id="xtick_1">
     <g id="line2d_1">
      <defs>
       <path d="M 0 0 
L 0 3.5 
" id="m05a93894f9" style="stroke:#000000;stroke-width:0.8;"/>
      </defs>
      <g>
       <use style="stroke:#000000;stroke-width:0.8;" x="62.03" xlink:href="#m05a93894f9" y="167.56"/>
      </g>
     </g>
     <g id="text_1">
      <!-- 0 -->
      <defs>
       <path d="M 31.78125 66.40625 
Q 24.171875 66.40625 20.328125 58.90625 
Q 16.5 51.421875 16.5 36.375 
Q 16.5 21.390625 20.328125 13.890625 
Q 24.171875 6.390625 31.78125 6.390625 
Q 39.453125 6.390625 43.28125 13.890625 
Q 47.125 21.390625 47.125 36.375 
Q 47.125 51.421875 43.28125 58.90625 
Q 39.453125 66.40625 31.78125 66.40625 
z
M 31.78125 74.21875 
Q 44.046875 74.21875 50.515625 64.515625 
Q 56.984375 54.828125 56.984375 36.375 
Q 56.984375 17.96875 50.515625 8.265625 
Q 44.046875 -1.421875 31.78125 -1.421875 
Q 19.53125 -1.421875 13.0625 8.265625 
Q 6.59375 17.96875 6.59375 36.375 
Q 6.59375 54.828125 13.0625 64.515625 
Q 19.53125 74.21875 31.78125 74.21875 
z
" id="DejaVuSans-48"/>
      </defs>
      <g transform="translate(58.2125 183.678125)scale(0.12 -0.12)">
       <use xlink:href="#DejaVuSans-48"/>
      </g>
     </g>
    </g>
    <g id="xtick_2">
     <g id="line2d_2">
      <g>
       <use style="stroke:#000000;stroke-width:0.8;" x="102.787" xlink:href="#m05a93894f9" y="167.56"/>
      </g>
     </g>
     <g id="text_2">
      <!-- 20 -->
      <defs>
       <path d="M 19.1875 8.296875 
L 53.609375 8.296875 
L 53.609375 0 
L 7.328125 0 
L 7.328125 8.296875 
Q 12.9375 14.109375 22.625 23.890625 
Q 32.328125 33.6875 34.8125 36.53125 
Q 39.546875 41.84375 41.421875 45.53125 
Q 43.3125 49.21875 43.3125 52.78125 
Q 43.3125 58.59375 39.234375 62.25 
Q 35.15625 65.921875 28.609375 65.921875 
Q 23.96875 65.921875 18.8125 64.3125 
Q 13.671875 62.703125 7.8125 59.421875 
L 7.8125 69.390625 
Q 13.765625 71.78125 18.9375 73 
Q 24.125 74.21875 28.421875 74.21875 
Q 39.75 74.21875 46.484375 68.546875 
Q 53.21875 62.890625 53.21875 53.421875 
Q 53.21875 48.921875 51.53125 44.890625 
Q 49.859375 40.875 45.40625 35.40625 
Q 44.1875 33.984375 37.640625 27.21875 
Q 31.109375 20.453125 19.1875 8.296875 
z
" id="DejaVuSans-50"/>
      </defs>
      <g transform="translate(95.152 183.678125)scale(0.12 -0.12)">
       <use xlink:href="#DejaVuSans-50"/>
       <use x="63.623047" xlink:href="#DejaVuSans-48"/>
      </g>
     </g>
    </g>
    <g id="xtick_3">
     <g id="line2d_3">
      <g>
       <use style="stroke:#000000;stroke-width:0.8;" x="143.544" xlink:href="#m05a93894f9" y="167.56"/>
      </g>
     </g>
     <g id="text_3">
      <!-- 40 -->
      <defs>
       <path d="M 37.796875 64.3125 
L 12.890625 25.390625 
L 37.796875 25.390625 
z
M 35.203125 72.90625 
L 47.609375 72.90625 
L 47.609375 25.390625 
L 58.015625 25.390625 
L 58.015625 17.1875 
L 47.609375 17.1875 
L 47.609375 0 
L 37.796875 0 
L 37.796875 17.1875 
L 4.890625 17.1875 
L 4.890625 26.703125 
z
" id="DejaVuSans-52"/>
      </defs>
      <g transform="translate(135.909 183.678125)scale(0.12 -0.12)">
       <use xlink:href="#DejaVuSans-52"/>
       <use x="63.623047" xlink:href="#DejaVuSans-48"/>
      </g>
     </g>
    </g>
    <g id="xtick_4">
     <g id="line2d_4">
      <g>
       <use style="stroke:#000000;stroke-width:0.8;" x="184.301" xlink:href="#m05a93894f9" y="167.56"/>
      </g>
     </g>
     <g id="text_4">
      <!-- 60 -->
      <defs>
       <path d="M 33.015625 40.375 
Q 26.375 40.375 22.484375 35.828125 
Q 18.609375 31.296875 18.609375 23.390625 
Q 18.609375 15.53125 22.484375 10.953125 
Q 26.375 6.390625 33.015625 6.390625 
Q 39.65625 6.390625 43.53125 10.953125 
Q 47.40625 15.53125 47.40625 23.390625 
Q 47.40625 31.296875 43.53125 35.828125 
Q 39.65625 40.375 33.015625 40.375 
z
M 52.59375 71.296875 
L 52.59375 62.3125 
Q 48.875 64.0625 45.09375 64.984375 
Q 41.3125 65.921875 37.59375 65.921875 
Q 27.828125 65.921875 22.671875 59.328125 
Q 17.53125 52.734375 16.796875 39.40625 
Q 19.671875 43.65625 24.015625 45.921875 
Q 28.375 48.1875 33.59375 48.1875 
Q 44.578125 48.1875 50.953125 41.515625 
Q 57.328125 34.859375 57.328125 23.390625 
Q 57.328125 12.15625 50.6875 5.359375 
Q 44.046875 -1.421875 33.015625 -1.421875 
Q 20.359375 -1.421875 13.671875 8.265625 
Q 6.984375 17.96875 6.984375 36.375 
Q 6.984375 53.65625 15.1875 63.9375 
Q 23.390625 74.21875 37.203125 74.21875 
Q 40.921875 74.21875 44.703125 73.484375 
Q 48.484375 72.75 52.59375 71.296875 
z
" id="DejaVuSans-54"/>
      </defs>
      <g transform="translate(176.666 183.678125)scale(0.12 -0.12)">
       <use xlink:href="#DejaVuSans-54"/>
       <use x="63.623047" xlink:href="#DejaVuSans-48"/>
      </g>
     </g>
    </g>
    <g id="xtick_5">
     <g id="line2d_5">
      <g>
       <use style="stroke:#000000;stroke-width:0.8;" x="225.058" xlink:href="#m05a93894f9" y="167.56"/>
      </g>
     </g>
     <g id="text_5">
      <!-- 80 -->
      <defs>
       <path d="M 31.78125 34.625 
Q 24.75 34.625 20.71875 30.859375 
Q 16.703125 27.09375 16.703125 20.515625 
Q 16.703125 13.921875 20.71875 10.15625 
Q 24.75 6.390625 31.78125 6.390625 
Q 38.8125 6.390625 42.859375 10.171875 
Q 46.921875 13.96875 46.921875 20.515625 
Q 46.921875 27.09375 42.890625 30.859375 
Q 38.875 34.625 31.78125 34.625 
z
M 21.921875 38.8125 
Q 15.578125 40.375 12.03125 44.71875 
Q 8.5 49.078125 8.5 55.328125 
Q 8.5 64.0625 14.71875 69.140625 
Q 20.953125 74.21875 31.78125 74.21875 
Q 42.671875 74.21875 48.875 69.140625 
Q 55.078125 64.0625 55.078125 55.328125 
Q 55.078125 49.078125 51.53125 44.71875 
Q 48 40.375 41.703125 38.8125 
Q 48.828125 37.15625 52.796875 32.3125 
Q 56.78125 27.484375 56.78125 20.515625 
Q 56.78125 9.90625 50.3125 4.234375 
Q 43.84375 -1.421875 31.78125 -1.421875 
Q 19.734375 -1.421875 13.25 4.234375 
Q 6.78125 9.90625 6.78125 20.515625 
Q 6.78125 27.484375 10.78125 32.3125 
Q 14.796875 37.15625 21.921875 38.8125 
z
M 18.3125 54.390625 
Q 18.3125 48.734375 21.84375 45.5625 
Q 25.390625 42.390625 31.78125 42.390625 
Q 38.140625 42.390625 41.71875 45.5625 
Q 45.3125 48.734375 45.3125 54.390625 
Q 45.3125 60.0625 41.71875 63.234375 
Q 38.140625 66.40625 31.78125 66.40625 
Q 25.390625 66.40625 21.84375 63.234375 
Q 18.3125 60.0625 18.3125 54.390625 
z
" id="DejaVuSans-56"/>
      </defs>
      <g transform="translate(217.423 183.678125)scale(0.12 -0.12)">
       <use xlink:href="#DejaVuSans-56"/>
       <use x="63.623047" xlink:href="#DejaVuSans-48"/>
      </g>
     </g>
    </g>
    <g id="xtick_6">
     <g id="line2d_6">
      <g>
       <use style="stroke:#000000;stroke-width:0.8;" x="265.815" xlink:href="#m05a93894f9" y="167.56"/>
      </g>
     </g>
     <g id="text_6">
      <!-- 100 -->
      <defs>
       <path d="M 12.40625 8.296875 
L 28.515625 8.296875 
L 28.515625 63.921875 
L 10.984375 60.40625 
L 10.984375 69.390625 
L 28.421875 72.90625 
L 38.28125 72.90625 
L 38.28125 8.296875 
L 54.390625 8.296875 
L 54.390625 0 
L 12.40625 0 
z
" id="DejaVuSans-49"/>
      </defs>
      <g transform="translate(254.3625 183.678125)scale(0.12 -0.12)">
       <use xlink:href="#DejaVuSans-49"/>
       <use x="63.623047" xlink:href="#DejaVuSans-48"/>
       <use x="127.246094" xlink:href="#DejaVuSans-48"/>
      </g>
     </g>
    </g>
    <g id="text_7">
     <!-- k -->
     <defs>
      <path d="M 9.078125 75.984375 
L 18.109375 75.984375 
L 18.109375 31.109375 
L 44.921875 54.6875 
L 56.390625 54.6875 
L 27.390625 29.109375 
L 57.625 0 
L 45.90625 0 
L 18.109375 26.703125 
L 18.109375 0 
L 9.078125 0 
z
" id="DejaVuSans-107"/>
     </defs>
     <g transform="translate(159.75325 201.1155)scale(0.144 -0.144)">
      <use xlink:href="#DejaVuSans-107"/>
     </g>
    </g>
   </g>
   <g id="matplotlib.axis_2">
    <g id="ytick_1">
     <g id="line2d_7">
      <defs>
       <path d="M 0 0 
L -3.5 0 
" id="mbd3252ee1f" style="stroke:#000000;stroke-width:0.8;"/>
      </defs>
      <g>
       <use style="stroke:#000000;stroke-width:0.8;" x="62.03" xlink:href="#mbd3252ee1f" y="160.434545"/>
      </g>
     </g>
     <g id="text_8">
      <!-- 0.00 -->
      <defs>
       <path d="M 10.6875 12.40625 
L 21 12.40625 
L 21 0 
L 10.6875 0 
z
" id="DejaVuSans-46"/>
      </defs>
      <g transform="translate(28.31125 164.993608)scale(0.12 -0.12)">
       <use xlink:href="#DejaVuSans-48"/>
       <use x="63.623047" xlink:href="#DejaVuSans-46"/>
       <use x="95.410156" xlink:href="#DejaVuSans-48"/>
       <use x="159.033203" xlink:href="#DejaVuSans-48"/>
      </g>
     </g>
    </g>
    <g id="ytick_2">
     <g id="line2d_8">
      <g>
       <use style="stroke:#000000;stroke-width:0.8;" x="62.03" xlink:href="#mbd3252ee1f" y="124.623399"/>
      </g>
     </g>
     <g id="text_9">
      <!-- 0.02 -->
      <g transform="translate(28.31125 129.182462)scale(0.12 -0.12)">
       <use xlink:href="#DejaVuSans-48"/>
       <use x="63.623047" xlink:href="#DejaVuSans-46"/>
       <use x="95.410156" xlink:href="#DejaVuSans-48"/>
       <use x="159.033203" xlink:href="#DejaVuSans-50"/>
      </g>
     </g>
    </g>
    <g id="ytick_3">
     <g id="line2d_9">
      <g>
       <use style="stroke:#000000;stroke-width:0.8;" x="62.03" xlink:href="#mbd3252ee1f" y="88.812253"/>
      </g>
     </g>
     <g id="text_10">
      <!-- 0.04 -->
      <g transform="translate(28.31125 93.371316)scale(0.12 -0.12)">
       <use xlink:href="#DejaVuSans-48"/>
       <use x="63.623047" xlink:href="#DejaVuSans-46"/>
       <use x="95.410156" xlink:href="#DejaVuSans-48"/>
       <use x="159.033203" xlink:href="#DejaVuSans-52"/>
      </g>
     </g>
    </g>
    <g id="ytick_4">
     <g id="line2d_10">
      <g>
       <use style="stroke:#000000;stroke-width:0.8;" x="62.03" xlink:href="#mbd3252ee1f" y="53.001107"/>
      </g>
     </g>
     <g id="text_11">
      <!-- 0.06 -->
      <g transform="translate(28.31125 57.560169)scale(0.12 -0.12)">
       <use xlink:href="#DejaVuSans-48"/>
       <use x="63.623047" xlink:href="#DejaVuSans-46"/>
       <use x="95.410156" xlink:href="#DejaVuSans-48"/>
       <use x="159.033203" xlink:href="#DejaVuSans-54"/>
      </g>
     </g>
    </g>
    <g id="ytick_5">
     <g id="line2d_11">
      <g>
       <use style="stroke:#000000;stroke-width:0.8;" x="62.03" xlink:href="#mbd3252ee1f" y="17.189961"/>
      </g>
     </g>
     <g id="text_12">
      <!-- 0.08 -->
      <g transform="translate(28.31125 21.749023)scale(0.12 -0.12)">
       <use xlink:href="#DejaVuSans-48"/>
       <use x="63.623047" xlink:href="#DejaVuSans-46"/>
       <use x="95.410156" xlink:href="#DejaVuSans-48"/>
       <use x="159.033203" xlink:href="#DejaVuSans-56"/>
      </g>
     </g>
    </g>
    <g id="text_13">
     <!-- P(k) -->
     <defs>
      <path d="M 19.671875 64.796875 
L 19.671875 37.40625 
L 32.078125 37.40625 
Q 38.96875 37.40625 42.71875 40.96875 
Q 46.484375 44.53125 46.484375 51.125 
Q 46.484375 57.671875 42.71875 61.234375 
Q 38.96875 64.796875 32.078125 64.796875 
z
M 9.8125 72.90625 
L 32.078125 72.90625 
Q 44.34375 72.90625 50.609375 67.359375 
Q 56.890625 61.8125 56.890625 51.125 
Q 56.890625 40.328125 50.609375 34.8125 
Q 44.34375 29.296875 32.078125 29.296875 
L 19.671875 29.296875 
L 19.671875 0 
L 9.8125 0 
z
" id="DejaVuSans-80"/>
      <path d="M 31 75.875 
Q 24.46875 64.65625 21.28125 53.65625 
Q 18.109375 42.671875 18.109375 31.390625 
Q 18.109375 20.125 21.3125 9.0625 
Q 24.515625 -2 31 -13.1875 
L 23.1875 -13.1875 
Q 15.875 -1.703125 12.234375 9.375 
Q 8.59375 20.453125 8.59375 31.390625 
Q 8.59375 42.28125 12.203125 53.3125 
Q 15.828125 64.359375 23.1875 75.875 
z
" id="DejaVuSans-40"/>
      <path d="M 8.015625 75.875 
L 15.828125 75.875 
Q 23.140625 64.359375 26.78125 53.3125 
Q 30.421875 42.28125 30.421875 31.390625 
Q 30.421875 20.453125 26.78125 9.375 
Q 23.140625 -1.703125 15.828125 -13.1875 
L 8.015625 -13.1875 
Q 14.5 -2 17.703125 9.0625 
Q 20.90625 20.125 20.90625 31.390625 
Q 20.90625 42.671875 17.703125 53.65625 
Q 14.5 64.65625 8.015625 75.875 
z
" id="DejaVuSans-41"/>
     </defs>
     <g transform="translate(21.3165 103.308875)rotate(-90)scale(0.144 -0.144)">
      <use xlink:href="#DejaVuSans-80"/>
      <use x="60.302734" xlink:href="#DejaVuSans-40"/>
      <use x="99.316406" xlink:href="#DejaVuSans-107"/>
      <use x="157.226562" xlink:href="#DejaVuSans-41"/>
     </g>
    </g>
   </g>
   <g id="line2d_12">
    <path clip-path="url(#pabc0d66b9c)" d="M 62.03 160.434545 
L 64.06785 160.434545 
L 66.1057 160.434545 
L 68.14355 160.434545 
L 70.1814 160.434545 
L 72.21925 160.434545 
L 74.2571 160.434545 
L 76.29495 160.434545 
L 78.3328 160.434545 
L 80.37065 160.434545 
L 82.4085 160.434545 
L 84.44635 160.434545 
L 86.4842 160.434545 
L 88.52205 160.434545 
L 90.5599 160.434545 
L 92.59775 160.434545 
L 94.6356 160.434545 
L 96.67345 160.434545 
L 98.7113 160.434545 
L 100.74915 160.434545 
L 102.787 160.434545 
L 104.82485 160.434543 
L 106.8627 160.434535 
L 108.90055 160.43451 
L 110.9384 160.434433 
L 112.97625 160.434203 
L 115.0141 160.433557 
L 117.05195 160.431837 
L 119.0898 160.427485 
L 121.12765 160.417015 
L 123.1655 160.393057 
L 125.20335 160.340862 
L 127.2412 160.23254 
L 129.27905 160.018292 
L 131.3169 159.614282 
L 133.35475 158.887762 
L 135.3926 157.641743 
L 137.43045 155.603751 
L 139.4683 152.425598 
L 141.50615 147.702372 
L 143.544 141.017981 
L 145.58185 132.02006 
L 147.6197 120.518959 
L 149.65755 106.594918 
L 151.6954 90.687755 
L 153.73325 73.638539 
L 155.7711 56.656712 
L 157.80895 41.200439 
L 159.8468 28.780219 
L 161.88465 20.71975 
L 163.9225 17.925455 
L 165.96035 20.71975 
L 167.9982 28.780219 
L 170.03605 41.200439 
L 172.0739 56.656712 
L 174.11175 73.638539 
L 176.1496 90.687755 
L 178.18745 106.594918 
L 180.2253 120.518959 
L 182.26315 132.02006 
L 184.301 141.017981 
L 186.33885 147.702372 
L 188.3767 152.425598 
L 190.41455 155.603751 
L 192.4524 157.641743 
L 194.49025 158.887762 
L 196.5281 159.614282 
L 198.56595 160.018292 
L 200.6038 160.23254 
L 202.64165 160.340862 
L 204.6795 160.393057 
L 206.71735 160.417015 
L 208.7552 160.427485 
L 210.79305 160.431837 
L 212.8309 160.433557 
L 214.86875 160.434203 
L 216.9066 160.434433 
L 218.94445 160.43451 
L 220.9823 160.434535 
L 223.02015 160.434543 
L 225.058 160.434545 
L 227.09585 160.434545 
L 229.1337 160.434545 
L 231.17155 160.434545 
L 233.2094 160.434545 
L 235.24725 160.434545 
L 237.2851 160.434545 
L 239.32295 160.434545 
L 241.3608 160.434545 
L 243.39865 160.434545 
L 245.4365 160.434545 
L 247.47435 160.434545 
L 249.5122 160.434545 
L 251.55005 160.434545 
L 253.5879 160.434545 
L 255.62575 160.434545 
L 257.6636 160.434545 
L 259.70145 160.434545 
L 261.7393 160.434545 
L 263.77715 160.434545 
L 265.815 160.434545 
" style="fill:none;stroke:#0000ff;stroke-linecap:square;stroke-width:1.5;"/>
   </g>
   <g id="line2d_13">
    <path clip-path="url(#pabc0d66b9c)" d="M 62.03 160.434544 
L 64.06785 160.434531 
L 66.1057 160.434474 
L 68.14355 160.434282 
L 70.1814 160.433762 
L 72.21925 160.43254 
L 74.2571 160.429965 
L 76.29495 160.424991 
L 78.3328 160.416033 
L 80.37065 160.40082 
L 82.4085 160.376235 
L 84.44635 160.338164 
L 86.4842 160.281368 
L 88.52205 160.199374 
L 90.5599 160.084413 
L 92.59775 159.927407 
L 94.6356 159.71801 
L 96.67345 159.44472 
L 98.7113 159.095053 
L 100.74915 158.655787 
L 102.787 158.113265 
L 104.82485 157.453768 
L 106.8627 156.663924 
L 108.90055 155.731161 
L 110.9384 154.644187 
L 112.97625 153.39347 
L 115.0141 151.971714 
L 117.05195 150.374312 
L 119.0898 148.59975 
L 121.12765 146.649956 
L 123.1655 144.530576 
L 125.20335 142.251158 
L 127.2412 139.82525 
L 129.27905 137.270378 
L 131.3169 134.607934 
L 133.35475 131.862934 
L 135.3926 129.063688 
L 137.43045 126.241356 
L 139.4683 123.429416 
L 141.50615 120.663052 
L 143.544 117.978476 
L 145.58185 115.412203 
L 147.6197 113.000292 
L 149.65755 110.777583 
L 151.6954 108.776941 
L 153.73325 107.028529 
L 155.7711 105.559138 
L 157.80895 104.391576 
L 159.8468 103.544153 
L 161.88465 103.030255 
L 163.9225 102.858042 
L 165.96035 103.030255 
L 167.9982 103.544153 
L 170.03605 104.391576 
L 172.0739 105.559138 
L 174.11175 107.028529 
L 176.1496 108.776941 
L 178.18745 110.777583 
L 180.2253 113.000292 
L 182.26315 115.412203 
L 184.301 117.978476 
L 186.33885 120.663052 
L 188.3767 123.429416 
L 190.41455 126.241356 
L 192.4524 129.063688 
L 194.49025 131.862934 
L 196.5281 134.607934 
L 198.56595 137.270378 
L 200.6038 139.82525 
L 202.64165 142.251158 
L 204.6795 144.530576 
L 206.71735 146.649956 
L 208.7552 148.59975 
L 210.79305 150.374312 
L 212.8309 151.971714 
L 214.86875 153.39347 
L 216.9066 154.644187 
L 218.94445 155.731161 
L 220.9823 156.663924 
L 223.02015 157.453768 
L 225.058 158.113265 
L 227.09585 158.655787 
L 229.1337 159.095053 
L 231.17155 159.44472 
L 233.2094 159.71801 
L 235.24725 159.927407 
L 237.2851 160.084413 
L 239.32295 160.199374 
L 241.3608 160.281368 
L 243.39865 160.338164 
L 245.4365 160.376235 
L 247.47435 160.40082 
L 249.5122 160.416033 
L 251.55005 160.424991 
L 253.5879 160.429965 
L 255.62575 160.43254 
L 257.6636 160.433762 
L 259.70145 160.434282 
L 261.7393 160.434474 
L 263.77715 160.434531 
L 265.815 160.434544 
" style="fill:none;stroke:#ffa500;stroke-linecap:square;stroke-width:1.5;"/>
   </g>
   <g id="line2d_14">
    <path clip-path="url(#pabc0d66b9c)" d="M 62.03 160.376462 
L 64.06785 160.342489 
L 66.1057 160.298553 
L 68.14355 160.241825 
L 70.1814 160.169453 
L 72.21925 160.078318 
L 74.2571 159.964992 
L 76.29495 159.825726 
L 78.3328 159.65646 
L 80.37065 159.452838 
L 82.4085 159.21025 
L 84.44635 158.92387 
L 86.4842 158.588714 
L 88.52205 158.199708 
L 90.5599 157.751765 
L 92.59775 157.239877 
L 94.6356 156.659209 
L 96.67345 156.005208 
L 98.7113 155.273719 
L 100.74915 154.461094 
L 102.787 153.564323 
L 104.82485 152.581142 
L 106.8627 151.51016 
L 108.90055 150.350959 
L 110.9384 149.104205 
L 112.97625 147.771729 
L 115.0141 146.356606 
L 117.05195 144.863209 
L 119.0898 143.297246 
L 121.12765 141.665774 
L 123.1655 139.977187 
L 125.20335 138.241179 
L 127.2412 136.468681 
L 129.27905 134.671774 
L 131.3169 132.863567 
L 133.35475 131.058065 
L 135.3926 129.269996 
L 137.43045 127.514633 
L 139.4683 125.807585 
L 141.50615 124.164585 
L 143.544 122.601259 
L 145.58185 121.132894 
L 147.6197 119.774199 
L 149.65755 118.539079 
L 151.6954 117.440407 
L 153.73325 116.489816 
L 155.7711 115.697501 
L 157.80895 115.072057 
L 159.8468 114.620321 
L 161.88465 114.347267 
L 163.9225 114.255912 
L 165.96035 114.347267 
L 167.9982 114.620321 
L 170.03605 115.072057 
L 172.0739 115.697501 
L 174.11175 116.489816 
L 176.1496 117.440407 
L 178.18745 118.539079 
L 180.2253 119.774199 
L 182.26315 121.132894 
L 184.301 122.601259 
L 186.33885 124.164585 
L 188.3767 125.807585 
L 190.41455 127.514633 
L 192.4524 129.269996 
L 194.49025 131.058065 
L 196.5281 132.863567 
L 198.56595 134.671774 
L 200.6038 136.468681 
L 202.64165 138.241179 
L 204.6795 139.977187 
L 206.71735 141.665774 
L 208.7552 143.297246 
L 210.79305 144.863209 
L 212.8309 146.356606 
L 214.86875 147.771729 
L 216.9066 149.104205 
L 218.94445 150.350959 
L 220.9823 151.51016 
L 223.02015 152.581142 
L 225.058 153.564323 
L 227.09585 154.461094 
L 229.1337 155.273719 
L 231.17155 156.005208 
L 233.2094 156.659209 
L 235.24725 157.239877 
L 237.2851 157.751765 
L 239.32295 158.199708 
L 241.3608 158.588714 
L 243.39865 158.92387 
L 245.4365 159.21025 
L 247.47435 159.452838 
L 249.5122 159.65646 
L 251.55005 159.825726 
L 253.5879 159.964992 
L 255.62575 160.078318 
L 257.6636 160.169453 
L 259.70145 160.241825 
L 261.7393 160.298553 
L 263.77715 160.342489 
L 265.815 160.376462 
" style="fill:none;stroke:#008000;stroke-linecap:square;stroke-width:1.5;"/>
   </g>
   <g id="patch_3">
    <path d="M 62.03 167.56 
L 62.03 10.8 
" style="fill:none;stroke:#000000;stroke-linecap:square;stroke-linejoin:miter;stroke-width:0.8;"/>
   </g>
   <g id="patch_4">
    <path d="M 265.815 167.56 
L 265.815 10.8 
" style="fill:none;stroke:#000000;stroke-linecap:square;stroke-linejoin:miter;stroke-width:0.8;"/>
   </g>
   <g id="patch_5">
    <path d="M 62.03 167.56 
L 265.815 167.56 
" style="fill:none;stroke:#000000;stroke-linecap:square;stroke-linejoin:miter;stroke-width:0.8;"/>
   </g>
   <g id="patch_6">
    <path d="M 62.03 10.8 
L 265.815 10.8 
" style="fill:none;stroke:#000000;stroke-linecap:square;stroke-linejoin:miter;stroke-width:0.8;"/>
   </g>
  </g>
 </g>
 <defs>
  <clipPath id="pabc0d66b9c">
   <rect height="156.76" width="203.785" x="62.03" y="10.8"/>
  </clipPath>
 </defs>
</svg>
