<?xml version="1.0" encoding="utf-8" standalone="no"?>
<!DOCTYPE svg PUBLIC "-//W3C//DTD SVG 1.1//EN"
  "http://www.w3.org/Graphics/SVG/1.1/DTD/svg11.dtd">
<!-- Created with matplotlib (https://matplotlib.org/) -->
<svg height="216pt" version="1.1" viewBox="0 0 288 216" width="288pt" xmlns="http://www.w3.org/2000/svg" xmlns:xlink="http://www.w3.org/1999/xlink">
 <defs>
  <style type="text/css">
*{stroke-linecap:butt;stroke-linejoin:round;}
  </style>
 </defs>
 <g id="figure_1">
  <g id="patch_1">
   <path d="M 0 216 
L 288 216 
L 288 0 
L 0 0 
z
" style="fill:#ffffff;"/>
  </g>
  <g id="axes_1">
   <g id="patch_2">
    <path d="M 62.03 167.56 
L 265.815 167.56 
L 265.815 10.8 
L 62.03 10.8 
z
" style="fill:#ffffff;"/>
   </g>
   <g id="matplotlib.axis_1">
    <g id="xtick_1">
     <g id="line2d_1">
      <defs>
       <path d="M 0 0 
L 0 3.5 
" id="mb2b3fe0ff7" style="stroke:#000000;stroke-width:0.8;"/>
      </defs>
      <g>
       <use style="stroke:#000000;stroke-width:0.8;" x="62.03" xlink:href="#mb2b3fe0ff7" y="167.56"/>
      </g>
     </g>
     <g id="text_1">
      <!-- 0 -->
      <defs>
       <path d="M 31.78125 66.40625 
Q 24.171875 66.40625 20.328125 58.90625 
Q 16.5 51.421875 16.5 36.375 
Q 16.5 21.390625 20.328125 13.890625 
Q 24.171875 6.390625 31.78125 6.390625 
Q 39.453125 6.390625 43.28125 13.890625 
Q 47.125 21.390625 47.125 36.375 
Q 47.125 51.421875 43.28125 58.90625 
Q 39.453125 66.40625 31.78125 66.40625 
z
M 31.78125 74.21875 
Q 44.046875 74.21875 50.515625 64.515625 
Q 56.984375 54.828125 56.984375 36.375 
Q 56.984375 17.96875 50.515625 8.265625 
Q 44.046875 -1.421875 31.78125 -1.421875 
Q 19.53125 -1.421875 13.0625 8.265625 
Q 6.59375 17.96875 6.59375 36.375 
Q 6.59375 54.828125 13.0625 64.515625 
Q 19.53125 74.21875 31.78125 74.21875 
z
" id="DejaVuSans-48"/>
      </defs>
      <g transform="translate(58.2125 183.678125)scale(0.12 -0.12)">
       <use xlink:href="#DejaVuSans-48"/>
      </g>
     </g>
    </g>
    <g id="xtick_2">
     <g id="line2d_2">
      <g>
       <use style="stroke:#000000;stroke-width:0.8;" x="102.787" xlink:href="#mb2b3fe0ff7" y="167.56"/>
      </g>
     </g>
     <g id="text_2">
      <!-- 20 -->
      <defs>
       <path d="M 19.1875 8.296875 
L 53.609375 8.296875 
L 53.609375 0 
L 7.328125 0 
L 7.328125 8.296875 
Q 12.9375 14.109375 22.625 23.890625 
Q 32.328125 33.6875 34.8125 36.53125 
Q 39.546875 41.84375 41.421875 45.53125 
Q 43.3125 49.21875 43.3125 52.78125 
Q 43.3125 58.59375 39.234375 62.25 
Q 35.15625 65.921875 28.609375 65.921875 
Q 23.96875 65.921875 18.8125 64.3125 
Q 13.671875 62.703125 7.8125 59.421875 
L 7.8125 69.390625 
Q 13.765625 71.78125 18.9375 73 
Q 24.125 74.21875 28.421875 74.21875 
Q 39.75 74.21875 46.484375 68.546875 
Q 53.21875 62.890625 53.21875 53.421875 
Q 53.21875 48.921875 51.53125 44.890625 
Q 49.859375 40.875 45.40625 35.40625 
Q 44.1875 33.984375 37.640625 27.21875 
Q 31.109375 20.453125 19.1875 8.296875 
z
" id="DejaVuSans-50"/>
      </defs>
      <g transform="translate(95.152 183.678125)scale(0.12 -0.12)">
       <use xlink:href="#DejaVuSans-50"/>
       <use x="63.623047" xlink:href="#DejaVuSans-48"/>
      </g>
     </g>
    </g>
    <g id="xtick_3">
     <g id="line2d_3">
      <g>
       <use style="stroke:#000000;stroke-width:0.8;" x="143.544" xlink:href="#mb2b3fe0ff7" y="167.56"/>
      </g>
     </g>
     <g id="text_3">
      <!-- 40 -->
      <defs>
       <path d="M 37.796875 64.3125 
L 12.890625 25.390625 
L 37.796875 25.390625 
z
M 35.203125 72.90625 
L 47.609375 72.90625 
L 47.609375 25.390625 
L 58.015625 25.390625 
L 58.015625 17.1875 
L 47.609375 17.1875 
L 47.609375 0 
L 37.796875 0 
L 37.796875 17.1875 
L 4.890625 17.1875 
L 4.890625 26.703125 
z
" id="DejaVuSans-52"/>
      </defs>
      <g transform="translate(135.909 183.678125)scale(0.12 -0.12)">
       <use xlink:href="#DejaVuSans-52"/>
       <use x="63.623047" xlink:href="#DejaVuSans-48"/>
      </g>
     </g>
    </g>
    <g id="xtick_4">
     <g id="line2d_4">
      <g>
       <use style="stroke:#000000;stroke-width:0.8;" x="184.301" xlink:href="#mb2b3fe0ff7" y="167.56"/>
      </g>
     </g>
     <g id="text_4">
      <!-- 60 -->
      <defs>
       <path d="M 33.015625 40.375 
Q 26.375 40.375 22.484375 35.828125 
Q 18.609375 31.296875 18.609375 23.390625 
Q 18.609375 15.53125 22.484375 10.953125 
Q 26.375 6.390625 33.015625 6.390625 
Q 39.65625 6.390625 43.53125 10.953125 
Q 47.40625 15.53125 47.40625 23.390625 
Q 47.40625 31.296875 43.53125 35.828125 
Q 39.65625 40.375 33.015625 40.375 
z
M 52.59375 71.296875 
L 52.59375 62.3125 
Q 48.875 64.0625 45.09375 64.984375 
Q 41.3125 65.921875 37.59375 65.921875 
Q 27.828125 65.921875 22.671875 59.328125 
Q 17.53125 52.734375 16.796875 39.40625 
Q 19.671875 43.65625 24.015625 45.921875 
Q 28.375 48.1875 33.59375 48.1875 
Q 44.578125 48.1875 50.953125 41.515625 
Q 57.328125 34.859375 57.328125 23.390625 
Q 57.328125 12.15625 50.6875 5.359375 
Q 44.046875 -1.421875 33.015625 -1.421875 
Q 20.359375 -1.421875 13.671875 8.265625 
Q 6.984375 17.96875 6.984375 36.375 
Q 6.984375 53.65625 15.1875 63.9375 
Q 23.390625 74.21875 37.203125 74.21875 
Q 40.921875 74.21875 44.703125 73.484375 
Q 48.484375 72.75 52.59375 71.296875 
z
" id="DejaVuSans-54"/>
      </defs>
      <g transform="translate(176.666 183.678125)scale(0.12 -0.12)">
       <use xlink:href="#DejaVuSans-54"/>
       <use x="63.623047" xlink:href="#DejaVuSans-48"/>
      </g>
     </g>
    </g>
    <g id="xtick_5">
     <g id="line2d_5">
      <g>
       <use style="stroke:#000000;stroke-width:0.8;" x="225.058" xlink:href="#mb2b3fe0ff7" y="167.56"/>
      </g>
     </g>
     <g id="text_5">
      <!-- 80 -->
      <defs>
       <path d="M 31.78125 34.625 
Q 24.75 34.625 20.71875 30.859375 
Q 16.703125 27.09375 16.703125 20.515625 
Q 16.703125 13.921875 20.71875 10.15625 
Q 24.75 6.390625 31.78125 6.390625 
Q 38.8125 6.390625 42.859375 10.171875 
Q 46.921875 13.96875 46.921875 20.515625 
Q 46.921875 27.09375 42.890625 30.859375 
Q 38.875 34.625 31.78125 34.625 
z
M 21.921875 38.8125 
Q 15.578125 40.375 12.03125 44.71875 
Q 8.5 49.078125 8.5 55.328125 
Q 8.5 64.0625 14.71875 69.140625 
Q 20.953125 74.21875 31.78125 74.21875 
Q 42.671875 74.21875 48.875 69.140625 
Q 55.078125 64.0625 55.078125 55.328125 
Q 55.078125 49.078125 51.53125 44.71875 
Q 48 40.375 41.703125 38.8125 
Q 48.828125 37.15625 52.796875 32.3125 
Q 56.78125 27.484375 56.78125 20.515625 
Q 56.78125 9.90625 50.3125 4.234375 
Q 43.84375 -1.421875 31.78125 -1.421875 
Q 19.734375 -1.421875 13.25 4.234375 
Q 6.78125 9.90625 6.78125 20.515625 
Q 6.78125 27.484375 10.78125 32.3125 
Q 14.796875 37.15625 21.921875 38.8125 
z
M 18.3125 54.390625 
Q 18.3125 48.734375 21.84375 45.5625 
Q 25.390625 42.390625 31.78125 42.390625 
Q 38.140625 42.390625 41.71875 45.5625 
Q 45.3125 48.734375 45.3125 54.390625 
Q 45.3125 60.0625 41.71875 63.234375 
Q 38.140625 66.40625 31.78125 66.40625 
Q 25.390625 66.40625 21.84375 63.234375 
Q 18.3125 60.0625 18.3125 54.390625 
z
" id="DejaVuSans-56"/>
      </defs>
      <g transform="translate(217.423 183.678125)scale(0.12 -0.12)">
       <use xlink:href="#DejaVuSans-56"/>
       <use x="63.623047" xlink:href="#DejaVuSans-48"/>
      </g>
     </g>
    </g>
    <g id="xtick_6">
     <g id="line2d_6">
      <g>
       <use style="stroke:#000000;stroke-width:0.8;" x="265.815" xlink:href="#mb2b3fe0ff7" y="167.56"/>
      </g>
     </g>
     <g id="text_6">
      <!-- 100 -->
      <defs>
       <path d="M 12.40625 8.296875 
L 28.515625 8.296875 
L 28.515625 63.921875 
L 10.984375 60.40625 
L 10.984375 69.390625 
L 28.421875 72.90625 
L 38.28125 72.90625 
L 38.28125 8.296875 
L 54.390625 8.296875 
L 54.390625 0 
L 12.40625 0 
z
" id="DejaVuSans-49"/>
      </defs>
      <g transform="translate(254.3625 183.678125)scale(0.12 -0.12)">
       <use xlink:href="#DejaVuSans-49"/>
       <use x="63.623047" xlink:href="#DejaVuSans-48"/>
       <use x="127.246094" xlink:href="#DejaVuSans-48"/>
      </g>
     </g>
    </g>
    <g id="text_7">
     <!-- k -->
     <defs>
      <path d="M 9.078125 75.984375 
L 18.109375 75.984375 
L 18.109375 31.109375 
L 44.921875 54.6875 
L 56.390625 54.6875 
L 27.390625 29.109375 
L 57.625 0 
L 45.90625 0 
L 18.109375 26.703125 
L 18.109375 0 
L 9.078125 0 
z
" id="DejaVuSans-107"/>
     </defs>
     <g transform="translate(159.75325 201.1155)scale(0.144 -0.144)">
      <use xlink:href="#DejaVuSans-107"/>
     </g>
    </g>
   </g>
   <g id="matplotlib.axis_2">
    <g id="ytick_1">
     <g id="line2d_7">
      <defs>
       <path d="M 0 0 
L -3.5 0 
" id="m77b6a973c3" style="stroke:#000000;stroke-width:0.8;"/>
      </defs>
      <g>
       <use style="stroke:#000000;stroke-width:0.8;" x="62.03" xlink:href="#m77b6a973c3" y="160.434545"/>
      </g>
     </g>
     <g id="text_8">
      <!-- 0.00 -->
      <defs>
       <path d="M 10.6875 12.40625 
L 21 12.40625 
L 21 0 
L 10.6875 0 
z
" id="DejaVuSans-46"/>
      </defs>
      <g transform="translate(28.31125 164.993608)scale(0.12 -0.12)">
       <use xlink:href="#DejaVuSans-48"/>
       <use x="63.623047" xlink:href="#DejaVuSans-46"/>
       <use x="95.410156" xlink:href="#DejaVuSans-48"/>
       <use x="159.033203" xlink:href="#DejaVuSans-48"/>
      </g>
     </g>
    </g>
    <g id="ytick_2">
     <g id="line2d_8">
      <g>
       <use style="stroke:#000000;stroke-width:0.8;" x="62.03" xlink:href="#m77b6a973c3" y="133.748169"/>
      </g>
     </g>
     <g id="text_9">
      <!-- 0.02 -->
      <g transform="translate(28.31125 138.307232)scale(0.12 -0.12)">
       <use xlink:href="#DejaVuSans-48"/>
       <use x="63.623047" xlink:href="#DejaVuSans-46"/>
       <use x="95.410156" xlink:href="#DejaVuSans-48"/>
       <use x="159.033203" xlink:href="#DejaVuSans-50"/>
      </g>
     </g>
    </g>
    <g id="ytick_3">
     <g id="line2d_9">
      <g>
       <use style="stroke:#000000;stroke-width:0.8;" x="62.03" xlink:href="#m77b6a973c3" y="107.061793"/>
      </g>
     </g>
     <g id="text_10">
      <!-- 0.04 -->
      <g transform="translate(28.31125 111.620856)scale(0.12 -0.12)">
       <use xlink:href="#DejaVuSans-48"/>
       <use x="63.623047" xlink:href="#DejaVuSans-46"/>
       <use x="95.410156" xlink:href="#DejaVuSans-48"/>
       <use x="159.033203" xlink:href="#DejaVuSans-52"/>
      </g>
     </g>
    </g>
    <g id="ytick_4">
     <g id="line2d_10">
      <g>
       <use style="stroke:#000000;stroke-width:0.8;" x="62.03" xlink:href="#m77b6a973c3" y="80.375417"/>
      </g>
     </g>
     <g id="text_11">
      <!-- 0.06 -->
      <g transform="translate(28.31125 84.93448)scale(0.12 -0.12)">
       <use xlink:href="#DejaVuSans-48"/>
       <use x="63.623047" xlink:href="#DejaVuSans-46"/>
       <use x="95.410156" xlink:href="#DejaVuSans-48"/>
       <use x="159.033203" xlink:href="#DejaVuSans-54"/>
      </g>
     </g>
    </g>
    <g id="ytick_5">
     <g id="line2d_11">
      <g>
       <use style="stroke:#000000;stroke-width:0.8;" x="62.03" xlink:href="#m77b6a973c3" y="53.689041"/>
      </g>
     </g>
     <g id="text_12">
      <!-- 0.08 -->
      <g transform="translate(28.31125 58.248104)scale(0.12 -0.12)">
       <use xlink:href="#DejaVuSans-48"/>
       <use x="63.623047" xlink:href="#DejaVuSans-46"/>
       <use x="95.410156" xlink:href="#DejaVuSans-48"/>
       <use x="159.033203" xlink:href="#DejaVuSans-56"/>
      </g>
     </g>
    </g>
    <g id="ytick_6">
     <g id="line2d_12">
      <g>
       <use style="stroke:#000000;stroke-width:0.8;" x="62.03" xlink:href="#m77b6a973c3" y="27.002665"/>
      </g>
     </g>
     <g id="text_13">
      <!-- 0.10 -->
      <g transform="translate(28.31125 31.561728)scale(0.12 -0.12)">
       <use xlink:href="#DejaVuSans-48"/>
       <use x="63.623047" xlink:href="#DejaVuSans-46"/>
       <use x="95.410156" xlink:href="#DejaVuSans-49"/>
       <use x="159.033203" xlink:href="#DejaVuSans-48"/>
      </g>
     </g>
    </g>
    <g id="text_14">
     <!-- P(k) -->
     <defs>
      <path d="M 19.671875 64.796875 
L 19.671875 37.40625 
L 32.078125 37.40625 
Q 38.96875 37.40625 42.71875 40.96875 
Q 46.484375 44.53125 46.484375 51.125 
Q 46.484375 57.671875 42.71875 61.234375 
Q 38.96875 64.796875 32.078125 64.796875 
z
M 9.8125 72.90625 
L 32.078125 72.90625 
Q 44.34375 72.90625 50.609375 67.359375 
Q 56.890625 61.8125 56.890625 51.125 
Q 56.890625 40.328125 50.609375 34.8125 
Q 44.34375 29.296875 32.078125 29.296875 
L 19.671875 29.296875 
L 19.671875 0 
L 9.8125 0 
z
" id="DejaVuSans-80"/>
      <path d="M 31 75.875 
Q 24.46875 64.65625 21.28125 53.65625 
Q 18.109375 42.671875 18.109375 31.390625 
Q 18.109375 20.125 21.3125 9.0625 
Q 24.515625 -2 31 -13.1875 
L 23.1875 -13.1875 
Q 15.875 -1.703125 12.234375 9.375 
Q 8.59375 20.453125 8.59375 31.390625 
Q 8.59375 42.28125 12.203125 53.3125 
Q 15.828125 64.359375 23.1875 75.875 
z
" id="DejaVuSans-40"/>
      <path d="M 8.015625 75.875 
L 15.828125 75.875 
Q 23.140625 64.359375 26.78125 53.3125 
Q 30.421875 42.28125 30.421875 31.390625 
Q 30.421875 20.453125 26.78125 9.375 
Q 23.140625 -1.703125 15.828125 -13.1875 
L 8.015625 -13.1875 
Q 14.5 -2 17.703125 9.0625 
Q 20.90625 20.125 20.90625 31.390625 
Q 20.90625 42.671875 17.703125 53.65625 
Q 14.5 64.65625 8.015625 75.875 
z
" id="DejaVuSans-41"/>
     </defs>
     <g transform="translate(21.3165 103.308875)rotate(-90)scale(0.144 -0.144)">
      <use xlink:href="#DejaVuSans-80"/>
      <use x="60.302734" xlink:href="#DejaVuSans-40"/>
      <use x="99.316406" xlink:href="#DejaVuSans-107"/>
      <use x="157.226562" xlink:href="#DejaVuSans-41"/>
     </g>
    </g>
   </g>
   <g id="line2d_13">
    <path clip-path="url(#pd5e0dd796a)" d="M 62.03 160.434545 
L 64.06785 160.434545 
L 66.1057 160.434545 
L 68.14355 160.434545 
L 70.1814 160.434545 
L 72.21925 160.434545 
L 74.2571 160.434545 
L 76.29495 160.434545 
L 78.3328 160.434545 
L 80.37065 160.434545 
L 82.4085 160.434545 
L 84.44635 160.434545 
L 86.4842 160.434545 
L 88.52205 160.434542 
L 90.5599 160.434532 
L 92.59775 160.434495 
L 94.6356 160.434367 
L 96.67345 160.433957 
L 98.7113 160.432737 
L 100.74915 160.429341 
L 102.787 160.420494 
L 104.82485 160.39886 
L 106.8627 160.349117 
L 108.90055 160.241402 
L 110.9384 160.021434 
L 112.97625 159.597307 
L 115.0141 158.824471 
L 117.05195 157.49268 
L 119.0898 155.321304 
L 121.12765 151.971248 
L 123.1655 147.081344 
L 125.20335 140.332951 
L 127.2412 131.538504 
L 129.27905 120.738973 
L 131.3169 108.28546 
L 133.35475 94.875695 
L 135.3926 81.521114 
L 137.43045 69.435274 
L 139.4683 59.856403 
L 141.50615 53.838907 
L 143.544 52.062313 
L 145.58185 54.705538 
L 147.6197 61.418491 
L 149.65755 71.396853 
L 151.6954 83.538357 
L 153.73325 96.639189 
L 155.7711 109.583174 
L 157.80895 121.484559 
L 159.8468 131.763028 
L 161.88465 140.149934 
L 163.9225 146.64101 
L 165.96035 151.419163 
L 167.9982 154.771036 
L 170.03605 157.015068 
L 172.0739 158.450404 
L 174.11175 159.328236 
L 176.1496 159.84188 
L 178.18745 160.129548 
L 180.2253 160.2838 
L 182.26315 160.363005 
L 184.301 160.401955 
L 186.33885 160.420298 
L 188.3767 160.428571 
L 190.41455 160.432143 
L 192.4524 160.433619 
L 194.49025 160.434204 
L 196.5281 160.434425 
L 198.56595 160.434505 
L 200.6038 160.434532 
L 202.64165 160.434541 
L 204.6795 160.434544 
L 206.71735 160.434545 
L 208.7552 160.434545 
L 210.79305 160.434545 
L 212.8309 160.434545 
L 214.86875 160.434545 
L 216.9066 160.434545 
L 218.94445 160.434545 
L 220.9823 160.434545 
L 223.02015 160.434545 
L 225.058 160.434545 
L 227.09585 160.434545 
L 229.1337 160.434545 
L 231.17155 160.434545 
L 233.2094 160.434545 
L 235.24725 160.434545 
L 237.2851 160.434545 
L 239.32295 160.434545 
L 241.3608 160.434545 
L 243.39865 160.434545 
L 245.4365 160.434545 
L 247.47435 160.434545 
L 249.5122 160.434545 
L 251.55005 160.434545 
L 253.5879 160.434545 
L 255.62575 160.434545 
L 257.6636 160.434545 
L 259.70145 160.434545 
L 261.7393 160.434545 
L 263.77715 160.434545 
L 265.815 160.434545 
" style="fill:none;stroke:#0000ff;stroke-linecap:square;stroke-width:1.5;"/>
   </g>
   <g id="line2d_14">
    <path clip-path="url(#pd5e0dd796a)" d="M 62.03 160.434529 
L 64.06785 160.434405 
L 66.1057 160.433868 
L 68.14355 160.432173 
L 70.1814 160.427807 
L 72.21925 160.41808 
L 74.2571 160.398668 
L 76.29495 160.36317 
L 78.3328 160.302718 
L 80.37065 160.205713 
L 82.4085 160.057735 
L 84.44635 159.841661 
L 86.4842 159.538024 
L 88.52205 159.125597 
L 90.5599 158.582208 
L 92.59775 157.885729 
L 94.6356 157.015206 
L 96.67345 155.952049 
L 98.7113 154.681239 
L 100.74915 153.192444 
L 102.787 151.481022 
L 104.82485 149.548802 
L 106.8627 147.404641 
L 108.90055 145.064677 
L 110.9384 142.552294 
L 112.97625 139.897773 
L 115.0141 137.137645 
L 117.05195 134.313779 
L 119.0898 131.472234 
L 121.12765 128.661937 
L 123.1655 125.933231 
L 125.20335 123.336358 
L 127.2412 120.919947 
L 129.27905 118.72956 
L 131.3169 116.806345 
L 133.35475 115.185869 
L 135.3926 113.897141 
L 137.43045 112.961878 
L 139.4683 112.394023 
L 141.50615 112.199527 
L 143.544 112.376388 
L 145.58185 112.914944 
L 147.6197 113.798381 
L 149.65755 115.00345 
L 151.6954 116.501338 
L 153.73325 118.258666 
L 155.7711 120.238567 
L 157.80895 122.401805 
L 159.8468 124.707895 
L 161.88465 127.116185 
L 163.9225 129.586869 
L 165.96035 132.081902 
L 167.9982 134.565787 
L 170.03605 137.006236 
L 172.0739 139.374672 
L 174.11175 141.646586 
L 176.1496 143.801742 
L 178.18745 145.824243 
L 180.2253 147.702458 
L 182.26315 149.428842 
L 184.301 150.999656 
L 186.33885 152.414603 
L 188.3767 153.676414 
L 190.41455 154.790392 
L 192.4524 155.763939 
L 194.49025 156.606085 
L 196.5281 157.327029 
L 198.56595 157.93771 
L 200.6038 158.449421 
L 202.64165 158.873464 
L 204.6795 159.220867 
L 206.71735 159.502142 
L 208.7552 159.727111 
L 210.79305 159.904777 
L 212.8309 160.043244 
L 214.86875 160.149678 
L 216.9066 160.230313 
L 218.94445 160.29048 
L 220.9823 160.334658 
L 223.02015 160.366549 
L 225.058 160.389158 
L 227.09585 160.40488 
L 229.1337 160.415591 
L 231.17155 160.422727 
L 233.2094 160.42737 
L 235.24725 160.430313 
L 237.2851 160.432127 
L 239.32295 160.433211 
L 241.3608 160.433837 
L 243.39865 160.434186 
L 245.4365 160.434371 
L 247.47435 160.434466 
L 249.5122 160.434511 
L 251.55005 160.434532 
L 253.5879 160.43454 
L 255.62575 160.434544 
L 257.6636 160.434545 
L 259.70145 160.434545 
L 261.7393 160.434545 
L 263.77715 160.434545 
L 265.815 160.434545 
" style="fill:none;stroke:#ffa500;stroke-linecap:square;stroke-width:1.5;"/>
   </g>
   <g id="line2d_15">
    <path clip-path="url(#pd5e0dd796a)" d="M 62.03 25.558809 
L 64.06785 17.925455 
L 66.1057 20.084735 
L 68.14355 27.838353 
L 70.1814 38.840875 
L 72.21925 51.503961 
L 74.2571 64.711654 
L 76.29495 77.692256 
L 78.3328 89.936745 
L 80.37065 101.13671 
L 82.4085 111.134 
L 84.44635 119.879448 
L 86.4842 127.399488 
L 88.52205 133.769782 
L 90.5599 139.094979 
L 92.59775 143.493701 
L 94.6356 147.087852 
L 96.67345 149.995387 
L 98.7113 152.325779 
L 100.74915 154.177497 
L 102.787 155.636948 
L 104.82485 156.778433 
L 106.8627 157.664743 
L 108.90055 158.348162 
L 110.9384 158.871647 
L 112.97625 159.270079 
L 115.0141 159.571478 
L 117.05195 159.798131 
L 119.0898 159.967601 
L 121.12765 160.093614 
L 123.1655 160.186809 
L 125.20335 160.255373 
L 127.2412 160.305557 
L 129.27905 160.342106 
L 131.3169 160.368594 
L 133.35475 160.387698 
L 135.3926 160.401413 
L 137.43045 160.411213 
L 139.4683 160.418184 
L 141.50615 160.42312 
L 143.544 160.4266 
L 145.58185 160.429043 
L 147.6197 160.43075 
L 149.65755 160.431939 
L 151.6954 160.432762 
L 153.73325 160.43333 
L 155.7711 160.433721 
L 157.80895 160.433988 
L 159.8468 160.43417 
L 161.88465 160.434294 
L 163.9225 160.434377 
L 165.96035 160.434434 
L 167.9982 160.434471 
L 170.03605 160.434497 
L 172.0739 160.434513 
L 174.11175 160.434524 
L 176.1496 160.434532 
L 178.18745 160.434537 
L 180.2253 160.43454 
L 182.26315 160.434542 
L 184.301 160.434543 
L 186.33885 160.434544 
L 188.3767 160.434544 
L 190.41455 160.434545 
L 192.4524 160.434545 
L 194.49025 160.434545 
L 196.5281 160.434545 
L 198.56595 160.434545 
L 200.6038 160.434545 
L 202.64165 160.434545 
L 204.6795 160.434545 
L 206.71735 160.434545 
L 208.7552 160.434545 
L 210.79305 160.434545 
L 212.8309 160.434545 
L 214.86875 160.434545 
L 216.9066 160.434545 
L 218.94445 160.434545 
L 220.9823 160.434545 
L 223.02015 160.434545 
L 225.058 160.434545 
L 227.09585 160.434545 
L 229.1337 160.434545 
L 231.17155 160.434545 
L 233.2094 160.434545 
L 235.24725 160.434545 
L 237.2851 160.434545 
L 239.32295 160.434545 
L 241.3608 160.434545 
L 243.39865 160.434545 
L 245.4365 160.434545 
L 247.47435 160.434545 
L 249.5122 160.434545 
L 251.55005 160.434545 
L 253.5879 160.434545 
L 255.62575 160.434545 
L 257.6636 160.434545 
L 259.70145 160.434545 
L 261.7393 160.434545 
L 263.77715 160.434545 
L 265.815 160.434545 
" style="fill:none;stroke:#008000;stroke-linecap:square;stroke-width:1.5;"/>
   </g>
   <g id="patch_3">
    <path d="M 62.03 167.56 
L 62.03 10.8 
" style="fill:none;stroke:#000000;stroke-linecap:square;stroke-linejoin:miter;stroke-width:0.8;"/>
   </g>
   <g id="patch_4">
    <path d="M 265.815 167.56 
L 265.815 10.8 
" style="fill:none;stroke:#000000;stroke-linecap:square;stroke-linejoin:miter;stroke-width:0.8;"/>
   </g>
   <g id="patch_5">
    <path d="M 62.03 167.56 
L 265.815 167.56 
" style="fill:none;stroke:#000000;stroke-linecap:square;stroke-linejoin:miter;stroke-width:0.8;"/>
   </g>
   <g id="patch_6">
    <path d="M 62.03 10.8 
L 265.815 10.8 
" style="fill:none;stroke:#000000;stroke-linecap:square;stroke-linejoin:miter;stroke-width:0.8;"/>
   </g>
  </g>
 </g>
 <defs>
  <clipPath id="pd5e0dd796a">
   <rect height="156.76" width="203.785" x="62.03" y="10.8"/>
  </clipPath>
 </defs>
</svg>
