<?xml version="1.0" encoding="utf-8" standalone="no"?>
<!DOCTYPE svg PUBLIC "-//W3C//DTD SVG 1.1//EN"
  "http://www.w3.org/Graphics/SVG/1.1/DTD/svg11.dtd">
<!-- Created with matplotlib (https://matplotlib.org/) -->
<svg height="216pt" version="1.1" viewBox="0 0 648 216" width="648pt" xmlns="http://www.w3.org/2000/svg" xmlns:xlink="http://www.w3.org/1999/xlink">
 <defs>
  <style type="text/css">
*{stroke-linecap:butt;stroke-linejoin:round;}
  </style>
 </defs>
 <g id="figure_1">
  <g id="patch_1">
   <path d="M 0 216 
L 648 216 
L 648 0 
L 0 0 
z
" style="fill:#ffffff;"/>
  </g>
  <g id="axes_1">
   <g id="patch_2">
    <path d="M 81 192.24 
L 583.2 192.24 
L 583.2 25.92 
L 81 25.92 
z
" style="fill:#ffffff;"/>
   </g>
   <g id="PolyCollection_1">
    <defs>
     <path d="M 81 -161.873828 
L 81 -141.866732 
L 83.049796 -149.44114 
L 85.099592 -149.630077 
L 87.149388 -135.885417 
L 89.199184 -134.177539 
L 91.24898 -133.842143 
L 93.298776 -133.29102 
L 95.348571 -135.630296 
L 97.398367 -141.752829 
L 99.448163 -141.632619 
L 101.497959 -132.547003 
L 103.547755 -128.166163 
L 105.597551 -132.709684 
L 107.647347 -135.997356 
L 109.697143 -143.722822 
L 111.746939 -144.361637 
L 113.796735 -147.357381 
L 115.846531 -148.551941 
L 117.896327 -146.326771 
L 119.946122 -166.856574 
L 121.995918 -166.403014 
L 124.045714 -120.014437 
L 126.09551 -80.261163 
L 128.145306 -63.655644 
L 130.195102 -56.464654 
L 132.244898 -64.333564 
L 134.294694 -72.665976 
L 136.34449 -79.136797 
L 138.394286 -82.45983 
L 140.444082 -77.947328 
L 142.493878 -68.296539 
L 144.543673 -51.243557 
L 146.593469 -27.886352 
L 148.643265 -23.76 
L 150.693061 -44.449835 
L 152.742857 -69.900141 
L 154.792653 -109.409013 
L 156.842449 -128.962114 
L 158.892245 -124.941982 
L 160.942041 -131.731756 
L 162.991837 -123.201955 
L 165.041633 -115.750009 
L 167.091429 -98.558799 
L 169.141224 -103.584575 
L 171.19102 -86.413326 
L 173.240816 -84.705335 
L 175.290612 -87.918204 
L 177.340408 -87.027074 
L 179.390204 -88.552762 
L 181.44 -90.104029 
L 183.489796 -101.363515 
L 185.539592 -108.974046 
L 187.589388 -123.474923 
L 189.639184 -115.302362 
L 191.68898 -123.260241 
L 193.738776 -126.993369 
L 195.788571 -123.131253 
L 197.838367 -129.441715 
L 199.888163 -128.539597 
L 201.937959 -135.536733 
L 203.987755 -137.846734 
L 206.037551 -138.477671 
L 208.087347 -136.75967 
L 210.137143 -138.314322 
L 212.186939 -140.458776 
L 214.236735 -136.375103 
L 216.286531 -134.808172 
L 218.336327 -139.710344 
L 220.386122 -134.826956 
L 222.435918 -130.717062 
L 224.485714 -135.487072 
L 226.53551 -122.636815 
L 228.585306 -128.698454 
L 230.635102 -124.929837 
L 232.684898 -135.555469 
L 234.734694 -138.467824 
L 236.78449 -133.105687 
L 238.834286 -124.180702 
L 240.884082 -126.692573 
L 242.933878 -117.745745 
L 244.983673 -124.253119 
L 247.033469 -132.556134 
L 249.083265 -145.256052 
L 251.133061 -138.370059 
L 253.182857 -134.808561 
L 255.232653 -133.885401 
L 257.282449 -128.961648 
L 259.332245 -136.685677 
L 261.382041 -133.284632 
L 263.431837 -138.128522 
L 265.481633 -135.378377 
L 267.531429 -136.490451 
L 269.581224 -139.29589 
L 271.63102 -143.47769 
L 273.680816 -128.889625 
L 275.730612 -137.785219 
L 277.780408 -146.48035 
L 279.830204 -139.257768 
L 281.88 -138.007541 
L 283.929796 -129.705541 
L 285.979592 -134.241302 
L 288.029388 -143.403291 
L 290.079184 -142.708877 
L 292.12898 -148.10287 
L 294.178776 -156.235699 
L 296.228571 -155.906922 
L 298.278367 -147.214584 
L 300.328163 -142.527326 
L 302.377959 -140.195981 
L 304.427755 -144.872452 
L 306.477551 -138.759261 
L 308.527347 -134.835385 
L 310.577143 -137.675141 
L 312.626939 -131.404242 
L 314.676735 -133.209605 
L 316.726531 -135.783167 
L 318.776327 -138.701538 
L 320.826122 -142.129831 
L 322.875918 -130.410275 
L 324.925714 -128.362936 
L 326.97551 -124.961356 
L 329.025306 -128.372589 
L 331.075102 -129.29081 
L 333.124898 -125.510605 
L 335.174694 -126.653389 
L 337.22449 -123.510133 
L 339.274286 -129.046562 
L 341.324082 -131.07956 
L 343.373878 -135.104849 
L 345.423673 -145.738173 
L 347.473469 -153.840897 
L 349.523265 -156.719385 
L 351.573061 -157.829369 
L 353.622857 -162.134176 
L 355.672653 -159.484567 
L 357.722449 -153.972905 
L 359.772245 -154.026014 
L 361.822041 -152.819884 
L 363.871837 -151.545613 
L 365.921633 -148.165724 
L 367.971429 -138.340165 
L 370.021224 -127.066077 
L 372.07102 -127.666178 
L 374.120816 -129.06693 
L 376.170612 -121.542652 
L 378.220408 -123.193512 
L 380.270204 -123.746591 
L 382.32 -121.905191 
L 384.369796 -125.702729 
L 386.419592 -134.124554 
L 388.469388 -140.451049 
L 390.519184 -144.586888 
L 392.56898 -143.556079 
L 394.618776 -150.451202 
L 396.668571 -152.644111 
L 398.718367 -150.790934 
L 400.768163 -150.068534 
L 402.817959 -151.620494 
L 404.867755 -153.094241 
L 406.917551 -157.271982 
L 408.967347 -156.741743 
L 411.017143 -149.489397 
L 413.066939 -141.724857 
L 415.116735 -141.793684 
L 417.166531 -146.468686 
L 419.216327 -143.15693 
L 421.266122 -145.44671 
L 423.315918 -144.484778 
L 425.365714 -142.884754 
L 427.41551 -144.201328 
L 429.465306 -143.544641 
L 431.515102 -149.511235 
L 433.564898 -141.372172 
L 435.614694 -144.752709 
L 437.66449 -143.550796 
L 439.714286 -133.843205 
L 441.764082 -137.960672 
L 443.813878 -139.424745 
L 445.863673 -141.427072 
L 447.913469 -140.168152 
L 449.963265 -140.806461 
L 452.013061 -141.962989 
L 454.062857 -133.507726 
L 456.112653 -135.049684 
L 458.162449 -140.314683 
L 460.212245 -148.252882 
L 462.262041 -148.975479 
L 464.311837 -144.843264 
L 466.361633 -140.028012 
L 468.411429 -150.934958 
L 470.461224 -156.788099 
L 472.51102 -163.539434 
L 474.560816 -166.500183 
L 476.610612 -157.671384 
L 478.660408 -154.252389 
L 480.710204 -146.526393 
L 482.76 -143.503793 
L 484.809796 -140.360565 
L 486.859592 -143.27729 
L 488.909388 -140.34701 
L 490.959184 -148.561956 
L 493.00898 -136.496629 
L 495.058776 -138.188734 
L 497.108571 -140.903162 
L 499.158367 -130.296378 
L 501.208163 -129.278508 
L 503.257959 -129.250728 
L 505.307755 -124.885882 
L 507.357551 -138.783517 
L 509.407347 -143.525858 
L 511.457143 -135.680213 
L 513.506939 -136.581089 
L 515.556735 -134.444008 
L 517.606531 -140.03551 
L 519.656327 -157.982531 
L 521.706122 -144.919574 
L 523.755918 -144.865712 
L 525.805714 -152.189325 
L 527.85551 -152.153811 
L 529.905306 -144.941993 
L 531.955102 -158.046482 
L 534.004898 -143.510739 
L 536.054694 -151.118178 
L 538.10449 -151.829396 
L 540.154286 -142.643869 
L 542.204082 -144.882204 
L 544.253878 -153.439829 
L 546.303673 -147.235218 
L 548.353469 -145.952148 
L 550.403265 -158.221205 
L 552.453061 -155.668938 
L 554.502857 -159.747406 
L 556.552653 -159.093425 
L 558.602449 -157.26141 
L 560.652245 -158.797645 
L 562.702041 -159.642815 
L 564.751837 -151.13794 
L 566.801633 -144.894776 
L 568.851429 -148.557675 
L 570.901224 -153.225483 
L 572.95102 -151.27332 
L 575.000816 -154.136701 
L 577.050612 -155.037477 
L 579.100408 -151.791679 
L 581.150204 -139.527838 
L 583.2 -147.173985 
L 583.2 -168.22635 
L 583.2 -168.22635 
L 581.150204 -160.996859 
L 579.100408 -173.492949 
L 577.050612 -176.620698 
L 575.000816 -174.494705 
L 572.95102 -171.173376 
L 570.901224 -172.781916 
L 568.851429 -170.729456 
L 566.801633 -165.927012 
L 564.751837 -174.452048 
L 562.702041 -180.336994 
L 560.652245 -179.693628 
L 558.602449 -177.665385 
L 556.552653 -179.459708 
L 554.502857 -180.991404 
L 552.453061 -175.57296 
L 550.403265 -177.317468 
L 548.353469 -168.527312 
L 546.303673 -168.657233 
L 544.253878 -174.226866 
L 542.204082 -166.032622 
L 540.154286 -163.032022 
L 538.10449 -173.269425 
L 536.054694 -172.16673 
L 534.004898 -163.781638 
L 531.955102 -179.726532 
L 529.905306 -165.248344 
L 527.85551 -172.091684 
L 525.805714 -172.37838 
L 523.755918 -164.235236 
L 521.706122 -162.768471 
L 519.656327 -177.819003 
L 517.606531 -159.809201 
L 515.556735 -155.599805 
L 513.506939 -156.313822 
L 511.457143 -157.988885 
L 509.407347 -164.075686 
L 507.357551 -160.022104 
L 505.307755 -146.781218 
L 503.257959 -148.952656 
L 501.208163 -150.298435 
L 499.158367 -150.865571 
L 497.108571 -161.309049 
L 495.058776 -159.1304 
L 493.00898 -156.945153 
L 490.959184 -169.935243 
L 488.909388 -160.695443 
L 486.859592 -164.142726 
L 484.809796 -161.05286 
L 482.76 -165.153334 
L 480.710204 -167.692388 
L 478.660408 -175.942806 
L 476.610612 -177.877668 
L 474.560816 -190.08 
L 472.51102 -185.310508 
L 470.461224 -176.398375 
L 468.411429 -168.81814 
L 466.361633 -159.477522 
L 464.311837 -163.01057 
L 462.262041 -169.89026 
L 460.212245 -167.447204 
L 458.162449 -159.022879 
L 456.112653 -152.050729 
L 454.062857 -149.95996 
L 452.013061 -156.959243 
L 449.963265 -156.127862 
L 447.913469 -155.728518 
L 445.863673 -158.021228 
L 443.813878 -156.714248 
L 441.764082 -154.668339 
L 439.714286 -151.521464 
L 437.66449 -162.599792 
L 435.614694 -165.507141 
L 433.564898 -160.219168 
L 431.515102 -168.954604 
L 429.465306 -162.158004 
L 427.41551 -162.529877 
L 425.365714 -160.894938 
L 423.315918 -162.696282 
L 421.266122 -164.05566 
L 419.216327 -159.768736 
L 417.166531 -161.749711 
L 415.116735 -158.846617 
L 413.066939 -159.817024 
L 411.017143 -167.009513 
L 408.967347 -177.073685 
L 406.917551 -177.485054 
L 404.867755 -172.803986 
L 402.817959 -171.069296 
L 400.768163 -169.245107 
L 398.718367 -171.298218 
L 396.668571 -174.39399 
L 394.618776 -171.129432 
L 392.56898 -162.840175 
L 390.519184 -165.636328 
L 388.469388 -160.681779 
L 386.419592 -153.995879 
L 384.369796 -144.677122 
L 382.32 -140.6716 
L 380.270204 -142.570614 
L 378.220408 -141.319628 
L 376.170612 -140.14655 
L 374.120816 -148.726548 
L 372.07102 -147.080866 
L 370.021224 -146.693606 
L 367.971429 -157.672896 
L 365.921633 -168.65009 
L 363.871837 -172.177973 
L 361.822041 -174.372923 
L 359.772245 -176.507146 
L 357.722449 -176.114826 
L 355.672653 -180.935718 
L 353.622857 -183.666789 
L 351.573061 -179.747877 
L 349.523265 -177.530642 
L 347.473469 -174.480717 
L 345.423673 -165.516927 
L 343.373878 -154.932295 
L 341.324082 -150.455617 
L 339.274286 -149.429146 
L 337.22449 -143.625439 
L 335.174694 -147.105553 
L 333.124898 -146.0891 
L 331.075102 -149.581488 
L 329.025306 -148.210418 
L 326.97551 -145.017606 
L 324.925714 -148.205873 
L 322.875918 -149.490235 
L 320.826122 -161.976176 
L 318.776327 -159.024849 
L 316.726531 -154.880038 
L 314.676735 -152.776458 
L 312.626939 -150.125759 
L 310.577143 -156.914857 
L 308.527347 -155.008704 
L 306.477551 -159.276398 
L 304.427755 -165.169177 
L 302.377959 -158.897501 
L 300.328163 -162.139072 
L 298.278367 -166.593499 
L 296.228571 -176.574042 
L 294.178776 -176.683248 
L 292.12898 -167.523693 
L 290.079184 -161.405086 
L 288.029388 -162.661253 
L 285.979592 -152.813459 
L 283.929796 -147.981019 
L 281.88 -157.30939 
L 279.830204 -159.220597 
L 277.780408 -164.898232 
L 275.730612 -156.341174 
L 273.680816 -147.383548 
L 271.63102 -164.260505 
L 269.581224 -158.209395 
L 267.531429 -155.191075 
L 265.481633 -153.417164 
L 263.431837 -156.900587 
L 261.382041 -151.607054 
L 259.332245 -157.806978 
L 257.282449 -149.896502 
L 255.232653 -156.363739 
L 253.182857 -155.952403 
L 251.133061 -158.884038 
L 249.083265 -167.62992 
L 247.033469 -152.217887 
L 244.983673 -144.762174 
L 242.933878 -137.895407 
L 240.884082 -147.979526 
L 238.834286 -143.666996 
L 236.78449 -152.915278 
L 234.734694 -160.215989 
L 232.684898 -157.595088 
L 230.635102 -145.691865 
L 228.585306 -150.358022 
L 226.53551 -143.837944 
L 224.485714 -157.48915 
L 222.435918 -152.257419 
L 220.386122 -156.896807 
L 218.336327 -160.374951 
L 216.286531 -156.76556 
L 214.236735 -158.899178 
L 212.186939 -160.255478 
L 210.137143 -159.666179 
L 208.087347 -157.1792 
L 206.037551 -158.919537 
L 203.987755 -158.014344 
L 201.937959 -155.290734 
L 199.888163 -148.338142 
L 197.838367 -148.398723 
L 195.788571 -142.992694 
L 193.738776 -146.004026 
L 191.68898 -141.748872 
L 189.639184 -132.83453 
L 187.589388 -144.481111 
L 185.539592 -128.624659 
L 183.489796 -122.169553 
L 181.44 -109.865665 
L 179.390204 -109.646145 
L 177.340408 -109.2696 
L 175.290612 -111.694025 
L 173.240816 -108.809318 
L 171.19102 -111.799865 
L 169.141224 -126.810515 
L 167.091429 -125.435769 
L 165.041633 -145.442489 
L 162.991837 -153.830557 
L 160.942041 -159.333261 
L 158.892245 -151.301853 
L 156.842449 -154.972997 
L 154.792653 -133.598586 
L 152.742857 -90.583112 
L 150.693061 -61.983686 
L 148.643265 -37.404321 
L 146.593469 -38.959334 
L 144.543673 -61.480176 
L 142.493878 -77.59207 
L 140.444082 -87.284734 
L 138.394286 -92.437051 
L 136.34449 -89.242494 
L 134.294694 -83.175385 
L 132.244898 -76.700336 
L 130.195102 -69.945619 
L 128.145306 -78.976345 
L 126.09551 -98.126056 
L 124.045714 -140.309335 
L 121.995918 -189.043342 
L 119.946122 -189.426474 
L 117.896327 -167.108262 
L 115.846531 -170.805937 
L 113.796735 -168.956523 
L 111.746939 -166.355311 
L 109.697143 -164.629571 
L 107.647347 -156.187259 
L 105.597551 -151.194363 
L 103.547755 -148.001782 
L 101.497959 -152.49753 
L 99.448163 -161.922814 
L 97.398367 -162.139025 
L 95.348571 -154.706864 
L 93.298776 -153.389362 
L 91.24898 -152.59719 
L 89.199184 -154.701866 
L 87.149388 -155.128177 
L 85.099592 -172.125748 
L 83.049796 -169.736508 
L 81 -161.873828 
z
" id="mb4bddabb93" style="stroke:#0000ff;stroke-opacity:0.3;"/>
    </defs>
    <g clip-path="url(#p61746338c4)">
     <use style="fill:#0000ff;fill-opacity:0.3;stroke:#0000ff;stroke-opacity:0.3;" x="0" xlink:href="#mb4bddabb93" y="216"/>
    </g>
   </g>
   <g id="PolyCollection_2">
    <defs>
     <path d="M 128.042816 -23.76 
L 128.042816 -190.08 
L 435.512204 -190.08 
L 435.512204 -23.76 
L 435.512204 -23.76 
L 128.042816 -23.76 
z
" id="ma5c72c3cb7" style="stroke:#808080;stroke-opacity:0.3;"/>
    </defs>
    <g clip-path="url(#p61746338c4)">
     <use style="fill:#808080;fill-opacity:0.3;stroke:#808080;stroke-opacity:0.3;" x="0" xlink:href="#ma5c72c3cb7" y="216"/>
    </g>
   </g>
   <g id="matplotlib.axis_1">
    <g id="xtick_1">
     <g id="line2d_1">
      <defs>
       <path d="M 0 0 
L 0 3.5 
" id="m70e16f7616" style="stroke:#000000;stroke-width:0.8;"/>
      </defs>
      <g>
       <use style="stroke:#000000;stroke-width:0.8;" x="81" xlink:href="#m70e16f7616" y="192.24"/>
      </g>
     </g>
     <g id="text_1">
      <!-- 0.0 -->
      <defs>
       <path d="M 31.78125 66.40625 
Q 24.171875 66.40625 20.328125 58.90625 
Q 16.5 51.421875 16.5 36.375 
Q 16.5 21.390625 20.328125 13.890625 
Q 24.171875 6.390625 31.78125 6.390625 
Q 39.453125 6.390625 43.28125 13.890625 
Q 47.125 21.390625 47.125 36.375 
Q 47.125 51.421875 43.28125 58.90625 
Q 39.453125 66.40625 31.78125 66.40625 
z
M 31.78125 74.21875 
Q 44.046875 74.21875 50.515625 64.515625 
Q 56.984375 54.828125 56.984375 36.375 
Q 56.984375 17.96875 50.515625 8.265625 
Q 44.046875 -1.421875 31.78125 -1.421875 
Q 19.53125 -1.421875 13.0625 8.265625 
Q 6.59375 17.96875 6.59375 36.375 
Q 6.59375 54.828125 13.0625 64.515625 
Q 19.53125 74.21875 31.78125 74.21875 
z
" id="DejaVuSans-48"/>
       <path d="M 10.6875 12.40625 
L 21 12.40625 
L 21 0 
L 10.6875 0 
z
" id="DejaVuSans-46"/>
      </defs>
      <g transform="translate(71.458125 208.358125)scale(0.12 -0.12)">
       <use xlink:href="#DejaVuSans-48"/>
       <use x="63.623047" xlink:href="#DejaVuSans-46"/>
       <use x="95.410156" xlink:href="#DejaVuSans-48"/>
      </g>
     </g>
    </g>
    <g id="xtick_2">
     <g id="line2d_2">
      <g>
       <use style="stroke:#000000;stroke-width:0.8;" x="183.489796" xlink:href="#m70e16f7616" y="192.24"/>
      </g>
     </g>
     <g id="text_2">
      <!-- 0.5 -->
      <defs>
       <path d="M 10.796875 72.90625 
L 49.515625 72.90625 
L 49.515625 64.59375 
L 19.828125 64.59375 
L 19.828125 46.734375 
Q 21.96875 47.46875 24.109375 47.828125 
Q 26.265625 48.1875 28.421875 48.1875 
Q 40.625 48.1875 47.75 41.5 
Q 54.890625 34.8125 54.890625 23.390625 
Q 54.890625 11.625 47.5625 5.09375 
Q 40.234375 -1.421875 26.90625 -1.421875 
Q 22.3125 -1.421875 17.546875 -0.640625 
Q 12.796875 0.140625 7.71875 1.703125 
L 7.71875 11.625 
Q 12.109375 9.234375 16.796875 8.0625 
Q 21.484375 6.890625 26.703125 6.890625 
Q 35.15625 6.890625 40.078125 11.328125 
Q 45.015625 15.765625 45.015625 23.390625 
Q 45.015625 31 40.078125 35.4375 
Q 35.15625 39.890625 26.703125 39.890625 
Q 22.75 39.890625 18.8125 39.015625 
Q 14.890625 38.140625 10.796875 36.28125 
z
" id="DejaVuSans-53"/>
      </defs>
      <g transform="translate(173.947921 208.358125)scale(0.12 -0.12)">
       <use xlink:href="#DejaVuSans-48"/>
       <use x="63.623047" xlink:href="#DejaVuSans-46"/>
       <use x="95.410156" xlink:href="#DejaVuSans-53"/>
      </g>
     </g>
    </g>
    <g id="xtick_3">
     <g id="line2d_3">
      <g>
       <use style="stroke:#000000;stroke-width:0.8;" x="285.979592" xlink:href="#m70e16f7616" y="192.24"/>
      </g>
     </g>
     <g id="text_3">
      <!-- 1.0 -->
      <defs>
       <path d="M 12.40625 8.296875 
L 28.515625 8.296875 
L 28.515625 63.921875 
L 10.984375 60.40625 
L 10.984375 69.390625 
L 28.421875 72.90625 
L 38.28125 72.90625 
L 38.28125 8.296875 
L 54.390625 8.296875 
L 54.390625 0 
L 12.40625 0 
z
" id="DejaVuSans-49"/>
      </defs>
      <g transform="translate(276.437717 208.358125)scale(0.12 -0.12)">
       <use xlink:href="#DejaVuSans-49"/>
       <use x="63.623047" xlink:href="#DejaVuSans-46"/>
       <use x="95.410156" xlink:href="#DejaVuSans-48"/>
      </g>
     </g>
    </g>
    <g id="xtick_4">
     <g id="line2d_4">
      <g>
       <use style="stroke:#000000;stroke-width:0.8;" x="388.469388" xlink:href="#m70e16f7616" y="192.24"/>
      </g>
     </g>
     <g id="text_4">
      <!-- 1.5 -->
      <g transform="translate(378.927513 208.358125)scale(0.12 -0.12)">
       <use xlink:href="#DejaVuSans-49"/>
       <use x="63.623047" xlink:href="#DejaVuSans-46"/>
       <use x="95.410156" xlink:href="#DejaVuSans-53"/>
      </g>
     </g>
    </g>
    <g id="xtick_5">
     <g id="line2d_5">
      <g>
       <use style="stroke:#000000;stroke-width:0.8;" x="490.959184" xlink:href="#m70e16f7616" y="192.24"/>
      </g>
     </g>
     <g id="text_5">
      <!-- 2.0 -->
      <defs>
       <path d="M 19.1875 8.296875 
L 53.609375 8.296875 
L 53.609375 0 
L 7.328125 0 
L 7.328125 8.296875 
Q 12.9375 14.109375 22.625 23.890625 
Q 32.328125 33.6875 34.8125 36.53125 
Q 39.546875 41.84375 41.421875 45.53125 
Q 43.3125 49.21875 43.3125 52.78125 
Q 43.3125 58.59375 39.234375 62.25 
Q 35.15625 65.921875 28.609375 65.921875 
Q 23.96875 65.921875 18.8125 64.3125 
Q 13.671875 62.703125 7.8125 59.421875 
L 7.8125 69.390625 
Q 13.765625 71.78125 18.9375 73 
Q 24.125 74.21875 28.421875 74.21875 
Q 39.75 74.21875 46.484375 68.546875 
Q 53.21875 62.890625 53.21875 53.421875 
Q 53.21875 48.921875 51.53125 44.890625 
Q 49.859375 40.875 45.40625 35.40625 
Q 44.1875 33.984375 37.640625 27.21875 
Q 31.109375 20.453125 19.1875 8.296875 
z
" id="DejaVuSans-50"/>
      </defs>
      <g transform="translate(481.417309 208.358125)scale(0.12 -0.12)">
       <use xlink:href="#DejaVuSans-50"/>
       <use x="63.623047" xlink:href="#DejaVuSans-46"/>
       <use x="95.410156" xlink:href="#DejaVuSans-48"/>
      </g>
     </g>
    </g>
    <g id="text_6">
     <!-- Time (s) -->
     <defs>
      <path d="M -0.296875 72.90625 
L 61.375 72.90625 
L 61.375 64.59375 
L 35.5 64.59375 
L 35.5 0 
L 25.59375 0 
L 25.59375 64.59375 
L -0.296875 64.59375 
z
" id="DejaVuSans-84"/>
      <path d="M 9.421875 54.6875 
L 18.40625 54.6875 
L 18.40625 0 
L 9.421875 0 
z
M 9.421875 75.984375 
L 18.40625 75.984375 
L 18.40625 64.59375 
L 9.421875 64.59375 
z
" id="DejaVuSans-105"/>
      <path d="M 52 44.1875 
Q 55.375 50.25 60.0625 53.125 
Q 64.75 56 71.09375 56 
Q 79.640625 56 84.28125 50.015625 
Q 88.921875 44.046875 88.921875 33.015625 
L 88.921875 0 
L 79.890625 0 
L 79.890625 32.71875 
Q 79.890625 40.578125 77.09375 44.375 
Q 74.3125 48.1875 68.609375 48.1875 
Q 61.625 48.1875 57.5625 43.546875 
Q 53.515625 38.921875 53.515625 30.90625 
L 53.515625 0 
L 44.484375 0 
L 44.484375 32.71875 
Q 44.484375 40.625 41.703125 44.40625 
Q 38.921875 48.1875 33.109375 48.1875 
Q 26.21875 48.1875 22.15625 43.53125 
Q 18.109375 38.875 18.109375 30.90625 
L 18.109375 0 
L 9.078125 0 
L 9.078125 54.6875 
L 18.109375 54.6875 
L 18.109375 46.1875 
Q 21.1875 51.21875 25.484375 53.609375 
Q 29.78125 56 35.6875 56 
Q 41.65625 56 45.828125 52.96875 
Q 50 49.953125 52 44.1875 
z
" id="DejaVuSans-109"/>
      <path d="M 56.203125 29.59375 
L 56.203125 25.203125 
L 14.890625 25.203125 
Q 15.484375 15.921875 20.484375 11.0625 
Q 25.484375 6.203125 34.421875 6.203125 
Q 39.59375 6.203125 44.453125 7.46875 
Q 49.3125 8.734375 54.109375 11.28125 
L 54.109375 2.78125 
Q 49.265625 0.734375 44.1875 -0.34375 
Q 39.109375 -1.421875 33.890625 -1.421875 
Q 20.796875 -1.421875 13.15625 6.1875 
Q 5.515625 13.8125 5.515625 26.8125 
Q 5.515625 40.234375 12.765625 48.109375 
Q 20.015625 56 32.328125 56 
Q 43.359375 56 49.78125 48.890625 
Q 56.203125 41.796875 56.203125 29.59375 
z
M 47.21875 32.234375 
Q 47.125 39.59375 43.09375 43.984375 
Q 39.0625 48.390625 32.421875 48.390625 
Q 24.90625 48.390625 20.390625 44.140625 
Q 15.875 39.890625 15.1875 32.171875 
z
" id="DejaVuSans-101"/>
      <path id="DejaVuSans-32"/>
      <path d="M 31 75.875 
Q 24.46875 64.65625 21.28125 53.65625 
Q 18.109375 42.671875 18.109375 31.390625 
Q 18.109375 20.125 21.3125 9.0625 
Q 24.515625 -2 31 -13.1875 
L 23.1875 -13.1875 
Q 15.875 -1.703125 12.234375 9.375 
Q 8.59375 20.453125 8.59375 31.390625 
Q 8.59375 42.28125 12.203125 53.3125 
Q 15.828125 64.359375 23.1875 75.875 
z
" id="DejaVuSans-40"/>
      <path d="M 44.28125 53.078125 
L 44.28125 44.578125 
Q 40.484375 46.53125 36.375 47.5 
Q 32.28125 48.484375 27.875 48.484375 
Q 21.1875 48.484375 17.84375 46.4375 
Q 14.5 44.390625 14.5 40.28125 
Q 14.5 37.15625 16.890625 35.375 
Q 19.28125 33.59375 26.515625 31.984375 
L 29.59375 31.296875 
Q 39.15625 29.25 43.1875 25.515625 
Q 47.21875 21.78125 47.21875 15.09375 
Q 47.21875 7.46875 41.1875 3.015625 
Q 35.15625 -1.421875 24.609375 -1.421875 
Q 20.21875 -1.421875 15.453125 -0.5625 
Q 10.6875 0.296875 5.421875 2 
L 5.421875 11.28125 
Q 10.40625 8.6875 15.234375 7.390625 
Q 20.0625 6.109375 24.8125 6.109375 
Q 31.15625 6.109375 34.5625 8.28125 
Q 37.984375 10.453125 37.984375 14.40625 
Q 37.984375 18.0625 35.515625 20.015625 
Q 33.0625 21.96875 24.703125 23.78125 
L 21.578125 24.515625 
Q 13.234375 26.265625 9.515625 29.90625 
Q 5.8125 33.546875 5.8125 39.890625 
Q 5.8125 47.609375 11.28125 51.796875 
Q 16.75 56 26.8125 56 
Q 31.78125 56 36.171875 55.265625 
Q 40.578125 54.546875 44.28125 53.078125 
z
" id="DejaVuSans-115"/>
      <path d="M 8.015625 75.875 
L 15.828125 75.875 
Q 23.140625 64.359375 26.78125 53.3125 
Q 30.421875 42.28125 30.421875 31.390625 
Q 30.421875 20.453125 26.78125 9.375 
Q 23.140625 -1.703125 15.828125 -13.1875 
L 8.015625 -13.1875 
Q 14.5 -2 17.703125 9.0625 
Q 20.90625 20.125 20.90625 31.390625 
Q 20.90625 42.671875 17.703125 53.65625 
Q 14.5 64.65625 8.015625 75.875 
z
" id="DejaVuSans-41"/>
     </defs>
     <g transform="translate(302.60475 225.7955)scale(0.144 -0.144)">
      <use xlink:href="#DejaVuSans-84"/>
      <use x="61.037109" xlink:href="#DejaVuSans-105"/>
      <use x="88.820312" xlink:href="#DejaVuSans-109"/>
      <use x="186.232422" xlink:href="#DejaVuSans-101"/>
      <use x="247.755859" xlink:href="#DejaVuSans-32"/>
      <use x="279.542969" xlink:href="#DejaVuSans-40"/>
      <use x="318.556641" xlink:href="#DejaVuSans-115"/>
      <use x="370.65625" xlink:href="#DejaVuSans-41"/>
     </g>
    </g>
   </g>
   <g id="matplotlib.axis_2">
    <g id="ytick_1">
     <g id="line2d_6">
      <defs>
       <path d="M 0 0 
L -3.5 0 
" id="m57f7c8dafc" style="stroke:#000000;stroke-width:0.8;"/>
      </defs>
      <g>
       <use style="stroke:#000000;stroke-width:0.8;" x="81" xlink:href="#m57f7c8dafc" y="175.042838"/>
      </g>
     </g>
     <g id="text_7">
      <!-- 0.4 -->
      <defs>
       <path d="M 37.796875 64.3125 
L 12.890625 25.390625 
L 37.796875 25.390625 
z
M 35.203125 72.90625 
L 47.609375 72.90625 
L 47.609375 25.390625 
L 58.015625 25.390625 
L 58.015625 17.1875 
L 47.609375 17.1875 
L 47.609375 0 
L 37.796875 0 
L 37.796875 17.1875 
L 4.890625 17.1875 
L 4.890625 26.703125 
z
" id="DejaVuSans-52"/>
      </defs>
      <g transform="translate(54.91625 179.6019)scale(0.12 -0.12)">
       <use xlink:href="#DejaVuSans-48"/>
       <use x="63.623047" xlink:href="#DejaVuSans-46"/>
       <use x="95.410156" xlink:href="#DejaVuSans-52"/>
      </g>
     </g>
    </g>
    <g id="ytick_2">
     <g id="line2d_7">
      <g>
       <use style="stroke:#000000;stroke-width:0.8;" x="81" xlink:href="#m57f7c8dafc" y="137.479452"/>
      </g>
     </g>
     <g id="text_8">
      <!-- 0.6 -->
      <defs>
       <path d="M 33.015625 40.375 
Q 26.375 40.375 22.484375 35.828125 
Q 18.609375 31.296875 18.609375 23.390625 
Q 18.609375 15.53125 22.484375 10.953125 
Q 26.375 6.390625 33.015625 6.390625 
Q 39.65625 6.390625 43.53125 10.953125 
Q 47.40625 15.53125 47.40625 23.390625 
Q 47.40625 31.296875 43.53125 35.828125 
Q 39.65625 40.375 33.015625 40.375 
z
M 52.59375 71.296875 
L 52.59375 62.3125 
Q 48.875 64.0625 45.09375 64.984375 
Q 41.3125 65.921875 37.59375 65.921875 
Q 27.828125 65.921875 22.671875 59.328125 
Q 17.53125 52.734375 16.796875 39.40625 
Q 19.671875 43.65625 24.015625 45.921875 
Q 28.375 48.1875 33.59375 48.1875 
Q 44.578125 48.1875 50.953125 41.515625 
Q 57.328125 34.859375 57.328125 23.390625 
Q 57.328125 12.15625 50.6875 5.359375 
Q 44.046875 -1.421875 33.015625 -1.421875 
Q 20.359375 -1.421875 13.671875 8.265625 
Q 6.984375 17.96875 6.984375 36.375 
Q 6.984375 53.65625 15.1875 63.9375 
Q 23.390625 74.21875 37.203125 74.21875 
Q 40.921875 74.21875 44.703125 73.484375 
Q 48.484375 72.75 52.59375 71.296875 
z
" id="DejaVuSans-54"/>
      </defs>
      <g transform="translate(54.91625 142.038514)scale(0.12 -0.12)">
       <use xlink:href="#DejaVuSans-48"/>
       <use x="63.623047" xlink:href="#DejaVuSans-46"/>
       <use x="95.410156" xlink:href="#DejaVuSans-54"/>
      </g>
     </g>
    </g>
    <g id="ytick_3">
     <g id="line2d_8">
      <g>
       <use style="stroke:#000000;stroke-width:0.8;" x="81" xlink:href="#m57f7c8dafc" y="99.916066"/>
      </g>
     </g>
     <g id="text_9">
      <!-- 0.8 -->
      <defs>
       <path d="M 31.78125 34.625 
Q 24.75 34.625 20.71875 30.859375 
Q 16.703125 27.09375 16.703125 20.515625 
Q 16.703125 13.921875 20.71875 10.15625 
Q 24.75 6.390625 31.78125 6.390625 
Q 38.8125 6.390625 42.859375 10.171875 
Q 46.921875 13.96875 46.921875 20.515625 
Q 46.921875 27.09375 42.890625 30.859375 
Q 38.875 34.625 31.78125 34.625 
z
M 21.921875 38.8125 
Q 15.578125 40.375 12.03125 44.71875 
Q 8.5 49.078125 8.5 55.328125 
Q 8.5 64.0625 14.71875 69.140625 
Q 20.953125 74.21875 31.78125 74.21875 
Q 42.671875 74.21875 48.875 69.140625 
Q 55.078125 64.0625 55.078125 55.328125 
Q 55.078125 49.078125 51.53125 44.71875 
Q 48 40.375 41.703125 38.8125 
Q 48.828125 37.15625 52.796875 32.3125 
Q 56.78125 27.484375 56.78125 20.515625 
Q 56.78125 9.90625 50.3125 4.234375 
Q 43.84375 -1.421875 31.78125 -1.421875 
Q 19.734375 -1.421875 13.25 4.234375 
Q 6.78125 9.90625 6.78125 20.515625 
Q 6.78125 27.484375 10.78125 32.3125 
Q 14.796875 37.15625 21.921875 38.8125 
z
M 18.3125 54.390625 
Q 18.3125 48.734375 21.84375 45.5625 
Q 25.390625 42.390625 31.78125 42.390625 
Q 38.140625 42.390625 41.71875 45.5625 
Q 45.3125 48.734375 45.3125 54.390625 
Q 45.3125 60.0625 41.71875 63.234375 
Q 38.140625 66.40625 31.78125 66.40625 
Q 25.390625 66.40625 21.84375 63.234375 
Q 18.3125 60.0625 18.3125 54.390625 
z
" id="DejaVuSans-56"/>
      </defs>
      <g transform="translate(54.91625 104.475128)scale(0.12 -0.12)">
       <use xlink:href="#DejaVuSans-48"/>
       <use x="63.623047" xlink:href="#DejaVuSans-46"/>
       <use x="95.410156" xlink:href="#DejaVuSans-56"/>
      </g>
     </g>
    </g>
    <g id="ytick_4">
     <g id="line2d_9">
      <g>
       <use style="stroke:#000000;stroke-width:0.8;" x="81" xlink:href="#m57f7c8dafc" y="62.35268"/>
      </g>
     </g>
     <g id="text_10">
      <!-- 1.0 -->
      <g transform="translate(54.91625 66.911742)scale(0.12 -0.12)">
       <use xlink:href="#DejaVuSans-49"/>
       <use x="63.623047" xlink:href="#DejaVuSans-46"/>
       <use x="95.410156" xlink:href="#DejaVuSans-48"/>
      </g>
     </g>
    </g>
    <g id="text_11">
     <!-- COMb $\nu$ -->
     <defs>
      <path d="M 64.40625 67.28125 
L 64.40625 56.890625 
Q 59.421875 61.53125 53.78125 63.8125 
Q 48.140625 66.109375 41.796875 66.109375 
Q 29.296875 66.109375 22.65625 58.46875 
Q 16.015625 50.828125 16.015625 36.375 
Q 16.015625 21.96875 22.65625 14.328125 
Q 29.296875 6.6875 41.796875 6.6875 
Q 48.140625 6.6875 53.78125 8.984375 
Q 59.421875 11.28125 64.40625 15.921875 
L 64.40625 5.609375 
Q 59.234375 2.09375 53.4375 0.328125 
Q 47.65625 -1.421875 41.21875 -1.421875 
Q 24.65625 -1.421875 15.125 8.703125 
Q 5.609375 18.84375 5.609375 36.375 
Q 5.609375 53.953125 15.125 64.078125 
Q 24.65625 74.21875 41.21875 74.21875 
Q 47.75 74.21875 53.53125 72.484375 
Q 59.328125 70.75 64.40625 67.28125 
z
" id="DejaVuSans-67"/>
      <path d="M 39.40625 66.21875 
Q 28.65625 66.21875 22.328125 58.203125 
Q 16.015625 50.203125 16.015625 36.375 
Q 16.015625 22.609375 22.328125 14.59375 
Q 28.65625 6.59375 39.40625 6.59375 
Q 50.140625 6.59375 56.421875 14.59375 
Q 62.703125 22.609375 62.703125 36.375 
Q 62.703125 50.203125 56.421875 58.203125 
Q 50.140625 66.21875 39.40625 66.21875 
z
M 39.40625 74.21875 
Q 54.734375 74.21875 63.90625 63.9375 
Q 73.09375 53.65625 73.09375 36.375 
Q 73.09375 19.140625 63.90625 8.859375 
Q 54.734375 -1.421875 39.40625 -1.421875 
Q 24.03125 -1.421875 14.8125 8.828125 
Q 5.609375 19.09375 5.609375 36.375 
Q 5.609375 53.65625 14.8125 63.9375 
Q 24.03125 74.21875 39.40625 74.21875 
z
" id="DejaVuSans-79"/>
      <path d="M 9.8125 72.90625 
L 24.515625 72.90625 
L 43.109375 23.296875 
L 61.8125 72.90625 
L 76.515625 72.90625 
L 76.515625 0 
L 66.890625 0 
L 66.890625 64.015625 
L 48.09375 14.015625 
L 38.1875 14.015625 
L 19.390625 64.015625 
L 19.390625 0 
L 9.8125 0 
z
" id="DejaVuSans-77"/>
      <path d="M 48.6875 27.296875 
Q 48.6875 37.203125 44.609375 42.84375 
Q 40.53125 48.484375 33.40625 48.484375 
Q 26.265625 48.484375 22.1875 42.84375 
Q 18.109375 37.203125 18.109375 27.296875 
Q 18.109375 17.390625 22.1875 11.75 
Q 26.265625 6.109375 33.40625 6.109375 
Q 40.53125 6.109375 44.609375 11.75 
Q 48.6875 17.390625 48.6875 27.296875 
z
M 18.109375 46.390625 
Q 20.953125 51.265625 25.265625 53.625 
Q 29.59375 56 35.59375 56 
Q 45.5625 56 51.78125 48.09375 
Q 58.015625 40.1875 58.015625 27.296875 
Q 58.015625 14.40625 51.78125 6.484375 
Q 45.5625 -1.421875 35.59375 -1.421875 
Q 29.59375 -1.421875 25.265625 0.953125 
Q 20.953125 3.328125 18.109375 8.203125 
L 18.109375 0 
L 9.078125 0 
L 9.078125 75.984375 
L 18.109375 75.984375 
z
" id="DejaVuSans-98"/>
      <path d="M 14.984375 0 
L 8.9375 54.6875 
L 18.609375 54.6875 
L 23.78125 8.796875 
Q 30.8125 14.84375 37.359375 23.25 
Q 42.28125 29.546875 43.5625 35.015625 
Q 44.140625 37.59375 43.890625 42.484375 
Q 43.65625 48.296875 39.75 54.6875 
L 48.828125 54.6875 
L 48.828125 54.6875 
Q 51.375 50.34375 52.390625 44.28125 
Q 53.375 38.71875 52.640625 34.90625 
Q 50.78125 25.34375 42.484375 16.796875 
Q 31.640625 5.671875 24.5625 0 
z
" id="DejaVuSans-Oblique-957"/>
     </defs>
     <g transform="translate(47.9215 136.872)rotate(-90)scale(0.144 -0.144)">
      <use transform="translate(0 0.015625)" xlink:href="#DejaVuSans-67"/>
      <use transform="translate(69.824219 0.015625)" xlink:href="#DejaVuSans-79"/>
      <use transform="translate(148.535156 0.015625)" xlink:href="#DejaVuSans-77"/>
      <use transform="translate(234.814453 0.015625)" xlink:href="#DejaVuSans-98"/>
      <use transform="translate(298.291016 0.015625)" xlink:href="#DejaVuSans-32"/>
      <use transform="translate(330.078125 0.015625)" xlink:href="#DejaVuSans-Oblique-957"/>
     </g>
    </g>
   </g>
   <g id="line2d_10">
    <path clip-path="url(#p61746338c4)" d="M 81 64.12972 
L 83.049796 56.411176 
L 85.099592 55.122087 
L 87.149388 70.493203 
L 89.199184 71.560298 
L 91.24898 72.780334 
L 93.298776 72.659809 
L 95.348571 70.83142 
L 97.398367 64.054073 
L 99.448163 64.222284 
L 101.497959 73.477734 
L 103.547755 77.916027 
L 105.597551 74.047977 
L 107.647347 69.907693 
L 109.697143 61.823804 
L 111.746939 60.641526 
L 113.796735 57.843048 
L 115.846531 56.321061 
L 117.896327 59.282483 
L 119.946122 37.858476 
L 121.995918 38.276822 
L 124.045714 85.838114 
L 126.09551 126.806391 
L 128.145306 144.684006 
L 130.195102 152.794864 
L 134.294694 138.07932 
L 136.34449 131.810354 
L 138.394286 128.551559 
L 140.444082 133.383969 
L 142.493878 143.055696 
L 144.543673 159.638133 
L 146.593469 182.577157 
L 148.643265 185.417839 
L 150.693061 162.783239 
L 152.742857 135.758373 
L 154.792653 94.4962 
L 156.842449 74.032444 
L 158.892245 77.878083 
L 160.942041 70.467491 
L 162.991837 77.483744 
L 165.041633 85.403751 
L 167.091429 104.002716 
L 169.141224 100.802455 
L 171.19102 116.893405 
L 173.240816 119.242674 
L 175.290612 116.193885 
L 177.340408 117.851663 
L 181.44 116.015153 
L 183.489796 104.233466 
L 185.539592 97.200648 
L 187.589388 82.021983 
L 189.639184 91.931554 
L 191.68898 83.495443 
L 193.738776 79.501303 
L 195.788571 82.938027 
L 197.838367 77.079781 
L 199.888163 77.56113 
L 201.937959 70.586266 
L 203.987755 68.069461 
L 206.037551 67.301396 
L 208.087347 69.030565 
L 210.137143 67.00975 
L 212.186939 65.642873 
L 214.236735 68.362859 
L 216.286531 70.213134 
L 218.336327 65.957352 
L 222.435918 74.512759 
L 224.485714 69.511889 
L 226.53551 82.762621 
L 228.585306 76.471762 
L 230.635102 80.689149 
L 232.684898 69.424721 
L 234.734694 66.658093 
L 236.78449 72.989517 
L 238.834286 82.076151 
L 240.884082 78.66395 
L 242.933878 88.179424 
L 244.983673 81.492353 
L 247.033469 73.61299 
L 249.083265 59.557014 
L 251.133061 67.372952 
L 253.182857 70.619518 
L 255.232653 70.87543 
L 257.282449 76.570925 
L 259.332245 68.753672 
L 261.382041 73.554157 
L 263.431837 68.485446 
L 265.481633 71.60223 
L 267.531429 70.159237 
L 269.581224 67.247358 
L 271.63102 62.130902 
L 273.680816 77.863413 
L 277.780408 60.310709 
L 279.830204 66.760818 
L 281.88 68.341534 
L 283.929796 77.15672 
L 285.979592 72.47262 
L 288.029388 62.967728 
L 290.079184 63.943018 
L 292.12898 58.186719 
L 294.178776 49.540527 
L 296.228571 49.759518 
L 298.278367 59.095958 
L 300.328163 63.666801 
L 302.377959 66.453259 
L 304.427755 60.979185 
L 306.477551 66.982171 
L 308.527347 71.077955 
L 310.577143 68.705001 
L 312.626939 75.234999 
L 316.726531 70.668397 
L 318.776327 67.136806 
L 320.826122 63.946996 
L 322.875918 76.049745 
L 324.925714 77.715596 
L 326.97551 81.010519 
L 329.025306 77.708496 
L 331.075102 76.563851 
L 333.124898 80.200148 
L 335.174694 79.120529 
L 337.22449 82.432214 
L 339.274286 76.762146 
L 341.324082 75.232412 
L 343.373878 70.981428 
L 345.423673 60.37245 
L 347.473469 51.839193 
L 349.523265 48.874986 
L 351.573061 47.211377 
L 353.622857 43.099517 
L 355.672653 45.789858 
L 357.722449 50.956134 
L 359.772245 50.73342 
L 363.871837 54.138207 
L 365.921633 57.592093 
L 367.971429 67.993469 
L 370.021224 79.120159 
L 372.07102 78.626478 
L 374.120816 77.103261 
L 376.170612 85.155399 
L 378.220408 83.74343 
L 380.270204 82.841398 
L 382.32 84.711605 
L 384.369796 80.810074 
L 386.419592 71.939783 
L 388.469388 65.433586 
L 390.519184 60.888392 
L 392.56898 62.801873 
L 394.618776 55.209683 
L 396.668571 52.480949 
L 398.718367 54.955424 
L 400.768163 56.343179 
L 404.867755 53.050886 
L 406.917551 48.621482 
L 408.967347 49.092286 
L 411.017143 57.750545 
L 413.066939 65.22906 
L 415.116735 65.679849 
L 417.166531 61.890802 
L 419.216327 64.537167 
L 421.266122 61.248815 
L 423.315918 62.40947 
L 425.365714 64.110154 
L 427.41551 62.634397 
L 429.465306 63.148677 
L 431.515102 56.76708 
L 433.564898 65.20433 
L 435.614694 60.870075 
L 437.66449 62.924706 
L 439.714286 73.317666 
L 441.764082 69.685494 
L 445.863673 66.27585 
L 447.913469 68.051665 
L 449.963265 67.532838 
L 452.013061 66.538884 
L 454.062857 74.266157 
L 456.112653 72.449793 
L 458.162449 66.331219 
L 460.212245 58.149957 
L 462.262041 56.56713 
L 464.311837 62.073083 
L 466.361633 66.247233 
L 468.411429 56.123451 
L 470.461224 49.406763 
L 472.51102 41.575029 
L 474.560816 37.709908 
L 476.610612 48.225474 
L 478.660408 50.902402 
L 480.710204 58.89061 
L 482.76 61.671436 
L 484.809796 65.293288 
L 486.859592 62.289992 
L 488.909388 65.478773 
L 490.959184 56.7514 
L 493.00898 69.279109 
L 495.058776 67.340433 
L 497.108571 64.893895 
L 499.158367 75.419026 
L 503.257959 76.898308 
L 505.307755 80.16645 
L 507.357551 66.597189 
L 509.407347 62.199228 
L 511.457143 69.165451 
L 513.506939 69.552545 
L 515.556735 70.978094 
L 517.606531 66.077645 
L 519.656327 48.099233 
L 521.706122 62.155977 
L 523.755918 61.449526 
L 525.805714 53.716148 
L 527.85551 53.877252 
L 529.905306 60.904832 
L 531.955102 47.113493 
L 534.004898 62.353812 
L 536.054694 54.357546 
L 538.10449 53.450589 
L 540.154286 63.162054 
L 542.204082 60.542587 
L 544.253878 52.166652 
L 546.303673 58.053774 
L 548.353469 58.76027 
L 550.403265 48.230663 
L 552.453061 50.379051 
L 554.502857 45.630595 
L 556.552653 46.723434 
L 558.602449 48.536603 
L 560.652245 46.754364 
L 562.702041 46.010096 
L 566.801633 60.589106 
L 568.851429 56.356434 
L 570.901224 52.996301 
L 572.95102 54.776652 
L 575.000816 51.684297 
L 577.050612 50.170912 
L 579.100408 53.357686 
L 581.150204 65.737652 
L 583.2 58.299833 
L 583.2 58.299833 
" style="fill:none;stroke:#0000ff;stroke-linecap:square;stroke-width:1.5;"/>
   </g>
   <g id="patch_3">
    <path d="M 81 192.24 
L 81 25.92 
" style="fill:none;stroke:#000000;stroke-linecap:square;stroke-linejoin:miter;stroke-width:0.8;"/>
   </g>
   <g id="patch_4">
    <path d="M 583.2 192.24 
L 583.2 25.92 
" style="fill:none;stroke:#000000;stroke-linecap:square;stroke-linejoin:miter;stroke-width:0.8;"/>
   </g>
   <g id="patch_5">
    <path d="M 81 192.24 
L 583.2 192.24 
" style="fill:none;stroke:#000000;stroke-linecap:square;stroke-linejoin:miter;stroke-width:0.8;"/>
   </g>
   <g id="patch_6">
    <path d="M 81 25.92 
L 583.2 25.92 
" style="fill:none;stroke:#000000;stroke-linecap:square;stroke-linejoin:miter;stroke-width:0.8;"/>
   </g>
   <g id="text_12">
    <!-- V1, Num Trials=160 All stimulated trials -->
    <defs>
     <path d="M 28.609375 0 
L 0.78125 72.90625 
L 11.078125 72.90625 
L 34.1875 11.53125 
L 57.328125 72.90625 
L 67.578125 72.90625 
L 39.796875 0 
z
" id="DejaVuSans-86"/>
     <path d="M 11.71875 12.40625 
L 22.015625 12.40625 
L 22.015625 4 
L 14.015625 -11.625 
L 7.71875 -11.625 
L 11.71875 4 
z
" id="DejaVuSans-44"/>
     <path d="M 9.8125 72.90625 
L 23.09375 72.90625 
L 55.421875 11.921875 
L 55.421875 72.90625 
L 64.984375 72.90625 
L 64.984375 0 
L 51.703125 0 
L 19.390625 60.984375 
L 19.390625 0 
L 9.8125 0 
z
" id="DejaVuSans-78"/>
     <path d="M 8.5 21.578125 
L 8.5 54.6875 
L 17.484375 54.6875 
L 17.484375 21.921875 
Q 17.484375 14.15625 20.5 10.265625 
Q 23.53125 6.390625 29.59375 6.390625 
Q 36.859375 6.390625 41.078125 11.03125 
Q 45.3125 15.671875 45.3125 23.6875 
L 45.3125 54.6875 
L 54.296875 54.6875 
L 54.296875 0 
L 45.3125 0 
L 45.3125 8.40625 
Q 42.046875 3.421875 37.71875 1 
Q 33.40625 -1.421875 27.6875 -1.421875 
Q 18.265625 -1.421875 13.375 4.4375 
Q 8.5 10.296875 8.5 21.578125 
z
M 31.109375 56 
z
" id="DejaVuSans-117"/>
     <path d="M 41.109375 46.296875 
Q 39.59375 47.171875 37.8125 47.578125 
Q 36.03125 48 33.890625 48 
Q 26.265625 48 22.1875 43.046875 
Q 18.109375 38.09375 18.109375 28.8125 
L 18.109375 0 
L 9.078125 0 
L 9.078125 54.6875 
L 18.109375 54.6875 
L 18.109375 46.1875 
Q 20.953125 51.171875 25.484375 53.578125 
Q 30.03125 56 36.53125 56 
Q 37.453125 56 38.578125 55.875 
Q 39.703125 55.765625 41.0625 55.515625 
z
" id="DejaVuSans-114"/>
     <path d="M 34.28125 27.484375 
Q 23.390625 27.484375 19.1875 25 
Q 14.984375 22.515625 14.984375 16.5 
Q 14.984375 11.71875 18.140625 8.90625 
Q 21.296875 6.109375 26.703125 6.109375 
Q 34.1875 6.109375 38.703125 11.40625 
Q 43.21875 16.703125 43.21875 25.484375 
L 43.21875 27.484375 
z
M 52.203125 31.203125 
L 52.203125 0 
L 43.21875 0 
L 43.21875 8.296875 
Q 40.140625 3.328125 35.546875 0.953125 
Q 30.953125 -1.421875 24.3125 -1.421875 
Q 15.921875 -1.421875 10.953125 3.296875 
Q 6 8.015625 6 15.921875 
Q 6 25.140625 12.171875 29.828125 
Q 18.359375 34.515625 30.609375 34.515625 
L 43.21875 34.515625 
L 43.21875 35.40625 
Q 43.21875 41.609375 39.140625 45 
Q 35.0625 48.390625 27.6875 48.390625 
Q 23 48.390625 18.546875 47.265625 
Q 14.109375 46.140625 10.015625 43.890625 
L 10.015625 52.203125 
Q 14.9375 54.109375 19.578125 55.046875 
Q 24.21875 56 28.609375 56 
Q 40.484375 56 46.34375 49.84375 
Q 52.203125 43.703125 52.203125 31.203125 
z
" id="DejaVuSans-97"/>
     <path d="M 9.421875 75.984375 
L 18.40625 75.984375 
L 18.40625 0 
L 9.421875 0 
z
" id="DejaVuSans-108"/>
     <path d="M 10.59375 45.40625 
L 73.1875 45.40625 
L 73.1875 37.203125 
L 10.59375 37.203125 
z
M 10.59375 25.484375 
L 73.1875 25.484375 
L 73.1875 17.1875 
L 10.59375 17.1875 
z
" id="DejaVuSans-61"/>
     <path d="M 34.1875 63.1875 
L 20.796875 26.90625 
L 47.609375 26.90625 
z
M 28.609375 72.90625 
L 39.796875 72.90625 
L 67.578125 0 
L 57.328125 0 
L 50.6875 18.703125 
L 17.828125 18.703125 
L 11.1875 0 
L 0.78125 0 
z
" id="DejaVuSans-65"/>
     <path d="M 18.3125 70.21875 
L 18.3125 54.6875 
L 36.8125 54.6875 
L 36.8125 47.703125 
L 18.3125 47.703125 
L 18.3125 18.015625 
Q 18.3125 11.328125 20.140625 9.421875 
Q 21.96875 7.515625 27.59375 7.515625 
L 36.8125 7.515625 
L 36.8125 0 
L 27.59375 0 
Q 17.1875 0 13.234375 3.875 
Q 9.28125 7.765625 9.28125 18.015625 
L 9.28125 47.703125 
L 2.6875 47.703125 
L 2.6875 54.6875 
L 9.28125 54.6875 
L 9.28125 70.21875 
z
" id="DejaVuSans-116"/>
     <path d="M 45.40625 46.390625 
L 45.40625 75.984375 
L 54.390625 75.984375 
L 54.390625 0 
L 45.40625 0 
L 45.40625 8.203125 
Q 42.578125 3.328125 38.25 0.953125 
Q 33.9375 -1.421875 27.875 -1.421875 
Q 17.96875 -1.421875 11.734375 6.484375 
Q 5.515625 14.40625 5.515625 27.296875 
Q 5.515625 40.1875 11.734375 48.09375 
Q 17.96875 56 27.875 56 
Q 33.9375 56 38.25 53.625 
Q 42.578125 51.265625 45.40625 46.390625 
z
M 14.796875 27.296875 
Q 14.796875 17.390625 18.875 11.75 
Q 22.953125 6.109375 30.078125 6.109375 
Q 37.203125 6.109375 41.296875 11.75 
Q 45.40625 17.390625 45.40625 27.296875 
Q 45.40625 37.203125 41.296875 42.84375 
Q 37.203125 48.484375 30.078125 48.484375 
Q 22.953125 48.484375 18.875 42.84375 
Q 14.796875 37.203125 14.796875 27.296875 
z
" id="DejaVuSans-100"/>
    </defs>
    <g transform="translate(211.485 19.92)scale(0.12 -0.12)">
     <use xlink:href="#DejaVuSans-86"/>
     <use x="68.408203" xlink:href="#DejaVuSans-49"/>
     <use x="132.03125" xlink:href="#DejaVuSans-44"/>
     <use x="163.818359" xlink:href="#DejaVuSans-32"/>
     <use x="195.605469" xlink:href="#DejaVuSans-78"/>
     <use x="270.410156" xlink:href="#DejaVuSans-117"/>
     <use x="333.789062" xlink:href="#DejaVuSans-109"/>
     <use x="431.201172" xlink:href="#DejaVuSans-32"/>
     <use x="462.988281" xlink:href="#DejaVuSans-84"/>
     <use x="523.853516" xlink:href="#DejaVuSans-114"/>
     <use x="564.966797" xlink:href="#DejaVuSans-105"/>
     <use x="592.75" xlink:href="#DejaVuSans-97"/>
     <use x="654.029297" xlink:href="#DejaVuSans-108"/>
     <use x="681.8125" xlink:href="#DejaVuSans-115"/>
     <use x="733.912109" xlink:href="#DejaVuSans-61"/>
     <use x="817.701172" xlink:href="#DejaVuSans-49"/>
     <use x="881.324219" xlink:href="#DejaVuSans-54"/>
     <use x="944.947266" xlink:href="#DejaVuSans-48"/>
     <use x="1008.570312" xlink:href="#DejaVuSans-32"/>
     <use x="1040.357422" xlink:href="#DejaVuSans-65"/>
     <use x="1108.765625" xlink:href="#DejaVuSans-108"/>
     <use x="1136.548828" xlink:href="#DejaVuSans-108"/>
     <use x="1164.332031" xlink:href="#DejaVuSans-32"/>
     <use x="1196.119141" xlink:href="#DejaVuSans-115"/>
     <use x="1248.21875" xlink:href="#DejaVuSans-116"/>
     <use x="1287.427734" xlink:href="#DejaVuSans-105"/>
     <use x="1315.210938" xlink:href="#DejaVuSans-109"/>
     <use x="1412.623047" xlink:href="#DejaVuSans-117"/>
     <use x="1476.001953" xlink:href="#DejaVuSans-108"/>
     <use x="1503.785156" xlink:href="#DejaVuSans-97"/>
     <use x="1565.064453" xlink:href="#DejaVuSans-116"/>
     <use x="1604.273438" xlink:href="#DejaVuSans-101"/>
     <use x="1665.796875" xlink:href="#DejaVuSans-100"/>
     <use x="1729.273438" xlink:href="#DejaVuSans-32"/>
     <use x="1761.060547" xlink:href="#DejaVuSans-116"/>
     <use x="1800.269531" xlink:href="#DejaVuSans-114"/>
     <use x="1841.382812" xlink:href="#DejaVuSans-105"/>
     <use x="1869.166016" xlink:href="#DejaVuSans-97"/>
     <use x="1930.445312" xlink:href="#DejaVuSans-108"/>
     <use x="1958.228516" xlink:href="#DejaVuSans-115"/>
    </g>
   </g>
   <g id="legend_1">
    <g id="patch_7">
     <path d="M 441.12 186.24 
L 574.8 186.24 
Q 577.2 186.24 577.2 183.84 
L 577.2 149.8125 
Q 577.2 147.4125 574.8 147.4125 
L 441.12 147.4125 
Q 438.72 147.4125 438.72 149.8125 
L 438.72 183.84 
Q 438.72 186.24 441.12 186.24 
z
" style="fill:#ffffff;opacity:0.8;stroke:#cccccc;stroke-linejoin:miter;"/>
    </g>
    <g id="line2d_11">
     <path d="M 443.52 157.130625 
L 467.52 157.130625 
" style="fill:none;stroke:#0000ff;stroke-linecap:square;stroke-width:1.5;"/>
    </g>
    <g id="line2d_12"/>
    <g id="text_13">
     <!-- COM-Binomial $\nu$ -->
     <defs>
      <path d="M 4.890625 31.390625 
L 31.203125 31.390625 
L 31.203125 23.390625 
L 4.890625 23.390625 
z
" id="DejaVuSans-45"/>
      <path d="M 19.671875 34.8125 
L 19.671875 8.109375 
L 35.5 8.109375 
Q 43.453125 8.109375 47.28125 11.40625 
Q 51.125 14.703125 51.125 21.484375 
Q 51.125 28.328125 47.28125 31.5625 
Q 43.453125 34.8125 35.5 34.8125 
z
M 19.671875 64.796875 
L 19.671875 42.828125 
L 34.28125 42.828125 
Q 41.5 42.828125 45.03125 45.53125 
Q 48.578125 48.25 48.578125 53.8125 
Q 48.578125 59.328125 45.03125 62.0625 
Q 41.5 64.796875 34.28125 64.796875 
z
M 9.8125 72.90625 
L 35.015625 72.90625 
Q 46.296875 72.90625 52.390625 68.21875 
Q 58.5 63.53125 58.5 54.890625 
Q 58.5 48.1875 55.375 44.234375 
Q 52.25 40.28125 46.1875 39.3125 
Q 53.46875 37.75 57.5 32.78125 
Q 61.53125 27.828125 61.53125 20.40625 
Q 61.53125 10.640625 54.890625 5.3125 
Q 48.25 0 35.984375 0 
L 9.8125 0 
z
" id="DejaVuSans-66"/>
      <path d="M 54.890625 33.015625 
L 54.890625 0 
L 45.90625 0 
L 45.90625 32.71875 
Q 45.90625 40.484375 42.875 44.328125 
Q 39.84375 48.1875 33.796875 48.1875 
Q 26.515625 48.1875 22.3125 43.546875 
Q 18.109375 38.921875 18.109375 30.90625 
L 18.109375 0 
L 9.078125 0 
L 9.078125 54.6875 
L 18.109375 54.6875 
L 18.109375 46.1875 
Q 21.34375 51.125 25.703125 53.5625 
Q 30.078125 56 35.796875 56 
Q 45.21875 56 50.046875 50.171875 
Q 54.890625 44.34375 54.890625 33.015625 
z
" id="DejaVuSans-110"/>
      <path d="M 30.609375 48.390625 
Q 23.390625 48.390625 19.1875 42.75 
Q 14.984375 37.109375 14.984375 27.296875 
Q 14.984375 17.484375 19.15625 11.84375 
Q 23.34375 6.203125 30.609375 6.203125 
Q 37.796875 6.203125 41.984375 11.859375 
Q 46.1875 17.53125 46.1875 27.296875 
Q 46.1875 37.015625 41.984375 42.703125 
Q 37.796875 48.390625 30.609375 48.390625 
z
M 30.609375 56 
Q 42.328125 56 49.015625 48.375 
Q 55.71875 40.765625 55.71875 27.296875 
Q 55.71875 13.875 49.015625 6.21875 
Q 42.328125 -1.421875 30.609375 -1.421875 
Q 18.84375 -1.421875 12.171875 6.21875 
Q 5.515625 13.875 5.515625 27.296875 
Q 5.515625 40.765625 12.171875 48.375 
Q 18.84375 56 30.609375 56 
z
" id="DejaVuSans-111"/>
     </defs>
     <g transform="translate(477.12 161.330625)scale(0.12 -0.12)">
      <use transform="translate(0 0.015625)" xlink:href="#DejaVuSans-67"/>
      <use transform="translate(69.824219 0.015625)" xlink:href="#DejaVuSans-79"/>
      <use transform="translate(148.535156 0.015625)" xlink:href="#DejaVuSans-77"/>
      <use transform="translate(234.814453 0.015625)" xlink:href="#DejaVuSans-45"/>
      <use transform="translate(270.898438 0.015625)" xlink:href="#DejaVuSans-66"/>
      <use transform="translate(339.501953 0.015625)" xlink:href="#DejaVuSans-105"/>
      <use transform="translate(367.285156 0.015625)" xlink:href="#DejaVuSans-110"/>
      <use transform="translate(430.664062 0.015625)" xlink:href="#DejaVuSans-111"/>
      <use transform="translate(491.845703 0.015625)" xlink:href="#DejaVuSans-109"/>
      <use transform="translate(589.257812 0.015625)" xlink:href="#DejaVuSans-105"/>
      <use transform="translate(617.041016 0.015625)" xlink:href="#DejaVuSans-97"/>
      <use transform="translate(678.320312 0.015625)" xlink:href="#DejaVuSans-108"/>
      <use transform="translate(706.103516 0.015625)" xlink:href="#DejaVuSans-32"/>
      <use transform="translate(737.890625 0.015625)" xlink:href="#DejaVuSans-Oblique-957"/>
     </g>
    </g>
    <g id="patch_8">
     <path d="M 443.52 178.944375 
L 467.52 178.944375 
L 467.52 170.544375 
L 443.52 170.544375 
z
" style="fill:#0000ff;opacity:0.3;stroke:#0000ff;stroke-linejoin:miter;"/>
    </g>
    <g id="text_14">
     <!-- Std. Err. -->
     <defs>
      <path d="M 53.515625 70.515625 
L 53.515625 60.890625 
Q 47.90625 63.578125 42.921875 64.890625 
Q 37.9375 66.21875 33.296875 66.21875 
Q 25.25 66.21875 20.875 63.09375 
Q 16.5 59.96875 16.5 54.203125 
Q 16.5 49.359375 19.40625 46.890625 
Q 22.3125 44.4375 30.421875 42.921875 
L 36.375 41.703125 
Q 47.40625 39.59375 52.65625 34.296875 
Q 57.90625 29 57.90625 20.125 
Q 57.90625 9.515625 50.796875 4.046875 
Q 43.703125 -1.421875 29.984375 -1.421875 
Q 24.8125 -1.421875 18.96875 -0.25 
Q 13.140625 0.921875 6.890625 3.21875 
L 6.890625 13.375 
Q 12.890625 10.015625 18.65625 8.296875 
Q 24.421875 6.59375 29.984375 6.59375 
Q 38.421875 6.59375 43.015625 9.90625 
Q 47.609375 13.234375 47.609375 19.390625 
Q 47.609375 24.75 44.3125 27.78125 
Q 41.015625 30.8125 33.5 32.328125 
L 27.484375 33.5 
Q 16.453125 35.6875 11.515625 40.375 
Q 6.59375 45.0625 6.59375 53.421875 
Q 6.59375 63.09375 13.40625 68.65625 
Q 20.21875 74.21875 32.171875 74.21875 
Q 37.3125 74.21875 42.625 73.28125 
Q 47.953125 72.359375 53.515625 70.515625 
z
" id="DejaVuSans-83"/>
      <path d="M 9.8125 72.90625 
L 55.90625 72.90625 
L 55.90625 64.59375 
L 19.671875 64.59375 
L 19.671875 43.015625 
L 54.390625 43.015625 
L 54.390625 34.71875 
L 19.671875 34.71875 
L 19.671875 8.296875 
L 56.78125 8.296875 
L 56.78125 0 
L 9.8125 0 
z
" id="DejaVuSans-69"/>
     </defs>
     <g transform="translate(477.12 178.944375)scale(0.12 -0.12)">
      <use xlink:href="#DejaVuSans-83"/>
      <use x="63.476562" xlink:href="#DejaVuSans-116"/>
      <use x="102.685547" xlink:href="#DejaVuSans-100"/>
      <use x="166.162109" xlink:href="#DejaVuSans-46"/>
      <use x="197.949219" xlink:href="#DejaVuSans-32"/>
      <use x="229.736328" xlink:href="#DejaVuSans-69"/>
      <use x="292.919922" xlink:href="#DejaVuSans-114"/>
      <use x="334.017578" xlink:href="#DejaVuSans-114"/>
      <use x="374.990234" xlink:href="#DejaVuSans-46"/>
     </g>
    </g>
   </g>
  </g>
 </g>
 <defs>
  <clipPath id="p61746338c4">
   <rect height="166.32" width="502.2" x="81" y="25.92"/>
  </clipPath>
 </defs>
</svg>
