<?xml version="1.0" encoding="utf-8" standalone="no"?>
<!DOCTYPE svg PUBLIC "-//W3C//DTD SVG 1.1//EN"
  "http://www.w3.org/Graphics/SVG/1.1/DTD/svg11.dtd">
<!-- Created with matplotlib (https://matplotlib.org/) -->
<svg height="216pt" version="1.1" viewBox="0 0 648 216" width="648pt" xmlns="http://www.w3.org/2000/svg" xmlns:xlink="http://www.w3.org/1999/xlink">
 <defs>
  <style type="text/css">
*{stroke-linecap:butt;stroke-linejoin:round;}
  </style>
 </defs>
 <g id="figure_1">
  <g id="patch_1">
   <path d="M 0 216 
L 648 216 
L 648 0 
L 0 0 
z
" style="fill:#ffffff;"/>
  </g>
  <g id="axes_1">
   <g id="patch_2">
    <path d="M 81 192.24 
L 583.2 192.24 
L 583.2 25.92 
L 81 25.92 
z
" style="fill:#ffffff;"/>
   </g>
   <g id="PolyCollection_1">
    <defs>
     <path d="M 81 -75.037021 
L 81 -75.037021 
L 83.049796 -99.204337 
L 85.099592 -107.212554 
L 87.149388 -106.564827 
L 89.199184 -104.639896 
L 91.24898 -64.030195 
L 93.298776 -94.565515 
L 95.348571 -71.534315 
L 97.398367 -76.536274 
L 99.448163 -74.382074 
L 101.497959 -85.565483 
L 103.547755 -83.871449 
L 105.597551 -119.728967 
L 107.647347 -114.05432 
L 109.697143 -75.037021 
L 111.746939 -75.037021 
L 113.796735 -75.037021 
L 115.846531 -83.282494 
L 117.896327 -74.214079 
L 119.946122 -71.084954 
L 121.995918 -68.136364 
L 124.045714 -79.493067 
L 126.09551 -75.037021 
L 128.145306 -83.600028 
L 130.195102 -90.495665 
L 132.244898 -96.329419 
L 134.294694 -98.703104 
L 136.34449 -109.826678 
L 138.394286 -117.986453 
L 140.444082 -87.338868 
L 142.493878 -78.846391 
L 144.543673 -76.498898 
L 146.593469 -57.485528 
L 148.643265 -49.416075 
L 150.693061 -61.317516 
L 152.742857 -80.234525 
L 154.792653 -79.992845 
L 156.842449 -78.353143 
L 158.892245 -114.105947 
L 160.942041 -121.806167 
L 162.991837 -71.639119 
L 165.041633 -105.567291 
L 167.091429 -119.831271 
L 169.141224 -70.54458 
L 171.19102 -87.948974 
L 173.240816 -103.199341 
L 175.290612 -78.715669 
L 177.340408 -114.105091 
L 179.390204 -121.456307 
L 181.44 -99.648019 
L 183.489796 -72.072618 
L 185.539592 -89.703772 
L 187.589388 -85.842087 
L 189.639184 -100.569109 
L 191.68898 -81.985351 
L 193.738776 -79.737536 
L 195.788571 -71.809165 
L 197.838367 -75.037021 
L 199.888163 -77.158337 
L 201.937959 -68.345437 
L 203.987755 -82.18705 
L 206.037551 -91.139599 
L 208.087347 -107.277328 
L 210.137143 -89.260103 
L 212.186939 -91.800344 
L 214.236735 -83.991467 
L 216.286531 -95.466761 
L 218.336327 -79.607681 
L 220.386122 -72.078899 
L 222.435918 -80.571871 
L 224.485714 -77.720336 
L 226.53551 -86.998756 
L 228.585306 -108.547752 
L 230.635102 -105.880884 
L 232.684898 -103.103656 
L 234.734694 -96.530423 
L 236.78449 -96.813182 
L 238.834286 -75.037021 
L 240.884082 -75.194743 
L 242.933878 -73.938236 
L 244.983673 -74.896224 
L 247.033469 -83.357967 
L 249.083265 -104.722296 
L 251.133061 -117.448953 
L 253.182857 -102.175109 
L 255.232653 -75.938265 
L 257.282449 -103.877768 
L 259.332245 -108.412247 
L 261.382041 -117.217765 
L 263.431837 -91.101089 
L 265.481633 -89.741756 
L 267.531429 -86.014983 
L 269.581224 -92.139532 
L 271.63102 -78.150857 
L 273.680816 -84.572581 
L 275.730612 -73.33636 
L 277.780408 -67.797909 
L 279.830204 -96.323799 
L 281.88 -75.070186 
L 283.929796 -67.788934 
L 285.979592 -71.964518 
L 288.029388 -73.530694 
L 290.079184 -80.562924 
L 292.12898 -82.774236 
L 294.178776 -82.955338 
L 296.228571 -75.450894 
L 298.278367 -72.24185 
L 300.328163 -75.037021 
L 302.377959 -76.569172 
L 304.427755 -46.262488 
L 306.477551 -23.76 
L 308.527347 -75.037021 
L 310.577143 -100.444887 
L 312.626939 -100.004042 
L 314.676735 -53.298857 
L 316.726531 -85.284242 
L 318.776327 -76.249704 
L 320.826122 -79.019691 
L 322.875918 -74.432092 
L 324.925714 -69.734964 
L 326.97551 -106.855744 
L 329.025306 -113.324626 
L 331.075102 -104.191986 
L 333.124898 -110.33158 
L 335.174694 -108.31011 
L 337.22449 -75.398162 
L 339.274286 -90.388977 
L 341.324082 -96.572682 
L 343.373878 -105.704728 
L 345.423673 -116.467539 
L 347.473469 -114.169824 
L 349.523265 -72.071565 
L 351.573061 -72.088715 
L 353.622857 -67.822227 
L 355.672653 -91.468277 
L 357.722449 -102.008961 
L 359.772245 -96.415839 
L 361.822041 -75.037021 
L 363.871837 -85.750231 
L 365.921633 -107.019287 
L 367.971429 -103.37644 
L 370.021224 -88.566223 
L 372.07102 -87.796129 
L 374.120816 -91.835879 
L 376.170612 -93.427249 
L 378.220408 -88.022601 
L 380.270204 -75.214786 
L 382.32 -70.624584 
L 384.369796 -56.761053 
L 386.419592 -75.018844 
L 388.469388 -73.589831 
L 390.519184 -85.612303 
L 392.56898 -75.037021 
L 394.618776 -71.4518 
L 396.668571 -88.727089 
L 398.718367 -78.417859 
L 400.768163 -82.219321 
L 402.817959 -91.312226 
L 404.867755 -81.961447 
L 406.917551 -68.125267 
L 408.967347 -78.874485 
L 411.017143 -85.327892 
L 413.066939 -76.555213 
L 415.116735 -75.037021 
L 417.166531 -84.517785 
L 419.216327 -90.814974 
L 421.266122 -51.992289 
L 423.315918 -86.195591 
L 425.365714 -75.037021 
L 427.41551 -66.078906 
L 429.465306 -108.015319 
L 431.515102 -122.994918 
L 433.564898 -122.204364 
L 435.614694 -120.668807 
L 437.66449 -110.697763 
L 439.714286 -123.284969 
L 441.764082 -124.229329 
L 443.813878 -119.808163 
L 445.863673 -125.018628 
L 447.913469 -124.346475 
L 449.963265 -121.194478 
L 452.013061 -112.226531 
L 454.062857 -89.917898 
L 456.112653 -110.755332 
L 458.162449 -120.042789 
L 460.212245 -123.119087 
L 462.262041 -123.613091 
L 464.311837 -119.439916 
L 466.361633 -117.473229 
L 468.411429 -123.533658 
L 470.461224 -120.863618 
L 472.51102 -112.974087 
L 474.560816 -115.450004 
L 476.610612 -117.401083 
L 478.660408 -93.886413 
L 480.710204 -111.364642 
L 482.76 -123.337322 
L 484.809796 -119.784767 
L 486.859592 -103.647124 
L 488.909388 -107.921688 
L 490.959184 -101.513642 
L 493.00898 -101.090015 
L 495.058776 -84.029854 
L 497.108571 -74.915403 
L 499.158367 -90.459792 
L 501.208163 -88.836346 
L 503.257959 -101.722709 
L 505.307755 -106.9505 
L 507.357551 -118.502323 
L 509.407347 -100.855305 
L 511.457143 -87.137497 
L 513.506939 -97.910703 
L 515.556735 -111.528205 
L 517.606531 -93.481526 
L 519.656327 -98.78205 
L 521.706122 -100.602703 
L 523.755918 -92.246007 
L 525.805714 -75.037021 
L 527.85551 -76.664566 
L 529.905306 -88.898124 
L 531.955102 -111.224147 
L 534.004898 -109.674928 
L 536.054694 -106.837242 
L 538.10449 -91.398864 
L 540.154286 -83.071079 
L 542.204082 -84.876301 
L 544.253878 -120.322242 
L 546.303673 -100.406924 
L 548.353469 -93.658173 
L 550.403265 -70.839552 
L 552.453061 -84.926928 
L 554.502857 -92.39608 
L 556.552653 -84.71113 
L 558.602449 -95.192205 
L 560.652245 -97.4744 
L 562.702041 -83.436764 
L 564.751837 -83.067484 
L 566.801633 -74.343619 
L 568.851429 -81.358693 
L 570.901224 -90.198143 
L 572.95102 -120.194355 
L 575.000816 -125.58437 
L 577.050612 -96.72285 
L 579.100408 -75.934946 
L 581.150204 -72.344559 
L 583.2 -74.610116 
L 583.2 -75.026851 
L 583.2 -75.026851 
L 581.150204 -97.391215 
L 579.100408 -88.617825 
L 577.050612 -109.910514 
L 575.000816 -150.524783 
L 572.95102 -147.610099 
L 570.901224 -103.916658 
L 568.851429 -92.07677 
L 566.801633 -83.183188 
L 564.751837 -96.779208 
L 562.702041 -96.238728 
L 560.652245 -114.267089 
L 558.602449 -108.718796 
L 556.552653 -103.061559 
L 554.502857 -102.195361 
L 552.453061 -101.336165 
L 550.403265 -79.372441 
L 548.353469 -104.15423 
L 546.303673 -113.706408 
L 544.253878 -131.83725 
L 542.204082 -98.556554 
L 540.154286 -127.118483 
L 538.10449 -109.498397 
L 536.054694 -121.371198 
L 534.004898 -116.562581 
L 531.955102 -117.889886 
L 529.905306 -99.854312 
L 527.85551 -90.066531 
L 525.805714 -75.037021 
L 523.755918 -104.881085 
L 521.706122 -111.918285 
L 519.656327 -123.270573 
L 517.606531 -108.892972 
L 515.556735 -123.289033 
L 513.506939 -109.244244 
L 511.457143 -96.62684 
L 509.407347 -116.585244 
L 507.357551 -123.680916 
L 505.307755 -114.9728 
L 503.257959 -114.477757 
L 501.208163 -104.841697 
L 499.158367 -105.193729 
L 497.108571 -122.578022 
L 495.058776 -96.130634 
L 493.00898 -121.4495 
L 490.959184 -114.016119 
L 488.909388 -120.816593 
L 486.859592 -113.253377 
L 484.809796 -125.250029 
L 482.76 -129.085223 
L 480.710204 -118.799497 
L 478.660408 -105.604183 
L 476.610612 -122.883012 
L 474.560816 -121.976319 
L 472.51102 -120.43497 
L 470.461224 -125.525465 
L 468.411429 -126.867109 
L 466.361633 -121.749046 
L 464.311837 -124.061824 
L 462.262041 -130.209915 
L 460.212245 -125.993361 
L 458.162449 -123.692909 
L 456.112653 -124.684292 
L 454.062857 -190.08 
L 452.013061 -121.876156 
L 449.963265 -126.374302 
L 447.913469 -126.45148 
L 445.863673 -127.515176 
L 443.813878 -125.649726 
L 441.764082 -126.672183 
L 439.714286 -126.608969 
L 437.66449 -117.850857 
L 435.614694 -124.172732 
L 433.564898 -127.068103 
L 431.515102 -128.220796 
L 429.465306 -120.305578 
L 427.41551 -186.003617 
L 425.365714 -75.037021 
L 423.315918 -144.356369 
L 421.266122 -67.861829 
L 419.216327 -103.556304 
L 417.166531 -99.412832 
L 415.116735 -75.037021 
L 413.066939 -84.863902 
L 411.017143 -97.41469 
L 408.967347 -90.652418 
L 406.917551 -73.92142 
L 404.867755 -92.797349 
L 402.817959 -103.143873 
L 400.768163 -97.689703 
L 398.718367 -91.59964 
L 396.668571 -99.841886 
L 394.618776 -75.298559 
L 392.56898 -75.037021 
L 390.519184 -130.360193 
L 388.469388 -75.389248 
L 386.419592 -80.400752 
L 384.369796 -71.620472 
L 382.32 -73.9849 
L 380.270204 -107.81036 
L 378.220408 -129.460363 
L 376.170612 -108.292482 
L 374.120816 -101.780074 
L 372.07102 -100.057097 
L 370.021224 -100.234245 
L 367.971429 -115.559322 
L 365.921633 -121.54896 
L 363.871837 -99.061966 
L 361.822041 -75.037021 
L 359.772245 -109.152593 
L 357.722449 -111.136373 
L 355.672653 -106.63018 
L 353.622857 -88.84842 
L 351.573061 -80.80868 
L 349.523265 -86.350327 
L 347.473469 -125.410211 
L 345.423673 -123.802179 
L 343.373878 -117.181297 
L 341.324082 -107.959857 
L 339.274286 -106.222803 
L 337.22449 -95.186144 
L 335.174694 -115.486476 
L 333.124898 -117.752023 
L 331.075102 -115.170572 
L 329.025306 -121.85269 
L 326.97551 -117.925479 
L 324.925714 -77.362072 
L 322.875918 -84.673895 
L 320.826122 -87.560904 
L 318.776327 -84.108654 
L 316.726531 -101.284998 
L 314.676735 -74.199697 
L 312.626939 -109.735828 
L 310.577143 -110.099448 
L 308.527347 -75.037021 
L 306.477551 -48.069076 
L 304.427755 -66.658018 
L 302.377959 -83.070271 
L 300.328163 -75.037021 
L 298.278367 -74.963413 
L 296.228571 -79.590282 
L 294.178776 -94.09543 
L 292.12898 -93.782578 
L 290.079184 -94.28375 
L 288.029388 -74.822899 
L 285.979592 -91.211089 
L 283.929796 -74.912017 
L 281.88 -77.888819 
L 279.830204 -138.560497 
L 277.780408 -77.989795 
L 275.730612 -77.591905 
L 273.680816 -94.847615 
L 271.63102 -86.146024 
L 269.581224 -103.813325 
L 267.531429 -106.317662 
L 265.481633 -110.230162 
L 263.431837 -102.136553 
L 261.382041 -123.119104 
L 259.332245 -115.875034 
L 257.282449 -112.007031 
L 255.232653 -94.823345 
L 253.182857 -116.20084 
L 251.133061 -125.789826 
L 249.083265 -167.638331 
L 247.033469 -124.652415 
L 244.983673 -75.036193 
L 242.933878 -74.838271 
L 240.884082 -87.337281 
L 238.834286 -75.037021 
L 236.78449 -108.444962 
L 234.734694 -110.891354 
L 232.684898 -126.786906 
L 230.635102 -114.862483 
L 228.585306 -115.430957 
L 226.53551 -105.770373 
L 224.485714 -94.676836 
L 222.435918 -97.813495 
L 220.386122 -79.231463 
L 218.336327 -93.761512 
L 216.286531 -112.382411 
L 214.236735 -92.811175 
L 212.186939 -101.011206 
L 210.137143 -99.524507 
L 208.087347 -114.227944 
L 206.037551 -98.922211 
L 203.987755 -95.868079 
L 201.937959 -81.441634 
L 199.888163 -95.008321 
L 197.838367 -75.037021 
L 195.788571 -87.464103 
L 193.738776 -93.424615 
L 191.68898 -96.306684 
L 189.639184 -130.009762 
L 187.589388 -110.829861 
L 185.539592 -105.30346 
L 183.489796 -79.869556 
L 181.44 -111.11196 
L 179.390204 -126.96157 
L 177.340408 -127.412585 
L 175.290612 -100.075106 
L 173.240816 -110.985777 
L 171.19102 -98.348767 
L 169.141224 -73.942384 
L 167.091429 -129.223976 
L 165.041633 -118.050206 
L 162.991837 -85.364179 
L 160.942041 -127.466475 
L 158.892245 -121.767991 
L 156.842449 -95.948907 
L 154.792653 -101.593635 
L 152.742857 -104.935914 
L 150.693061 -72.127187 
L 148.643265 -72.44878 
L 146.593469 -65.761293 
L 144.543673 -89.892756 
L 142.493878 -95.994498 
L 140.444082 -100.065011 
L 138.394286 -128.244993 
L 136.34449 -122.71044 
L 134.294694 -110.31975 
L 132.244898 -105.886795 
L 130.195102 -99.96376 
L 128.145306 -94.738574 
L 126.09551 -75.037021 
L 124.045714 -100.866155 
L 121.995918 -105.250045 
L 119.946122 -83.859018 
L 117.896327 -86.713384 
L 115.846531 -97.360353 
L 113.796735 -75.037021 
L 111.746939 -75.037021 
L 109.697143 -75.037021 
L 107.647347 -127.265041 
L 105.597551 -134.599909 
L 103.547755 -106.355812 
L 101.497959 -101.653273 
L 99.448163 -83.598789 
L 97.398367 -101.940014 
L 95.348571 -104.528447 
L 93.298776 -94.565515 
L 91.24898 -72.758014 
L 89.199184 -118.117115 
L 87.149388 -120.858039 
L 85.099592 -117.822936 
L 83.049796 -110.921639 
L 81 -75.037021 
z
" id="m4b6fabd5c6" style="stroke:#0000ff;stroke-opacity:0.3;"/>
    </defs>
    <g clip-path="url(#p2315bfdaf1)">
     <use style="fill:#0000ff;fill-opacity:0.3;stroke:#0000ff;stroke-opacity:0.3;" x="0" xlink:href="#m4b6fabd5c6" y="216"/>
    </g>
   </g>
   <g id="PolyCollection_2">
    <defs>
     <path d="M 128.042816 -23.76 
L 128.042816 -190.08 
L 435.512204 -190.08 
L 435.512204 -23.76 
L 435.512204 -23.76 
L 128.042816 -23.76 
z
" id="m1b65f385ae" style="stroke:#808080;stroke-opacity:0.3;"/>
    </defs>
    <g clip-path="url(#p2315bfdaf1)">
     <use style="fill:#808080;fill-opacity:0.3;stroke:#808080;stroke-opacity:0.3;" x="0" xlink:href="#m1b65f385ae" y="216"/>
    </g>
   </g>
   <g id="matplotlib.axis_1">
    <g id="xtick_1">
     <g id="line2d_1">
      <defs>
       <path d="M 0 0 
L 0 3.5 
" id="m637c1da455" style="stroke:#000000;stroke-width:0.8;"/>
      </defs>
      <g>
       <use style="stroke:#000000;stroke-width:0.8;" x="81" xlink:href="#m637c1da455" y="192.24"/>
      </g>
     </g>
     <g id="text_1">
      <!-- 0.0 -->
      <defs>
       <path d="M 31.78125 66.40625 
Q 24.171875 66.40625 20.328125 58.90625 
Q 16.5 51.421875 16.5 36.375 
Q 16.5 21.390625 20.328125 13.890625 
Q 24.171875 6.390625 31.78125 6.390625 
Q 39.453125 6.390625 43.28125 13.890625 
Q 47.125 21.390625 47.125 36.375 
Q 47.125 51.421875 43.28125 58.90625 
Q 39.453125 66.40625 31.78125 66.40625 
z
M 31.78125 74.21875 
Q 44.046875 74.21875 50.515625 64.515625 
Q 56.984375 54.828125 56.984375 36.375 
Q 56.984375 17.96875 50.515625 8.265625 
Q 44.046875 -1.421875 31.78125 -1.421875 
Q 19.53125 -1.421875 13.0625 8.265625 
Q 6.59375 17.96875 6.59375 36.375 
Q 6.59375 54.828125 13.0625 64.515625 
Q 19.53125 74.21875 31.78125 74.21875 
z
" id="DejaVuSans-48"/>
       <path d="M 10.6875 12.40625 
L 21 12.40625 
L 21 0 
L 10.6875 0 
z
" id="DejaVuSans-46"/>
      </defs>
      <g transform="translate(71.458125 208.358125)scale(0.12 -0.12)">
       <use xlink:href="#DejaVuSans-48"/>
       <use x="63.623047" xlink:href="#DejaVuSans-46"/>
       <use x="95.410156" xlink:href="#DejaVuSans-48"/>
      </g>
     </g>
    </g>
    <g id="xtick_2">
     <g id="line2d_2">
      <g>
       <use style="stroke:#000000;stroke-width:0.8;" x="183.489796" xlink:href="#m637c1da455" y="192.24"/>
      </g>
     </g>
     <g id="text_2">
      <!-- 0.5 -->
      <defs>
       <path d="M 10.796875 72.90625 
L 49.515625 72.90625 
L 49.515625 64.59375 
L 19.828125 64.59375 
L 19.828125 46.734375 
Q 21.96875 47.46875 24.109375 47.828125 
Q 26.265625 48.1875 28.421875 48.1875 
Q 40.625 48.1875 47.75 41.5 
Q 54.890625 34.8125 54.890625 23.390625 
Q 54.890625 11.625 47.5625 5.09375 
Q 40.234375 -1.421875 26.90625 -1.421875 
Q 22.3125 -1.421875 17.546875 -0.640625 
Q 12.796875 0.140625 7.71875 1.703125 
L 7.71875 11.625 
Q 12.109375 9.234375 16.796875 8.0625 
Q 21.484375 6.890625 26.703125 6.890625 
Q 35.15625 6.890625 40.078125 11.328125 
Q 45.015625 15.765625 45.015625 23.390625 
Q 45.015625 31 40.078125 35.4375 
Q 35.15625 39.890625 26.703125 39.890625 
Q 22.75 39.890625 18.8125 39.015625 
Q 14.890625 38.140625 10.796875 36.28125 
z
" id="DejaVuSans-53"/>
      </defs>
      <g transform="translate(173.947921 208.358125)scale(0.12 -0.12)">
       <use xlink:href="#DejaVuSans-48"/>
       <use x="63.623047" xlink:href="#DejaVuSans-46"/>
       <use x="95.410156" xlink:href="#DejaVuSans-53"/>
      </g>
     </g>
    </g>
    <g id="xtick_3">
     <g id="line2d_3">
      <g>
       <use style="stroke:#000000;stroke-width:0.8;" x="285.979592" xlink:href="#m637c1da455" y="192.24"/>
      </g>
     </g>
     <g id="text_3">
      <!-- 1.0 -->
      <defs>
       <path d="M 12.40625 8.296875 
L 28.515625 8.296875 
L 28.515625 63.921875 
L 10.984375 60.40625 
L 10.984375 69.390625 
L 28.421875 72.90625 
L 38.28125 72.90625 
L 38.28125 8.296875 
L 54.390625 8.296875 
L 54.390625 0 
L 12.40625 0 
z
" id="DejaVuSans-49"/>
      </defs>
      <g transform="translate(276.437717 208.358125)scale(0.12 -0.12)">
       <use xlink:href="#DejaVuSans-49"/>
       <use x="63.623047" xlink:href="#DejaVuSans-46"/>
       <use x="95.410156" xlink:href="#DejaVuSans-48"/>
      </g>
     </g>
    </g>
    <g id="xtick_4">
     <g id="line2d_4">
      <g>
       <use style="stroke:#000000;stroke-width:0.8;" x="388.469388" xlink:href="#m637c1da455" y="192.24"/>
      </g>
     </g>
     <g id="text_4">
      <!-- 1.5 -->
      <g transform="translate(378.927513 208.358125)scale(0.12 -0.12)">
       <use xlink:href="#DejaVuSans-49"/>
       <use x="63.623047" xlink:href="#DejaVuSans-46"/>
       <use x="95.410156" xlink:href="#DejaVuSans-53"/>
      </g>
     </g>
    </g>
    <g id="xtick_5">
     <g id="line2d_5">
      <g>
       <use style="stroke:#000000;stroke-width:0.8;" x="490.959184" xlink:href="#m637c1da455" y="192.24"/>
      </g>
     </g>
     <g id="text_5">
      <!-- 2.0 -->
      <defs>
       <path d="M 19.1875 8.296875 
L 53.609375 8.296875 
L 53.609375 0 
L 7.328125 0 
L 7.328125 8.296875 
Q 12.9375 14.109375 22.625 23.890625 
Q 32.328125 33.6875 34.8125 36.53125 
Q 39.546875 41.84375 41.421875 45.53125 
Q 43.3125 49.21875 43.3125 52.78125 
Q 43.3125 58.59375 39.234375 62.25 
Q 35.15625 65.921875 28.609375 65.921875 
Q 23.96875 65.921875 18.8125 64.3125 
Q 13.671875 62.703125 7.8125 59.421875 
L 7.8125 69.390625 
Q 13.765625 71.78125 18.9375 73 
Q 24.125 74.21875 28.421875 74.21875 
Q 39.75 74.21875 46.484375 68.546875 
Q 53.21875 62.890625 53.21875 53.421875 
Q 53.21875 48.921875 51.53125 44.890625 
Q 49.859375 40.875 45.40625 35.40625 
Q 44.1875 33.984375 37.640625 27.21875 
Q 31.109375 20.453125 19.1875 8.296875 
z
" id="DejaVuSans-50"/>
      </defs>
      <g transform="translate(481.417309 208.358125)scale(0.12 -0.12)">
       <use xlink:href="#DejaVuSans-50"/>
       <use x="63.623047" xlink:href="#DejaVuSans-46"/>
       <use x="95.410156" xlink:href="#DejaVuSans-48"/>
      </g>
     </g>
    </g>
    <g id="text_6">
     <!-- Time (s) -->
     <defs>
      <path d="M -0.296875 72.90625 
L 61.375 72.90625 
L 61.375 64.59375 
L 35.5 64.59375 
L 35.5 0 
L 25.59375 0 
L 25.59375 64.59375 
L -0.296875 64.59375 
z
" id="DejaVuSans-84"/>
      <path d="M 9.421875 54.6875 
L 18.40625 54.6875 
L 18.40625 0 
L 9.421875 0 
z
M 9.421875 75.984375 
L 18.40625 75.984375 
L 18.40625 64.59375 
L 9.421875 64.59375 
z
" id="DejaVuSans-105"/>
      <path d="M 52 44.1875 
Q 55.375 50.25 60.0625 53.125 
Q 64.75 56 71.09375 56 
Q 79.640625 56 84.28125 50.015625 
Q 88.921875 44.046875 88.921875 33.015625 
L 88.921875 0 
L 79.890625 0 
L 79.890625 32.71875 
Q 79.890625 40.578125 77.09375 44.375 
Q 74.3125 48.1875 68.609375 48.1875 
Q 61.625 48.1875 57.5625 43.546875 
Q 53.515625 38.921875 53.515625 30.90625 
L 53.515625 0 
L 44.484375 0 
L 44.484375 32.71875 
Q 44.484375 40.625 41.703125 44.40625 
Q 38.921875 48.1875 33.109375 48.1875 
Q 26.21875 48.1875 22.15625 43.53125 
Q 18.109375 38.875 18.109375 30.90625 
L 18.109375 0 
L 9.078125 0 
L 9.078125 54.6875 
L 18.109375 54.6875 
L 18.109375 46.1875 
Q 21.1875 51.21875 25.484375 53.609375 
Q 29.78125 56 35.6875 56 
Q 41.65625 56 45.828125 52.96875 
Q 50 49.953125 52 44.1875 
z
" id="DejaVuSans-109"/>
      <path d="M 56.203125 29.59375 
L 56.203125 25.203125 
L 14.890625 25.203125 
Q 15.484375 15.921875 20.484375 11.0625 
Q 25.484375 6.203125 34.421875 6.203125 
Q 39.59375 6.203125 44.453125 7.46875 
Q 49.3125 8.734375 54.109375 11.28125 
L 54.109375 2.78125 
Q 49.265625 0.734375 44.1875 -0.34375 
Q 39.109375 -1.421875 33.890625 -1.421875 
Q 20.796875 -1.421875 13.15625 6.1875 
Q 5.515625 13.8125 5.515625 26.8125 
Q 5.515625 40.234375 12.765625 48.109375 
Q 20.015625 56 32.328125 56 
Q 43.359375 56 49.78125 48.890625 
Q 56.203125 41.796875 56.203125 29.59375 
z
M 47.21875 32.234375 
Q 47.125 39.59375 43.09375 43.984375 
Q 39.0625 48.390625 32.421875 48.390625 
Q 24.90625 48.390625 20.390625 44.140625 
Q 15.875 39.890625 15.1875 32.171875 
z
" id="DejaVuSans-101"/>
      <path id="DejaVuSans-32"/>
      <path d="M 31 75.875 
Q 24.46875 64.65625 21.28125 53.65625 
Q 18.109375 42.671875 18.109375 31.390625 
Q 18.109375 20.125 21.3125 9.0625 
Q 24.515625 -2 31 -13.1875 
L 23.1875 -13.1875 
Q 15.875 -1.703125 12.234375 9.375 
Q 8.59375 20.453125 8.59375 31.390625 
Q 8.59375 42.28125 12.203125 53.3125 
Q 15.828125 64.359375 23.1875 75.875 
z
" id="DejaVuSans-40"/>
      <path d="M 44.28125 53.078125 
L 44.28125 44.578125 
Q 40.484375 46.53125 36.375 47.5 
Q 32.28125 48.484375 27.875 48.484375 
Q 21.1875 48.484375 17.84375 46.4375 
Q 14.5 44.390625 14.5 40.28125 
Q 14.5 37.15625 16.890625 35.375 
Q 19.28125 33.59375 26.515625 31.984375 
L 29.59375 31.296875 
Q 39.15625 29.25 43.1875 25.515625 
Q 47.21875 21.78125 47.21875 15.09375 
Q 47.21875 7.46875 41.1875 3.015625 
Q 35.15625 -1.421875 24.609375 -1.421875 
Q 20.21875 -1.421875 15.453125 -0.5625 
Q 10.6875 0.296875 5.421875 2 
L 5.421875 11.28125 
Q 10.40625 8.6875 15.234375 7.390625 
Q 20.0625 6.109375 24.8125 6.109375 
Q 31.15625 6.109375 34.5625 8.28125 
Q 37.984375 10.453125 37.984375 14.40625 
Q 37.984375 18.0625 35.515625 20.015625 
Q 33.0625 21.96875 24.703125 23.78125 
L 21.578125 24.515625 
Q 13.234375 26.265625 9.515625 29.90625 
Q 5.8125 33.546875 5.8125 39.890625 
Q 5.8125 47.609375 11.28125 51.796875 
Q 16.75 56 26.8125 56 
Q 31.78125 56 36.171875 55.265625 
Q 40.578125 54.546875 44.28125 53.078125 
z
" id="DejaVuSans-115"/>
      <path d="M 8.015625 75.875 
L 15.828125 75.875 
Q 23.140625 64.359375 26.78125 53.3125 
Q 30.421875 42.28125 30.421875 31.390625 
Q 30.421875 20.453125 26.78125 9.375 
Q 23.140625 -1.703125 15.828125 -13.1875 
L 8.015625 -13.1875 
Q 14.5 -2 17.703125 9.0625 
Q 20.90625 20.125 20.90625 31.390625 
Q 20.90625 42.671875 17.703125 53.65625 
Q 14.5 64.65625 8.015625 75.875 
z
" id="DejaVuSans-41"/>
     </defs>
     <g transform="translate(302.60475 225.7955)scale(0.144 -0.144)">
      <use xlink:href="#DejaVuSans-84"/>
      <use x="61.037109" xlink:href="#DejaVuSans-105"/>
      <use x="88.820312" xlink:href="#DejaVuSans-109"/>
      <use x="186.232422" xlink:href="#DejaVuSans-101"/>
      <use x="247.755859" xlink:href="#DejaVuSans-32"/>
      <use x="279.542969" xlink:href="#DejaVuSans-40"/>
      <use x="318.556641" xlink:href="#DejaVuSans-115"/>
      <use x="370.65625" xlink:href="#DejaVuSans-41"/>
     </g>
    </g>
   </g>
   <g id="matplotlib.axis_2">
    <g id="ytick_1">
     <g id="line2d_6">
      <defs>
       <path d="M 0 0 
L -3.5 0 
" id="me93c23c9e4" style="stroke:#000000;stroke-width:0.8;"/>
      </defs>
      <g>
       <use style="stroke:#000000;stroke-width:0.8;" x="81" xlink:href="#me93c23c9e4" y="167.246206"/>
      </g>
     </g>
     <g id="text_7">
      <!-- −0.015 -->
      <defs>
       <path d="M 10.59375 35.5 
L 73.1875 35.5 
L 73.1875 27.203125 
L 10.59375 27.203125 
z
" id="DejaVuSans-8722"/>
      </defs>
      <g transform="translate(29.590625 171.805268)scale(0.12 -0.12)">
       <use xlink:href="#DejaVuSans-8722"/>
       <use x="83.789062" xlink:href="#DejaVuSans-48"/>
       <use x="147.412109" xlink:href="#DejaVuSans-46"/>
       <use x="179.199219" xlink:href="#DejaVuSans-48"/>
       <use x="242.822266" xlink:href="#DejaVuSans-49"/>
       <use x="306.445312" xlink:href="#DejaVuSans-53"/>
      </g>
     </g>
    </g>
    <g id="ytick_2">
     <g id="line2d_7">
      <g>
       <use style="stroke:#000000;stroke-width:0.8;" x="81" xlink:href="#me93c23c9e4" y="140.421057"/>
      </g>
     </g>
     <g id="text_8">
      <!-- −0.010 -->
      <g transform="translate(29.590625 144.980119)scale(0.12 -0.12)">
       <use xlink:href="#DejaVuSans-8722"/>
       <use x="83.789062" xlink:href="#DejaVuSans-48"/>
       <use x="147.412109" xlink:href="#DejaVuSans-46"/>
       <use x="179.199219" xlink:href="#DejaVuSans-48"/>
       <use x="242.822266" xlink:href="#DejaVuSans-49"/>
       <use x="306.445312" xlink:href="#DejaVuSans-48"/>
      </g>
     </g>
    </g>
    <g id="ytick_3">
     <g id="line2d_8">
      <g>
       <use style="stroke:#000000;stroke-width:0.8;" x="81" xlink:href="#me93c23c9e4" y="113.595907"/>
      </g>
     </g>
     <g id="text_9">
      <!-- −0.005 -->
      <g transform="translate(29.590625 118.15497)scale(0.12 -0.12)">
       <use xlink:href="#DejaVuSans-8722"/>
       <use x="83.789062" xlink:href="#DejaVuSans-48"/>
       <use x="147.412109" xlink:href="#DejaVuSans-46"/>
       <use x="179.199219" xlink:href="#DejaVuSans-48"/>
       <use x="242.822266" xlink:href="#DejaVuSans-48"/>
       <use x="306.445312" xlink:href="#DejaVuSans-53"/>
      </g>
     </g>
    </g>
    <g id="ytick_4">
     <g id="line2d_9">
      <g>
       <use style="stroke:#000000;stroke-width:0.8;" x="81" xlink:href="#me93c23c9e4" y="86.770758"/>
      </g>
     </g>
     <g id="text_10">
      <!-- 0.000 -->
      <g transform="translate(39.64625 91.329821)scale(0.12 -0.12)">
       <use xlink:href="#DejaVuSans-48"/>
       <use x="63.623047" xlink:href="#DejaVuSans-46"/>
       <use x="95.410156" xlink:href="#DejaVuSans-48"/>
       <use x="159.033203" xlink:href="#DejaVuSans-48"/>
       <use x="222.65625" xlink:href="#DejaVuSans-48"/>
      </g>
     </g>
    </g>
    <g id="ytick_5">
     <g id="line2d_10">
      <g>
       <use style="stroke:#000000;stroke-width:0.8;" x="81" xlink:href="#me93c23c9e4" y="59.945609"/>
      </g>
     </g>
     <g id="text_11">
      <!-- 0.005 -->
      <g transform="translate(39.64625 64.504672)scale(0.12 -0.12)">
       <use xlink:href="#DejaVuSans-48"/>
       <use x="63.623047" xlink:href="#DejaVuSans-46"/>
       <use x="95.410156" xlink:href="#DejaVuSans-48"/>
       <use x="159.033203" xlink:href="#DejaVuSans-48"/>
       <use x="222.65625" xlink:href="#DejaVuSans-53"/>
      </g>
     </g>
    </g>
    <g id="ytick_6">
     <g id="line2d_11">
      <g>
       <use style="stroke:#000000;stroke-width:0.8;" x="81" xlink:href="#me93c23c9e4" y="33.12046"/>
      </g>
     </g>
     <g id="text_12">
      <!-- 0.010 -->
      <g transform="translate(39.64625 37.679522)scale(0.12 -0.12)">
       <use xlink:href="#DejaVuSans-48"/>
       <use x="63.623047" xlink:href="#DejaVuSans-46"/>
       <use x="95.410156" xlink:href="#DejaVuSans-48"/>
       <use x="159.033203" xlink:href="#DejaVuSans-49"/>
       <use x="222.65625" xlink:href="#DejaVuSans-48"/>
      </g>
     </g>
    </g>
    <g id="text_13">
     <!-- Avg. Corr. Coef. -->
     <defs>
      <path d="M 34.1875 63.1875 
L 20.796875 26.90625 
L 47.609375 26.90625 
z
M 28.609375 72.90625 
L 39.796875 72.90625 
L 67.578125 0 
L 57.328125 0 
L 50.6875 18.703125 
L 17.828125 18.703125 
L 11.1875 0 
L 0.78125 0 
z
" id="DejaVuSans-65"/>
      <path d="M 2.984375 54.6875 
L 12.5 54.6875 
L 29.59375 8.796875 
L 46.6875 54.6875 
L 56.203125 54.6875 
L 35.6875 0 
L 23.484375 0 
z
" id="DejaVuSans-118"/>
      <path d="M 45.40625 27.984375 
Q 45.40625 37.75 41.375 43.109375 
Q 37.359375 48.484375 30.078125 48.484375 
Q 22.859375 48.484375 18.828125 43.109375 
Q 14.796875 37.75 14.796875 27.984375 
Q 14.796875 18.265625 18.828125 12.890625 
Q 22.859375 7.515625 30.078125 7.515625 
Q 37.359375 7.515625 41.375 12.890625 
Q 45.40625 18.265625 45.40625 27.984375 
z
M 54.390625 6.78125 
Q 54.390625 -7.171875 48.1875 -13.984375 
Q 42 -20.796875 29.203125 -20.796875 
Q 24.46875 -20.796875 20.265625 -20.09375 
Q 16.0625 -19.390625 12.109375 -17.921875 
L 12.109375 -9.1875 
Q 16.0625 -11.328125 19.921875 -12.34375 
Q 23.78125 -13.375 27.78125 -13.375 
Q 36.625 -13.375 41.015625 -8.765625 
Q 45.40625 -4.15625 45.40625 5.171875 
L 45.40625 9.625 
Q 42.625 4.78125 38.28125 2.390625 
Q 33.9375 0 27.875 0 
Q 17.828125 0 11.671875 7.65625 
Q 5.515625 15.328125 5.515625 27.984375 
Q 5.515625 40.671875 11.671875 48.328125 
Q 17.828125 56 27.875 56 
Q 33.9375 56 38.28125 53.609375 
Q 42.625 51.21875 45.40625 46.390625 
L 45.40625 54.6875 
L 54.390625 54.6875 
z
" id="DejaVuSans-103"/>
      <path d="M 64.40625 67.28125 
L 64.40625 56.890625 
Q 59.421875 61.53125 53.78125 63.8125 
Q 48.140625 66.109375 41.796875 66.109375 
Q 29.296875 66.109375 22.65625 58.46875 
Q 16.015625 50.828125 16.015625 36.375 
Q 16.015625 21.96875 22.65625 14.328125 
Q 29.296875 6.6875 41.796875 6.6875 
Q 48.140625 6.6875 53.78125 8.984375 
Q 59.421875 11.28125 64.40625 15.921875 
L 64.40625 5.609375 
Q 59.234375 2.09375 53.4375 0.328125 
Q 47.65625 -1.421875 41.21875 -1.421875 
Q 24.65625 -1.421875 15.125 8.703125 
Q 5.609375 18.84375 5.609375 36.375 
Q 5.609375 53.953125 15.125 64.078125 
Q 24.65625 74.21875 41.21875 74.21875 
Q 47.75 74.21875 53.53125 72.484375 
Q 59.328125 70.75 64.40625 67.28125 
z
" id="DejaVuSans-67"/>
      <path d="M 30.609375 48.390625 
Q 23.390625 48.390625 19.1875 42.75 
Q 14.984375 37.109375 14.984375 27.296875 
Q 14.984375 17.484375 19.15625 11.84375 
Q 23.34375 6.203125 30.609375 6.203125 
Q 37.796875 6.203125 41.984375 11.859375 
Q 46.1875 17.53125 46.1875 27.296875 
Q 46.1875 37.015625 41.984375 42.703125 
Q 37.796875 48.390625 30.609375 48.390625 
z
M 30.609375 56 
Q 42.328125 56 49.015625 48.375 
Q 55.71875 40.765625 55.71875 27.296875 
Q 55.71875 13.875 49.015625 6.21875 
Q 42.328125 -1.421875 30.609375 -1.421875 
Q 18.84375 -1.421875 12.171875 6.21875 
Q 5.515625 13.875 5.515625 27.296875 
Q 5.515625 40.765625 12.171875 48.375 
Q 18.84375 56 30.609375 56 
z
" id="DejaVuSans-111"/>
      <path d="M 41.109375 46.296875 
Q 39.59375 47.171875 37.8125 47.578125 
Q 36.03125 48 33.890625 48 
Q 26.265625 48 22.1875 43.046875 
Q 18.109375 38.09375 18.109375 28.8125 
L 18.109375 0 
L 9.078125 0 
L 9.078125 54.6875 
L 18.109375 54.6875 
L 18.109375 46.1875 
Q 20.953125 51.171875 25.484375 53.578125 
Q 30.03125 56 36.53125 56 
Q 37.453125 56 38.578125 55.875 
Q 39.703125 55.765625 41.0625 55.515625 
z
" id="DejaVuSans-114"/>
      <path d="M 37.109375 75.984375 
L 37.109375 68.5 
L 28.515625 68.5 
Q 23.6875 68.5 21.796875 66.546875 
Q 19.921875 64.59375 19.921875 59.515625 
L 19.921875 54.6875 
L 34.71875 54.6875 
L 34.71875 47.703125 
L 19.921875 47.703125 
L 19.921875 0 
L 10.890625 0 
L 10.890625 47.703125 
L 2.296875 47.703125 
L 2.296875 54.6875 
L 10.890625 54.6875 
L 10.890625 58.5 
Q 10.890625 67.625 15.140625 71.796875 
Q 19.390625 75.984375 28.609375 75.984375 
z
" id="DejaVuSans-102"/>
     </defs>
     <g transform="translate(22.595875 166.005)rotate(-90)scale(0.144 -0.144)">
      <use xlink:href="#DejaVuSans-65"/>
      <use x="68.330078" xlink:href="#DejaVuSans-118"/>
      <use x="127.509766" xlink:href="#DejaVuSans-103"/>
      <use x="190.986328" xlink:href="#DejaVuSans-46"/>
      <use x="222.773438" xlink:href="#DejaVuSans-32"/>
      <use x="254.560547" xlink:href="#DejaVuSans-67"/>
      <use x="324.384766" xlink:href="#DejaVuSans-111"/>
      <use x="385.566406" xlink:href="#DejaVuSans-114"/>
      <use x="426.664062" xlink:href="#DejaVuSans-114"/>
      <use x="467.636719" xlink:href="#DejaVuSans-46"/>
      <use x="499.423828" xlink:href="#DejaVuSans-32"/>
      <use x="531.210938" xlink:href="#DejaVuSans-67"/>
      <use x="601.035156" xlink:href="#DejaVuSans-111"/>
      <use x="662.216797" xlink:href="#DejaVuSans-101"/>
      <use x="723.740234" xlink:href="#DejaVuSans-102"/>
      <use x="758.835938" xlink:href="#DejaVuSans-46"/>
     </g>
    </g>
   </g>
   <g id="line2d_12">
    <path clip-path="url(#p2315bfdaf1)" d="M 81 140.962979 
L 83.049796 110.937012 
L 85.099592 103.482255 
L 87.149388 102.288567 
L 89.199184 104.621495 
L 91.24898 147.605895 
L 93.298776 121.434485 
L 95.348571 127.968619 
L 97.398367 126.761856 
L 99.448163 137.009569 
L 101.497959 122.390622 
L 103.547755 120.88637 
L 105.597551 88.835562 
L 107.647347 95.340319 
L 109.697143 140.962979 
L 113.796735 140.962979 
L 115.846531 125.678577 
L 117.896327 135.536268 
L 119.946122 138.528014 
L 121.995918 129.306796 
L 124.045714 125.820389 
L 126.09551 140.962979 
L 128.145306 126.830699 
L 132.244898 114.891893 
L 134.294694 111.488573 
L 136.34449 99.731441 
L 138.394286 92.884277 
L 140.444082 122.29806 
L 142.493878 128.579556 
L 144.543673 132.804173 
L 146.593469 154.37659 
L 148.643265 155.067573 
L 150.693061 149.277648 
L 152.742857 123.41478 
L 154.792653 125.20676 
L 156.842449 128.848975 
L 158.892245 98.063031 
L 160.942041 91.363679 
L 162.991837 137.498351 
L 165.041633 104.191252 
L 167.091429 91.472377 
L 169.141224 143.756518 
L 171.19102 122.85113 
L 173.240816 108.907441 
L 175.290612 126.604613 
L 177.340408 95.241162 
L 179.390204 91.791061 
L 181.44 110.620011 
L 183.489796 140.028913 
L 185.539592 118.496384 
L 187.589388 117.664026 
L 189.639184 100.710565 
L 191.68898 126.853982 
L 193.738776 129.418925 
L 195.788571 136.363366 
L 197.838367 140.962979 
L 199.888163 129.916671 
L 201.937959 141.106464 
L 203.987755 126.972436 
L 206.037551 120.969095 
L 208.087347 105.247364 
L 210.137143 121.607695 
L 212.186939 119.594225 
L 214.236735 127.598679 
L 216.286531 112.075414 
L 218.336327 129.315404 
L 220.386122 140.344819 
L 222.435918 126.807317 
L 224.485714 129.801414 
L 226.53551 119.615435 
L 228.585306 104.010645 
L 230.635102 105.628317 
L 232.684898 101.054719 
L 234.734694 112.289111 
L 236.78449 113.370928 
L 238.834286 140.962979 
L 240.884082 134.733988 
L 242.933878 141.611747 
L 244.983673 141.033792 
L 247.033469 111.994809 
L 249.083265 79.819686 
L 251.133061 94.380611 
L 253.182857 106.812025 
L 255.232653 130.619195 
L 257.282449 108.057601 
L 259.332245 103.856359 
L 261.382041 95.831566 
L 263.431837 119.381179 
L 265.481633 116.014041 
L 267.531429 119.833678 
L 269.581224 118.023572 
L 271.63102 133.85156 
L 273.680816 126.289902 
L 275.730612 140.535867 
L 277.780408 143.106148 
L 279.830204 98.557852 
L 281.88 139.520498 
L 283.929796 144.649524 
L 285.979592 134.412196 
L 288.029388 141.823204 
L 290.079184 128.576663 
L 292.12898 127.721593 
L 294.178776 127.474616 
L 296.228571 138.479412 
L 298.278367 142.397368 
L 300.328163 140.962979 
L 302.377959 136.180278 
L 304.427755 159.539747 
L 306.477551 180.085462 
L 308.527347 140.962979 
L 310.577143 110.727833 
L 312.626939 111.130065 
L 314.676735 152.250723 
L 316.726531 122.71538 
L 318.776327 135.820821 
L 320.826122 132.709703 
L 322.875918 136.447007 
L 324.925714 142.451482 
L 326.97551 103.609389 
L 329.025306 98.411342 
L 331.075102 106.318721 
L 333.124898 101.958198 
L 335.174694 104.101707 
L 337.22449 130.707847 
L 339.274286 117.69411 
L 341.324082 113.733731 
L 345.423673 95.865141 
L 347.473469 96.209983 
L 349.523265 136.789054 
L 351.573061 139.551302 
L 353.622857 137.664677 
L 355.672653 116.950771 
L 357.722449 109.427333 
L 359.772245 113.215784 
L 361.822041 140.962979 
L 363.871837 123.593901 
L 365.921633 101.715876 
L 367.971429 106.532119 
L 370.021224 121.599766 
L 372.07102 122.073387 
L 374.120816 119.192024 
L 376.170612 115.140134 
L 378.220408 107.258518 
L 380.270204 124.487427 
L 382.32 143.695258 
L 384.369796 151.809238 
L 386.419592 138.290202 
L 388.469388 141.51046 
L 390.519184 108.013752 
L 392.56898 140.962979 
L 394.618776 142.624821 
L 396.668571 121.715512 
L 398.718367 130.99125 
L 400.768163 126.045488 
L 402.817959 118.77195 
L 404.867755 128.620602 
L 406.917551 144.976657 
L 408.967347 131.236549 
L 411.017143 124.628709 
L 413.066939 135.290443 
L 415.116735 140.962979 
L 417.166531 124.034692 
L 419.216327 118.814361 
L 421.266122 156.072941 
L 423.315918 100.72402 
L 425.365714 140.962979 
L 427.41551 89.958739 
L 429.465306 101.839552 
L 431.515102 90.392143 
L 433.564898 91.363767 
L 435.614694 93.579231 
L 437.66449 101.72569 
L 439.714286 91.053031 
L 441.764082 90.549244 
L 443.813878 93.271056 
L 445.863673 89.733098 
L 447.913469 90.601022 
L 449.963265 92.21561 
L 452.013061 98.948656 
L 454.062857 76.001051 
L 456.112653 98.280188 
L 458.162449 94.132151 
L 460.212245 91.443776 
L 462.262041 89.088497 
L 464.311837 94.24913 
L 466.361633 96.388862 
L 468.411429 90.799617 
L 470.461224 92.805459 
L 472.51102 99.295471 
L 474.560816 97.286838 
L 476.610612 95.857953 
L 478.660408 116.254702 
L 480.710204 100.91793 
L 482.76 89.788728 
L 484.809796 93.482602 
L 486.859592 107.54975 
L 488.909388 101.63086 
L 490.959184 108.23512 
L 493.00898 104.730242 
L 495.058776 125.919756 
L 497.108571 117.253287 
L 501.208163 119.160978 
L 503.257959 107.899767 
L 505.307755 105.03835 
L 507.357551 94.908381 
L 509.407347 107.279726 
L 511.457143 124.117832 
L 513.506939 112.422526 
L 515.556735 98.591381 
L 517.606531 114.812751 
L 519.656327 104.973689 
L 521.706122 109.739506 
L 523.755918 117.436454 
L 525.805714 140.962979 
L 527.85551 132.634451 
L 529.905306 121.623782 
L 531.955102 101.442983 
L 534.004898 102.881246 
L 536.054694 101.89578 
L 538.10449 115.55137 
L 540.154286 110.905219 
L 542.204082 124.283572 
L 544.253878 89.920254 
L 546.303673 108.943334 
L 548.353469 117.093799 
L 550.403265 140.894004 
L 552.453061 122.868454 
L 554.502857 118.70428 
L 556.552653 122.113656 
L 558.602449 114.044499 
L 560.652245 110.129256 
L 562.702041 126.162254 
L 564.751837 126.076654 
L 566.801633 137.236597 
L 568.851429 129.282269 
L 570.901224 118.9426 
L 572.95102 82.097773 
L 575.000816 77.945423 
L 577.050612 112.683318 
L 579.100408 133.723615 
L 581.150204 131.132113 
L 583.2 141.181516 
L 583.2 141.181516 
" style="fill:none;stroke:#0000ff;stroke-linecap:square;stroke-width:1.5;"/>
   </g>
   <g id="patch_3">
    <path d="M 81 192.24 
L 81 25.92 
" style="fill:none;stroke:#000000;stroke-linecap:square;stroke-linejoin:miter;stroke-width:0.8;"/>
   </g>
   <g id="patch_4">
    <path d="M 583.2 192.24 
L 583.2 25.92 
" style="fill:none;stroke:#000000;stroke-linecap:square;stroke-linejoin:miter;stroke-width:0.8;"/>
   </g>
   <g id="patch_5">
    <path d="M 81 192.24 
L 583.2 192.24 
" style="fill:none;stroke:#000000;stroke-linecap:square;stroke-linejoin:miter;stroke-width:0.8;"/>
   </g>
   <g id="patch_6">
    <path d="M 81 25.92 
L 583.2 25.92 
" style="fill:none;stroke:#000000;stroke-linecap:square;stroke-linejoin:miter;stroke-width:0.8;"/>
   </g>
   <g id="text_14">
    <!-- V1, Num Trials=160 All stimulated trials -->
    <defs>
     <path d="M 28.609375 0 
L 0.78125 72.90625 
L 11.078125 72.90625 
L 34.1875 11.53125 
L 57.328125 72.90625 
L 67.578125 72.90625 
L 39.796875 0 
z
" id="DejaVuSans-86"/>
     <path d="M 11.71875 12.40625 
L 22.015625 12.40625 
L 22.015625 4 
L 14.015625 -11.625 
L 7.71875 -11.625 
L 11.71875 4 
z
" id="DejaVuSans-44"/>
     <path d="M 9.8125 72.90625 
L 23.09375 72.90625 
L 55.421875 11.921875 
L 55.421875 72.90625 
L 64.984375 72.90625 
L 64.984375 0 
L 51.703125 0 
L 19.390625 60.984375 
L 19.390625 0 
L 9.8125 0 
z
" id="DejaVuSans-78"/>
     <path d="M 8.5 21.578125 
L 8.5 54.6875 
L 17.484375 54.6875 
L 17.484375 21.921875 
Q 17.484375 14.15625 20.5 10.265625 
Q 23.53125 6.390625 29.59375 6.390625 
Q 36.859375 6.390625 41.078125 11.03125 
Q 45.3125 15.671875 45.3125 23.6875 
L 45.3125 54.6875 
L 54.296875 54.6875 
L 54.296875 0 
L 45.3125 0 
L 45.3125 8.40625 
Q 42.046875 3.421875 37.71875 1 
Q 33.40625 -1.421875 27.6875 -1.421875 
Q 18.265625 -1.421875 13.375 4.4375 
Q 8.5 10.296875 8.5 21.578125 
z
M 31.109375 56 
z
" id="DejaVuSans-117"/>
     <path d="M 34.28125 27.484375 
Q 23.390625 27.484375 19.1875 25 
Q 14.984375 22.515625 14.984375 16.5 
Q 14.984375 11.71875 18.140625 8.90625 
Q 21.296875 6.109375 26.703125 6.109375 
Q 34.1875 6.109375 38.703125 11.40625 
Q 43.21875 16.703125 43.21875 25.484375 
L 43.21875 27.484375 
z
M 52.203125 31.203125 
L 52.203125 0 
L 43.21875 0 
L 43.21875 8.296875 
Q 40.140625 3.328125 35.546875 0.953125 
Q 30.953125 -1.421875 24.3125 -1.421875 
Q 15.921875 -1.421875 10.953125 3.296875 
Q 6 8.015625 6 15.921875 
Q 6 25.140625 12.171875 29.828125 
Q 18.359375 34.515625 30.609375 34.515625 
L 43.21875 34.515625 
L 43.21875 35.40625 
Q 43.21875 41.609375 39.140625 45 
Q 35.0625 48.390625 27.6875 48.390625 
Q 23 48.390625 18.546875 47.265625 
Q 14.109375 46.140625 10.015625 43.890625 
L 10.015625 52.203125 
Q 14.9375 54.109375 19.578125 55.046875 
Q 24.21875 56 28.609375 56 
Q 40.484375 56 46.34375 49.84375 
Q 52.203125 43.703125 52.203125 31.203125 
z
" id="DejaVuSans-97"/>
     <path d="M 9.421875 75.984375 
L 18.40625 75.984375 
L 18.40625 0 
L 9.421875 0 
z
" id="DejaVuSans-108"/>
     <path d="M 10.59375 45.40625 
L 73.1875 45.40625 
L 73.1875 37.203125 
L 10.59375 37.203125 
z
M 10.59375 25.484375 
L 73.1875 25.484375 
L 73.1875 17.1875 
L 10.59375 17.1875 
z
" id="DejaVuSans-61"/>
     <path d="M 33.015625 40.375 
Q 26.375 40.375 22.484375 35.828125 
Q 18.609375 31.296875 18.609375 23.390625 
Q 18.609375 15.53125 22.484375 10.953125 
Q 26.375 6.390625 33.015625 6.390625 
Q 39.65625 6.390625 43.53125 10.953125 
Q 47.40625 15.53125 47.40625 23.390625 
Q 47.40625 31.296875 43.53125 35.828125 
Q 39.65625 40.375 33.015625 40.375 
z
M 52.59375 71.296875 
L 52.59375 62.3125 
Q 48.875 64.0625 45.09375 64.984375 
Q 41.3125 65.921875 37.59375 65.921875 
Q 27.828125 65.921875 22.671875 59.328125 
Q 17.53125 52.734375 16.796875 39.40625 
Q 19.671875 43.65625 24.015625 45.921875 
Q 28.375 48.1875 33.59375 48.1875 
Q 44.578125 48.1875 50.953125 41.515625 
Q 57.328125 34.859375 57.328125 23.390625 
Q 57.328125 12.15625 50.6875 5.359375 
Q 44.046875 -1.421875 33.015625 -1.421875 
Q 20.359375 -1.421875 13.671875 8.265625 
Q 6.984375 17.96875 6.984375 36.375 
Q 6.984375 53.65625 15.1875 63.9375 
Q 23.390625 74.21875 37.203125 74.21875 
Q 40.921875 74.21875 44.703125 73.484375 
Q 48.484375 72.75 52.59375 71.296875 
z
" id="DejaVuSans-54"/>
     <path d="M 18.3125 70.21875 
L 18.3125 54.6875 
L 36.8125 54.6875 
L 36.8125 47.703125 
L 18.3125 47.703125 
L 18.3125 18.015625 
Q 18.3125 11.328125 20.140625 9.421875 
Q 21.96875 7.515625 27.59375 7.515625 
L 36.8125 7.515625 
L 36.8125 0 
L 27.59375 0 
Q 17.1875 0 13.234375 3.875 
Q 9.28125 7.765625 9.28125 18.015625 
L 9.28125 47.703125 
L 2.6875 47.703125 
L 2.6875 54.6875 
L 9.28125 54.6875 
L 9.28125 70.21875 
z
" id="DejaVuSans-116"/>
     <path d="M 45.40625 46.390625 
L 45.40625 75.984375 
L 54.390625 75.984375 
L 54.390625 0 
L 45.40625 0 
L 45.40625 8.203125 
Q 42.578125 3.328125 38.25 0.953125 
Q 33.9375 -1.421875 27.875 -1.421875 
Q 17.96875 -1.421875 11.734375 6.484375 
Q 5.515625 14.40625 5.515625 27.296875 
Q 5.515625 40.1875 11.734375 48.09375 
Q 17.96875 56 27.875 56 
Q 33.9375 56 38.25 53.625 
Q 42.578125 51.265625 45.40625 46.390625 
z
M 14.796875 27.296875 
Q 14.796875 17.390625 18.875 11.75 
Q 22.953125 6.109375 30.078125 6.109375 
Q 37.203125 6.109375 41.296875 11.75 
Q 45.40625 17.390625 45.40625 27.296875 
Q 45.40625 37.203125 41.296875 42.84375 
Q 37.203125 48.484375 30.078125 48.484375 
Q 22.953125 48.484375 18.875 42.84375 
Q 14.796875 37.203125 14.796875 27.296875 
z
" id="DejaVuSans-100"/>
    </defs>
    <g transform="translate(211.485 19.92)scale(0.12 -0.12)">
     <use xlink:href="#DejaVuSans-86"/>
     <use x="68.408203" xlink:href="#DejaVuSans-49"/>
     <use x="132.03125" xlink:href="#DejaVuSans-44"/>
     <use x="163.818359" xlink:href="#DejaVuSans-32"/>
     <use x="195.605469" xlink:href="#DejaVuSans-78"/>
     <use x="270.410156" xlink:href="#DejaVuSans-117"/>
     <use x="333.789062" xlink:href="#DejaVuSans-109"/>
     <use x="431.201172" xlink:href="#DejaVuSans-32"/>
     <use x="462.988281" xlink:href="#DejaVuSans-84"/>
     <use x="523.853516" xlink:href="#DejaVuSans-114"/>
     <use x="564.966797" xlink:href="#DejaVuSans-105"/>
     <use x="592.75" xlink:href="#DejaVuSans-97"/>
     <use x="654.029297" xlink:href="#DejaVuSans-108"/>
     <use x="681.8125" xlink:href="#DejaVuSans-115"/>
     <use x="733.912109" xlink:href="#DejaVuSans-61"/>
     <use x="817.701172" xlink:href="#DejaVuSans-49"/>
     <use x="881.324219" xlink:href="#DejaVuSans-54"/>
     <use x="944.947266" xlink:href="#DejaVuSans-48"/>
     <use x="1008.570312" xlink:href="#DejaVuSans-32"/>
     <use x="1040.357422" xlink:href="#DejaVuSans-65"/>
     <use x="1108.765625" xlink:href="#DejaVuSans-108"/>
     <use x="1136.548828" xlink:href="#DejaVuSans-108"/>
     <use x="1164.332031" xlink:href="#DejaVuSans-32"/>
     <use x="1196.119141" xlink:href="#DejaVuSans-115"/>
     <use x="1248.21875" xlink:href="#DejaVuSans-116"/>
     <use x="1287.427734" xlink:href="#DejaVuSans-105"/>
     <use x="1315.210938" xlink:href="#DejaVuSans-109"/>
     <use x="1412.623047" xlink:href="#DejaVuSans-117"/>
     <use x="1476.001953" xlink:href="#DejaVuSans-108"/>
     <use x="1503.785156" xlink:href="#DejaVuSans-97"/>
     <use x="1565.064453" xlink:href="#DejaVuSans-116"/>
     <use x="1604.273438" xlink:href="#DejaVuSans-101"/>
     <use x="1665.796875" xlink:href="#DejaVuSans-100"/>
     <use x="1729.273438" xlink:href="#DejaVuSans-32"/>
     <use x="1761.060547" xlink:href="#DejaVuSans-116"/>
     <use x="1800.269531" xlink:href="#DejaVuSans-114"/>
     <use x="1841.382812" xlink:href="#DejaVuSans-105"/>
     <use x="1869.166016" xlink:href="#DejaVuSans-97"/>
     <use x="1930.445312" xlink:href="#DejaVuSans-108"/>
     <use x="1958.228516" xlink:href="#DejaVuSans-115"/>
    </g>
   </g>
   <g id="legend_1">
    <g id="patch_7">
     <path d="M 476.469375 70.7475 
L 574.8 70.7475 
Q 577.2 70.7475 577.2 68.3475 
L 577.2 34.32 
Q 577.2 31.92 574.8 31.92 
L 476.469375 31.92 
Q 474.069375 31.92 474.069375 34.32 
L 474.069375 68.3475 
Q 474.069375 70.7475 476.469375 70.7475 
z
" style="fill:#ffffff;opacity:0.8;stroke:#cccccc;stroke-linejoin:miter;"/>
    </g>
    <g id="line2d_13">
     <path d="M 478.869375 41.638125 
L 502.869375 41.638125 
" style="fill:none;stroke:#0000ff;stroke-linecap:square;stroke-width:1.5;"/>
    </g>
    <g id="line2d_14"/>
    <g id="text_15">
     <!-- Avg. Corr. -->
     <g transform="translate(512.469375 45.838125)scale(0.12 -0.12)">
      <use xlink:href="#DejaVuSans-65"/>
      <use x="68.330078" xlink:href="#DejaVuSans-118"/>
      <use x="127.509766" xlink:href="#DejaVuSans-103"/>
      <use x="190.986328" xlink:href="#DejaVuSans-46"/>
      <use x="222.773438" xlink:href="#DejaVuSans-32"/>
      <use x="254.560547" xlink:href="#DejaVuSans-67"/>
      <use x="324.384766" xlink:href="#DejaVuSans-111"/>
      <use x="385.566406" xlink:href="#DejaVuSans-114"/>
      <use x="426.664062" xlink:href="#DejaVuSans-114"/>
      <use x="467.636719" xlink:href="#DejaVuSans-46"/>
     </g>
    </g>
    <g id="patch_8">
     <path d="M 478.869375 63.451875 
L 502.869375 63.451875 
L 502.869375 55.051875 
L 478.869375 55.051875 
z
" style="fill:#0000ff;opacity:0.3;stroke:#0000ff;stroke-linejoin:miter;"/>
    </g>
    <g id="text_16">
     <!-- Std. Err. -->
     <defs>
      <path d="M 53.515625 70.515625 
L 53.515625 60.890625 
Q 47.90625 63.578125 42.921875 64.890625 
Q 37.9375 66.21875 33.296875 66.21875 
Q 25.25 66.21875 20.875 63.09375 
Q 16.5 59.96875 16.5 54.203125 
Q 16.5 49.359375 19.40625 46.890625 
Q 22.3125 44.4375 30.421875 42.921875 
L 36.375 41.703125 
Q 47.40625 39.59375 52.65625 34.296875 
Q 57.90625 29 57.90625 20.125 
Q 57.90625 9.515625 50.796875 4.046875 
Q 43.703125 -1.421875 29.984375 -1.421875 
Q 24.8125 -1.421875 18.96875 -0.25 
Q 13.140625 0.921875 6.890625 3.21875 
L 6.890625 13.375 
Q 12.890625 10.015625 18.65625 8.296875 
Q 24.421875 6.59375 29.984375 6.59375 
Q 38.421875 6.59375 43.015625 9.90625 
Q 47.609375 13.234375 47.609375 19.390625 
Q 47.609375 24.75 44.3125 27.78125 
Q 41.015625 30.8125 33.5 32.328125 
L 27.484375 33.5 
Q 16.453125 35.6875 11.515625 40.375 
Q 6.59375 45.0625 6.59375 53.421875 
Q 6.59375 63.09375 13.40625 68.65625 
Q 20.21875 74.21875 32.171875 74.21875 
Q 37.3125 74.21875 42.625 73.28125 
Q 47.953125 72.359375 53.515625 70.515625 
z
" id="DejaVuSans-83"/>
      <path d="M 9.8125 72.90625 
L 55.90625 72.90625 
L 55.90625 64.59375 
L 19.671875 64.59375 
L 19.671875 43.015625 
L 54.390625 43.015625 
L 54.390625 34.71875 
L 19.671875 34.71875 
L 19.671875 8.296875 
L 56.78125 8.296875 
L 56.78125 0 
L 9.8125 0 
z
" id="DejaVuSans-69"/>
     </defs>
     <g transform="translate(512.469375 63.451875)scale(0.12 -0.12)">
      <use xlink:href="#DejaVuSans-83"/>
      <use x="63.476562" xlink:href="#DejaVuSans-116"/>
      <use x="102.685547" xlink:href="#DejaVuSans-100"/>
      <use x="166.162109" xlink:href="#DejaVuSans-46"/>
      <use x="197.949219" xlink:href="#DejaVuSans-32"/>
      <use x="229.736328" xlink:href="#DejaVuSans-69"/>
      <use x="292.919922" xlink:href="#DejaVuSans-114"/>
      <use x="334.017578" xlink:href="#DejaVuSans-114"/>
      <use x="374.990234" xlink:href="#DejaVuSans-46"/>
     </g>
    </g>
   </g>
  </g>
 </g>
 <defs>
  <clipPath id="p2315bfdaf1">
   <rect height="166.32" width="502.2" x="81" y="25.92"/>
  </clipPath>
 </defs>
</svg>
