<?xml version="1.0" encoding="utf-8" standalone="no"?>
<!DOCTYPE svg PUBLIC "-//W3C//DTD SVG 1.1//EN"
  "http://www.w3.org/Graphics/SVG/1.1/DTD/svg11.dtd">
<!-- Created with matplotlib (http://matplotlib.org/) -->
<svg height="345pt" version="1.1" viewBox="0 0 460 345" width="460pt" xmlns="http://www.w3.org/2000/svg" xmlns:xlink="http://www.w3.org/1999/xlink">
 <defs>
  <style type="text/css">
*{stroke-linecap:butt;stroke-linejoin:round;}
  </style>
 </defs>
 <g id="figure_1">
  <g id="patch_1">
   <path d="M 0 345.6 
L 460.8 345.6 
L 460.8 0 
L 0 0 
z
" style="fill:#ffffff;"/>
  </g>
  <g id="axes_1">
   <g id="patch_2">
    <path d="M 57.6 207.36 
L 417.024 207.36 
L 417.024 34.56 
L 57.6 34.56 
z
" style="fill:#ffffff;"/>
   </g>
   <g id="matplotlib.axis_1">
    <g id="xtick_1">
     <g id="line2d_1">
      <path clip-path="url(#pa22013155f)" d="M 57.6 207.36 
L 57.6 34.56 
" style="fill:none;stroke:#b0b0b0;stroke-linecap:square;stroke-width:0.8;"/>
     </g>
     <g id="line2d_2">
      <defs>
       <path d="M 0 0 
L 0 3.5 
" id="m22519cdc11" style="stroke:#000000;stroke-width:0.8;"/>
      </defs>
      <g>
       <use style="stroke:#000000;stroke-width:0.8;" x="57.6" xlink:href="#m22519cdc11" y="207.36"/>
      </g>
     </g>
    </g>
    <g id="xtick_2">
     <g id="line2d_3">
      <path clip-path="url(#pa22013155f)" d="M 117.504 207.36 
L 117.504 34.56 
" style="fill:none;stroke:#b0b0b0;stroke-linecap:square;stroke-width:0.8;"/>
     </g>
     <g id="line2d_4">
      <g>
       <use style="stroke:#000000;stroke-width:0.8;" x="117.504" xlink:href="#m22519cdc11" y="207.36"/>
      </g>
     </g>
    </g>
    <g id="xtick_3">
     <g id="line2d_5">
      <path clip-path="url(#pa22013155f)" d="M 177.408 207.36 
L 177.408 34.56 
" style="fill:none;stroke:#b0b0b0;stroke-linecap:square;stroke-width:0.8;"/>
     </g>
     <g id="line2d_6">
      <g>
       <use style="stroke:#000000;stroke-width:0.8;" x="177.408" xlink:href="#m22519cdc11" y="207.36"/>
      </g>
     </g>
    </g>
    <g id="xtick_4">
     <g id="line2d_7">
      <path clip-path="url(#pa22013155f)" d="M 237.312 207.36 
L 237.312 34.56 
" style="fill:none;stroke:#b0b0b0;stroke-linecap:square;stroke-width:0.8;"/>
     </g>
     <g id="line2d_8">
      <g>
       <use style="stroke:#000000;stroke-width:0.8;" x="237.312" xlink:href="#m22519cdc11" y="207.36"/>
      </g>
     </g>
    </g>
    <g id="xtick_5">
     <g id="line2d_9">
      <path clip-path="url(#pa22013155f)" d="M 297.216 207.36 
L 297.216 34.56 
" style="fill:none;stroke:#b0b0b0;stroke-linecap:square;stroke-width:0.8;"/>
     </g>
     <g id="line2d_10">
      <g>
       <use style="stroke:#000000;stroke-width:0.8;" x="297.216" xlink:href="#m22519cdc11" y="207.36"/>
      </g>
     </g>
    </g>
    <g id="xtick_6">
     <g id="line2d_11">
      <path clip-path="url(#pa22013155f)" d="M 357.12 207.36 
L 357.12 34.56 
" style="fill:none;stroke:#b0b0b0;stroke-linecap:square;stroke-width:0.8;"/>
     </g>
     <g id="line2d_12">
      <g>
       <use style="stroke:#000000;stroke-width:0.8;" x="357.12" xlink:href="#m22519cdc11" y="207.36"/>
      </g>
     </g>
    </g>
    <g id="xtick_7">
     <g id="line2d_13">
      <path clip-path="url(#pa22013155f)" d="M 417.024 207.36 
L 417.024 34.56 
" style="fill:none;stroke:#b0b0b0;stroke-linecap:square;stroke-width:0.8;"/>
     </g>
     <g id="line2d_14">
      <g>
       <use style="stroke:#000000;stroke-width:0.8;" x="417.024" xlink:href="#m22519cdc11" y="207.36"/>
      </g>
     </g>
    </g>
   </g>
   <g id="matplotlib.axis_2">
    <g id="ytick_1">
     <g id="line2d_15">
      <path clip-path="url(#pa22013155f)" d="M 57.6 202.153176 
L 417.024 202.153176 
" style="fill:none;stroke:#b0b0b0;stroke-linecap:square;stroke-width:0.8;"/>
     </g>
     <g id="line2d_16">
      <defs>
       <path d="M 0 0 
L -3.5 0 
" id="m3eddb2b9e5" style="stroke:#000000;stroke-width:0.8;"/>
      </defs>
      <g>
       <use style="stroke:#000000;stroke-width:0.8;" x="57.6" xlink:href="#m3eddb2b9e5" y="202.153176"/>
      </g>
     </g>
     <g id="text_1">
      <!-- 0.0 -->
      <defs>
       <path d="M 31.78125 66.40625 
Q 24.171875 66.40625 20.328125 58.90625 
Q 16.5 51.421875 16.5 36.375 
Q 16.5 21.390625 20.328125 13.890625 
Q 24.171875 6.390625 31.78125 6.390625 
Q 39.453125 6.390625 43.28125 13.890625 
Q 47.125 21.390625 47.125 36.375 
Q 47.125 51.421875 43.28125 58.90625 
Q 39.453125 66.40625 31.78125 66.40625 
z
M 31.78125 74.21875 
Q 44.046875 74.21875 50.515625 64.515625 
Q 56.984375 54.828125 56.984375 36.375 
Q 56.984375 17.96875 50.515625 8.265625 
Q 44.046875 -1.421875 31.78125 -1.421875 
Q 19.53125 -1.421875 13.0625 8.265625 
Q 6.59375 17.96875 6.59375 36.375 
Q 6.59375 54.828125 13.0625 64.515625 
Q 19.53125 74.21875 31.78125 74.21875 
z
" id="DejaVuSans-30"/>
       <path d="M 10.6875 12.40625 
L 21 12.40625 
L 21 0 
L 10.6875 0 
z
" id="DejaVuSans-2e"/>
      </defs>
      <g transform="translate(31.51625 206.712238)scale(0.12 -0.12)">
       <use xlink:href="#DejaVuSans-30"/>
       <use x="63.623047" xlink:href="#DejaVuSans-2e"/>
       <use x="95.410156" xlink:href="#DejaVuSans-30"/>
      </g>
     </g>
    </g>
    <g id="ytick_2">
     <g id="line2d_17">
      <path clip-path="url(#pa22013155f)" d="M 57.6 161.846542 
L 417.024 161.846542 
" style="fill:none;stroke:#b0b0b0;stroke-linecap:square;stroke-width:0.8;"/>
     </g>
     <g id="line2d_18">
      <g>
       <use style="stroke:#000000;stroke-width:0.8;" x="57.6" xlink:href="#m3eddb2b9e5" y="161.846542"/>
      </g>
     </g>
     <g id="text_2">
      <!-- 0.5 -->
      <defs>
       <path d="M 10.796875 72.90625 
L 49.515625 72.90625 
L 49.515625 64.59375 
L 19.828125 64.59375 
L 19.828125 46.734375 
Q 21.96875 47.46875 24.109375 47.828125 
Q 26.265625 48.1875 28.421875 48.1875 
Q 40.625 48.1875 47.75 41.5 
Q 54.890625 34.8125 54.890625 23.390625 
Q 54.890625 11.625 47.5625 5.09375 
Q 40.234375 -1.421875 26.90625 -1.421875 
Q 22.3125 -1.421875 17.546875 -0.640625 
Q 12.796875 0.140625 7.71875 1.703125 
L 7.71875 11.625 
Q 12.109375 9.234375 16.796875 8.0625 
Q 21.484375 6.890625 26.703125 6.890625 
Q 35.15625 6.890625 40.078125 11.328125 
Q 45.015625 15.765625 45.015625 23.390625 
Q 45.015625 31 40.078125 35.4375 
Q 35.15625 39.890625 26.703125 39.890625 
Q 22.75 39.890625 18.8125 39.015625 
Q 14.890625 38.140625 10.796875 36.28125 
z
" id="DejaVuSans-35"/>
      </defs>
      <g transform="translate(31.51625 166.405604)scale(0.12 -0.12)">
       <use xlink:href="#DejaVuSans-30"/>
       <use x="63.623047" xlink:href="#DejaVuSans-2e"/>
       <use x="95.410156" xlink:href="#DejaVuSans-35"/>
      </g>
     </g>
    </g>
    <g id="ytick_3">
     <g id="line2d_19">
      <path clip-path="url(#pa22013155f)" d="M 57.6 121.539908 
L 417.024 121.539908 
" style="fill:none;stroke:#b0b0b0;stroke-linecap:square;stroke-width:0.8;"/>
     </g>
     <g id="line2d_20">
      <g>
       <use style="stroke:#000000;stroke-width:0.8;" x="57.6" xlink:href="#m3eddb2b9e5" y="121.539908"/>
      </g>
     </g>
     <g id="text_3">
      <!-- 1.0 -->
      <defs>
       <path d="M 12.40625 8.296875 
L 28.515625 8.296875 
L 28.515625 63.921875 
L 10.984375 60.40625 
L 10.984375 69.390625 
L 28.421875 72.90625 
L 38.28125 72.90625 
L 38.28125 8.296875 
L 54.390625 8.296875 
L 54.390625 0 
L 12.40625 0 
z
" id="DejaVuSans-31"/>
      </defs>
      <g transform="translate(31.51625 126.09897)scale(0.12 -0.12)">
       <use xlink:href="#DejaVuSans-31"/>
       <use x="63.623047" xlink:href="#DejaVuSans-2e"/>
       <use x="95.410156" xlink:href="#DejaVuSans-30"/>
      </g>
     </g>
    </g>
    <g id="ytick_4">
     <g id="line2d_21">
      <path clip-path="url(#pa22013155f)" d="M 57.6 81.233274 
L 417.024 81.233274 
" style="fill:none;stroke:#b0b0b0;stroke-linecap:square;stroke-width:0.8;"/>
     </g>
     <g id="line2d_22">
      <g>
       <use style="stroke:#000000;stroke-width:0.8;" x="57.6" xlink:href="#m3eddb2b9e5" y="81.233274"/>
      </g>
     </g>
     <g id="text_4">
      <!-- 1.5 -->
      <g transform="translate(31.51625 85.792337)scale(0.12 -0.12)">
       <use xlink:href="#DejaVuSans-31"/>
       <use x="63.623047" xlink:href="#DejaVuSans-2e"/>
       <use x="95.410156" xlink:href="#DejaVuSans-35"/>
      </g>
     </g>
    </g>
    <g id="ytick_5">
     <g id="line2d_23">
      <path clip-path="url(#pa22013155f)" d="M 57.6 40.92664 
L 417.024 40.92664 
" style="fill:none;stroke:#b0b0b0;stroke-linecap:square;stroke-width:0.8;"/>
     </g>
     <g id="line2d_24">
      <g>
       <use style="stroke:#000000;stroke-width:0.8;" x="57.6" xlink:href="#m3eddb2b9e5" y="40.92664"/>
      </g>
     </g>
     <g id="text_5">
      <!-- 2.0 -->
      <defs>
       <path d="M 19.1875 8.296875 
L 53.609375 8.296875 
L 53.609375 0 
L 7.328125 0 
L 7.328125 8.296875 
Q 12.9375 14.109375 22.625 23.890625 
Q 32.328125 33.6875 34.8125 36.53125 
Q 39.546875 41.84375 41.421875 45.53125 
Q 43.3125 49.21875 43.3125 52.78125 
Q 43.3125 58.59375 39.234375 62.25 
Q 35.15625 65.921875 28.609375 65.921875 
Q 23.96875 65.921875 18.8125 64.3125 
Q 13.671875 62.703125 7.8125 59.421875 
L 7.8125 69.390625 
Q 13.765625 71.78125 18.9375 73 
Q 24.125 74.21875 28.421875 74.21875 
Q 39.75 74.21875 46.484375 68.546875 
Q 53.21875 62.890625 53.21875 53.421875 
Q 53.21875 48.921875 51.53125 44.890625 
Q 49.859375 40.875 45.40625 35.40625 
Q 44.1875 33.984375 37.640625 27.21875 
Q 31.109375 20.453125 19.1875 8.296875 
z
" id="DejaVuSans-32"/>
      </defs>
      <g transform="translate(31.51625 45.485703)scale(0.12 -0.12)">
       <use xlink:href="#DejaVuSans-32"/>
       <use x="63.623047" xlink:href="#DejaVuSans-2e"/>
       <use x="95.410156" xlink:href="#DejaVuSans-30"/>
      </g>
     </g>
    </g>
    <g id="text_6">
     <!-- $\Delta F/F_0$ -->
     <defs>
      <path d="M 34.1875 63.1875 
L 14.15625 8.203125 
L 54.25 8.203125 
z
M 0.78125 0 
L 28.609375 72.90625 
L 39.796875 72.90625 
L 67.578125 0 
z
" id="DejaVuSans-394"/>
      <path d="M 16.890625 72.90625 
L 58.6875 72.90625 
L 57.078125 64.59375 
L 25.09375 64.59375 
L 20.90625 43.109375 
L 49.8125 43.109375 
L 48.1875 34.8125 
L 19.28125 34.8125 
L 12.5 0 
L 2.6875 0 
z
" id="DejaVuSans-Oblique-46"/>
      <path d="M 25.390625 72.90625 
L 33.6875 72.90625 
L 8.296875 -9.28125 
L 0 -9.28125 
z
" id="DejaVuSans-2f"/>
     </defs>
     <g transform="translate(25.020625 136.86)rotate(-90)scale(0.12 -0.12)">
      <use transform="translate(0 0.09375)" xlink:href="#DejaVuSans-394"/>
      <use transform="translate(68.408203 0.09375)" xlink:href="#DejaVuSans-Oblique-46"/>
      <use transform="translate(125.927734 0.09375)" xlink:href="#DejaVuSans-2f"/>
      <use transform="translate(159.619141 0.09375)" xlink:href="#DejaVuSans-Oblique-46"/>
      <use transform="translate(217.138672 -16.3125)scale(0.7)" xlink:href="#DejaVuSans-30"/>
     </g>
    </g>
   </g>
   <g id="line2d_25">
    <path clip-path="url(#pa22013155f)" d="M 57.6 196.826641 
L 58.19904 197.122019 
L 58.79808 197.267263 
L 59.39712 197.09907 
L 59.99616 197.177974 
L 60.5952 197.527859 
L 61.19424 197.440056 
L 61.79328 196.70248 
L 62.39232 196.3066 
L 62.99136 197.154509 
L 63.5904 198.332606 
L 64.18944 198.281506 
L 64.78848 197.527166 
L 65.38752 197.73643 
L 65.98656 198.481399 
L 66.5856 198.183637 
L 67.18464 197.305318 
L 67.78368 197.165234 
L 68.38272 197.338475 
L 68.98176 197.199132 
L 69.5808 197.397785 
L 70.17984 197.862432 
L 71.37792 197.377652 
L 71.97696 197.950355 
L 72.576 198.349099 
L 73.17504 197.7057 
L 73.77408 197.382265 
L 74.37312 198.192489 
L 74.97216 198.805529 
L 76.17024 198.301029 
L 76.76928 198.470605 
L 77.36832 198.458794 
L 78.5664 197.894001 
L 80.36352 197.465487 
L 80.96256 196.870779 
L 81.5616 196.920828 
L 82.16064 198.055101 
L 82.75968 198.804783 
L 83.35872 198.225659 
L 83.95776 197.807936 
L 85.15584 199.505455 
L 85.75488 199.048503 
L 86.35392 198.30553 
L 86.95296 198.464427 
L 87.552 199.021974 
L 88.15104 198.878931 
L 88.75008 197.985547 
L 89.34912 197.302189 
L 89.94816 197.549045 
L 91.14624 199.101941 
L 91.74528 199.291919 
L 92.94336 198.834996 
L 94.14144 198.91323 
L 95.33952 197.995463 
L 96.5376 198.416398 
L 97.13664 198.261527 
L 97.73568 198.383247 
L 98.33472 198.680652 
L 99.5328 197.65594 
L 100.73088 199.272183 
L 101.92896 197.089669 
L 102.528 197.768239 
L 103.12704 198.713536 
L 103.72608 198.364989 
L 104.32512 197.795408 
L 105.5232 198.07675 
L 106.12224 198.207204 
L 106.72128 198.163115 
L 107.91936 196.667171 
L 109.11744 196.971733 
L 109.71648 196.325371 
L 110.31552 196.117865 
L 110.91456 196.900688 
L 111.5136 197.398506 
L 112.11264 197.521243 
L 112.71168 198.115261 
L 113.31072 198.196011 
L 113.90976 197.043041 
L 114.5088 196.69164 
L 115.10784 198.116946 
L 115.70688 198.829553 
L 116.30592 197.648782 
L 116.90496 196.949523 
L 117.504 197.761982 
L 118.10304 197.999629 
L 118.70208 197.084117 
L 119.30112 197.051274 
L 119.90016 198.172613 
L 120.4992 198.305555 
L 121.09824 197.084982 
L 121.69728 196.56494 
L 122.89536 198.241943 
L 123.4944 198.135408 
L 124.09344 197.857689 
L 124.69248 197.788143 
L 125.29152 197.604852 
L 126.4896 196.912783 
L 127.08864 196.436198 
L 127.68768 196.33287 
L 128.88576 197.600663 
L 129.4848 197.375278 
L 130.08384 196.818183 
L 130.68288 196.51764 
L 131.28192 196.404029 
L 131.88096 196.69354 
L 132.48 197.229443 
L 133.07904 196.763404 
L 133.67808 195.418939 
L 134.27712 195.312529 
L 134.87616 196.451291 
L 135.4752 196.284952 
L 136.07424 194.921617 
L 136.67328 195.117708 
L 137.27232 196.523231 
L 137.87136 196.325286 
L 138.4704 194.914427 
L 139.06944 194.684855 
L 139.66848 195.21245 
L 140.26752 194.843044 
L 140.86656 194.031035 
L 141.4656 193.654103 
L 142.06464 193.530288 
L 143.26272 193.91537 
L 143.86176 193.088159 
L 144.4608 191.988605 
L 145.05984 192.512404 
L 145.65888 193.5135 
L 146.25792 192.608503 
L 146.85696 191.148119 
L 148.05504 191.547217 
L 148.65408 190.080579 
L 149.25312 189.327394 
L 149.85216 190.817551 
L 150.4512 191.977817 
L 151.05024 191.006224 
L 151.64928 189.526847 
L 152.24832 188.990743 
L 153.4464 188.927387 
L 154.04544 188.592193 
L 154.64448 188.011385 
L 155.24352 187.848996 
L 155.84256 188.352762 
L 156.4416 188.682031 
L 157.04064 188.368806 
L 157.63968 187.890427 
L 158.23872 187.606866 
L 158.83776 187.57718 
L 159.4368 187.659274 
L 160.03584 187.321504 
L 160.63488 186.667827 
L 161.23392 186.658722 
L 161.83296 187.150363 
L 162.432 186.913089 
L 163.03104 185.746049 
L 164.22912 182.21571 
L 164.82816 181.301561 
L 165.4272 181.944494 
L 166.02624 181.966054 
L 166.62528 180.31521 
L 167.22432 179.488315 
L 167.82336 179.932409 
L 168.4224 179.020757 
L 169.02144 177.621858 
L 169.62048 178.26409 
L 170.21952 178.528064 
L 170.81856 176.247739 
L 171.4176 174.695773 
L 172.01664 174.558949 
L 172.61568 172.148471 
L 173.21472 169.274297 
L 174.4128 171.070504 
L 175.01184 167.96813 
L 175.61088 165.695341 
L 176.20992 166.715127 
L 176.80896 166.205702 
L 177.408 164.546494 
L 178.00704 165.910992 
L 178.60608 166.464548 
L 179.20512 162.836024 
L 179.80416 161.386273 
L 180.4032 164.005787 
L 181.00224 163.257763 
L 181.60128 159.465771 
L 182.20032 159.452252 
L 182.79936 159.650739 
L 183.99744 148.316472 
L 184.59648 147.067177 
L 185.19552 144.886077 
L 185.79456 141.028566 
L 186.3936 139.999237 
L 186.99264 136.972873 
L 188.19072 114.927746 
L 189.3888 104.46089 
L 189.98784 97.103673 
L 190.58688 93.409271 
L 191.18592 93.323687 
L 191.78496 91.285518 
L 192.384 87.809632 
L 192.98304 85.771235 
L 193.58208 84.385315 
L 194.18112 84.042782 
L 194.78016 85.383834 
L 195.3792 84.807701 
L 195.97824 81.345177 
L 196.57728 79.769584 
L 197.17632 81.109916 
L 197.77536 82.045822 
L 198.3744 82.640098 
L 198.97344 83.040458 
L 199.57248 80.684732 
L 200.17152 77.875739 
L 200.77056 78.555139 
L 201.3696 78.510258 
L 201.96864 74.949613 
L 202.56768 75.286688 
L 203.16672 81.068057 
L 203.76576 82.093796 
L 204.3648 77.27855 
L 204.96384 77.104775 
L 205.56288 81.99162 
L 206.16192 83.520037 
L 206.76096 82.171144 
L 207.36 82.392041 
L 207.95904 82.325669 
L 208.55808 81.894962 
L 209.75616 86.342615 
L 210.95424 82.285835 
L 211.55328 83.328891 
L 212.15232 84.088469 
L 212.75136 85.053933 
L 213.3504 87.474995 
L 213.94944 86.84117 
L 214.54848 83.925384 
L 215.14752 86.100348 
L 215.74656 90.334765 
L 216.3456 88.264359 
L 216.94464 85.26782 
L 218.14272 92.433213 
L 218.74176 90.146449 
L 219.3408 89.098467 
L 219.93984 91.169684 
L 220.53888 90.932451 
L 221.13792 90.893847 
L 221.73696 94.115717 
L 222.336 93.819554 
L 222.93504 88.205909 
L 223.53408 84.475666 
L 224.13312 81.449405 
L 225.3312 66.284563 
L 225.93024 65.790442 
L 226.52928 65.8444 
L 227.72736 59.352376 
L 228.3264 57.273381 
L 228.92544 54.406626 
L 229.52448 53.709312 
L 230.12352 55.201611 
L 230.72256 55.571225 
L 231.3216 57.121411 
L 231.92064 61.045171 
L 232.51968 61.491117 
L 233.11872 58.320555 
L 234.3168 56.767513 
L 234.91584 51.933865 
L 235.51488 49.151266 
L 236.11392 50.581268 
L 236.71296 48.642022 
L 237.312 44.212771 
L 237.91104 44.443438 
L 238.51008 45.286718 
L 239.10912 42.414545 
L 239.70816 43.679658 
L 240.3072 50.881558 
L 240.90624 54.248857 
L 241.50528 53.093301 
L 242.10432 53.442592 
L 242.70336 51.566237 
L 243.3024 45.791592 
L 243.90144 45.628405 
L 244.50048 51.437579 
L 245.09952 51.978505 
L 245.69856 48.062492 
L 246.2976 49.455187 
L 246.89664 53.642949 
L 247.49568 53.096062 
L 248.09472 50.771316 
L 248.69376 51.624359 
L 249.2928 53.908911 
L 249.89184 55.171074 
L 250.49088 54.696053 
L 251.08992 52.855743 
L 251.68896 53.057981 
L 252.288 56.123849 
L 252.88704 56.765227 
L 253.48608 54.604875 
L 254.08512 56.32178 
L 254.68416 61.019476 
L 255.2832 61.013874 
L 255.88224 57.627133 
L 256.48128 57.871538 
L 257.08032 60.763477 
L 257.67936 62.254306 
L 258.2784 64.049701 
L 258.87744 67.183315 
L 259.47648 68.128595 
L 260.07552 66.436728 
L 260.67456 66.037516 
L 261.2736 67.827363 
L 261.87264 68.92116 
L 262.47168 68.753092 
L 263.07072 69.789063 
L 263.66976 71.920476 
L 264.2688 71.922394 
L 264.86784 70.585476 
L 265.46688 72.919378 
L 266.06592 77.916485 
L 266.66496 78.945552 
L 267.264 76.939171 
L 267.86304 78.547583 
L 268.46208 81.761182 
L 269.06112 80.620216 
L 269.66016 78.726256 
L 270.85824 84.00719 
L 271.45728 84.391386 
L 272.05632 86.135234 
L 272.65536 88.70139 
L 273.2544 87.97694 
L 273.85344 86.531077 
L 275.05152 90.117428 
L 275.65056 90.044604 
L 276.84864 89.319259 
L 277.44768 89.530886 
L 278.04672 91.575444 
L 278.64576 92.846889 
L 279.2448 91.806703 
L 279.84384 93.56228 
L 280.44288 98.177625 
L 281.04192 97.317732 
L 281.64096 92.550335 
L 282.24 94.902912 
L 282.83904 101.619411 
L 283.43808 100.257988 
L 284.03712 93.582388 
L 284.63616 93.0475 
L 285.2352 96.555522 
L 285.83424 96.541543 
L 286.43328 96.187621 
L 287.03232 99.538264 
L 287.63136 101.603605 
L 288.2304 99.824086 
L 288.82944 99.767213 
L 289.42848 103.527746 
L 290.02752 105.923977 
L 290.62656 104.489054 
L 291.2256 102.622194 
L 291.82464 102.43916 
L 292.42368 102.778504 
L 293.02272 103.690918 
L 293.62176 105.7502 
L 294.2208 106.584066 
L 294.81984 105.106792 
L 295.41888 105.405332 
L 296.01792 109.033325 
L 296.61696 110.413728 
L 297.216 107.331267 
L 297.81504 105.726182 
L 298.41408 107.942691 
L 299.01312 108.865327 
L 299.61216 107.017732 
L 300.2112 106.523447 
L 301.40928 110.443314 
L 302.00832 111.441407 
L 302.60736 110.836492 
L 303.2064 109.466733 
L 303.80544 110.052701 
L 304.40448 111.942257 
L 305.00352 112.291201 
L 305.60256 113.028599 
L 306.2016 115.855443 
L 306.80064 116.239444 
L 307.39968 113.505435 
L 307.99872 114.006005 
L 308.59776 116.990602 
L 309.1968 115.874991 
L 309.79584 113.733098 
L 310.99392 118.713815 
L 311.59296 116.247352 
L 312.192 115.709116 
L 312.79104 119.065605 
L 313.39008 119.17333 
L 313.98912 116.245515 
L 314.58816 116.575333 
L 315.1872 118.422556 
L 315.78624 118.044753 
L 316.38528 118.822528 
L 316.98432 121.690645 
L 317.58336 121.603936 
L 318.1824 118.893355 
L 318.78144 118.80727 
L 319.38048 121.068112 
L 319.97952 122.213011 
L 320.57856 122.584056 
L 321.1776 123.383502 
L 321.77664 123.83231 
L 322.37568 123.998386 
L 323.57376 125.521223 
L 324.1728 125.589403 
L 325.37088 124.588129 
L 325.96992 125.168021 
L 326.56896 126.100652 
L 327.168 125.813352 
L 327.76704 125.159101 
L 328.36608 126.160375 
L 328.96512 127.880944 
L 329.56416 128.571578 
L 330.1632 129.065776 
L 330.76224 129.730167 
L 331.36128 129.084977 
L 331.96032 127.774332 
L 332.55936 128.047905 
L 333.1584 129.442756 
L 333.75744 129.850463 
L 334.35648 128.88124 
L 334.95552 127.691191 
L 335.55456 127.691396 
L 336.1536 129.018042 
L 336.75264 129.789567 
L 337.35168 129.537792 
L 337.95072 130.698854 
L 338.54976 133.362805 
L 339.1488 134.447853 
L 339.74784 133.828993 
L 340.34688 133.444768 
L 340.94592 132.400295 
L 341.54496 130.834076 
L 342.144 132.007773 
L 342.74304 135.057722 
L 343.34208 135.835657 
L 343.94112 135.647124 
L 345.1392 139.081797 
L 345.73824 138.972633 
L 346.33728 140.428057 
L 346.93632 142.274195 
L 347.53536 140.518239 
L 348.1344 138.255338 
L 348.73344 139.758818 
L 349.33248 141.629967 
L 349.93152 141.29204 
L 350.53056 142.260148 
L 351.1296 144.501452 
L 351.72864 143.951583 
L 352.32768 142.152705 
L 352.92672 142.878615 
L 353.52576 144.169626 
L 354.1248 143.850848 
L 354.72384 144.374759 
L 355.32288 146.594 
L 355.92192 147.960066 
L 357.12 147.837218 
L 357.71904 148.090185 
L 358.31808 148.566636 
L 358.91712 148.722017 
L 359.51616 147.669561 
L 360.1152 146.852607 
L 361.31328 149.740281 
L 361.91232 148.415546 
L 362.51136 146.681265 
L 363.1104 147.897196 
L 363.70944 150.360345 
L 364.30848 150.851059 
L 364.90752 149.593986 
L 365.50656 148.612014 
L 366.1056 148.852208 
L 366.70464 149.870187 
L 367.30368 150.552476 
L 367.90272 150.611027 
L 368.50176 150.989745 
L 369.69984 152.790495 
L 370.29888 153.655722 
L 370.89792 154.93057 
L 371.49696 155.635128 
L 372.69504 154.753503 
L 373.29408 155.58669 
L 373.89312 156.666247 
L 374.49216 156.535596 
L 375.0912 155.627047 
L 375.69024 155.831464 
L 376.28928 157.44822 
L 376.88832 158.310148 
L 377.48736 157.558495 
L 378.0864 157.363562 
L 378.68544 158.547334 
L 379.28448 158.881665 
L 379.88352 157.85683 
L 380.48256 157.710088 
L 382.87872 162.605484 
L 383.47776 161.91356 
L 384.0768 160.122957 
L 384.67584 159.590548 
L 385.27488 160.102236 
L 386.47296 160.422735 
L 387.072 161.035941 
L 387.67104 161.211215 
L 388.27008 161.568345 
L 388.86912 162.841485 
L 389.46816 163.304876 
L 390.0672 162.116787 
L 390.66624 161.307389 
L 391.26528 161.391828 
L 392.46336 159.905312 
L 393.0624 161.440391 
L 393.66144 163.995728 
L 394.26048 164.428072 
L 394.85952 163.155826 
L 395.45856 163.101354 
L 396.0576 164.592963 
L 396.65664 165.177116 
L 397.25568 164.236106 
L 397.85472 164.314999 
L 398.45376 166.394186 
L 399.0528 167.542695 
L 399.65184 166.185437 
L 400.25088 165.13755 
L 400.84992 166.03094 
L 401.44896 166.614113 
L 402.048 166.208434 
L 402.64704 166.768442 
L 403.24608 167.762895 
L 403.84512 167.446308 
L 404.44416 167.324086 
L 405.0432 168.682181 
L 405.64224 169.313182 
L 406.24128 168.489655 
L 406.84032 168.626482 
L 407.43936 169.935673 
L 408.0384 170.465812 
L 408.63744 170.433889 
L 409.23648 170.690196 
L 409.83552 170.637823 
L 410.43456 170.803747 
L 411.0336 171.930827 
L 411.63264 171.976606 
L 412.23168 170.046711 
L 412.83072 169.332086 
L 413.42976 171.108915 
L 414.0288 172.418632 
L 414.62784 172.399353 
L 415.82592 173.661292 
L 416.42496 172.944998 
L 417.024 172.557021 
L 417.024 172.557021 
" style="fill:none;stroke:#008000;stroke-linecap:square;stroke-width:1.5;"/>
   </g>
   <g id="patch_3">
    <path d="M 57.6 207.36 
L 57.6 34.56 
" style="fill:none;stroke:#000000;stroke-linecap:square;stroke-linejoin:miter;stroke-width:0.8;"/>
   </g>
   <g id="patch_4">
    <path d="M 417.024 207.36 
L 417.024 34.56 
" style="fill:none;stroke:#000000;stroke-linecap:square;stroke-linejoin:miter;stroke-width:0.8;"/>
   </g>
   <g id="patch_5">
    <path d="M 57.6 207.36 
L 417.024 207.36 
" style="fill:none;stroke:#000000;stroke-linecap:square;stroke-linejoin:miter;stroke-width:0.8;"/>
   </g>
   <g id="patch_6">
    <path d="M 57.6 34.56 
L 417.024 34.56 
" style="fill:none;stroke:#000000;stroke-linecap:square;stroke-linejoin:miter;stroke-width:0.8;"/>
   </g>
  </g>
  <g id="axes_2">
   <g id="patch_7">
    <path d="M 57.6 302.4 
L 417.024 302.4 
L 417.024 233.28 
L 57.6 233.28 
z
" style="fill:#ffffff;"/>
   </g>
   <g id="matplotlib.axis_3">
    <g id="xtick_8">
     <g id="line2d_26">
      <g>
       <use style="stroke:#000000;stroke-width:0.8;" x="57.6" xlink:href="#m22519cdc11" y="302.4"/>
      </g>
     </g>
     <g id="text_7">
      <!-- 79 -->
      <defs>
       <path d="M 8.203125 72.90625 
L 55.078125 72.90625 
L 55.078125 68.703125 
L 28.609375 0 
L 18.3125 0 
L 43.21875 64.59375 
L 8.203125 64.59375 
z
" id="DejaVuSans-37"/>
       <path d="M 10.984375 1.515625 
L 10.984375 10.5 
Q 14.703125 8.734375 18.5 7.8125 
Q 22.3125 6.890625 25.984375 6.890625 
Q 35.75 6.890625 40.890625 13.453125 
Q 46.046875 20.015625 46.78125 33.40625 
Q 43.953125 29.203125 39.59375 26.953125 
Q 35.25 24.703125 29.984375 24.703125 
Q 19.046875 24.703125 12.671875 31.3125 
Q 6.296875 37.9375 6.296875 49.421875 
Q 6.296875 60.640625 12.9375 67.421875 
Q 19.578125 74.21875 30.609375 74.21875 
Q 43.265625 74.21875 49.921875 64.515625 
Q 56.59375 54.828125 56.59375 36.375 
Q 56.59375 19.140625 48.40625 8.859375 
Q 40.234375 -1.421875 26.421875 -1.421875 
Q 22.703125 -1.421875 18.890625 -0.6875 
Q 15.09375 0.046875 10.984375 1.515625 
z
M 30.609375 32.421875 
Q 37.25 32.421875 41.125 36.953125 
Q 45.015625 41.5 45.015625 49.421875 
Q 45.015625 57.28125 41.125 61.84375 
Q 37.25 66.40625 30.609375 66.40625 
Q 23.96875 66.40625 20.09375 61.84375 
Q 16.21875 57.28125 16.21875 49.421875 
Q 16.21875 41.5 20.09375 36.953125 
Q 23.96875 32.421875 30.609375 32.421875 
z
" id="DejaVuSans-39"/>
      </defs>
      <g transform="translate(49.965 318.518125)scale(0.12 -0.12)">
       <use xlink:href="#DejaVuSans-37"/>
       <use x="63.623047" xlink:href="#DejaVuSans-39"/>
      </g>
     </g>
    </g>
    <g id="xtick_9">
     <g id="line2d_27">
      <g>
       <use style="stroke:#000000;stroke-width:0.8;" x="117.504" xlink:href="#m22519cdc11" y="302.4"/>
      </g>
     </g>
     <g id="text_8">
      <!-- 80 -->
      <defs>
       <path d="M 31.78125 34.625 
Q 24.75 34.625 20.71875 30.859375 
Q 16.703125 27.09375 16.703125 20.515625 
Q 16.703125 13.921875 20.71875 10.15625 
Q 24.75 6.390625 31.78125 6.390625 
Q 38.8125 6.390625 42.859375 10.171875 
Q 46.921875 13.96875 46.921875 20.515625 
Q 46.921875 27.09375 42.890625 30.859375 
Q 38.875 34.625 31.78125 34.625 
z
M 21.921875 38.8125 
Q 15.578125 40.375 12.03125 44.71875 
Q 8.5 49.078125 8.5 55.328125 
Q 8.5 64.0625 14.71875 69.140625 
Q 20.953125 74.21875 31.78125 74.21875 
Q 42.671875 74.21875 48.875 69.140625 
Q 55.078125 64.0625 55.078125 55.328125 
Q 55.078125 49.078125 51.53125 44.71875 
Q 48 40.375 41.703125 38.8125 
Q 48.828125 37.15625 52.796875 32.3125 
Q 56.78125 27.484375 56.78125 20.515625 
Q 56.78125 9.90625 50.3125 4.234375 
Q 43.84375 -1.421875 31.78125 -1.421875 
Q 19.734375 -1.421875 13.25 4.234375 
Q 6.78125 9.90625 6.78125 20.515625 
Q 6.78125 27.484375 10.78125 32.3125 
Q 14.796875 37.15625 21.921875 38.8125 
z
M 18.3125 54.390625 
Q 18.3125 48.734375 21.84375 45.5625 
Q 25.390625 42.390625 31.78125 42.390625 
Q 38.140625 42.390625 41.71875 45.5625 
Q 45.3125 48.734375 45.3125 54.390625 
Q 45.3125 60.0625 41.71875 63.234375 
Q 38.140625 66.40625 31.78125 66.40625 
Q 25.390625 66.40625 21.84375 63.234375 
Q 18.3125 60.0625 18.3125 54.390625 
z
" id="DejaVuSans-38"/>
      </defs>
      <g transform="translate(109.869 318.518125)scale(0.12 -0.12)">
       <use xlink:href="#DejaVuSans-38"/>
       <use x="63.623047" xlink:href="#DejaVuSans-30"/>
      </g>
     </g>
    </g>
    <g id="xtick_10">
     <g id="line2d_28">
      <g>
       <use style="stroke:#000000;stroke-width:0.8;" x="177.408" xlink:href="#m22519cdc11" y="302.4"/>
      </g>
     </g>
     <g id="text_9">
      <!-- 81 -->
      <g transform="translate(169.773 318.518125)scale(0.12 -0.12)">
       <use xlink:href="#DejaVuSans-38"/>
       <use x="63.623047" xlink:href="#DejaVuSans-31"/>
      </g>
     </g>
    </g>
    <g id="xtick_11">
     <g id="line2d_29">
      <g>
       <use style="stroke:#000000;stroke-width:0.8;" x="237.312" xlink:href="#m22519cdc11" y="302.4"/>
      </g>
     </g>
     <g id="text_10">
      <!-- 82 -->
      <g transform="translate(229.677 318.518125)scale(0.12 -0.12)">
       <use xlink:href="#DejaVuSans-38"/>
       <use x="63.623047" xlink:href="#DejaVuSans-32"/>
      </g>
     </g>
    </g>
    <g id="xtick_12">
     <g id="line2d_30">
      <g>
       <use style="stroke:#000000;stroke-width:0.8;" x="297.216" xlink:href="#m22519cdc11" y="302.4"/>
      </g>
     </g>
     <g id="text_11">
      <!-- 83 -->
      <defs>
       <path d="M 40.578125 39.3125 
Q 47.65625 37.796875 51.625 33 
Q 55.609375 28.21875 55.609375 21.1875 
Q 55.609375 10.40625 48.1875 4.484375 
Q 40.765625 -1.421875 27.09375 -1.421875 
Q 22.515625 -1.421875 17.65625 -0.515625 
Q 12.796875 0.390625 7.625 2.203125 
L 7.625 11.71875 
Q 11.71875 9.328125 16.59375 8.109375 
Q 21.484375 6.890625 26.8125 6.890625 
Q 36.078125 6.890625 40.9375 10.546875 
Q 45.796875 14.203125 45.796875 21.1875 
Q 45.796875 27.640625 41.28125 31.265625 
Q 36.765625 34.90625 28.71875 34.90625 
L 20.21875 34.90625 
L 20.21875 43.015625 
L 29.109375 43.015625 
Q 36.375 43.015625 40.234375 45.921875 
Q 44.09375 48.828125 44.09375 54.296875 
Q 44.09375 59.90625 40.109375 62.90625 
Q 36.140625 65.921875 28.71875 65.921875 
Q 24.65625 65.921875 20.015625 65.03125 
Q 15.375 64.15625 9.8125 62.3125 
L 9.8125 71.09375 
Q 15.4375 72.65625 20.34375 73.4375 
Q 25.25 74.21875 29.59375 74.21875 
Q 40.828125 74.21875 47.359375 69.109375 
Q 53.90625 64.015625 53.90625 55.328125 
Q 53.90625 49.265625 50.4375 45.09375 
Q 46.96875 40.921875 40.578125 39.3125 
z
" id="DejaVuSans-33"/>
      </defs>
      <g transform="translate(289.581 318.518125)scale(0.12 -0.12)">
       <use xlink:href="#DejaVuSans-38"/>
       <use x="63.623047" xlink:href="#DejaVuSans-33"/>
      </g>
     </g>
    </g>
    <g id="xtick_13">
     <g id="line2d_31">
      <g>
       <use style="stroke:#000000;stroke-width:0.8;" x="357.12" xlink:href="#m22519cdc11" y="302.4"/>
      </g>
     </g>
     <g id="text_12">
      <!-- 84 -->
      <defs>
       <path d="M 37.796875 64.3125 
L 12.890625 25.390625 
L 37.796875 25.390625 
z
M 35.203125 72.90625 
L 47.609375 72.90625 
L 47.609375 25.390625 
L 58.015625 25.390625 
L 58.015625 17.1875 
L 47.609375 17.1875 
L 47.609375 0 
L 37.796875 0 
L 37.796875 17.1875 
L 4.890625 17.1875 
L 4.890625 26.703125 
z
" id="DejaVuSans-34"/>
      </defs>
      <g transform="translate(349.485 318.518125)scale(0.12 -0.12)">
       <use xlink:href="#DejaVuSans-38"/>
       <use x="63.623047" xlink:href="#DejaVuSans-34"/>
      </g>
     </g>
    </g>
    <g id="xtick_14">
     <g id="line2d_32">
      <g>
       <use style="stroke:#000000;stroke-width:0.8;" x="417.024" xlink:href="#m22519cdc11" y="302.4"/>
      </g>
     </g>
     <g id="text_13">
      <!-- 85 -->
      <g transform="translate(409.389 318.518125)scale(0.12 -0.12)">
       <use xlink:href="#DejaVuSans-38"/>
       <use x="63.623047" xlink:href="#DejaVuSans-35"/>
      </g>
     </g>
    </g>
    <g id="text_14">
     <!-- Time (s) -->
     <defs>
      <path d="M -0.296875 72.90625 
L 61.375 72.90625 
L 61.375 64.59375 
L 35.5 64.59375 
L 35.5 0 
L 25.59375 0 
L 25.59375 64.59375 
L -0.296875 64.59375 
z
" id="DejaVuSans-54"/>
      <path d="M 9.421875 54.6875 
L 18.40625 54.6875 
L 18.40625 0 
L 9.421875 0 
z
M 9.421875 75.984375 
L 18.40625 75.984375 
L 18.40625 64.59375 
L 9.421875 64.59375 
z
" id="DejaVuSans-69"/>
      <path d="M 52 44.1875 
Q 55.375 50.25 60.0625 53.125 
Q 64.75 56 71.09375 56 
Q 79.640625 56 84.28125 50.015625 
Q 88.921875 44.046875 88.921875 33.015625 
L 88.921875 0 
L 79.890625 0 
L 79.890625 32.71875 
Q 79.890625 40.578125 77.09375 44.375 
Q 74.3125 48.1875 68.609375 48.1875 
Q 61.625 48.1875 57.5625 43.546875 
Q 53.515625 38.921875 53.515625 30.90625 
L 53.515625 0 
L 44.484375 0 
L 44.484375 32.71875 
Q 44.484375 40.625 41.703125 44.40625 
Q 38.921875 48.1875 33.109375 48.1875 
Q 26.21875 48.1875 22.15625 43.53125 
Q 18.109375 38.875 18.109375 30.90625 
L 18.109375 0 
L 9.078125 0 
L 9.078125 54.6875 
L 18.109375 54.6875 
L 18.109375 46.1875 
Q 21.1875 51.21875 25.484375 53.609375 
Q 29.78125 56 35.6875 56 
Q 41.65625 56 45.828125 52.96875 
Q 50 49.953125 52 44.1875 
z
" id="DejaVuSans-6d"/>
      <path d="M 56.203125 29.59375 
L 56.203125 25.203125 
L 14.890625 25.203125 
Q 15.484375 15.921875 20.484375 11.0625 
Q 25.484375 6.203125 34.421875 6.203125 
Q 39.59375 6.203125 44.453125 7.46875 
Q 49.3125 8.734375 54.109375 11.28125 
L 54.109375 2.78125 
Q 49.265625 0.734375 44.1875 -0.34375 
Q 39.109375 -1.421875 33.890625 -1.421875 
Q 20.796875 -1.421875 13.15625 6.1875 
Q 5.515625 13.8125 5.515625 26.8125 
Q 5.515625 40.234375 12.765625 48.109375 
Q 20.015625 56 32.328125 56 
Q 43.359375 56 49.78125 48.890625 
Q 56.203125 41.796875 56.203125 29.59375 
z
M 47.21875 32.234375 
Q 47.125 39.59375 43.09375 43.984375 
Q 39.0625 48.390625 32.421875 48.390625 
Q 24.90625 48.390625 20.390625 44.140625 
Q 15.875 39.890625 15.1875 32.171875 
z
" id="DejaVuSans-65"/>
      <path id="DejaVuSans-20"/>
      <path d="M 31 75.875 
Q 24.46875 64.65625 21.28125 53.65625 
Q 18.109375 42.671875 18.109375 31.390625 
Q 18.109375 20.125 21.3125 9.0625 
Q 24.515625 -2 31 -13.1875 
L 23.1875 -13.1875 
Q 15.875 -1.703125 12.234375 9.375 
Q 8.59375 20.453125 8.59375 31.390625 
Q 8.59375 42.28125 12.203125 53.3125 
Q 15.828125 64.359375 23.1875 75.875 
z
" id="DejaVuSans-28"/>
      <path d="M 44.28125 53.078125 
L 44.28125 44.578125 
Q 40.484375 46.53125 36.375 47.5 
Q 32.28125 48.484375 27.875 48.484375 
Q 21.1875 48.484375 17.84375 46.4375 
Q 14.5 44.390625 14.5 40.28125 
Q 14.5 37.15625 16.890625 35.375 
Q 19.28125 33.59375 26.515625 31.984375 
L 29.59375 31.296875 
Q 39.15625 29.25 43.1875 25.515625 
Q 47.21875 21.78125 47.21875 15.09375 
Q 47.21875 7.46875 41.1875 3.015625 
Q 35.15625 -1.421875 24.609375 -1.421875 
Q 20.21875 -1.421875 15.453125 -0.5625 
Q 10.6875 0.296875 5.421875 2 
L 5.421875 11.28125 
Q 10.40625 8.6875 15.234375 7.390625 
Q 20.0625 6.109375 24.8125 6.109375 
Q 31.15625 6.109375 34.5625 8.28125 
Q 37.984375 10.453125 37.984375 14.40625 
Q 37.984375 18.0625 35.515625 20.015625 
Q 33.0625 21.96875 24.703125 23.78125 
L 21.578125 24.515625 
Q 13.234375 26.265625 9.515625 29.90625 
Q 5.8125 33.546875 5.8125 39.890625 
Q 5.8125 47.609375 11.28125 51.796875 
Q 16.75 56 26.8125 56 
Q 31.78125 56 36.171875 55.265625 
Q 40.578125 54.546875 44.28125 53.078125 
z
" id="DejaVuSans-73"/>
      <path d="M 8.015625 75.875 
L 15.828125 75.875 
Q 23.140625 64.359375 26.78125 53.3125 
Q 30.421875 42.28125 30.421875 31.390625 
Q 30.421875 20.453125 26.78125 9.375 
Q 23.140625 -1.703125 15.828125 -13.1875 
L 8.015625 -13.1875 
Q 14.5 -2 17.703125 9.0625 
Q 20.90625 20.125 20.90625 31.390625 
Q 20.90625 42.671875 17.703125 53.65625 
Q 14.5 64.65625 8.015625 75.875 
z
" id="DejaVuSans-29"/>
     </defs>
     <g transform="translate(212.732625 334.131875)scale(0.12 -0.12)">
      <use xlink:href="#DejaVuSans-54"/>
      <use x="61.037109" xlink:href="#DejaVuSans-69"/>
      <use x="88.820312" xlink:href="#DejaVuSans-6d"/>
      <use x="186.232422" xlink:href="#DejaVuSans-65"/>
      <use x="247.755859" xlink:href="#DejaVuSans-20"/>
      <use x="279.542969" xlink:href="#DejaVuSans-28"/>
      <use x="318.556641" xlink:href="#DejaVuSans-73"/>
      <use x="370.65625" xlink:href="#DejaVuSans-29"/>
     </g>
    </g>
   </g>
   <g id="matplotlib.axis_4">
    <g id="ytick_6">
     <g id="line2d_33">
      <g>
       <use style="stroke:#000000;stroke-width:0.8;" x="57.6" xlink:href="#m3eddb2b9e5" y="302.4"/>
      </g>
     </g>
     <g id="text_15">
      <!-- 0.0 -->
      <g transform="translate(31.51625 306.959062)scale(0.12 -0.12)">
       <use xlink:href="#DejaVuSans-30"/>
       <use x="63.623047" xlink:href="#DejaVuSans-2e"/>
       <use x="95.410156" xlink:href="#DejaVuSans-30"/>
      </g>
     </g>
    </g>
    <g id="ytick_7">
     <g id="line2d_34">
      <g>
       <use style="stroke:#000000;stroke-width:0.8;" x="57.6" xlink:href="#m3eddb2b9e5" y="267.84"/>
      </g>
     </g>
     <g id="text_16">
      <!-- 0.5 -->
      <g transform="translate(31.51625 272.399062)scale(0.12 -0.12)">
       <use xlink:href="#DejaVuSans-30"/>
       <use x="63.623047" xlink:href="#DejaVuSans-2e"/>
       <use x="95.410156" xlink:href="#DejaVuSans-35"/>
      </g>
     </g>
    </g>
    <g id="ytick_8">
     <g id="line2d_35">
      <g>
       <use style="stroke:#000000;stroke-width:0.8;" x="57.6" xlink:href="#m3eddb2b9e5" y="233.28"/>
      </g>
     </g>
     <g id="text_17">
      <!-- 1.0 -->
      <g transform="translate(31.51625 237.839062)scale(0.12 -0.12)">
       <use xlink:href="#DejaVuSans-31"/>
       <use x="63.623047" xlink:href="#DejaVuSans-2e"/>
       <use x="95.410156" xlink:href="#DejaVuSans-30"/>
      </g>
     </g>
    </g>
    <g id="text_18">
     <!-- Number of Spikes -->
     <defs>
      <path d="M 9.8125 72.90625 
L 23.09375 72.90625 
L 55.421875 11.921875 
L 55.421875 72.90625 
L 64.984375 72.90625 
L 64.984375 0 
L 51.703125 0 
L 19.390625 60.984375 
L 19.390625 0 
L 9.8125 0 
z
" id="DejaVuSans-4e"/>
      <path d="M 8.5 21.578125 
L 8.5 54.6875 
L 17.484375 54.6875 
L 17.484375 21.921875 
Q 17.484375 14.15625 20.5 10.265625 
Q 23.53125 6.390625 29.59375 6.390625 
Q 36.859375 6.390625 41.078125 11.03125 
Q 45.3125 15.671875 45.3125 23.6875 
L 45.3125 54.6875 
L 54.296875 54.6875 
L 54.296875 0 
L 45.3125 0 
L 45.3125 8.40625 
Q 42.046875 3.421875 37.71875 1 
Q 33.40625 -1.421875 27.6875 -1.421875 
Q 18.265625 -1.421875 13.375 4.4375 
Q 8.5 10.296875 8.5 21.578125 
z
M 31.109375 56 
z
" id="DejaVuSans-75"/>
      <path d="M 48.6875 27.296875 
Q 48.6875 37.203125 44.609375 42.84375 
Q 40.53125 48.484375 33.40625 48.484375 
Q 26.265625 48.484375 22.1875 42.84375 
Q 18.109375 37.203125 18.109375 27.296875 
Q 18.109375 17.390625 22.1875 11.75 
Q 26.265625 6.109375 33.40625 6.109375 
Q 40.53125 6.109375 44.609375 11.75 
Q 48.6875 17.390625 48.6875 27.296875 
z
M 18.109375 46.390625 
Q 20.953125 51.265625 25.265625 53.625 
Q 29.59375 56 35.59375 56 
Q 45.5625 56 51.78125 48.09375 
Q 58.015625 40.1875 58.015625 27.296875 
Q 58.015625 14.40625 51.78125 6.484375 
Q 45.5625 -1.421875 35.59375 -1.421875 
Q 29.59375 -1.421875 25.265625 0.953125 
Q 20.953125 3.328125 18.109375 8.203125 
L 18.109375 0 
L 9.078125 0 
L 9.078125 75.984375 
L 18.109375 75.984375 
z
" id="DejaVuSans-62"/>
      <path d="M 41.109375 46.296875 
Q 39.59375 47.171875 37.8125 47.578125 
Q 36.03125 48 33.890625 48 
Q 26.265625 48 22.1875 43.046875 
Q 18.109375 38.09375 18.109375 28.8125 
L 18.109375 0 
L 9.078125 0 
L 9.078125 54.6875 
L 18.109375 54.6875 
L 18.109375 46.1875 
Q 20.953125 51.171875 25.484375 53.578125 
Q 30.03125 56 36.53125 56 
Q 37.453125 56 38.578125 55.875 
Q 39.703125 55.765625 41.0625 55.515625 
z
" id="DejaVuSans-72"/>
      <path d="M 30.609375 48.390625 
Q 23.390625 48.390625 19.1875 42.75 
Q 14.984375 37.109375 14.984375 27.296875 
Q 14.984375 17.484375 19.15625 11.84375 
Q 23.34375 6.203125 30.609375 6.203125 
Q 37.796875 6.203125 41.984375 11.859375 
Q 46.1875 17.53125 46.1875 27.296875 
Q 46.1875 37.015625 41.984375 42.703125 
Q 37.796875 48.390625 30.609375 48.390625 
z
M 30.609375 56 
Q 42.328125 56 49.015625 48.375 
Q 55.71875 40.765625 55.71875 27.296875 
Q 55.71875 13.875 49.015625 6.21875 
Q 42.328125 -1.421875 30.609375 -1.421875 
Q 18.84375 -1.421875 12.171875 6.21875 
Q 5.515625 13.875 5.515625 27.296875 
Q 5.515625 40.765625 12.171875 48.375 
Q 18.84375 56 30.609375 56 
z
" id="DejaVuSans-6f"/>
      <path d="M 37.109375 75.984375 
L 37.109375 68.5 
L 28.515625 68.5 
Q 23.6875 68.5 21.796875 66.546875 
Q 19.921875 64.59375 19.921875 59.515625 
L 19.921875 54.6875 
L 34.71875 54.6875 
L 34.71875 47.703125 
L 19.921875 47.703125 
L 19.921875 0 
L 10.890625 0 
L 10.890625 47.703125 
L 2.296875 47.703125 
L 2.296875 54.6875 
L 10.890625 54.6875 
L 10.890625 58.5 
Q 10.890625 67.625 15.140625 71.796875 
Q 19.390625 75.984375 28.609375 75.984375 
z
" id="DejaVuSans-66"/>
      <path d="M 53.515625 70.515625 
L 53.515625 60.890625 
Q 47.90625 63.578125 42.921875 64.890625 
Q 37.9375 66.21875 33.296875 66.21875 
Q 25.25 66.21875 20.875 63.09375 
Q 16.5 59.96875 16.5 54.203125 
Q 16.5 49.359375 19.40625 46.890625 
Q 22.3125 44.4375 30.421875 42.921875 
L 36.375 41.703125 
Q 47.40625 39.59375 52.65625 34.296875 
Q 57.90625 29 57.90625 20.125 
Q 57.90625 9.515625 50.796875 4.046875 
Q 43.703125 -1.421875 29.984375 -1.421875 
Q 24.8125 -1.421875 18.96875 -0.25 
Q 13.140625 0.921875 6.890625 3.21875 
L 6.890625 13.375 
Q 12.890625 10.015625 18.65625 8.296875 
Q 24.421875 6.59375 29.984375 6.59375 
Q 38.421875 6.59375 43.015625 9.90625 
Q 47.609375 13.234375 47.609375 19.390625 
Q 47.609375 24.75 44.3125 27.78125 
Q 41.015625 30.8125 33.5 32.328125 
L 27.484375 33.5 
Q 16.453125 35.6875 11.515625 40.375 
Q 6.59375 45.0625 6.59375 53.421875 
Q 6.59375 63.09375 13.40625 68.65625 
Q 20.21875 74.21875 32.171875 74.21875 
Q 37.3125 74.21875 42.625 73.28125 
Q 47.953125 72.359375 53.515625 70.515625 
z
" id="DejaVuSans-53"/>
      <path d="M 18.109375 8.203125 
L 18.109375 -20.796875 
L 9.078125 -20.796875 
L 9.078125 54.6875 
L 18.109375 54.6875 
L 18.109375 46.390625 
Q 20.953125 51.265625 25.265625 53.625 
Q 29.59375 56 35.59375 56 
Q 45.5625 56 51.78125 48.09375 
Q 58.015625 40.1875 58.015625 27.296875 
Q 58.015625 14.40625 51.78125 6.484375 
Q 45.5625 -1.421875 35.59375 -1.421875 
Q 29.59375 -1.421875 25.265625 0.953125 
Q 20.953125 3.328125 18.109375 8.203125 
z
M 48.6875 27.296875 
Q 48.6875 37.203125 44.609375 42.84375 
Q 40.53125 48.484375 33.40625 48.484375 
Q 26.265625 48.484375 22.1875 42.84375 
Q 18.109375 37.203125 18.109375 27.296875 
Q 18.109375 17.390625 22.1875 11.75 
Q 26.265625 6.109375 33.40625 6.109375 
Q 40.53125 6.109375 44.609375 11.75 
Q 48.6875 17.390625 48.6875 27.296875 
z
" id="DejaVuSans-70"/>
      <path d="M 9.078125 75.984375 
L 18.109375 75.984375 
L 18.109375 31.109375 
L 44.921875 54.6875 
L 56.390625 54.6875 
L 27.390625 29.109375 
L 57.625 0 
L 45.90625 0 
L 18.109375 26.703125 
L 18.109375 0 
L 9.078125 0 
z
" id="DejaVuSans-6b"/>
     </defs>
     <g transform="translate(25.020625 321.114375)rotate(-90)scale(0.12 -0.12)">
      <use xlink:href="#DejaVuSans-4e"/>
      <use x="74.804688" xlink:href="#DejaVuSans-75"/>
      <use x="138.183594" xlink:href="#DejaVuSans-6d"/>
      <use x="235.595703" xlink:href="#DejaVuSans-62"/>
      <use x="299.072266" xlink:href="#DejaVuSans-65"/>
      <use x="360.595703" xlink:href="#DejaVuSans-72"/>
      <use x="401.708984" xlink:href="#DejaVuSans-20"/>
      <use x="433.496094" xlink:href="#DejaVuSans-6f"/>
      <use x="494.677734" xlink:href="#DejaVuSans-66"/>
      <use x="529.882812" xlink:href="#DejaVuSans-20"/>
      <use x="561.669922" xlink:href="#DejaVuSans-53"/>
      <use x="625.146484" xlink:href="#DejaVuSans-70"/>
      <use x="688.623047" xlink:href="#DejaVuSans-69"/>
      <use x="716.40625" xlink:href="#DejaVuSans-6b"/>
      <use x="774.269531" xlink:href="#DejaVuSans-65"/>
      <use x="835.792969" xlink:href="#DejaVuSans-73"/>
     </g>
    </g>
   </g>
   <g id="LineCollection_1">
    <path clip-path="url(#p480bb09295)" d="M 163.03104 302.4 
L 163.03104 233.28 
" style="fill:none;stroke:#0000ff;stroke-width:1.5;"/>
    <path clip-path="url(#p480bb09295)" d="M 171.4176 302.4 
L 171.4176 233.28 
" style="fill:none;stroke:#0000ff;stroke-width:1.5;"/>
    <path clip-path="url(#p480bb09295)" d="M 181.60128 302.4 
L 181.60128 233.28 
" style="fill:none;stroke:#0000ff;stroke-width:1.5;"/>
    <path clip-path="url(#p480bb09295)" d="M 182.79936 302.4 
L 182.79936 233.28 
" style="fill:none;stroke:#0000ff;stroke-width:1.5;"/>
    <path clip-path="url(#p480bb09295)" d="M 186.3936 302.4 
L 186.3936 233.28 
" style="fill:none;stroke:#0000ff;stroke-width:1.5;"/>
    <path clip-path="url(#p480bb09295)" d="M 187.59168 302.4 
L 187.59168 233.28 
" style="fill:none;stroke:#0000ff;stroke-width:1.5;"/>
    <path clip-path="url(#p480bb09295)" d="M 223.53408 302.4 
L 223.53408 233.28 
" style="fill:none;stroke:#0000ff;stroke-width:1.5;"/>
    <path clip-path="url(#p480bb09295)" d="M 224.13312 302.4 
L 224.13312 233.28 
" style="fill:none;stroke:#0000ff;stroke-width:1.5;"/>
    <path clip-path="url(#p480bb09295)" d="M 234.91584 302.4 
L 234.91584 233.28 
" style="fill:none;stroke:#0000ff;stroke-width:1.5;"/>
   </g>
   <g id="patch_8">
    <path d="M 57.6 302.4 
L 57.6 233.28 
" style="fill:none;stroke:#000000;stroke-linecap:square;stroke-linejoin:miter;stroke-width:0.8;"/>
   </g>
   <g id="patch_9">
    <path d="M 417.024 302.4 
L 417.024 233.28 
" style="fill:none;stroke:#000000;stroke-linecap:square;stroke-linejoin:miter;stroke-width:0.8;"/>
   </g>
   <g id="patch_10">
    <path d="M 57.6 302.4 
L 417.024 302.4 
" style="fill:none;stroke:#000000;stroke-linecap:square;stroke-linejoin:miter;stroke-width:0.8;"/>
   </g>
   <g id="patch_11">
    <path d="M 57.6 233.28 
L 417.024 233.28 
" style="fill:none;stroke:#000000;stroke-linecap:square;stroke-linejoin:miter;stroke-width:0.8;"/>
   </g>
  </g>
 </g>
 <defs>
  <clipPath id="pa22013155f">
   <rect height="172.8" width="359.424" x="57.6" y="34.56"/>
  </clipPath>
  <clipPath id="p480bb09295">
   <rect height="69.12" width="359.424" x="57.6" y="233.28"/>
  </clipPath>
 </defs>
</svg>
