<?xml version="1.0" encoding="utf-8" standalone="no"?>
<!DOCTYPE svg PUBLIC "-//W3C//DTD SVG 1.1//EN"
  "http://www.w3.org/Graphics/SVG/1.1/DTD/svg11.dtd">
<!-- Created with matplotlib (http://matplotlib.org/) -->
<svg height="288pt" version="1.1" viewBox="0 0 360 288" width="360pt" xmlns="http://www.w3.org/2000/svg" xmlns:xlink="http://www.w3.org/1999/xlink">
 <defs>
  <style type="text/css">
*{stroke-linecap:butt;stroke-linejoin:round;}
  </style>
 </defs>
 <g id="figure_1">
  <g id="patch_1">
   <path d="M 0 288 
L 360 288 
L 360 0 
L 0 0 
z
" style="fill:#ffffff;"/>
  </g>
  <g id="axes_1">
   <g id="patch_2">
    <path d="M 53.75 235.888 
L 346.68 235.888 
L 346.68 15.84 
L 53.75 15.84 
z
" style="fill:#ffffff;"/>
   </g>
   <g id="PathCollection_1">
    <defs>
     <path d="M 0 3 
C 0.795609 3 1.55874 2.683901 2.12132 2.12132 
C 2.683901 1.55874 3 0.795609 3 0 
C 3 -0.795609 2.683901 -1.55874 2.12132 -2.12132 
C 1.55874 -2.683901 0.795609 -3 0 -3 
C -0.795609 -3 -1.55874 -2.683901 -2.12132 -2.12132 
C -2.683901 -1.55874 -3 -0.795609 -3 0 
C -3 0.795609 -2.683901 1.55874 -2.12132 2.12132 
C -1.55874 2.683901 -0.795609 3 0 3 
z
" id="m3662d8feb8" style="stroke:#1f77b4;"/>
    </defs>
    <g clip-path="url(#p6b7412ff86)">
     <use style="fill:#1f77b4;stroke:#1f77b4;" x="78.01378" xlink:href="#m3662d8feb8" y="217.824358"/>
     <use style="fill:#1f77b4;stroke:#1f77b4;" x="76.978425" xlink:href="#m3662d8feb8" y="228.944738"/>
     <use style="fill:#1f77b4;stroke:#1f77b4;" x="78.852244" xlink:href="#m3662d8feb8" y="139.617"/>
     <use style="fill:#1f77b4;stroke:#1f77b4;" x="78.591896" xlink:href="#m3662d8feb8" y="156.785778"/>
     <use style="fill:#1f77b4;stroke:#1f77b4;" x="79.279182" xlink:href="#m3662d8feb8" y="135.032667"/>
     <use style="fill:#1f77b4;stroke:#1f77b4;" x="79.077409" xlink:href="#m3662d8feb8" y="128.759368"/>
     <use style="fill:#1f77b4;stroke:#1f77b4;" x="76.757554" xlink:href="#m3662d8feb8" y="135.728221"/>
     <use style="fill:#1f77b4;stroke:#1f77b4;" x="77.60463" xlink:href="#m3662d8feb8" y="188.674636"/>
     <use style="fill:#1f77b4;stroke:#1f77b4;" x="79.492931" xlink:href="#m3662d8feb8" y="176.458978"/>
     <use style="fill:#1f77b4;stroke:#1f77b4;" x="78.869058" xlink:href="#m3662d8feb8" y="201.61823"/>
     <use style="fill:#1f77b4;stroke:#1f77b4;" x="77.198508" xlink:href="#m3662d8feb8" y="121.789037"/>
     <use style="fill:#1f77b4;stroke:#1f77b4;" x="78.473146" xlink:href="#m3662d8feb8" y="151.254154"/>
     <use style="fill:#1f77b4;stroke:#1f77b4;" x="79.425185" xlink:href="#m3662d8feb8" y="151.97139"/>
     <use style="fill:#1f77b4;stroke:#1f77b4;" x="76.933496" xlink:href="#m3662d8feb8" y="147.362943"/>
     <use style="fill:#1f77b4;stroke:#1f77b4;" x="77.931107" xlink:href="#m3662d8feb8" y="177.43775"/>
     <use style="fill:#1f77b4;stroke:#1f77b4;" x="77.824766" xlink:href="#m3662d8feb8" y="146.754633"/>
     <use style="fill:#1f77b4;stroke:#1f77b4;" x="77.375452" xlink:href="#m3662d8feb8" y="171.512255"/>
     <use style="fill:#1f77b4;stroke:#1f77b4;" x="78.618517" xlink:href="#m3662d8feb8" y="119.576914"/>
     <use style="fill:#1f77b4;stroke:#1f77b4;" x="79.028639" xlink:href="#m3662d8feb8" y="162.538667"/>
     <use style="fill:#1f77b4;stroke:#1f77b4;" x="80.569982" xlink:href="#m3662d8feb8" y="164.133217"/>
     <use style="fill:#1f77b4;stroke:#1f77b4;" x="77.108218" xlink:href="#m3662d8feb8" y="177.64"/>
     <use style="fill:#1f77b4;stroke:#1f77b4;" x="127.85047" xlink:href="#m3662d8feb8" y="226.942959"/>
     <use style="fill:#1f77b4;stroke:#1f77b4;" x="127.402322" xlink:href="#m3662d8feb8" y="208.382"/>
     <use style="fill:#1f77b4;stroke:#1f77b4;" x="126.249235" xlink:href="#m3662d8feb8" y="219.3844"/>
     <use style="fill:#1f77b4;stroke:#1f77b4;" x="126.988146" xlink:href="#m3662d8feb8" y="193.046796"/>
     <use style="fill:#1f77b4;stroke:#1f77b4;" x="128.691051" xlink:href="#m3662d8feb8" y="223.993514"/>
     <use style="fill:#1f77b4;stroke:#1f77b4;" x="127.086556" xlink:href="#m3662d8feb8" y="188.734857"/>
     <use style="fill:#1f77b4;stroke:#1f77b4;" x="126.044763" xlink:href="#m3662d8feb8" y="181.255393"/>
     <use style="fill:#1f77b4;stroke:#1f77b4;" x="127.685691" xlink:href="#m3662d8feb8" y="206.986173"/>
     <use style="fill:#1f77b4;stroke:#1f77b4;" x="125.985639" xlink:href="#m3662d8feb8" y="188.646056"/>
     <use style="fill:#1f77b4;stroke:#1f77b4;" x="127.988895" xlink:href="#m3662d8feb8" y="209.48224"/>
     <use style="fill:#1f77b4;stroke:#1f77b4;" x="126.653411" xlink:href="#m3662d8feb8" y="174.056331"/>
     <use style="fill:#1f77b4;stroke:#1f77b4;" x="127.478962" xlink:href="#m3662d8feb8" y="209.48224"/>
     <use style="fill:#1f77b4;stroke:#1f77b4;" x="127.720325" xlink:href="#m3662d8feb8" y="209.882327"/>
     <use style="fill:#1f77b4;stroke:#1f77b4;" x="126.951018" xlink:href="#m3662d8feb8" y="203.288296"/>
     <use style="fill:#1f77b4;stroke:#1f77b4;" x="126.719803" xlink:href="#m3662d8feb8" y="221.458623"/>
     <use style="fill:#1f77b4;stroke:#1f77b4;" x="127.300823" xlink:href="#m3662d8feb8" y="215.883636"/>
     <use style="fill:#1f77b4;stroke:#1f77b4;" x="127.438938" xlink:href="#m3662d8feb8" y="197.94869"/>
     <use style="fill:#1f77b4;stroke:#1f77b4;" x="127.567531" xlink:href="#m3662d8feb8" y="189.433422"/>
     <use style="fill:#1f77b4;stroke:#1f77b4;" x="126.865527" xlink:href="#m3662d8feb8" y="184.112"/>
     <use style="fill:#1f77b4;stroke:#1f77b4;" x="127.390441" xlink:href="#m3662d8feb8" y="213.8832"/>
     <use style="fill:#1f77b4;stroke:#1f77b4;" x="126.539439" xlink:href="#m3662d8feb8" y="235.888"/>
     <use style="fill:#1f77b4;stroke:#1f77b4;" x="176.346532" xlink:href="#m3662d8feb8" y="217.824358"/>
     <use style="fill:#1f77b4;stroke:#1f77b4;" x="176.161375" xlink:href="#m3662d8feb8" y="125.864"/>
     <use style="fill:#1f77b4;stroke:#1f77b4;" x="175.477743" xlink:href="#m3662d8feb8" y="200.204541"/>
     <use style="fill:#1f77b4;stroke:#1f77b4;" x="175.491462" xlink:href="#m3662d8feb8" y="172.6242"/>
     <use style="fill:#1f77b4;stroke:#1f77b4;" x="174.566364" xlink:href="#m3662d8feb8" y="183.833634"/>
     <use style="fill:#1f77b4;stroke:#1f77b4;" x="175.084741" xlink:href="#m3662d8feb8" y="148.471671"/>
     <use style="fill:#1f77b4;stroke:#1f77b4;" x="177.164024" xlink:href="#m3662d8feb8" y="126.422497"/>
     <use style="fill:#1f77b4;stroke:#1f77b4;" x="175.085912" xlink:href="#m3662d8feb8" y="124.505679"/>
     <use style="fill:#1f77b4;stroke:#1f77b4;" x="176.255646" xlink:href="#m3662d8feb8" y="171.096089"/>
     <use style="fill:#1f77b4;stroke:#1f77b4;" x="177.765954" xlink:href="#m3662d8feb8" y="210.497846"/>
     <use style="fill:#1f77b4;stroke:#1f77b4;" x="176.115244" xlink:href="#m3662d8feb8" y="132.987856"/>
     <use style="fill:#1f77b4;stroke:#1f77b4;" x="176.427552" xlink:href="#m3662d8feb8" y="176.906062"/>
     <use style="fill:#1f77b4;stroke:#1f77b4;" x="176.34717" xlink:href="#m3662d8feb8" y="192.571465"/>
     <use style="fill:#1f77b4;stroke:#1f77b4;" x="176.6673" xlink:href="#m3662d8feb8" y="188.051478"/>
     <use style="fill:#1f77b4;stroke:#1f77b4;" x="175.571248" xlink:href="#m3662d8feb8" y="197.618783"/>
     <use style="fill:#1f77b4;stroke:#1f77b4;" x="175.460573" xlink:href="#m3662d8feb8" y="200.571654"/>
     <use style="fill:#1f77b4;stroke:#1f77b4;" x="175.592713" xlink:href="#m3662d8feb8" y="197.175852"/>
     <use style="fill:#1f77b4;stroke:#1f77b4;" x="177.106078" xlink:href="#m3662d8feb8" y="171.168"/>
     <use style="fill:#1f77b4;stroke:#1f77b4;" x="175.303131" xlink:href="#m3662d8feb8" y="146.238815"/>
     <use style="fill:#1f77b4;stroke:#1f77b4;" x="174.924656" xlink:href="#m3662d8feb8" y="186.988444"/>
     <use style="fill:#1f77b4;stroke:#1f77b4;" x="177.348406" xlink:href="#m3662d8feb8" y="218.961231"/>
     <use style="fill:#1f77b4;stroke:#1f77b4;" x="225.157893" xlink:href="#m3662d8feb8" y="220.798994"/>
     <use style="fill:#1f77b4;stroke:#1f77b4;" x="224.675651" xlink:href="#m3662d8feb8" y="74.519467"/>
     <use style="fill:#1f77b4;stroke:#1f77b4;" x="226.157229" xlink:href="#m3662d8feb8" y="156.89641"/>
     <use style="fill:#1f77b4;stroke:#1f77b4;" x="222.251695" xlink:href="#m3662d8feb8" y="150.4576"/>
     <use style="fill:#1f77b4;stroke:#1f77b4;" x="225.498154" xlink:href="#m3662d8feb8" y="176.47504"/>
     <use style="fill:#1f77b4;stroke:#1f77b4;" x="224.330707" xlink:href="#m3662d8feb8" y="150.313778"/>
     <use style="fill:#1f77b4;stroke:#1f77b4;" x="225.066323" xlink:href="#m3662d8feb8" y="109.023592"/>
     <use style="fill:#1f77b4;stroke:#1f77b4;" x="226.44965" xlink:href="#m3662d8feb8" y="95.224405"/>
     <use style="fill:#1f77b4;stroke:#1f77b4;" x="224.976029" xlink:href="#m3662d8feb8" y="162.538667"/>
     <use style="fill:#1f77b4;stroke:#1f77b4;" x="223.349996" xlink:href="#m3662d8feb8" y="203.996986"/>
     <use style="fill:#1f77b4;stroke:#1f77b4;" x="224.571142" xlink:href="#m3662d8feb8" y="97.118991"/>
     <use style="fill:#1f77b4;stroke:#1f77b4;" x="224.025507" xlink:href="#m3662d8feb8" y="164.830833"/>
     <use style="fill:#1f77b4;stroke:#1f77b4;" x="223.568671" xlink:href="#m3662d8feb8" y="184.836864"/>
     <use style="fill:#1f77b4;stroke:#1f77b4;" x="224.771887" xlink:href="#m3662d8feb8" y="158.637106"/>
     <use style="fill:#1f77b4;stroke:#1f77b4;" x="225.212924" xlink:href="#m3662d8feb8" y="182.447771"/>
     <use style="fill:#1f77b4;stroke:#1f77b4;" x="225.642729" xlink:href="#m3662d8feb8" y="206.548267"/>
     <use style="fill:#1f77b4;stroke:#1f77b4;" x="225.5377" xlink:href="#m3662d8feb8" y="191.465164"/>
     <use style="fill:#1f77b4;stroke:#1f77b4;" x="224.932831" xlink:href="#m3662d8feb8" y="124.397013"/>
     <use style="fill:#1f77b4;stroke:#1f77b4;" x="224.771905" xlink:href="#m3662d8feb8" y="129.938963"/>
     <use style="fill:#1f77b4;stroke:#1f77b4;" x="225.49321" xlink:href="#m3662d8feb8" y="138.088889"/>
     <use style="fill:#1f77b4;stroke:#1f77b4;" x="225.204647" xlink:href="#m3662d8feb8" y="180.876"/>
     <use style="fill:#1f77b4;stroke:#1f77b4;" x="273.283099" xlink:href="#m3662d8feb8" y="216.182209"/>
     <use style="fill:#1f77b4;stroke:#1f77b4;" x="274.523358" xlink:href="#m3662d8feb8" y="84.605"/>
     <use style="fill:#1f77b4;stroke:#1f77b4;" x="273.511859" xlink:href="#m3662d8feb8" y="151.254154"/>
     <use style="fill:#1f77b4;stroke:#1f77b4;" x="272.922164" xlink:href="#m3662d8feb8" y="172.259663"/>
     <use style="fill:#1f77b4;stroke:#1f77b4;" x="275.051138" xlink:href="#m3662d8feb8" y="141.26736"/>
     <use style="fill:#1f77b4;stroke:#1f77b4;" x="272.796566" xlink:href="#m3662d8feb8" y="147.8688"/>
     <use style="fill:#1f77b4;stroke:#1f77b4;" x="273.261225" xlink:href="#m3662d8feb8" y="108.15282"/>
     <use style="fill:#1f77b4;stroke:#1f77b4;" x="274.054069" xlink:href="#m3662d8feb8" y="101.191952"/>
     <use style="fill:#1f77b4;stroke:#1f77b4;" x="273.209538" xlink:href="#m3662d8feb8" y="164.587531"/>
     <use style="fill:#1f77b4;stroke:#1f77b4;" x="273.132061" xlink:href="#m3662d8feb8" y="208.993244"/>
     <use style="fill:#1f77b4;stroke:#1f77b4;" x="273.174837" xlink:href="#m3662d8feb8" y="118.740144"/>
     <use style="fill:#1f77b4;stroke:#1f77b4;" x="273.698511" xlink:href="#m3662d8feb8" y="152.421517"/>
     <use style="fill:#1f77b4;stroke:#1f77b4;" x="273.542323" xlink:href="#m3662d8feb8" y="171.942427"/>
     <use style="fill:#1f77b4;stroke:#1f77b4;" x="275.133916" xlink:href="#m3662d8feb8" y="153.0464"/>
     <use style="fill:#1f77b4;stroke:#1f77b4;" x="272.275811" xlink:href="#m3662d8feb8" y="199.814557"/>
     <use style="fill:#1f77b4;stroke:#1f77b4;" x="275.830781" xlink:href="#m3662d8feb8" y="206.024343"/>
     <use style="fill:#1f77b4;stroke:#1f77b4;" x="271.400345" xlink:href="#m3662d8feb8" y="188.734857"/>
     <use style="fill:#1f77b4;stroke:#1f77b4;" x="274.638028" xlink:href="#m3662d8feb8" y="118.115831"/>
     <use style="fill:#1f77b4;stroke:#1f77b4;" x="271.926978" xlink:href="#m3662d8feb8" y="140.533867"/>
     <use style="fill:#1f77b4;stroke:#1f77b4;" x="273.518136" xlink:href="#m3662d8feb8" y="158.224"/>
     <use style="fill:#1f77b4;stroke:#1f77b4;" x="272.373977" xlink:href="#m3662d8feb8" y="147.8688"/>
     <use style="fill:#1f77b4;stroke:#1f77b4;" x="321.283848" xlink:href="#m3662d8feb8" y="213.318974"/>
     <use style="fill:#1f77b4;stroke:#1f77b4;" x="322.181333" xlink:href="#m3662d8feb8" y="84.605"/>
     <use style="fill:#1f77b4;stroke:#1f77b4;" x="324.595879" xlink:href="#m3662d8feb8" y="147.8688"/>
     <use style="fill:#1f77b4;stroke:#1f77b4;" x="322.309845" xlink:href="#m3662d8feb8" y="161.714517"/>
     <use style="fill:#1f77b4;stroke:#1f77b4;" x="324.000396" xlink:href="#m3662d8feb8" y="153.074237"/>
     <use style="fill:#1f77b4;stroke:#1f77b4;" x="321.995558" xlink:href="#m3662d8feb8" y="127.413634"/>
     <use style="fill:#1f77b4;stroke:#1f77b4;" x="321.891683" xlink:href="#m3662d8feb8" y="107.978325"/>
     <use style="fill:#1f77b4;stroke:#1f77b4;" x="323.163898" xlink:href="#m3662d8feb8" y="99.7333"/>
     <use style="fill:#1f77b4;stroke:#1f77b4;" x="320.684512" xlink:href="#m3662d8feb8" y="166.146011"/>
     <use style="fill:#1f77b4;stroke:#1f77b4;" x="322.090993" xlink:href="#m3662d8feb8" y="209.426532"/>
     <use style="fill:#1f77b4;stroke:#1f77b4;" x="321.974891" xlink:href="#m3662d8feb8" y="112.527758"/>
     <use style="fill:#1f77b4;stroke:#1f77b4;" x="323.124056" xlink:href="#m3662d8feb8" y="163.250796"/>
     <use style="fill:#1f77b4;stroke:#1f77b4;" x="322.683707" xlink:href="#m3662d8feb8" y="172.237752"/>
     <use style="fill:#1f77b4;stroke:#1f77b4;" x="322.526968" xlink:href="#m3662d8feb8" y="152.501389"/>
     <use style="fill:#1f77b4;stroke:#1f77b4;" x="320.891229" xlink:href="#m3662d8feb8" y="184.31425"/>
     <use style="fill:#1f77b4;stroke:#1f77b4;" x="322.613478" xlink:href="#m3662d8feb8" y="211.773151"/>
     <use style="fill:#1f77b4;stroke:#1f77b4;" x="321.537013" xlink:href="#m3662d8feb8" y="188.958332"/>
     <use style="fill:#1f77b4;stroke:#1f77b4;" x="321.560833" xlink:href="#m3662d8feb8" y="153.593626"/>
     <use style="fill:#1f77b4;stroke:#1f77b4;" x="323.41168" xlink:href="#m3662d8feb8" y="160.608421"/>
     <use style="fill:#1f77b4;stroke:#1f77b4;" x="320.855918" xlink:href="#m3662d8feb8" y="154.817684"/>
     <use style="fill:#1f77b4;stroke:#1f77b4;" x="321.864982" xlink:href="#m3662d8feb8" y="180.876"/>
    </g>
   </g>
   <g id="matplotlib.axis_1">
    <g id="xtick_1">
     <g id="line2d_1">
      <path clip-path="url(#p6b7412ff86)" d="M 78.160833 235.888 
L 78.160833 15.84 
" style="fill:none;stroke:#b0b0b0;stroke-linecap:square;stroke-width:0.8;"/>
     </g>
     <g id="line2d_2">
      <defs>
       <path d="M 0 0 
L 0 3.5 
" id="mb1f5a6d6d0" style="stroke:#000000;stroke-width:0.8;"/>
      </defs>
      <g>
       <use style="stroke:#000000;stroke-width:0.8;" x="78.160833" xlink:href="#mb1f5a6d6d0" y="235.888"/>
      </g>
     </g>
     <g id="text_1">
      <!-- data -->
      <defs>
       <path d="M 45.40625 46.390625 
L 45.40625 75.984375 
L 54.390625 75.984375 
L 54.390625 0 
L 45.40625 0 
L 45.40625 8.203125 
Q 42.578125 3.328125 38.25 0.953125 
Q 33.9375 -1.421875 27.875 -1.421875 
Q 17.96875 -1.421875 11.734375 6.484375 
Q 5.515625 14.40625 5.515625 27.296875 
Q 5.515625 40.1875 11.734375 48.09375 
Q 17.96875 56 27.875 56 
Q 33.9375 56 38.25 53.625 
Q 42.578125 51.265625 45.40625 46.390625 
z
M 14.796875 27.296875 
Q 14.796875 17.390625 18.875 11.75 
Q 22.953125 6.109375 30.078125 6.109375 
Q 37.203125 6.109375 41.296875 11.75 
Q 45.40625 17.390625 45.40625 27.296875 
Q 45.40625 37.203125 41.296875 42.84375 
Q 37.203125 48.484375 30.078125 48.484375 
Q 22.953125 48.484375 18.875 42.84375 
Q 14.796875 37.203125 14.796875 27.296875 
z
" id="DejaVuSans-64"/>
       <path d="M 34.28125 27.484375 
Q 23.390625 27.484375 19.1875 25 
Q 14.984375 22.515625 14.984375 16.5 
Q 14.984375 11.71875 18.140625 8.90625 
Q 21.296875 6.109375 26.703125 6.109375 
Q 34.1875 6.109375 38.703125 11.40625 
Q 43.21875 16.703125 43.21875 25.484375 
L 43.21875 27.484375 
z
M 52.203125 31.203125 
L 52.203125 0 
L 43.21875 0 
L 43.21875 8.296875 
Q 40.140625 3.328125 35.546875 0.953125 
Q 30.953125 -1.421875 24.3125 -1.421875 
Q 15.921875 -1.421875 10.953125 3.296875 
Q 6 8.015625 6 15.921875 
Q 6 25.140625 12.171875 29.828125 
Q 18.359375 34.515625 30.609375 34.515625 
L 43.21875 34.515625 
L 43.21875 35.40625 
Q 43.21875 41.609375 39.140625 45 
Q 35.0625 48.390625 27.6875 48.390625 
Q 23 48.390625 18.546875 47.265625 
Q 14.109375 46.140625 10.015625 43.890625 
L 10.015625 52.203125 
Q 14.9375 54.109375 19.578125 55.046875 
Q 24.21875 56 28.609375 56 
Q 40.484375 56 46.34375 49.84375 
Q 52.203125 43.703125 52.203125 31.203125 
z
" id="DejaVuSans-61"/>
       <path d="M 18.3125 70.21875 
L 18.3125 54.6875 
L 36.8125 54.6875 
L 36.8125 47.703125 
L 18.3125 47.703125 
L 18.3125 18.015625 
Q 18.3125 11.328125 20.140625 9.421875 
Q 21.96875 7.515625 27.59375 7.515625 
L 36.8125 7.515625 
L 36.8125 0 
L 27.59375 0 
Q 17.1875 0 13.234375 3.875 
Q 9.28125 7.765625 9.28125 18.015625 
L 9.28125 47.703125 
L 2.6875 47.703125 
L 2.6875 54.6875 
L 9.28125 54.6875 
L 9.28125 70.21875 
z
" id="DejaVuSans-74"/>
      </defs>
      <g transform="translate(64.645833 252.006125)scale(0.12 -0.12)">
       <use xlink:href="#DejaVuSans-64"/>
       <use x="63.476562" xlink:href="#DejaVuSans-61"/>
       <use x="124.755859" xlink:href="#DejaVuSans-74"/>
       <use x="163.964844" xlink:href="#DejaVuSans-61"/>
      </g>
     </g>
    </g>
    <g id="xtick_2">
     <g id="line2d_3">
      <path clip-path="url(#p6b7412ff86)" d="M 126.9825 235.888 
L 126.9825 15.84 
" style="fill:none;stroke:#b0b0b0;stroke-linecap:square;stroke-width:0.8;"/>
     </g>
     <g id="line2d_4">
      <g>
       <use style="stroke:#000000;stroke-width:0.8;" x="126.9825" xlink:href="#mb1f5a6d6d0" y="235.888"/>
      </g>
     </g>
     <g id="text_2">
      <!-- x0.01 -->
      <defs>
       <path d="M 54.890625 54.6875 
L 35.109375 28.078125 
L 55.90625 0 
L 45.3125 0 
L 29.390625 21.484375 
L 13.484375 0 
L 2.875 0 
L 24.125 28.609375 
L 4.6875 54.6875 
L 15.28125 54.6875 
L 29.78125 35.203125 
L 44.28125 54.6875 
z
" id="DejaVuSans-78"/>
       <path d="M 31.78125 66.40625 
Q 24.171875 66.40625 20.328125 58.90625 
Q 16.5 51.421875 16.5 36.375 
Q 16.5 21.390625 20.328125 13.890625 
Q 24.171875 6.390625 31.78125 6.390625 
Q 39.453125 6.390625 43.28125 13.890625 
Q 47.125 21.390625 47.125 36.375 
Q 47.125 51.421875 43.28125 58.90625 
Q 39.453125 66.40625 31.78125 66.40625 
z
M 31.78125 74.21875 
Q 44.046875 74.21875 50.515625 64.515625 
Q 56.984375 54.828125 56.984375 36.375 
Q 56.984375 17.96875 50.515625 8.265625 
Q 44.046875 -1.421875 31.78125 -1.421875 
Q 19.53125 -1.421875 13.0625 8.265625 
Q 6.59375 17.96875 6.59375 36.375 
Q 6.59375 54.828125 13.0625 64.515625 
Q 19.53125 74.21875 31.78125 74.21875 
z
" id="DejaVuSans-30"/>
       <path d="M 10.6875 12.40625 
L 21 12.40625 
L 21 0 
L 10.6875 0 
z
" id="DejaVuSans-2e"/>
       <path d="M 12.40625 8.296875 
L 28.515625 8.296875 
L 28.515625 63.921875 
L 10.984375 60.40625 
L 10.984375 69.390625 
L 28.421875 72.90625 
L 38.28125 72.90625 
L 38.28125 8.296875 
L 54.390625 8.296875 
L 54.390625 0 
L 12.40625 0 
z
" id="DejaVuSans-31"/>
      </defs>
      <g transform="translate(110.071875 252.006125)scale(0.12 -0.12)">
       <use xlink:href="#DejaVuSans-78"/>
       <use x="59.179688" xlink:href="#DejaVuSans-30"/>
       <use x="122.802734" xlink:href="#DejaVuSans-2e"/>
       <use x="154.589844" xlink:href="#DejaVuSans-30"/>
       <use x="218.212891" xlink:href="#DejaVuSans-31"/>
      </g>
     </g>
    </g>
    <g id="xtick_3">
     <g id="line2d_5">
      <path clip-path="url(#p6b7412ff86)" d="M 175.804167 235.888 
L 175.804167 15.84 
" style="fill:none;stroke:#b0b0b0;stroke-linecap:square;stroke-width:0.8;"/>
     </g>
     <g id="line2d_6">
      <g>
       <use style="stroke:#000000;stroke-width:0.8;" x="175.804167" xlink:href="#mb1f5a6d6d0" y="235.888"/>
      </g>
     </g>
     <g id="text_3">
      <!-- x0.1 -->
      <g transform="translate(162.711042 252.006125)scale(0.12 -0.12)">
       <use xlink:href="#DejaVuSans-78"/>
       <use x="59.179688" xlink:href="#DejaVuSans-30"/>
       <use x="122.802734" xlink:href="#DejaVuSans-2e"/>
       <use x="154.589844" xlink:href="#DejaVuSans-31"/>
      </g>
     </g>
    </g>
    <g id="xtick_4">
     <g id="line2d_7">
      <path clip-path="url(#p6b7412ff86)" d="M 224.625833 235.888 
L 224.625833 15.84 
" style="fill:none;stroke:#b0b0b0;stroke-linecap:square;stroke-width:0.8;"/>
     </g>
     <g id="line2d_8">
      <g>
       <use style="stroke:#000000;stroke-width:0.8;" x="224.625833" xlink:href="#mb1f5a6d6d0" y="235.888"/>
      </g>
     </g>
     <g id="text_4">
      <!-- exp. value -->
      <defs>
       <path d="M 56.203125 29.59375 
L 56.203125 25.203125 
L 14.890625 25.203125 
Q 15.484375 15.921875 20.484375 11.0625 
Q 25.484375 6.203125 34.421875 6.203125 
Q 39.59375 6.203125 44.453125 7.46875 
Q 49.3125 8.734375 54.109375 11.28125 
L 54.109375 2.78125 
Q 49.265625 0.734375 44.1875 -0.34375 
Q 39.109375 -1.421875 33.890625 -1.421875 
Q 20.796875 -1.421875 13.15625 6.1875 
Q 5.515625 13.8125 5.515625 26.8125 
Q 5.515625 40.234375 12.765625 48.109375 
Q 20.015625 56 32.328125 56 
Q 43.359375 56 49.78125 48.890625 
Q 56.203125 41.796875 56.203125 29.59375 
z
M 47.21875 32.234375 
Q 47.125 39.59375 43.09375 43.984375 
Q 39.0625 48.390625 32.421875 48.390625 
Q 24.90625 48.390625 20.390625 44.140625 
Q 15.875 39.890625 15.1875 32.171875 
z
" id="DejaVuSans-65"/>
       <path d="M 18.109375 8.203125 
L 18.109375 -20.796875 
L 9.078125 -20.796875 
L 9.078125 54.6875 
L 18.109375 54.6875 
L 18.109375 46.390625 
Q 20.953125 51.265625 25.265625 53.625 
Q 29.59375 56 35.59375 56 
Q 45.5625 56 51.78125 48.09375 
Q 58.015625 40.1875 58.015625 27.296875 
Q 58.015625 14.40625 51.78125 6.484375 
Q 45.5625 -1.421875 35.59375 -1.421875 
Q 29.59375 -1.421875 25.265625 0.953125 
Q 20.953125 3.328125 18.109375 8.203125 
z
M 48.6875 27.296875 
Q 48.6875 37.203125 44.609375 42.84375 
Q 40.53125 48.484375 33.40625 48.484375 
Q 26.265625 48.484375 22.1875 42.84375 
Q 18.109375 37.203125 18.109375 27.296875 
Q 18.109375 17.390625 22.1875 11.75 
Q 26.265625 6.109375 33.40625 6.109375 
Q 40.53125 6.109375 44.609375 11.75 
Q 48.6875 17.390625 48.6875 27.296875 
z
" id="DejaVuSans-70"/>
       <path id="DejaVuSans-20"/>
       <path d="M 2.984375 54.6875 
L 12.5 54.6875 
L 29.59375 8.796875 
L 46.6875 54.6875 
L 56.203125 54.6875 
L 35.6875 0 
L 23.484375 0 
z
" id="DejaVuSans-76"/>
       <path d="M 9.421875 75.984375 
L 18.40625 75.984375 
L 18.40625 0 
L 9.421875 0 
z
" id="DejaVuSans-6c"/>
       <path d="M 8.5 21.578125 
L 8.5 54.6875 
L 17.484375 54.6875 
L 17.484375 21.921875 
Q 17.484375 14.15625 20.5 10.265625 
Q 23.53125 6.390625 29.59375 6.390625 
Q 36.859375 6.390625 41.078125 11.03125 
Q 45.3125 15.671875 45.3125 23.6875 
L 45.3125 54.6875 
L 54.296875 54.6875 
L 54.296875 0 
L 45.3125 0 
L 45.3125 8.40625 
Q 42.046875 3.421875 37.71875 1 
Q 33.40625 -1.421875 27.6875 -1.421875 
Q 18.265625 -1.421875 13.375 4.4375 
Q 8.5 10.296875 8.5 21.578125 
z
M 31.109375 56 
z
" id="DejaVuSans-75"/>
      </defs>
      <g transform="translate(193.371458 252.006125)scale(0.12 -0.12)">
       <use xlink:href="#DejaVuSans-65"/>
       <use x="61.507812" xlink:href="#DejaVuSans-78"/>
       <use x="120.6875" xlink:href="#DejaVuSans-70"/>
       <use x="184.164062" xlink:href="#DejaVuSans-2e"/>
       <use x="215.951172" xlink:href="#DejaVuSans-20"/>
       <use x="247.738281" xlink:href="#DejaVuSans-76"/>
       <use x="306.917969" xlink:href="#DejaVuSans-61"/>
       <use x="368.197266" xlink:href="#DejaVuSans-6c"/>
       <use x="395.980469" xlink:href="#DejaVuSans-75"/>
       <use x="459.359375" xlink:href="#DejaVuSans-65"/>
      </g>
     </g>
    </g>
    <g id="xtick_5">
     <g id="line2d_9">
      <path clip-path="url(#p6b7412ff86)" d="M 273.4475 235.888 
L 273.4475 15.84 
" style="fill:none;stroke:#b0b0b0;stroke-linecap:square;stroke-width:0.8;"/>
     </g>
     <g id="line2d_10">
      <g>
       <use style="stroke:#000000;stroke-width:0.8;" x="273.4475" xlink:href="#mb1f5a6d6d0" y="235.888"/>
      </g>
     </g>
     <g id="text_5">
      <!-- x10 -->
      <g transform="translate(262.26125 252.006125)scale(0.12 -0.12)">
       <use xlink:href="#DejaVuSans-78"/>
       <use x="59.179688" xlink:href="#DejaVuSans-31"/>
       <use x="122.802734" xlink:href="#DejaVuSans-30"/>
      </g>
     </g>
    </g>
    <g id="xtick_6">
     <g id="line2d_11">
      <path clip-path="url(#p6b7412ff86)" d="M 322.269167 235.888 
L 322.269167 15.84 
" style="fill:none;stroke:#b0b0b0;stroke-linecap:square;stroke-width:0.8;"/>
     </g>
     <g id="line2d_12">
      <g>
       <use style="stroke:#000000;stroke-width:0.8;" x="322.269167" xlink:href="#mb1f5a6d6d0" y="235.888"/>
      </g>
     </g>
     <g id="text_6">
      <!-- x100 -->
      <g transform="translate(307.265417 252.006125)scale(0.12 -0.12)">
       <use xlink:href="#DejaVuSans-78"/>
       <use x="59.179688" xlink:href="#DejaVuSans-31"/>
       <use x="122.802734" xlink:href="#DejaVuSans-30"/>
       <use x="186.425781" xlink:href="#DejaVuSans-30"/>
      </g>
     </g>
    </g>
    <g id="text_7">
     <!-- Unbinding rate (s$^{-1}$), Binding rate (M$^{-1}$ s$^{-1}$) -->
     <defs>
      <path d="M 8.6875 72.90625 
L 18.609375 72.90625 
L 18.609375 28.609375 
Q 18.609375 16.890625 22.84375 11.734375 
Q 27.09375 6.59375 36.625 6.59375 
Q 46.09375 6.59375 50.34375 11.734375 
Q 54.59375 16.890625 54.59375 28.609375 
L 54.59375 72.90625 
L 64.5 72.90625 
L 64.5 27.390625 
Q 64.5 13.140625 57.4375 5.859375 
Q 50.390625 -1.421875 36.625 -1.421875 
Q 22.796875 -1.421875 15.734375 5.859375 
Q 8.6875 13.140625 8.6875 27.390625 
z
" id="DejaVuSans-55"/>
      <path d="M 54.890625 33.015625 
L 54.890625 0 
L 45.90625 0 
L 45.90625 32.71875 
Q 45.90625 40.484375 42.875 44.328125 
Q 39.84375 48.1875 33.796875 48.1875 
Q 26.515625 48.1875 22.3125 43.546875 
Q 18.109375 38.921875 18.109375 30.90625 
L 18.109375 0 
L 9.078125 0 
L 9.078125 54.6875 
L 18.109375 54.6875 
L 18.109375 46.1875 
Q 21.34375 51.125 25.703125 53.5625 
Q 30.078125 56 35.796875 56 
Q 45.21875 56 50.046875 50.171875 
Q 54.890625 44.34375 54.890625 33.015625 
z
" id="DejaVuSans-6e"/>
      <path d="M 48.6875 27.296875 
Q 48.6875 37.203125 44.609375 42.84375 
Q 40.53125 48.484375 33.40625 48.484375 
Q 26.265625 48.484375 22.1875 42.84375 
Q 18.109375 37.203125 18.109375 27.296875 
Q 18.109375 17.390625 22.1875 11.75 
Q 26.265625 6.109375 33.40625 6.109375 
Q 40.53125 6.109375 44.609375 11.75 
Q 48.6875 17.390625 48.6875 27.296875 
z
M 18.109375 46.390625 
Q 20.953125 51.265625 25.265625 53.625 
Q 29.59375 56 35.59375 56 
Q 45.5625 56 51.78125 48.09375 
Q 58.015625 40.1875 58.015625 27.296875 
Q 58.015625 14.40625 51.78125 6.484375 
Q 45.5625 -1.421875 35.59375 -1.421875 
Q 29.59375 -1.421875 25.265625 0.953125 
Q 20.953125 3.328125 18.109375 8.203125 
L 18.109375 0 
L 9.078125 0 
L 9.078125 75.984375 
L 18.109375 75.984375 
z
" id="DejaVuSans-62"/>
      <path d="M 9.421875 54.6875 
L 18.40625 54.6875 
L 18.40625 0 
L 9.421875 0 
z
M 9.421875 75.984375 
L 18.40625 75.984375 
L 18.40625 64.59375 
L 9.421875 64.59375 
z
" id="DejaVuSans-69"/>
      <path d="M 45.40625 27.984375 
Q 45.40625 37.75 41.375 43.109375 
Q 37.359375 48.484375 30.078125 48.484375 
Q 22.859375 48.484375 18.828125 43.109375 
Q 14.796875 37.75 14.796875 27.984375 
Q 14.796875 18.265625 18.828125 12.890625 
Q 22.859375 7.515625 30.078125 7.515625 
Q 37.359375 7.515625 41.375 12.890625 
Q 45.40625 18.265625 45.40625 27.984375 
z
M 54.390625 6.78125 
Q 54.390625 -7.171875 48.1875 -13.984375 
Q 42 -20.796875 29.203125 -20.796875 
Q 24.46875 -20.796875 20.265625 -20.09375 
Q 16.0625 -19.390625 12.109375 -17.921875 
L 12.109375 -9.1875 
Q 16.0625 -11.328125 19.921875 -12.34375 
Q 23.78125 -13.375 27.78125 -13.375 
Q 36.625 -13.375 41.015625 -8.765625 
Q 45.40625 -4.15625 45.40625 5.171875 
L 45.40625 9.625 
Q 42.625 4.78125 38.28125 2.390625 
Q 33.9375 0 27.875 0 
Q 17.828125 0 11.671875 7.65625 
Q 5.515625 15.328125 5.515625 27.984375 
Q 5.515625 40.671875 11.671875 48.328125 
Q 17.828125 56 27.875 56 
Q 33.9375 56 38.28125 53.609375 
Q 42.625 51.21875 45.40625 46.390625 
L 45.40625 54.6875 
L 54.390625 54.6875 
z
" id="DejaVuSans-67"/>
      <path d="M 41.109375 46.296875 
Q 39.59375 47.171875 37.8125 47.578125 
Q 36.03125 48 33.890625 48 
Q 26.265625 48 22.1875 43.046875 
Q 18.109375 38.09375 18.109375 28.8125 
L 18.109375 0 
L 9.078125 0 
L 9.078125 54.6875 
L 18.109375 54.6875 
L 18.109375 46.1875 
Q 20.953125 51.171875 25.484375 53.578125 
Q 30.03125 56 36.53125 56 
Q 37.453125 56 38.578125 55.875 
Q 39.703125 55.765625 41.0625 55.515625 
z
" id="DejaVuSans-72"/>
      <path d="M 31 75.875 
Q 24.46875 64.65625 21.28125 53.65625 
Q 18.109375 42.671875 18.109375 31.390625 
Q 18.109375 20.125 21.3125 9.0625 
Q 24.515625 -2 31 -13.1875 
L 23.1875 -13.1875 
Q 15.875 -1.703125 12.234375 9.375 
Q 8.59375 20.453125 8.59375 31.390625 
Q 8.59375 42.28125 12.203125 53.3125 
Q 15.828125 64.359375 23.1875 75.875 
z
" id="DejaVuSans-28"/>
      <path d="M 44.28125 53.078125 
L 44.28125 44.578125 
Q 40.484375 46.53125 36.375 47.5 
Q 32.28125 48.484375 27.875 48.484375 
Q 21.1875 48.484375 17.84375 46.4375 
Q 14.5 44.390625 14.5 40.28125 
Q 14.5 37.15625 16.890625 35.375 
Q 19.28125 33.59375 26.515625 31.984375 
L 29.59375 31.296875 
Q 39.15625 29.25 43.1875 25.515625 
Q 47.21875 21.78125 47.21875 15.09375 
Q 47.21875 7.46875 41.1875 3.015625 
Q 35.15625 -1.421875 24.609375 -1.421875 
Q 20.21875 -1.421875 15.453125 -0.5625 
Q 10.6875 0.296875 5.421875 2 
L 5.421875 11.28125 
Q 10.40625 8.6875 15.234375 7.390625 
Q 20.0625 6.109375 24.8125 6.109375 
Q 31.15625 6.109375 34.5625 8.28125 
Q 37.984375 10.453125 37.984375 14.40625 
Q 37.984375 18.0625 35.515625 20.015625 
Q 33.0625 21.96875 24.703125 23.78125 
L 21.578125 24.515625 
Q 13.234375 26.265625 9.515625 29.90625 
Q 5.8125 33.546875 5.8125 39.890625 
Q 5.8125 47.609375 11.28125 51.796875 
Q 16.75 56 26.8125 56 
Q 31.78125 56 36.171875 55.265625 
Q 40.578125 54.546875 44.28125 53.078125 
z
" id="DejaVuSans-73"/>
      <path d="M 10.59375 35.5 
L 73.1875 35.5 
L 73.1875 27.203125 
L 10.59375 27.203125 
z
" id="DejaVuSans-2212"/>
      <path d="M 8.015625 75.875 
L 15.828125 75.875 
Q 23.140625 64.359375 26.78125 53.3125 
Q 30.421875 42.28125 30.421875 31.390625 
Q 30.421875 20.453125 26.78125 9.375 
Q 23.140625 -1.703125 15.828125 -13.1875 
L 8.015625 -13.1875 
Q 14.5 -2 17.703125 9.0625 
Q 20.90625 20.125 20.90625 31.390625 
Q 20.90625 42.671875 17.703125 53.65625 
Q 14.5 64.65625 8.015625 75.875 
z
" id="DejaVuSans-29"/>
      <path d="M 11.71875 12.40625 
L 22.015625 12.40625 
L 22.015625 4 
L 14.015625 -11.625 
L 7.71875 -11.625 
L 11.71875 4 
z
" id="DejaVuSans-2c"/>
      <path d="M 19.671875 34.8125 
L 19.671875 8.109375 
L 35.5 8.109375 
Q 43.453125 8.109375 47.28125 11.40625 
Q 51.125 14.703125 51.125 21.484375 
Q 51.125 28.328125 47.28125 31.5625 
Q 43.453125 34.8125 35.5 34.8125 
z
M 19.671875 64.796875 
L 19.671875 42.828125 
L 34.28125 42.828125 
Q 41.5 42.828125 45.03125 45.53125 
Q 48.578125 48.25 48.578125 53.8125 
Q 48.578125 59.328125 45.03125 62.0625 
Q 41.5 64.796875 34.28125 64.796875 
z
M 9.8125 72.90625 
L 35.015625 72.90625 
Q 46.296875 72.90625 52.390625 68.21875 
Q 58.5 63.53125 58.5 54.890625 
Q 58.5 48.1875 55.375 44.234375 
Q 52.25 40.28125 46.1875 39.3125 
Q 53.46875 37.75 57.5 32.78125 
Q 61.53125 27.828125 61.53125 20.40625 
Q 61.53125 10.640625 54.890625 5.3125 
Q 48.25 0 35.984375 0 
L 9.8125 0 
z
" id="DejaVuSans-42"/>
      <path d="M 9.8125 72.90625 
L 24.515625 72.90625 
L 43.109375 23.296875 
L 61.8125 72.90625 
L 76.515625 72.90625 
L 76.515625 0 
L 66.890625 0 
L 66.890625 64.015625 
L 48.09375 14.015625 
L 38.1875 14.015625 
L 19.390625 64.015625 
L 19.390625 0 
L 9.8125 0 
z
" id="DejaVuSans-4d"/>
     </defs>
     <g transform="translate(69.175 269.30175)scale(0.12 -0.12)">
      <use transform="translate(0 0.684375)" xlink:href="#DejaVuSans-55"/>
      <use transform="translate(73.193359 0.684375)" xlink:href="#DejaVuSans-6e"/>
      <use transform="translate(136.572266 0.684375)" xlink:href="#DejaVuSans-62"/>
      <use transform="translate(200.048828 0.684375)" xlink:href="#DejaVuSans-69"/>
      <use transform="translate(227.832031 0.684375)" xlink:href="#DejaVuSans-6e"/>
      <use transform="translate(291.210938 0.684375)" xlink:href="#DejaVuSans-64"/>
      <use transform="translate(354.6875 0.684375)" xlink:href="#DejaVuSans-69"/>
      <use transform="translate(382.470703 0.684375)" xlink:href="#DejaVuSans-6e"/>
      <use transform="translate(445.849609 0.684375)" xlink:href="#DejaVuSans-67"/>
      <use transform="translate(509.326172 0.684375)" xlink:href="#DejaVuSans-20"/>
      <use transform="translate(541.113281 0.684375)" xlink:href="#DejaVuSans-72"/>
      <use transform="translate(582.226562 0.684375)" xlink:href="#DejaVuSans-61"/>
      <use transform="translate(643.505859 0.684375)" xlink:href="#DejaVuSans-74"/>
      <use transform="translate(682.714844 0.684375)" xlink:href="#DejaVuSans-65"/>
      <use transform="translate(744.238281 0.684375)" xlink:href="#DejaVuSans-20"/>
      <use transform="translate(776.025391 0.684375)" xlink:href="#DejaVuSans-28"/>
      <use transform="translate(815.039062 0.684375)" xlink:href="#DejaVuSans-73"/>
      <use transform="translate(868.095703 38.965625)scale(0.7)" xlink:href="#DejaVuSans-2212"/>
      <use transform="translate(926.748047 38.965625)scale(0.7)" xlink:href="#DejaVuSans-31"/>
      <use transform="translate(974.018555 0.684375)" xlink:href="#DejaVuSans-29"/>
      <use transform="translate(1013.032227 0.684375)" xlink:href="#DejaVuSans-2c"/>
      <use transform="translate(1044.819336 0.684375)" xlink:href="#DejaVuSans-20"/>
      <use transform="translate(1076.606445 0.684375)" xlink:href="#DejaVuSans-42"/>
      <use transform="translate(1145.209961 0.684375)" xlink:href="#DejaVuSans-69"/>
      <use transform="translate(1172.993164 0.684375)" xlink:href="#DejaVuSans-6e"/>
      <use transform="translate(1236.37207 0.684375)" xlink:href="#DejaVuSans-64"/>
      <use transform="translate(1299.848633 0.684375)" xlink:href="#DejaVuSans-69"/>
      <use transform="translate(1327.631836 0.684375)" xlink:href="#DejaVuSans-6e"/>
      <use transform="translate(1391.010742 0.684375)" xlink:href="#DejaVuSans-67"/>
      <use transform="translate(1454.487305 0.684375)" xlink:href="#DejaVuSans-20"/>
      <use transform="translate(1486.274414 0.684375)" xlink:href="#DejaVuSans-72"/>
      <use transform="translate(1527.387695 0.684375)" xlink:href="#DejaVuSans-61"/>
      <use transform="translate(1588.666992 0.684375)" xlink:href="#DejaVuSans-74"/>
      <use transform="translate(1627.875977 0.684375)" xlink:href="#DejaVuSans-65"/>
      <use transform="translate(1689.399414 0.684375)" xlink:href="#DejaVuSans-20"/>
      <use transform="translate(1721.186523 0.684375)" xlink:href="#DejaVuSans-28"/>
      <use transform="translate(1760.200195 0.684375)" xlink:href="#DejaVuSans-4d"/>
      <use transform="translate(1847.436523 38.965625)scale(0.7)" xlink:href="#DejaVuSans-2212"/>
      <use transform="translate(1906.088867 38.965625)scale(0.7)" xlink:href="#DejaVuSans-31"/>
      <use transform="translate(1953.359375 0.684375)" xlink:href="#DejaVuSans-20"/>
      <use transform="translate(1985.146484 0.684375)" xlink:href="#DejaVuSans-73"/>
      <use transform="translate(2038.203125 38.965625)scale(0.7)" xlink:href="#DejaVuSans-2212"/>
      <use transform="translate(2096.855469 38.965625)scale(0.7)" xlink:href="#DejaVuSans-31"/>
      <use transform="translate(2144.125977 0.684375)" xlink:href="#DejaVuSans-29"/>
     </g>
    </g>
   </g>
   <g id="matplotlib.axis_2">
    <g id="ytick_1">
     <g id="line2d_13">
      <path clip-path="url(#p6b7412ff86)" d="M 53.75 235.888 
L 346.68 235.888 
" style="fill:none;stroke:#b0b0b0;stroke-linecap:square;stroke-width:0.8;"/>
     </g>
     <g id="line2d_14">
      <defs>
       <path d="M 0 0 
L -3.5 0 
" id="m69423316bc" style="stroke:#000000;stroke-width:0.8;"/>
      </defs>
      <g>
       <use style="stroke:#000000;stroke-width:0.8;" x="53.75" xlink:href="#m69423316bc" y="235.888"/>
      </g>
     </g>
     <g id="text_8">
      <!-- 0.0 -->
      <g transform="translate(27.66625 240.447062)scale(0.12 -0.12)">
       <use xlink:href="#DejaVuSans-30"/>
       <use x="63.623047" xlink:href="#DejaVuSans-2e"/>
       <use x="95.410156" xlink:href="#DejaVuSans-30"/>
      </g>
     </g>
    </g>
    <g id="ytick_2">
     <g id="line2d_15">
      <path clip-path="url(#p6b7412ff86)" d="M 53.75 191.8784 
L 346.68 191.8784 
" style="fill:none;stroke:#b0b0b0;stroke-linecap:square;stroke-width:0.8;"/>
     </g>
     <g id="line2d_16">
      <g>
       <use style="stroke:#000000;stroke-width:0.8;" x="53.75" xlink:href="#m69423316bc" y="191.8784"/>
      </g>
     </g>
     <g id="text_9">
      <!-- 0.2 -->
      <defs>
       <path d="M 19.1875 8.296875 
L 53.609375 8.296875 
L 53.609375 0 
L 7.328125 0 
L 7.328125 8.296875 
Q 12.9375 14.109375 22.625 23.890625 
Q 32.328125 33.6875 34.8125 36.53125 
Q 39.546875 41.84375 41.421875 45.53125 
Q 43.3125 49.21875 43.3125 52.78125 
Q 43.3125 58.59375 39.234375 62.25 
Q 35.15625 65.921875 28.609375 65.921875 
Q 23.96875 65.921875 18.8125 64.3125 
Q 13.671875 62.703125 7.8125 59.421875 
L 7.8125 69.390625 
Q 13.765625 71.78125 18.9375 73 
Q 24.125 74.21875 28.421875 74.21875 
Q 39.75 74.21875 46.484375 68.546875 
Q 53.21875 62.890625 53.21875 53.421875 
Q 53.21875 48.921875 51.53125 44.890625 
Q 49.859375 40.875 45.40625 35.40625 
Q 44.1875 33.984375 37.640625 27.21875 
Q 31.109375 20.453125 19.1875 8.296875 
z
" id="DejaVuSans-32"/>
      </defs>
      <g transform="translate(27.66625 196.437462)scale(0.12 -0.12)">
       <use xlink:href="#DejaVuSans-30"/>
       <use x="63.623047" xlink:href="#DejaVuSans-2e"/>
       <use x="95.410156" xlink:href="#DejaVuSans-32"/>
      </g>
     </g>
    </g>
    <g id="ytick_3">
     <g id="line2d_17">
      <path clip-path="url(#p6b7412ff86)" d="M 53.75 147.8688 
L 346.68 147.8688 
" style="fill:none;stroke:#b0b0b0;stroke-linecap:square;stroke-width:0.8;"/>
     </g>
     <g id="line2d_18">
      <g>
       <use style="stroke:#000000;stroke-width:0.8;" x="53.75" xlink:href="#m69423316bc" y="147.8688"/>
      </g>
     </g>
     <g id="text_10">
      <!-- 0.4 -->
      <defs>
       <path d="M 37.796875 64.3125 
L 12.890625 25.390625 
L 37.796875 25.390625 
z
M 35.203125 72.90625 
L 47.609375 72.90625 
L 47.609375 25.390625 
L 58.015625 25.390625 
L 58.015625 17.1875 
L 47.609375 17.1875 
L 47.609375 0 
L 37.796875 0 
L 37.796875 17.1875 
L 4.890625 17.1875 
L 4.890625 26.703125 
z
" id="DejaVuSans-34"/>
      </defs>
      <g transform="translate(27.66625 152.427862)scale(0.12 -0.12)">
       <use xlink:href="#DejaVuSans-30"/>
       <use x="63.623047" xlink:href="#DejaVuSans-2e"/>
       <use x="95.410156" xlink:href="#DejaVuSans-34"/>
      </g>
     </g>
    </g>
    <g id="ytick_4">
     <g id="line2d_19">
      <path clip-path="url(#p6b7412ff86)" d="M 53.75 103.8592 
L 346.68 103.8592 
" style="fill:none;stroke:#b0b0b0;stroke-linecap:square;stroke-width:0.8;"/>
     </g>
     <g id="line2d_20">
      <g>
       <use style="stroke:#000000;stroke-width:0.8;" x="53.75" xlink:href="#m69423316bc" y="103.8592"/>
      </g>
     </g>
     <g id="text_11">
      <!-- 0.6 -->
      <defs>
       <path d="M 33.015625 40.375 
Q 26.375 40.375 22.484375 35.828125 
Q 18.609375 31.296875 18.609375 23.390625 
Q 18.609375 15.53125 22.484375 10.953125 
Q 26.375 6.390625 33.015625 6.390625 
Q 39.65625 6.390625 43.53125 10.953125 
Q 47.40625 15.53125 47.40625 23.390625 
Q 47.40625 31.296875 43.53125 35.828125 
Q 39.65625 40.375 33.015625 40.375 
z
M 52.59375 71.296875 
L 52.59375 62.3125 
Q 48.875 64.0625 45.09375 64.984375 
Q 41.3125 65.921875 37.59375 65.921875 
Q 27.828125 65.921875 22.671875 59.328125 
Q 17.53125 52.734375 16.796875 39.40625 
Q 19.671875 43.65625 24.015625 45.921875 
Q 28.375 48.1875 33.59375 48.1875 
Q 44.578125 48.1875 50.953125 41.515625 
Q 57.328125 34.859375 57.328125 23.390625 
Q 57.328125 12.15625 50.6875 5.359375 
Q 44.046875 -1.421875 33.015625 -1.421875 
Q 20.359375 -1.421875 13.671875 8.265625 
Q 6.984375 17.96875 6.984375 36.375 
Q 6.984375 53.65625 15.1875 63.9375 
Q 23.390625 74.21875 37.203125 74.21875 
Q 40.921875 74.21875 44.703125 73.484375 
Q 48.484375 72.75 52.59375 71.296875 
z
" id="DejaVuSans-36"/>
      </defs>
      <g transform="translate(27.66625 108.418262)scale(0.12 -0.12)">
       <use xlink:href="#DejaVuSans-30"/>
       <use x="63.623047" xlink:href="#DejaVuSans-2e"/>
       <use x="95.410156" xlink:href="#DejaVuSans-36"/>
      </g>
     </g>
    </g>
    <g id="ytick_5">
     <g id="line2d_21">
      <path clip-path="url(#p6b7412ff86)" d="M 53.75 59.8496 
L 346.68 59.8496 
" style="fill:none;stroke:#b0b0b0;stroke-linecap:square;stroke-width:0.8;"/>
     </g>
     <g id="line2d_22">
      <g>
       <use style="stroke:#000000;stroke-width:0.8;" x="53.75" xlink:href="#m69423316bc" y="59.8496"/>
      </g>
     </g>
     <g id="text_12">
      <!-- 0.8 -->
      <defs>
       <path d="M 31.78125 34.625 
Q 24.75 34.625 20.71875 30.859375 
Q 16.703125 27.09375 16.703125 20.515625 
Q 16.703125 13.921875 20.71875 10.15625 
Q 24.75 6.390625 31.78125 6.390625 
Q 38.8125 6.390625 42.859375 10.171875 
Q 46.921875 13.96875 46.921875 20.515625 
Q 46.921875 27.09375 42.890625 30.859375 
Q 38.875 34.625 31.78125 34.625 
z
M 21.921875 38.8125 
Q 15.578125 40.375 12.03125 44.71875 
Q 8.5 49.078125 8.5 55.328125 
Q 8.5 64.0625 14.71875 69.140625 
Q 20.953125 74.21875 31.78125 74.21875 
Q 42.671875 74.21875 48.875 69.140625 
Q 55.078125 64.0625 55.078125 55.328125 
Q 55.078125 49.078125 51.53125 44.71875 
Q 48 40.375 41.703125 38.8125 
Q 48.828125 37.15625 52.796875 32.3125 
Q 56.78125 27.484375 56.78125 20.515625 
Q 56.78125 9.90625 50.3125 4.234375 
Q 43.84375 -1.421875 31.78125 -1.421875 
Q 19.734375 -1.421875 13.25 4.234375 
Q 6.78125 9.90625 6.78125 20.515625 
Q 6.78125 27.484375 10.78125 32.3125 
Q 14.796875 37.15625 21.921875 38.8125 
z
M 18.3125 54.390625 
Q 18.3125 48.734375 21.84375 45.5625 
Q 25.390625 42.390625 31.78125 42.390625 
Q 38.140625 42.390625 41.71875 45.5625 
Q 45.3125 48.734375 45.3125 54.390625 
Q 45.3125 60.0625 41.71875 63.234375 
Q 38.140625 66.40625 31.78125 66.40625 
Q 25.390625 66.40625 21.84375 63.234375 
Q 18.3125 60.0625 18.3125 54.390625 
z
" id="DejaVuSans-38"/>
      </defs>
      <g transform="translate(27.66625 64.408662)scale(0.12 -0.12)">
       <use xlink:href="#DejaVuSans-30"/>
       <use x="63.623047" xlink:href="#DejaVuSans-2e"/>
       <use x="95.410156" xlink:href="#DejaVuSans-38"/>
      </g>
     </g>
    </g>
    <g id="ytick_6">
     <g id="line2d_23">
      <path clip-path="url(#p6b7412ff86)" d="M 53.75 15.84 
L 346.68 15.84 
" style="fill:none;stroke:#b0b0b0;stroke-linecap:square;stroke-width:0.8;"/>
     </g>
     <g id="line2d_24">
      <g>
       <use style="stroke:#000000;stroke-width:0.8;" x="53.75" xlink:href="#m69423316bc" y="15.84"/>
      </g>
     </g>
     <g id="text_13">
      <!-- 1.0 -->
      <g transform="translate(27.66625 20.399062)scale(0.12 -0.12)">
       <use xlink:href="#DejaVuSans-31"/>
       <use x="63.623047" xlink:href="#DejaVuSans-2e"/>
       <use x="95.410156" xlink:href="#DejaVuSans-30"/>
      </g>
     </g>
    </g>
    <g id="text_14">
     <!-- True positive rate -->
     <defs>
      <path d="M -0.296875 72.90625 
L 61.375 72.90625 
L 61.375 64.59375 
L 35.5 64.59375 
L 35.5 0 
L 25.59375 0 
L 25.59375 64.59375 
L -0.296875 64.59375 
z
" id="DejaVuSans-54"/>
      <path d="M 30.609375 48.390625 
Q 23.390625 48.390625 19.1875 42.75 
Q 14.984375 37.109375 14.984375 27.296875 
Q 14.984375 17.484375 19.15625 11.84375 
Q 23.34375 6.203125 30.609375 6.203125 
Q 37.796875 6.203125 41.984375 11.859375 
Q 46.1875 17.53125 46.1875 27.296875 
Q 46.1875 37.015625 41.984375 42.703125 
Q 37.796875 48.390625 30.609375 48.390625 
z
M 30.609375 56 
Q 42.328125 56 49.015625 48.375 
Q 55.71875 40.765625 55.71875 27.296875 
Q 55.71875 13.875 49.015625 6.21875 
Q 42.328125 -1.421875 30.609375 -1.421875 
Q 18.84375 -1.421875 12.171875 6.21875 
Q 5.515625 13.875 5.515625 27.296875 
Q 5.515625 40.765625 12.171875 48.375 
Q 18.84375 56 30.609375 56 
z
" id="DejaVuSans-6f"/>
     </defs>
     <g transform="translate(21.170625 179.01275)rotate(-90)scale(0.12 -0.12)">
      <use xlink:href="#DejaVuSans-54"/>
      <use x="60.865234" xlink:href="#DejaVuSans-72"/>
      <use x="101.978516" xlink:href="#DejaVuSans-75"/>
      <use x="165.357422" xlink:href="#DejaVuSans-65"/>
      <use x="226.880859" xlink:href="#DejaVuSans-20"/>
      <use x="258.667969" xlink:href="#DejaVuSans-70"/>
      <use x="322.144531" xlink:href="#DejaVuSans-6f"/>
      <use x="383.326172" xlink:href="#DejaVuSans-73"/>
      <use x="435.425781" xlink:href="#DejaVuSans-69"/>
      <use x="463.208984" xlink:href="#DejaVuSans-74"/>
      <use x="502.417969" xlink:href="#DejaVuSans-69"/>
      <use x="530.201172" xlink:href="#DejaVuSans-76"/>
      <use x="589.380859" xlink:href="#DejaVuSans-65"/>
      <use x="650.904297" xlink:href="#DejaVuSans-20"/>
      <use x="682.691406" xlink:href="#DejaVuSans-72"/>
      <use x="723.804688" xlink:href="#DejaVuSans-61"/>
      <use x="785.083984" xlink:href="#DejaVuSans-74"/>
      <use x="824.292969" xlink:href="#DejaVuSans-65"/>
     </g>
    </g>
   </g>
   <g id="line2d_25">
    <path clip-path="url(#p6b7412ff86)" d="M 65.955417 177.43775 
L 90.36625 177.43775 
L 90.36625 139.617 
L 65.955417 139.617 
L 65.955417 177.43775 
" style="fill:none;stroke:#000000;stroke-linecap:square;"/>
   </g>
   <g id="line2d_26">
    <path clip-path="url(#p6b7412ff86)" d="M 78.160833 177.43775 
L 78.160833 228.944738 
" style="fill:none;stroke:#000000;stroke-linecap:square;"/>
   </g>
   <g id="line2d_27">
    <path clip-path="url(#p6b7412ff86)" d="M 78.160833 139.617 
L 78.160833 119.576914 
" style="fill:none;stroke:#000000;stroke-linecap:square;"/>
   </g>
   <g id="line2d_28">
    <path clip-path="url(#p6b7412ff86)" d="M 72.058125 228.944738 
L 84.263542 228.944738 
" style="fill:none;stroke:#000000;stroke-linecap:square;"/>
   </g>
   <g id="line2d_29">
    <path clip-path="url(#p6b7412ff86)" d="M 72.058125 119.576914 
L 84.263542 119.576914 
" style="fill:none;stroke:#000000;stroke-linecap:square;"/>
   </g>
   <g id="line2d_30"/>
   <g id="line2d_31">
    <path clip-path="url(#p6b7412ff86)" d="M 114.777083 215.883636 
L 139.187917 215.883636 
L 139.187917 189.433422 
L 114.777083 189.433422 
L 114.777083 215.883636 
" style="fill:none;stroke:#000000;stroke-linecap:square;"/>
   </g>
   <g id="line2d_32">
    <path clip-path="url(#p6b7412ff86)" d="M 126.9825 215.883636 
L 126.9825 235.888 
" style="fill:none;stroke:#000000;stroke-linecap:square;"/>
   </g>
   <g id="line2d_33">
    <path clip-path="url(#p6b7412ff86)" d="M 126.9825 189.433422 
L 126.9825 174.056331 
" style="fill:none;stroke:#000000;stroke-linecap:square;"/>
   </g>
   <g id="line2d_34">
    <path clip-path="url(#p6b7412ff86)" d="M 120.879792 235.888 
L 133.085208 235.888 
" style="fill:none;stroke:#000000;stroke-linecap:square;"/>
   </g>
   <g id="line2d_35">
    <path clip-path="url(#p6b7412ff86)" d="M 120.879792 174.056331 
L 133.085208 174.056331 
" style="fill:none;stroke:#000000;stroke-linecap:square;"/>
   </g>
   <g id="line2d_36"/>
   <g id="line2d_37">
    <path clip-path="url(#p6b7412ff86)" d="M 163.59875 197.618783 
L 188.009583 197.618783 
L 188.009583 148.471671 
L 163.59875 148.471671 
L 163.59875 197.618783 
" style="fill:none;stroke:#000000;stroke-linecap:square;"/>
   </g>
   <g id="line2d_38">
    <path clip-path="url(#p6b7412ff86)" d="M 175.804167 197.618783 
L 175.804167 218.961231 
" style="fill:none;stroke:#000000;stroke-linecap:square;"/>
   </g>
   <g id="line2d_39">
    <path clip-path="url(#p6b7412ff86)" d="M 175.804167 148.471671 
L 175.804167 124.505679 
" style="fill:none;stroke:#000000;stroke-linecap:square;"/>
   </g>
   <g id="line2d_40">
    <path clip-path="url(#p6b7412ff86)" d="M 169.701458 218.961231 
L 181.906875 218.961231 
" style="fill:none;stroke:#000000;stroke-linecap:square;"/>
   </g>
   <g id="line2d_41">
    <path clip-path="url(#p6b7412ff86)" d="M 169.701458 124.505679 
L 181.906875 124.505679 
" style="fill:none;stroke:#000000;stroke-linecap:square;"/>
   </g>
   <g id="line2d_42"/>
   <g id="line2d_43">
    <path clip-path="url(#p6b7412ff86)" d="M 212.420417 182.447771 
L 236.83125 182.447771 
L 236.83125 129.938963 
L 212.420417 129.938963 
L 212.420417 182.447771 
" style="fill:none;stroke:#000000;stroke-linecap:square;"/>
   </g>
   <g id="line2d_44">
    <path clip-path="url(#p6b7412ff86)" d="M 224.625833 182.447771 
L 224.625833 220.798994 
" style="fill:none;stroke:#000000;stroke-linecap:square;"/>
   </g>
   <g id="line2d_45">
    <path clip-path="url(#p6b7412ff86)" d="M 224.625833 129.938963 
L 224.625833 74.519467 
" style="fill:none;stroke:#000000;stroke-linecap:square;"/>
   </g>
   <g id="line2d_46">
    <path clip-path="url(#p6b7412ff86)" d="M 218.523125 220.798994 
L 230.728542 220.798994 
" style="fill:none;stroke:#000000;stroke-linecap:square;"/>
   </g>
   <g id="line2d_47">
    <path clip-path="url(#p6b7412ff86)" d="M 218.523125 74.519467 
L 230.728542 74.519467 
" style="fill:none;stroke:#000000;stroke-linecap:square;"/>
   </g>
   <g id="line2d_48"/>
   <g id="line2d_49">
    <path clip-path="url(#p6b7412ff86)" d="M 261.242083 172.259663 
L 285.652917 172.259663 
L 285.652917 140.533867 
L 261.242083 140.533867 
L 261.242083 172.259663 
" style="fill:none;stroke:#000000;stroke-linecap:square;"/>
   </g>
   <g id="line2d_50">
    <path clip-path="url(#p6b7412ff86)" d="M 273.4475 172.259663 
L 273.4475 216.182209 
" style="fill:none;stroke:#000000;stroke-linecap:square;"/>
   </g>
   <g id="line2d_51">
    <path clip-path="url(#p6b7412ff86)" d="M 273.4475 140.533867 
L 273.4475 101.191952 
" style="fill:none;stroke:#000000;stroke-linecap:square;"/>
   </g>
   <g id="line2d_52">
    <path clip-path="url(#p6b7412ff86)" d="M 267.344792 216.182209 
L 279.550208 216.182209 
" style="fill:none;stroke:#000000;stroke-linecap:square;"/>
   </g>
   <g id="line2d_53">
    <path clip-path="url(#p6b7412ff86)" d="M 267.344792 101.191952 
L 279.550208 101.191952 
" style="fill:none;stroke:#000000;stroke-linecap:square;"/>
   </g>
   <g id="line2d_54">
    <defs>
     <path d="M 0 3 
C 0.795609 3 1.55874 2.683901 2.12132 2.12132 
C 2.683901 1.55874 3 0.795609 3 0 
C 3 -0.795609 2.683901 -1.55874 2.12132 -2.12132 
C 1.55874 -2.683901 0.795609 -3 0 -3 
C -0.795609 -3 -1.55874 -2.683901 -2.12132 -2.12132 
C -2.683901 -1.55874 -3 -0.795609 -3 0 
C -3 0.795609 -2.683901 1.55874 -2.12132 2.12132 
C -1.55874 2.683901 -0.795609 3 0 3 
z
" id="m6a4723c98c" style="stroke:#000000;"/>
    </defs>
    <g clip-path="url(#p6b7412ff86)">
     <use style="fill:none;stroke:#000000;" x="273.4475" xlink:href="#m6a4723c98c" y="84.605"/>
    </g>
   </g>
   <g id="line2d_55">
    <path clip-path="url(#p6b7412ff86)" d="M 310.06375 180.876 
L 334.474583 180.876 
L 334.474583 147.8688 
L 310.06375 147.8688 
L 310.06375 180.876 
" style="fill:none;stroke:#000000;stroke-linecap:square;"/>
   </g>
   <g id="line2d_56">
    <path clip-path="url(#p6b7412ff86)" d="M 322.269167 180.876 
L 322.269167 213.318974 
" style="fill:none;stroke:#000000;stroke-linecap:square;"/>
   </g>
   <g id="line2d_57">
    <path clip-path="url(#p6b7412ff86)" d="M 322.269167 147.8688 
L 322.269167 99.7333 
" style="fill:none;stroke:#000000;stroke-linecap:square;"/>
   </g>
   <g id="line2d_58">
    <path clip-path="url(#p6b7412ff86)" d="M 316.166458 213.318974 
L 328.371875 213.318974 
" style="fill:none;stroke:#000000;stroke-linecap:square;"/>
   </g>
   <g id="line2d_59">
    <path clip-path="url(#p6b7412ff86)" d="M 316.166458 99.7333 
L 328.371875 99.7333 
" style="fill:none;stroke:#000000;stroke-linecap:square;"/>
   </g>
   <g id="line2d_60">
    <g clip-path="url(#p6b7412ff86)">
     <use style="fill:none;stroke:#000000;" x="322.269167" xlink:href="#m6a4723c98c" y="84.605"/>
    </g>
   </g>
   <g id="line2d_61">
    <path clip-path="url(#p6b7412ff86)" d="M 65.955417 156.785778 
L 90.36625 156.785778 
" style="fill:none;stroke:#ff7f0e;stroke-linecap:square;"/>
   </g>
   <g id="line2d_62">
    <path clip-path="url(#p6b7412ff86)" d="M 78.160833 161.97214 
" style="fill:none;stroke:#2ca02c;stroke-dasharray:3.7,1.6;stroke-dashoffset:0;"/>
    <defs>
     <path d="M 0 -3 
L -3 3 
L 3 3 
z
" id="m3c92168f3e" style="stroke:#2ca02c;stroke-linejoin:miter;"/>
    </defs>
    <g clip-path="url(#p6b7412ff86)">
     <use style="fill:#2ca02c;stroke:#2ca02c;stroke-linejoin:miter;" x="78.160833" xlink:href="#m3c92168f3e" y="161.97214"/>
    </g>
   </g>
   <g id="line2d_63">
    <path clip-path="url(#p6b7412ff86)" d="M 114.777083 208.382 
L 139.187917 208.382 
" style="fill:none;stroke:#ff7f0e;stroke-linecap:square;"/>
   </g>
   <g id="line2d_64">
    <path clip-path="url(#p6b7412ff86)" d="M 126.9825 204.865293 
" style="fill:none;stroke:#2ca02c;stroke-dasharray:3.7,1.6;stroke-dashoffset:0;"/>
    <g clip-path="url(#p6b7412ff86)">
     <use style="fill:#2ca02c;stroke:#2ca02c;stroke-linejoin:miter;" x="126.9825" xlink:href="#m3c92168f3e" y="204.865293"/>
    </g>
   </g>
   <g id="line2d_65">
    <path clip-path="url(#p6b7412ff86)" d="M 163.59875 183.833634 
L 188.009583 183.833634 
" style="fill:none;stroke:#ff7f0e;stroke-linecap:square;"/>
   </g>
   <g id="line2d_66">
    <path clip-path="url(#p6b7412ff86)" d="M 175.804167 175.742103 
" style="fill:none;stroke:#2ca02c;stroke-dasharray:3.7,1.6;stroke-dashoffset:0;"/>
    <g clip-path="url(#p6b7412ff86)">
     <use style="fill:#2ca02c;stroke:#2ca02c;stroke-linejoin:miter;" x="175.804167" xlink:href="#m3c92168f3e" y="175.742103"/>
    </g>
   </g>
   <g id="line2d_67">
    <path clip-path="url(#p6b7412ff86)" d="M 212.420417 158.637106 
L 236.83125 158.637106 
" style="fill:none;stroke:#ff7f0e;stroke-linecap:square;"/>
   </g>
   <g id="line2d_68">
    <path clip-path="url(#p6b7412ff86)" d="M 224.625833 155.21099 
" style="fill:none;stroke:#2ca02c;stroke-dasharray:3.7,1.6;stroke-dashoffset:0;"/>
    <g clip-path="url(#p6b7412ff86)">
     <use style="fill:#2ca02c;stroke:#2ca02c;stroke-linejoin:miter;" x="224.625833" xlink:href="#m3c92168f3e" y="155.21099"/>
    </g>
   </g>
   <g id="line2d_69">
    <path clip-path="url(#p6b7412ff86)" d="M 261.242083 152.421517 
L 285.652917 152.421517 
" style="fill:none;stroke:#ff7f0e;stroke-linecap:square;"/>
   </g>
   <g id="line2d_70">
    <path clip-path="url(#p6b7412ff86)" d="M 273.4475 154.849023 
" style="fill:none;stroke:#2ca02c;stroke-dasharray:3.7,1.6;stroke-dashoffset:0;"/>
    <g clip-path="url(#p6b7412ff86)">
     <use style="fill:#2ca02c;stroke:#2ca02c;stroke-linejoin:miter;" x="273.4475" xlink:href="#m3c92168f3e" y="154.849023"/>
    </g>
   </g>
   <g id="line2d_71">
    <path clip-path="url(#p6b7412ff86)" d="M 310.06375 160.608421 
L 334.474583 160.608421 
" style="fill:none;stroke:#ff7f0e;stroke-linecap:square;"/>
   </g>
   <g id="line2d_72">
    <path clip-path="url(#p6b7412ff86)" d="M 322.269167 157.463738 
" style="fill:none;stroke:#2ca02c;stroke-dasharray:3.7,1.6;stroke-dashoffset:0;"/>
    <g clip-path="url(#p6b7412ff86)">
     <use style="fill:#2ca02c;stroke:#2ca02c;stroke-linejoin:miter;" x="322.269167" xlink:href="#m3c92168f3e" y="157.463738"/>
    </g>
   </g>
   <g id="patch_3">
    <path d="M 53.75 235.888 
L 53.75 15.84 
" style="fill:none;stroke:#000000;stroke-linecap:square;stroke-linejoin:miter;stroke-width:0.8;"/>
   </g>
   <g id="patch_4">
    <path d="M 346.68 235.888 
L 346.68 15.84 
" style="fill:none;stroke:#000000;stroke-linecap:square;stroke-linejoin:miter;stroke-width:0.8;"/>
   </g>
   <g id="patch_5">
    <path d="M 53.75 235.888 
L 346.68 235.888 
" style="fill:none;stroke:#000000;stroke-linecap:square;stroke-linejoin:miter;stroke-width:0.8;"/>
   </g>
   <g id="patch_6">
    <path d="M 53.75 15.84 
L 346.68 15.84 
" style="fill:none;stroke:#000000;stroke-linecap:square;stroke-linejoin:miter;stroke-width:0.8;"/>
   </g>
  </g>
 </g>
 <defs>
  <clipPath id="p6b7412ff86">
   <rect height="220.048" width="292.93" x="53.75" y="15.84"/>
  </clipPath>
 </defs>
</svg>
